G04 #@! TF.FileFunction,Legend,Top*
%FSLAX46Y46*%
G04 Gerber Fmt 4.6, Leading zero omitted, Abs format (unit mm)*
G04 Created by KiCad (PCBNEW 4.0.7) date 11/29/17 05:29:15*
%MOMM*%
%LPD*%
G01*
G04 APERTURE LIST*
%ADD10C,0.100000*%
%ADD11C,0.200000*%
%ADD12C,0.127000*%
%ADD13C,0.120000*%
%ADD14C,0.150000*%
G04 APERTURE END LIST*
D10*
D11*
X196850000Y-51435000D02*
X148590000Y-51435000D01*
X196850000Y-151130000D02*
X196850000Y-51435000D01*
X148590000Y-151130000D02*
X196850000Y-151130000D01*
X148590000Y-51435000D02*
X148590000Y-151130000D01*
X147320000Y-51435000D02*
X99060000Y-51435000D01*
X147320000Y-151130000D02*
X147320000Y-51435000D01*
X99060000Y-151130000D02*
X147320000Y-151130000D01*
X99060000Y-51435000D02*
X99060000Y-151130000D01*
D12*
X167367857Y-134287381D02*
X168637857Y-134287381D01*
X167428333Y-134287381D02*
X167367857Y-134166429D01*
X167367857Y-133924524D01*
X167428333Y-133803572D01*
X167488810Y-133743095D01*
X167609762Y-133682619D01*
X167972619Y-133682619D01*
X168093571Y-133743095D01*
X168154048Y-133803572D01*
X168214524Y-133924524D01*
X168214524Y-134166429D01*
X168154048Y-134287381D01*
X168214524Y-133138333D02*
X167367857Y-133138333D01*
X167609762Y-133138333D02*
X167488810Y-133077857D01*
X167428333Y-133017381D01*
X167367857Y-132896428D01*
X167367857Y-132775476D01*
X168214524Y-132170714D02*
X168154048Y-132291667D01*
X168093571Y-132352143D01*
X167972619Y-132412619D01*
X167609762Y-132412619D01*
X167488810Y-132352143D01*
X167428333Y-132291667D01*
X167367857Y-132170714D01*
X167367857Y-131989286D01*
X167428333Y-131868334D01*
X167488810Y-131807857D01*
X167609762Y-131747381D01*
X167972619Y-131747381D01*
X168093571Y-131807857D01*
X168154048Y-131868334D01*
X168214524Y-131989286D01*
X168214524Y-132170714D01*
X167367857Y-131384524D02*
X167367857Y-130900714D01*
X166944524Y-131203095D02*
X168033095Y-131203095D01*
X168154048Y-131142619D01*
X168214524Y-131021666D01*
X168214524Y-130900714D01*
X168214524Y-130295952D02*
X168154048Y-130416905D01*
X168093571Y-130477381D01*
X167972619Y-130537857D01*
X167609762Y-130537857D01*
X167488810Y-130477381D01*
X167428333Y-130416905D01*
X167367857Y-130295952D01*
X167367857Y-130114524D01*
X167428333Y-129993572D01*
X167488810Y-129933095D01*
X167609762Y-129872619D01*
X167972619Y-129872619D01*
X168093571Y-129933095D01*
X168154048Y-129993572D01*
X168214524Y-130114524D01*
X168214524Y-130295952D01*
X168214524Y-127816428D02*
X167549286Y-127816428D01*
X167428333Y-127876905D01*
X167367857Y-127997857D01*
X167367857Y-128239762D01*
X167428333Y-128360714D01*
X168154048Y-127816428D02*
X168214524Y-127937381D01*
X168214524Y-128239762D01*
X168154048Y-128360714D01*
X168033095Y-128421190D01*
X167912143Y-128421190D01*
X167791190Y-128360714D01*
X167730714Y-128239762D01*
X167730714Y-127937381D01*
X167670238Y-127816428D01*
X168214524Y-127211666D02*
X167367857Y-127211666D01*
X167609762Y-127211666D02*
X167488810Y-127151190D01*
X167428333Y-127090714D01*
X167367857Y-126969761D01*
X167367857Y-126848809D01*
X168154048Y-125941667D02*
X168214524Y-126062619D01*
X168214524Y-126304524D01*
X168154048Y-126425476D01*
X168033095Y-126485952D01*
X167549286Y-126485952D01*
X167428333Y-126425476D01*
X167367857Y-126304524D01*
X167367857Y-126062619D01*
X167428333Y-125941667D01*
X167549286Y-125881190D01*
X167670238Y-125881190D01*
X167791190Y-126485952D01*
X168214524Y-124792619D02*
X167549286Y-124792619D01*
X167428333Y-124853096D01*
X167367857Y-124974048D01*
X167367857Y-125215953D01*
X167428333Y-125336905D01*
X168154048Y-124792619D02*
X168214524Y-124913572D01*
X168214524Y-125215953D01*
X168154048Y-125336905D01*
X168033095Y-125397381D01*
X167912143Y-125397381D01*
X167791190Y-125336905D01*
X167730714Y-125215953D01*
X167730714Y-124913572D01*
X167670238Y-124792619D01*
D13*
X134529723Y-64805722D02*
G75*
G03X134530000Y-60194420I-1179723J2305722D01*
G01*
X132170277Y-64805722D02*
G75*
G02X132170000Y-60194420I1179723J2305722D01*
G01*
X132170277Y-64805722D02*
G75*
G03X134530000Y-64805580I1179723J2305722D01*
G01*
X135900000Y-62500000D02*
X130800000Y-62500000D01*
X135900000Y-62540000D02*
X134330000Y-62540000D01*
X132370000Y-62540000D02*
X130800000Y-62540000D01*
X135899000Y-62580000D02*
X134330000Y-62580000D01*
X132370000Y-62580000D02*
X130801000Y-62580000D01*
X135898000Y-62620000D02*
X134330000Y-62620000D01*
X132370000Y-62620000D02*
X130802000Y-62620000D01*
X135896000Y-62660000D02*
X134330000Y-62660000D01*
X132370000Y-62660000D02*
X130804000Y-62660000D01*
X135893000Y-62700000D02*
X134330000Y-62700000D01*
X132370000Y-62700000D02*
X130807000Y-62700000D01*
X135889000Y-62740000D02*
X134330000Y-62740000D01*
X132370000Y-62740000D02*
X130811000Y-62740000D01*
X135885000Y-62780000D02*
X134330000Y-62780000D01*
X132370000Y-62780000D02*
X130815000Y-62780000D01*
X135881000Y-62820000D02*
X134330000Y-62820000D01*
X132370000Y-62820000D02*
X130819000Y-62820000D01*
X135875000Y-62860000D02*
X134330000Y-62860000D01*
X132370000Y-62860000D02*
X130825000Y-62860000D01*
X135869000Y-62900000D02*
X134330000Y-62900000D01*
X132370000Y-62900000D02*
X130831000Y-62900000D01*
X135863000Y-62940000D02*
X134330000Y-62940000D01*
X132370000Y-62940000D02*
X130837000Y-62940000D01*
X135856000Y-62980000D02*
X134330000Y-62980000D01*
X132370000Y-62980000D02*
X130844000Y-62980000D01*
X135848000Y-63020000D02*
X134330000Y-63020000D01*
X132370000Y-63020000D02*
X130852000Y-63020000D01*
X135839000Y-63060000D02*
X134330000Y-63060000D01*
X132370000Y-63060000D02*
X130861000Y-63060000D01*
X135830000Y-63100000D02*
X134330000Y-63100000D01*
X132370000Y-63100000D02*
X130870000Y-63100000D01*
X135820000Y-63140000D02*
X134330000Y-63140000D01*
X132370000Y-63140000D02*
X130880000Y-63140000D01*
X135810000Y-63180000D02*
X134330000Y-63180000D01*
X132370000Y-63180000D02*
X130890000Y-63180000D01*
X135798000Y-63221000D02*
X134330000Y-63221000D01*
X132370000Y-63221000D02*
X130902000Y-63221000D01*
X135786000Y-63261000D02*
X134330000Y-63261000D01*
X132370000Y-63261000D02*
X130914000Y-63261000D01*
X135774000Y-63301000D02*
X134330000Y-63301000D01*
X132370000Y-63301000D02*
X130926000Y-63301000D01*
X135760000Y-63341000D02*
X134330000Y-63341000D01*
X132370000Y-63341000D02*
X130940000Y-63341000D01*
X135746000Y-63381000D02*
X134330000Y-63381000D01*
X132370000Y-63381000D02*
X130954000Y-63381000D01*
X135732000Y-63421000D02*
X134330000Y-63421000D01*
X132370000Y-63421000D02*
X130968000Y-63421000D01*
X135716000Y-63461000D02*
X134330000Y-63461000D01*
X132370000Y-63461000D02*
X130984000Y-63461000D01*
X135700000Y-63501000D02*
X134330000Y-63501000D01*
X132370000Y-63501000D02*
X131000000Y-63501000D01*
X135683000Y-63541000D02*
X134330000Y-63541000D01*
X132370000Y-63541000D02*
X131017000Y-63541000D01*
X135665000Y-63581000D02*
X134330000Y-63581000D01*
X132370000Y-63581000D02*
X131035000Y-63581000D01*
X135646000Y-63621000D02*
X134330000Y-63621000D01*
X132370000Y-63621000D02*
X131054000Y-63621000D01*
X135626000Y-63661000D02*
X134330000Y-63661000D01*
X132370000Y-63661000D02*
X131074000Y-63661000D01*
X135606000Y-63701000D02*
X134330000Y-63701000D01*
X132370000Y-63701000D02*
X131094000Y-63701000D01*
X135584000Y-63741000D02*
X134330000Y-63741000D01*
X132370000Y-63741000D02*
X131116000Y-63741000D01*
X135562000Y-63781000D02*
X134330000Y-63781000D01*
X132370000Y-63781000D02*
X131138000Y-63781000D01*
X135539000Y-63821000D02*
X134330000Y-63821000D01*
X132370000Y-63821000D02*
X131161000Y-63821000D01*
X135515000Y-63861000D02*
X134330000Y-63861000D01*
X132370000Y-63861000D02*
X131185000Y-63861000D01*
X135490000Y-63901000D02*
X134330000Y-63901000D01*
X132370000Y-63901000D02*
X131210000Y-63901000D01*
X135463000Y-63941000D02*
X134330000Y-63941000D01*
X132370000Y-63941000D02*
X131237000Y-63941000D01*
X135436000Y-63981000D02*
X134330000Y-63981000D01*
X132370000Y-63981000D02*
X131264000Y-63981000D01*
X135408000Y-64021000D02*
X134330000Y-64021000D01*
X132370000Y-64021000D02*
X131292000Y-64021000D01*
X135378000Y-64061000D02*
X134330000Y-64061000D01*
X132370000Y-64061000D02*
X131322000Y-64061000D01*
X135347000Y-64101000D02*
X134330000Y-64101000D01*
X132370000Y-64101000D02*
X131353000Y-64101000D01*
X135315000Y-64141000D02*
X134330000Y-64141000D01*
X132370000Y-64141000D02*
X131385000Y-64141000D01*
X135282000Y-64181000D02*
X134330000Y-64181000D01*
X132370000Y-64181000D02*
X131418000Y-64181000D01*
X135247000Y-64221000D02*
X134330000Y-64221000D01*
X132370000Y-64221000D02*
X131453000Y-64221000D01*
X135211000Y-64261000D02*
X134330000Y-64261000D01*
X132370000Y-64261000D02*
X131489000Y-64261000D01*
X135173000Y-64301000D02*
X134330000Y-64301000D01*
X132370000Y-64301000D02*
X131527000Y-64301000D01*
X135133000Y-64341000D02*
X134330000Y-64341000D01*
X132370000Y-64341000D02*
X131567000Y-64341000D01*
X135092000Y-64381000D02*
X134330000Y-64381000D01*
X132370000Y-64381000D02*
X131608000Y-64381000D01*
X135049000Y-64421000D02*
X134330000Y-64421000D01*
X132370000Y-64421000D02*
X131651000Y-64421000D01*
X135004000Y-64461000D02*
X134330000Y-64461000D01*
X132370000Y-64461000D02*
X131696000Y-64461000D01*
X134956000Y-64501000D02*
X131744000Y-64501000D01*
X134906000Y-64541000D02*
X131794000Y-64541000D01*
X134854000Y-64581000D02*
X131846000Y-64581000D01*
X134798000Y-64621000D02*
X131902000Y-64621000D01*
X134740000Y-64661000D02*
X131960000Y-64661000D01*
X134677000Y-64701000D02*
X132023000Y-64701000D01*
X134611000Y-64741000D02*
X132089000Y-64741000D01*
X134539000Y-64781000D02*
X132161000Y-64781000D01*
X134462000Y-64821000D02*
X132238000Y-64821000D01*
X134378000Y-64861000D02*
X132322000Y-64861000D01*
X134284000Y-64901000D02*
X132416000Y-64901000D01*
X134179000Y-64941000D02*
X132521000Y-64941000D01*
X134057000Y-64981000D02*
X132643000Y-64981000D01*
X133909000Y-65021000D02*
X132791000Y-65021000D01*
X133704000Y-65061000D02*
X132996000Y-65061000D01*
X133350000Y-59300000D02*
X133350000Y-60500000D01*
X134000000Y-59900000D02*
X132700000Y-59900000D01*
X144689723Y-66075722D02*
G75*
G03X144690000Y-61464420I-1179723J2305722D01*
G01*
X142330277Y-66075722D02*
G75*
G02X142330000Y-61464420I1179723J2305722D01*
G01*
X142330277Y-66075722D02*
G75*
G03X144690000Y-66075580I1179723J2305722D01*
G01*
X146060000Y-63770000D02*
X140960000Y-63770000D01*
X146060000Y-63810000D02*
X144490000Y-63810000D01*
X142530000Y-63810000D02*
X140960000Y-63810000D01*
X146059000Y-63850000D02*
X144490000Y-63850000D01*
X142530000Y-63850000D02*
X140961000Y-63850000D01*
X146058000Y-63890000D02*
X144490000Y-63890000D01*
X142530000Y-63890000D02*
X140962000Y-63890000D01*
X146056000Y-63930000D02*
X144490000Y-63930000D01*
X142530000Y-63930000D02*
X140964000Y-63930000D01*
X146053000Y-63970000D02*
X144490000Y-63970000D01*
X142530000Y-63970000D02*
X140967000Y-63970000D01*
X146049000Y-64010000D02*
X144490000Y-64010000D01*
X142530000Y-64010000D02*
X140971000Y-64010000D01*
X146045000Y-64050000D02*
X144490000Y-64050000D01*
X142530000Y-64050000D02*
X140975000Y-64050000D01*
X146041000Y-64090000D02*
X144490000Y-64090000D01*
X142530000Y-64090000D02*
X140979000Y-64090000D01*
X146035000Y-64130000D02*
X144490000Y-64130000D01*
X142530000Y-64130000D02*
X140985000Y-64130000D01*
X146029000Y-64170000D02*
X144490000Y-64170000D01*
X142530000Y-64170000D02*
X140991000Y-64170000D01*
X146023000Y-64210000D02*
X144490000Y-64210000D01*
X142530000Y-64210000D02*
X140997000Y-64210000D01*
X146016000Y-64250000D02*
X144490000Y-64250000D01*
X142530000Y-64250000D02*
X141004000Y-64250000D01*
X146008000Y-64290000D02*
X144490000Y-64290000D01*
X142530000Y-64290000D02*
X141012000Y-64290000D01*
X145999000Y-64330000D02*
X144490000Y-64330000D01*
X142530000Y-64330000D02*
X141021000Y-64330000D01*
X145990000Y-64370000D02*
X144490000Y-64370000D01*
X142530000Y-64370000D02*
X141030000Y-64370000D01*
X145980000Y-64410000D02*
X144490000Y-64410000D01*
X142530000Y-64410000D02*
X141040000Y-64410000D01*
X145970000Y-64450000D02*
X144490000Y-64450000D01*
X142530000Y-64450000D02*
X141050000Y-64450000D01*
X145958000Y-64491000D02*
X144490000Y-64491000D01*
X142530000Y-64491000D02*
X141062000Y-64491000D01*
X145946000Y-64531000D02*
X144490000Y-64531000D01*
X142530000Y-64531000D02*
X141074000Y-64531000D01*
X145934000Y-64571000D02*
X144490000Y-64571000D01*
X142530000Y-64571000D02*
X141086000Y-64571000D01*
X145920000Y-64611000D02*
X144490000Y-64611000D01*
X142530000Y-64611000D02*
X141100000Y-64611000D01*
X145906000Y-64651000D02*
X144490000Y-64651000D01*
X142530000Y-64651000D02*
X141114000Y-64651000D01*
X145892000Y-64691000D02*
X144490000Y-64691000D01*
X142530000Y-64691000D02*
X141128000Y-64691000D01*
X145876000Y-64731000D02*
X144490000Y-64731000D01*
X142530000Y-64731000D02*
X141144000Y-64731000D01*
X145860000Y-64771000D02*
X144490000Y-64771000D01*
X142530000Y-64771000D02*
X141160000Y-64771000D01*
X145843000Y-64811000D02*
X144490000Y-64811000D01*
X142530000Y-64811000D02*
X141177000Y-64811000D01*
X145825000Y-64851000D02*
X144490000Y-64851000D01*
X142530000Y-64851000D02*
X141195000Y-64851000D01*
X145806000Y-64891000D02*
X144490000Y-64891000D01*
X142530000Y-64891000D02*
X141214000Y-64891000D01*
X145786000Y-64931000D02*
X144490000Y-64931000D01*
X142530000Y-64931000D02*
X141234000Y-64931000D01*
X145766000Y-64971000D02*
X144490000Y-64971000D01*
X142530000Y-64971000D02*
X141254000Y-64971000D01*
X145744000Y-65011000D02*
X144490000Y-65011000D01*
X142530000Y-65011000D02*
X141276000Y-65011000D01*
X145722000Y-65051000D02*
X144490000Y-65051000D01*
X142530000Y-65051000D02*
X141298000Y-65051000D01*
X145699000Y-65091000D02*
X144490000Y-65091000D01*
X142530000Y-65091000D02*
X141321000Y-65091000D01*
X145675000Y-65131000D02*
X144490000Y-65131000D01*
X142530000Y-65131000D02*
X141345000Y-65131000D01*
X145650000Y-65171000D02*
X144490000Y-65171000D01*
X142530000Y-65171000D02*
X141370000Y-65171000D01*
X145623000Y-65211000D02*
X144490000Y-65211000D01*
X142530000Y-65211000D02*
X141397000Y-65211000D01*
X145596000Y-65251000D02*
X144490000Y-65251000D01*
X142530000Y-65251000D02*
X141424000Y-65251000D01*
X145568000Y-65291000D02*
X144490000Y-65291000D01*
X142530000Y-65291000D02*
X141452000Y-65291000D01*
X145538000Y-65331000D02*
X144490000Y-65331000D01*
X142530000Y-65331000D02*
X141482000Y-65331000D01*
X145507000Y-65371000D02*
X144490000Y-65371000D01*
X142530000Y-65371000D02*
X141513000Y-65371000D01*
X145475000Y-65411000D02*
X144490000Y-65411000D01*
X142530000Y-65411000D02*
X141545000Y-65411000D01*
X145442000Y-65451000D02*
X144490000Y-65451000D01*
X142530000Y-65451000D02*
X141578000Y-65451000D01*
X145407000Y-65491000D02*
X144490000Y-65491000D01*
X142530000Y-65491000D02*
X141613000Y-65491000D01*
X145371000Y-65531000D02*
X144490000Y-65531000D01*
X142530000Y-65531000D02*
X141649000Y-65531000D01*
X145333000Y-65571000D02*
X144490000Y-65571000D01*
X142530000Y-65571000D02*
X141687000Y-65571000D01*
X145293000Y-65611000D02*
X144490000Y-65611000D01*
X142530000Y-65611000D02*
X141727000Y-65611000D01*
X145252000Y-65651000D02*
X144490000Y-65651000D01*
X142530000Y-65651000D02*
X141768000Y-65651000D01*
X145209000Y-65691000D02*
X144490000Y-65691000D01*
X142530000Y-65691000D02*
X141811000Y-65691000D01*
X145164000Y-65731000D02*
X144490000Y-65731000D01*
X142530000Y-65731000D02*
X141856000Y-65731000D01*
X145116000Y-65771000D02*
X141904000Y-65771000D01*
X145066000Y-65811000D02*
X141954000Y-65811000D01*
X145014000Y-65851000D02*
X142006000Y-65851000D01*
X144958000Y-65891000D02*
X142062000Y-65891000D01*
X144900000Y-65931000D02*
X142120000Y-65931000D01*
X144837000Y-65971000D02*
X142183000Y-65971000D01*
X144771000Y-66011000D02*
X142249000Y-66011000D01*
X144699000Y-66051000D02*
X142321000Y-66051000D01*
X144622000Y-66091000D02*
X142398000Y-66091000D01*
X144538000Y-66131000D02*
X142482000Y-66131000D01*
X144444000Y-66171000D02*
X142576000Y-66171000D01*
X144339000Y-66211000D02*
X142681000Y-66211000D01*
X144217000Y-66251000D02*
X142803000Y-66251000D01*
X144069000Y-66291000D02*
X142951000Y-66291000D01*
X143864000Y-66331000D02*
X143156000Y-66331000D01*
X143510000Y-60570000D02*
X143510000Y-61770000D01*
X144160000Y-61170000D02*
X142860000Y-61170000D01*
X137120000Y-64810000D02*
X137120000Y-59690000D01*
X139740000Y-64810000D02*
X139740000Y-59690000D01*
X137120000Y-64810000D02*
X139740000Y-64810000D01*
X137120000Y-59690000D02*
X139740000Y-59690000D01*
X143470000Y-59690000D02*
X143470000Y-54570000D01*
X146090000Y-59690000D02*
X146090000Y-54570000D01*
X143470000Y-59690000D02*
X146090000Y-59690000D01*
X143470000Y-54570000D02*
X146090000Y-54570000D01*
X104049723Y-58455722D02*
G75*
G03X104050000Y-53844420I-1179723J2305722D01*
G01*
X101690277Y-58455722D02*
G75*
G02X101690000Y-53844420I1179723J2305722D01*
G01*
X101690277Y-58455722D02*
G75*
G03X104050000Y-58455580I1179723J2305722D01*
G01*
X105420000Y-56150000D02*
X100320000Y-56150000D01*
X105420000Y-56190000D02*
X103850000Y-56190000D01*
X101890000Y-56190000D02*
X100320000Y-56190000D01*
X105419000Y-56230000D02*
X103850000Y-56230000D01*
X101890000Y-56230000D02*
X100321000Y-56230000D01*
X105418000Y-56270000D02*
X103850000Y-56270000D01*
X101890000Y-56270000D02*
X100322000Y-56270000D01*
X105416000Y-56310000D02*
X103850000Y-56310000D01*
X101890000Y-56310000D02*
X100324000Y-56310000D01*
X105413000Y-56350000D02*
X103850000Y-56350000D01*
X101890000Y-56350000D02*
X100327000Y-56350000D01*
X105409000Y-56390000D02*
X103850000Y-56390000D01*
X101890000Y-56390000D02*
X100331000Y-56390000D01*
X105405000Y-56430000D02*
X103850000Y-56430000D01*
X101890000Y-56430000D02*
X100335000Y-56430000D01*
X105401000Y-56470000D02*
X103850000Y-56470000D01*
X101890000Y-56470000D02*
X100339000Y-56470000D01*
X105395000Y-56510000D02*
X103850000Y-56510000D01*
X101890000Y-56510000D02*
X100345000Y-56510000D01*
X105389000Y-56550000D02*
X103850000Y-56550000D01*
X101890000Y-56550000D02*
X100351000Y-56550000D01*
X105383000Y-56590000D02*
X103850000Y-56590000D01*
X101890000Y-56590000D02*
X100357000Y-56590000D01*
X105376000Y-56630000D02*
X103850000Y-56630000D01*
X101890000Y-56630000D02*
X100364000Y-56630000D01*
X105368000Y-56670000D02*
X103850000Y-56670000D01*
X101890000Y-56670000D02*
X100372000Y-56670000D01*
X105359000Y-56710000D02*
X103850000Y-56710000D01*
X101890000Y-56710000D02*
X100381000Y-56710000D01*
X105350000Y-56750000D02*
X103850000Y-56750000D01*
X101890000Y-56750000D02*
X100390000Y-56750000D01*
X105340000Y-56790000D02*
X103850000Y-56790000D01*
X101890000Y-56790000D02*
X100400000Y-56790000D01*
X105330000Y-56830000D02*
X103850000Y-56830000D01*
X101890000Y-56830000D02*
X100410000Y-56830000D01*
X105318000Y-56871000D02*
X103850000Y-56871000D01*
X101890000Y-56871000D02*
X100422000Y-56871000D01*
X105306000Y-56911000D02*
X103850000Y-56911000D01*
X101890000Y-56911000D02*
X100434000Y-56911000D01*
X105294000Y-56951000D02*
X103850000Y-56951000D01*
X101890000Y-56951000D02*
X100446000Y-56951000D01*
X105280000Y-56991000D02*
X103850000Y-56991000D01*
X101890000Y-56991000D02*
X100460000Y-56991000D01*
X105266000Y-57031000D02*
X103850000Y-57031000D01*
X101890000Y-57031000D02*
X100474000Y-57031000D01*
X105252000Y-57071000D02*
X103850000Y-57071000D01*
X101890000Y-57071000D02*
X100488000Y-57071000D01*
X105236000Y-57111000D02*
X103850000Y-57111000D01*
X101890000Y-57111000D02*
X100504000Y-57111000D01*
X105220000Y-57151000D02*
X103850000Y-57151000D01*
X101890000Y-57151000D02*
X100520000Y-57151000D01*
X105203000Y-57191000D02*
X103850000Y-57191000D01*
X101890000Y-57191000D02*
X100537000Y-57191000D01*
X105185000Y-57231000D02*
X103850000Y-57231000D01*
X101890000Y-57231000D02*
X100555000Y-57231000D01*
X105166000Y-57271000D02*
X103850000Y-57271000D01*
X101890000Y-57271000D02*
X100574000Y-57271000D01*
X105146000Y-57311000D02*
X103850000Y-57311000D01*
X101890000Y-57311000D02*
X100594000Y-57311000D01*
X105126000Y-57351000D02*
X103850000Y-57351000D01*
X101890000Y-57351000D02*
X100614000Y-57351000D01*
X105104000Y-57391000D02*
X103850000Y-57391000D01*
X101890000Y-57391000D02*
X100636000Y-57391000D01*
X105082000Y-57431000D02*
X103850000Y-57431000D01*
X101890000Y-57431000D02*
X100658000Y-57431000D01*
X105059000Y-57471000D02*
X103850000Y-57471000D01*
X101890000Y-57471000D02*
X100681000Y-57471000D01*
X105035000Y-57511000D02*
X103850000Y-57511000D01*
X101890000Y-57511000D02*
X100705000Y-57511000D01*
X105010000Y-57551000D02*
X103850000Y-57551000D01*
X101890000Y-57551000D02*
X100730000Y-57551000D01*
X104983000Y-57591000D02*
X103850000Y-57591000D01*
X101890000Y-57591000D02*
X100757000Y-57591000D01*
X104956000Y-57631000D02*
X103850000Y-57631000D01*
X101890000Y-57631000D02*
X100784000Y-57631000D01*
X104928000Y-57671000D02*
X103850000Y-57671000D01*
X101890000Y-57671000D02*
X100812000Y-57671000D01*
X104898000Y-57711000D02*
X103850000Y-57711000D01*
X101890000Y-57711000D02*
X100842000Y-57711000D01*
X104867000Y-57751000D02*
X103850000Y-57751000D01*
X101890000Y-57751000D02*
X100873000Y-57751000D01*
X104835000Y-57791000D02*
X103850000Y-57791000D01*
X101890000Y-57791000D02*
X100905000Y-57791000D01*
X104802000Y-57831000D02*
X103850000Y-57831000D01*
X101890000Y-57831000D02*
X100938000Y-57831000D01*
X104767000Y-57871000D02*
X103850000Y-57871000D01*
X101890000Y-57871000D02*
X100973000Y-57871000D01*
X104731000Y-57911000D02*
X103850000Y-57911000D01*
X101890000Y-57911000D02*
X101009000Y-57911000D01*
X104693000Y-57951000D02*
X103850000Y-57951000D01*
X101890000Y-57951000D02*
X101047000Y-57951000D01*
X104653000Y-57991000D02*
X103850000Y-57991000D01*
X101890000Y-57991000D02*
X101087000Y-57991000D01*
X104612000Y-58031000D02*
X103850000Y-58031000D01*
X101890000Y-58031000D02*
X101128000Y-58031000D01*
X104569000Y-58071000D02*
X103850000Y-58071000D01*
X101890000Y-58071000D02*
X101171000Y-58071000D01*
X104524000Y-58111000D02*
X103850000Y-58111000D01*
X101890000Y-58111000D02*
X101216000Y-58111000D01*
X104476000Y-58151000D02*
X101264000Y-58151000D01*
X104426000Y-58191000D02*
X101314000Y-58191000D01*
X104374000Y-58231000D02*
X101366000Y-58231000D01*
X104318000Y-58271000D02*
X101422000Y-58271000D01*
X104260000Y-58311000D02*
X101480000Y-58311000D01*
X104197000Y-58351000D02*
X101543000Y-58351000D01*
X104131000Y-58391000D02*
X101609000Y-58391000D01*
X104059000Y-58431000D02*
X101681000Y-58431000D01*
X103982000Y-58471000D02*
X101758000Y-58471000D01*
X103898000Y-58511000D02*
X101842000Y-58511000D01*
X103804000Y-58551000D02*
X101936000Y-58551000D01*
X103699000Y-58591000D02*
X102041000Y-58591000D01*
X103577000Y-58631000D02*
X102163000Y-58631000D01*
X103429000Y-58671000D02*
X102311000Y-58671000D01*
X103224000Y-58711000D02*
X102516000Y-58711000D01*
X102870000Y-52950000D02*
X102870000Y-54150000D01*
X103520000Y-53550000D02*
X102220000Y-53550000D01*
X106640000Y-58460000D02*
X106640000Y-53340000D01*
X109260000Y-58460000D02*
X109260000Y-53340000D01*
X106640000Y-58460000D02*
X109260000Y-58460000D01*
X106640000Y-53340000D02*
X109260000Y-53340000D01*
X123099723Y-73695722D02*
G75*
G03X123100000Y-69084420I-1179723J2305722D01*
G01*
X120740277Y-73695722D02*
G75*
G02X120740000Y-69084420I1179723J2305722D01*
G01*
X120740277Y-73695722D02*
G75*
G03X123100000Y-73695580I1179723J2305722D01*
G01*
X124470000Y-71390000D02*
X119370000Y-71390000D01*
X124470000Y-71430000D02*
X122900000Y-71430000D01*
X120940000Y-71430000D02*
X119370000Y-71430000D01*
X124469000Y-71470000D02*
X122900000Y-71470000D01*
X120940000Y-71470000D02*
X119371000Y-71470000D01*
X124468000Y-71510000D02*
X122900000Y-71510000D01*
X120940000Y-71510000D02*
X119372000Y-71510000D01*
X124466000Y-71550000D02*
X122900000Y-71550000D01*
X120940000Y-71550000D02*
X119374000Y-71550000D01*
X124463000Y-71590000D02*
X122900000Y-71590000D01*
X120940000Y-71590000D02*
X119377000Y-71590000D01*
X124459000Y-71630000D02*
X122900000Y-71630000D01*
X120940000Y-71630000D02*
X119381000Y-71630000D01*
X124455000Y-71670000D02*
X122900000Y-71670000D01*
X120940000Y-71670000D02*
X119385000Y-71670000D01*
X124451000Y-71710000D02*
X122900000Y-71710000D01*
X120940000Y-71710000D02*
X119389000Y-71710000D01*
X124445000Y-71750000D02*
X122900000Y-71750000D01*
X120940000Y-71750000D02*
X119395000Y-71750000D01*
X124439000Y-71790000D02*
X122900000Y-71790000D01*
X120940000Y-71790000D02*
X119401000Y-71790000D01*
X124433000Y-71830000D02*
X122900000Y-71830000D01*
X120940000Y-71830000D02*
X119407000Y-71830000D01*
X124426000Y-71870000D02*
X122900000Y-71870000D01*
X120940000Y-71870000D02*
X119414000Y-71870000D01*
X124418000Y-71910000D02*
X122900000Y-71910000D01*
X120940000Y-71910000D02*
X119422000Y-71910000D01*
X124409000Y-71950000D02*
X122900000Y-71950000D01*
X120940000Y-71950000D02*
X119431000Y-71950000D01*
X124400000Y-71990000D02*
X122900000Y-71990000D01*
X120940000Y-71990000D02*
X119440000Y-71990000D01*
X124390000Y-72030000D02*
X122900000Y-72030000D01*
X120940000Y-72030000D02*
X119450000Y-72030000D01*
X124380000Y-72070000D02*
X122900000Y-72070000D01*
X120940000Y-72070000D02*
X119460000Y-72070000D01*
X124368000Y-72111000D02*
X122900000Y-72111000D01*
X120940000Y-72111000D02*
X119472000Y-72111000D01*
X124356000Y-72151000D02*
X122900000Y-72151000D01*
X120940000Y-72151000D02*
X119484000Y-72151000D01*
X124344000Y-72191000D02*
X122900000Y-72191000D01*
X120940000Y-72191000D02*
X119496000Y-72191000D01*
X124330000Y-72231000D02*
X122900000Y-72231000D01*
X120940000Y-72231000D02*
X119510000Y-72231000D01*
X124316000Y-72271000D02*
X122900000Y-72271000D01*
X120940000Y-72271000D02*
X119524000Y-72271000D01*
X124302000Y-72311000D02*
X122900000Y-72311000D01*
X120940000Y-72311000D02*
X119538000Y-72311000D01*
X124286000Y-72351000D02*
X122900000Y-72351000D01*
X120940000Y-72351000D02*
X119554000Y-72351000D01*
X124270000Y-72391000D02*
X122900000Y-72391000D01*
X120940000Y-72391000D02*
X119570000Y-72391000D01*
X124253000Y-72431000D02*
X122900000Y-72431000D01*
X120940000Y-72431000D02*
X119587000Y-72431000D01*
X124235000Y-72471000D02*
X122900000Y-72471000D01*
X120940000Y-72471000D02*
X119605000Y-72471000D01*
X124216000Y-72511000D02*
X122900000Y-72511000D01*
X120940000Y-72511000D02*
X119624000Y-72511000D01*
X124196000Y-72551000D02*
X122900000Y-72551000D01*
X120940000Y-72551000D02*
X119644000Y-72551000D01*
X124176000Y-72591000D02*
X122900000Y-72591000D01*
X120940000Y-72591000D02*
X119664000Y-72591000D01*
X124154000Y-72631000D02*
X122900000Y-72631000D01*
X120940000Y-72631000D02*
X119686000Y-72631000D01*
X124132000Y-72671000D02*
X122900000Y-72671000D01*
X120940000Y-72671000D02*
X119708000Y-72671000D01*
X124109000Y-72711000D02*
X122900000Y-72711000D01*
X120940000Y-72711000D02*
X119731000Y-72711000D01*
X124085000Y-72751000D02*
X122900000Y-72751000D01*
X120940000Y-72751000D02*
X119755000Y-72751000D01*
X124060000Y-72791000D02*
X122900000Y-72791000D01*
X120940000Y-72791000D02*
X119780000Y-72791000D01*
X124033000Y-72831000D02*
X122900000Y-72831000D01*
X120940000Y-72831000D02*
X119807000Y-72831000D01*
X124006000Y-72871000D02*
X122900000Y-72871000D01*
X120940000Y-72871000D02*
X119834000Y-72871000D01*
X123978000Y-72911000D02*
X122900000Y-72911000D01*
X120940000Y-72911000D02*
X119862000Y-72911000D01*
X123948000Y-72951000D02*
X122900000Y-72951000D01*
X120940000Y-72951000D02*
X119892000Y-72951000D01*
X123917000Y-72991000D02*
X122900000Y-72991000D01*
X120940000Y-72991000D02*
X119923000Y-72991000D01*
X123885000Y-73031000D02*
X122900000Y-73031000D01*
X120940000Y-73031000D02*
X119955000Y-73031000D01*
X123852000Y-73071000D02*
X122900000Y-73071000D01*
X120940000Y-73071000D02*
X119988000Y-73071000D01*
X123817000Y-73111000D02*
X122900000Y-73111000D01*
X120940000Y-73111000D02*
X120023000Y-73111000D01*
X123781000Y-73151000D02*
X122900000Y-73151000D01*
X120940000Y-73151000D02*
X120059000Y-73151000D01*
X123743000Y-73191000D02*
X122900000Y-73191000D01*
X120940000Y-73191000D02*
X120097000Y-73191000D01*
X123703000Y-73231000D02*
X122900000Y-73231000D01*
X120940000Y-73231000D02*
X120137000Y-73231000D01*
X123662000Y-73271000D02*
X122900000Y-73271000D01*
X120940000Y-73271000D02*
X120178000Y-73271000D01*
X123619000Y-73311000D02*
X122900000Y-73311000D01*
X120940000Y-73311000D02*
X120221000Y-73311000D01*
X123574000Y-73351000D02*
X122900000Y-73351000D01*
X120940000Y-73351000D02*
X120266000Y-73351000D01*
X123526000Y-73391000D02*
X120314000Y-73391000D01*
X123476000Y-73431000D02*
X120364000Y-73431000D01*
X123424000Y-73471000D02*
X120416000Y-73471000D01*
X123368000Y-73511000D02*
X120472000Y-73511000D01*
X123310000Y-73551000D02*
X120530000Y-73551000D01*
X123247000Y-73591000D02*
X120593000Y-73591000D01*
X123181000Y-73631000D02*
X120659000Y-73631000D01*
X123109000Y-73671000D02*
X120731000Y-73671000D01*
X123032000Y-73711000D02*
X120808000Y-73711000D01*
X122948000Y-73751000D02*
X120892000Y-73751000D01*
X122854000Y-73791000D02*
X120986000Y-73791000D01*
X122749000Y-73831000D02*
X121091000Y-73831000D01*
X122627000Y-73871000D02*
X121213000Y-73871000D01*
X122479000Y-73911000D02*
X121361000Y-73911000D01*
X122274000Y-73951000D02*
X121566000Y-73951000D01*
X121920000Y-68190000D02*
X121920000Y-69390000D01*
X122570000Y-68790000D02*
X121270000Y-68790000D01*
X125690000Y-73700000D02*
X125690000Y-68580000D01*
X128310000Y-73700000D02*
X128310000Y-68580000D01*
X125690000Y-73700000D02*
X128310000Y-73700000D01*
X125690000Y-68580000D02*
X128310000Y-68580000D01*
X154849723Y-127035722D02*
G75*
G03X154850000Y-122424420I-1179723J2305722D01*
G01*
X152490277Y-127035722D02*
G75*
G02X152490000Y-122424420I1179723J2305722D01*
G01*
X152490277Y-127035722D02*
G75*
G03X154850000Y-127035580I1179723J2305722D01*
G01*
X156220000Y-124730000D02*
X151120000Y-124730000D01*
X156220000Y-124770000D02*
X154650000Y-124770000D01*
X152690000Y-124770000D02*
X151120000Y-124770000D01*
X156219000Y-124810000D02*
X154650000Y-124810000D01*
X152690000Y-124810000D02*
X151121000Y-124810000D01*
X156218000Y-124850000D02*
X154650000Y-124850000D01*
X152690000Y-124850000D02*
X151122000Y-124850000D01*
X156216000Y-124890000D02*
X154650000Y-124890000D01*
X152690000Y-124890000D02*
X151124000Y-124890000D01*
X156213000Y-124930000D02*
X154650000Y-124930000D01*
X152690000Y-124930000D02*
X151127000Y-124930000D01*
X156209000Y-124970000D02*
X154650000Y-124970000D01*
X152690000Y-124970000D02*
X151131000Y-124970000D01*
X156205000Y-125010000D02*
X154650000Y-125010000D01*
X152690000Y-125010000D02*
X151135000Y-125010000D01*
X156201000Y-125050000D02*
X154650000Y-125050000D01*
X152690000Y-125050000D02*
X151139000Y-125050000D01*
X156195000Y-125090000D02*
X154650000Y-125090000D01*
X152690000Y-125090000D02*
X151145000Y-125090000D01*
X156189000Y-125130000D02*
X154650000Y-125130000D01*
X152690000Y-125130000D02*
X151151000Y-125130000D01*
X156183000Y-125170000D02*
X154650000Y-125170000D01*
X152690000Y-125170000D02*
X151157000Y-125170000D01*
X156176000Y-125210000D02*
X154650000Y-125210000D01*
X152690000Y-125210000D02*
X151164000Y-125210000D01*
X156168000Y-125250000D02*
X154650000Y-125250000D01*
X152690000Y-125250000D02*
X151172000Y-125250000D01*
X156159000Y-125290000D02*
X154650000Y-125290000D01*
X152690000Y-125290000D02*
X151181000Y-125290000D01*
X156150000Y-125330000D02*
X154650000Y-125330000D01*
X152690000Y-125330000D02*
X151190000Y-125330000D01*
X156140000Y-125370000D02*
X154650000Y-125370000D01*
X152690000Y-125370000D02*
X151200000Y-125370000D01*
X156130000Y-125410000D02*
X154650000Y-125410000D01*
X152690000Y-125410000D02*
X151210000Y-125410000D01*
X156118000Y-125451000D02*
X154650000Y-125451000D01*
X152690000Y-125451000D02*
X151222000Y-125451000D01*
X156106000Y-125491000D02*
X154650000Y-125491000D01*
X152690000Y-125491000D02*
X151234000Y-125491000D01*
X156094000Y-125531000D02*
X154650000Y-125531000D01*
X152690000Y-125531000D02*
X151246000Y-125531000D01*
X156080000Y-125571000D02*
X154650000Y-125571000D01*
X152690000Y-125571000D02*
X151260000Y-125571000D01*
X156066000Y-125611000D02*
X154650000Y-125611000D01*
X152690000Y-125611000D02*
X151274000Y-125611000D01*
X156052000Y-125651000D02*
X154650000Y-125651000D01*
X152690000Y-125651000D02*
X151288000Y-125651000D01*
X156036000Y-125691000D02*
X154650000Y-125691000D01*
X152690000Y-125691000D02*
X151304000Y-125691000D01*
X156020000Y-125731000D02*
X154650000Y-125731000D01*
X152690000Y-125731000D02*
X151320000Y-125731000D01*
X156003000Y-125771000D02*
X154650000Y-125771000D01*
X152690000Y-125771000D02*
X151337000Y-125771000D01*
X155985000Y-125811000D02*
X154650000Y-125811000D01*
X152690000Y-125811000D02*
X151355000Y-125811000D01*
X155966000Y-125851000D02*
X154650000Y-125851000D01*
X152690000Y-125851000D02*
X151374000Y-125851000D01*
X155946000Y-125891000D02*
X154650000Y-125891000D01*
X152690000Y-125891000D02*
X151394000Y-125891000D01*
X155926000Y-125931000D02*
X154650000Y-125931000D01*
X152690000Y-125931000D02*
X151414000Y-125931000D01*
X155904000Y-125971000D02*
X154650000Y-125971000D01*
X152690000Y-125971000D02*
X151436000Y-125971000D01*
X155882000Y-126011000D02*
X154650000Y-126011000D01*
X152690000Y-126011000D02*
X151458000Y-126011000D01*
X155859000Y-126051000D02*
X154650000Y-126051000D01*
X152690000Y-126051000D02*
X151481000Y-126051000D01*
X155835000Y-126091000D02*
X154650000Y-126091000D01*
X152690000Y-126091000D02*
X151505000Y-126091000D01*
X155810000Y-126131000D02*
X154650000Y-126131000D01*
X152690000Y-126131000D02*
X151530000Y-126131000D01*
X155783000Y-126171000D02*
X154650000Y-126171000D01*
X152690000Y-126171000D02*
X151557000Y-126171000D01*
X155756000Y-126211000D02*
X154650000Y-126211000D01*
X152690000Y-126211000D02*
X151584000Y-126211000D01*
X155728000Y-126251000D02*
X154650000Y-126251000D01*
X152690000Y-126251000D02*
X151612000Y-126251000D01*
X155698000Y-126291000D02*
X154650000Y-126291000D01*
X152690000Y-126291000D02*
X151642000Y-126291000D01*
X155667000Y-126331000D02*
X154650000Y-126331000D01*
X152690000Y-126331000D02*
X151673000Y-126331000D01*
X155635000Y-126371000D02*
X154650000Y-126371000D01*
X152690000Y-126371000D02*
X151705000Y-126371000D01*
X155602000Y-126411000D02*
X154650000Y-126411000D01*
X152690000Y-126411000D02*
X151738000Y-126411000D01*
X155567000Y-126451000D02*
X154650000Y-126451000D01*
X152690000Y-126451000D02*
X151773000Y-126451000D01*
X155531000Y-126491000D02*
X154650000Y-126491000D01*
X152690000Y-126491000D02*
X151809000Y-126491000D01*
X155493000Y-126531000D02*
X154650000Y-126531000D01*
X152690000Y-126531000D02*
X151847000Y-126531000D01*
X155453000Y-126571000D02*
X154650000Y-126571000D01*
X152690000Y-126571000D02*
X151887000Y-126571000D01*
X155412000Y-126611000D02*
X154650000Y-126611000D01*
X152690000Y-126611000D02*
X151928000Y-126611000D01*
X155369000Y-126651000D02*
X154650000Y-126651000D01*
X152690000Y-126651000D02*
X151971000Y-126651000D01*
X155324000Y-126691000D02*
X154650000Y-126691000D01*
X152690000Y-126691000D02*
X152016000Y-126691000D01*
X155276000Y-126731000D02*
X152064000Y-126731000D01*
X155226000Y-126771000D02*
X152114000Y-126771000D01*
X155174000Y-126811000D02*
X152166000Y-126811000D01*
X155118000Y-126851000D02*
X152222000Y-126851000D01*
X155060000Y-126891000D02*
X152280000Y-126891000D01*
X154997000Y-126931000D02*
X152343000Y-126931000D01*
X154931000Y-126971000D02*
X152409000Y-126971000D01*
X154859000Y-127011000D02*
X152481000Y-127011000D01*
X154782000Y-127051000D02*
X152558000Y-127051000D01*
X154698000Y-127091000D02*
X152642000Y-127091000D01*
X154604000Y-127131000D02*
X152736000Y-127131000D01*
X154499000Y-127171000D02*
X152841000Y-127171000D01*
X154377000Y-127211000D02*
X152963000Y-127211000D01*
X154229000Y-127251000D02*
X153111000Y-127251000D01*
X154024000Y-127291000D02*
X153316000Y-127291000D01*
X153670000Y-121530000D02*
X153670000Y-122730000D01*
X154320000Y-122130000D02*
X153020000Y-122130000D01*
X151130000Y-128230000D02*
X156250000Y-128230000D01*
X151130000Y-130850000D02*
X156250000Y-130850000D01*
X151130000Y-128230000D02*
X151130000Y-130850000D01*
X156250000Y-128230000D02*
X156250000Y-130850000D01*
X154849723Y-81315722D02*
G75*
G03X154850000Y-76704420I-1179723J2305722D01*
G01*
X152490277Y-81315722D02*
G75*
G02X152490000Y-76704420I1179723J2305722D01*
G01*
X152490277Y-81315722D02*
G75*
G03X154850000Y-81315580I1179723J2305722D01*
G01*
X156220000Y-79010000D02*
X151120000Y-79010000D01*
X156220000Y-79050000D02*
X154650000Y-79050000D01*
X152690000Y-79050000D02*
X151120000Y-79050000D01*
X156219000Y-79090000D02*
X154650000Y-79090000D01*
X152690000Y-79090000D02*
X151121000Y-79090000D01*
X156218000Y-79130000D02*
X154650000Y-79130000D01*
X152690000Y-79130000D02*
X151122000Y-79130000D01*
X156216000Y-79170000D02*
X154650000Y-79170000D01*
X152690000Y-79170000D02*
X151124000Y-79170000D01*
X156213000Y-79210000D02*
X154650000Y-79210000D01*
X152690000Y-79210000D02*
X151127000Y-79210000D01*
X156209000Y-79250000D02*
X154650000Y-79250000D01*
X152690000Y-79250000D02*
X151131000Y-79250000D01*
X156205000Y-79290000D02*
X154650000Y-79290000D01*
X152690000Y-79290000D02*
X151135000Y-79290000D01*
X156201000Y-79330000D02*
X154650000Y-79330000D01*
X152690000Y-79330000D02*
X151139000Y-79330000D01*
X156195000Y-79370000D02*
X154650000Y-79370000D01*
X152690000Y-79370000D02*
X151145000Y-79370000D01*
X156189000Y-79410000D02*
X154650000Y-79410000D01*
X152690000Y-79410000D02*
X151151000Y-79410000D01*
X156183000Y-79450000D02*
X154650000Y-79450000D01*
X152690000Y-79450000D02*
X151157000Y-79450000D01*
X156176000Y-79490000D02*
X154650000Y-79490000D01*
X152690000Y-79490000D02*
X151164000Y-79490000D01*
X156168000Y-79530000D02*
X154650000Y-79530000D01*
X152690000Y-79530000D02*
X151172000Y-79530000D01*
X156159000Y-79570000D02*
X154650000Y-79570000D01*
X152690000Y-79570000D02*
X151181000Y-79570000D01*
X156150000Y-79610000D02*
X154650000Y-79610000D01*
X152690000Y-79610000D02*
X151190000Y-79610000D01*
X156140000Y-79650000D02*
X154650000Y-79650000D01*
X152690000Y-79650000D02*
X151200000Y-79650000D01*
X156130000Y-79690000D02*
X154650000Y-79690000D01*
X152690000Y-79690000D02*
X151210000Y-79690000D01*
X156118000Y-79731000D02*
X154650000Y-79731000D01*
X152690000Y-79731000D02*
X151222000Y-79731000D01*
X156106000Y-79771000D02*
X154650000Y-79771000D01*
X152690000Y-79771000D02*
X151234000Y-79771000D01*
X156094000Y-79811000D02*
X154650000Y-79811000D01*
X152690000Y-79811000D02*
X151246000Y-79811000D01*
X156080000Y-79851000D02*
X154650000Y-79851000D01*
X152690000Y-79851000D02*
X151260000Y-79851000D01*
X156066000Y-79891000D02*
X154650000Y-79891000D01*
X152690000Y-79891000D02*
X151274000Y-79891000D01*
X156052000Y-79931000D02*
X154650000Y-79931000D01*
X152690000Y-79931000D02*
X151288000Y-79931000D01*
X156036000Y-79971000D02*
X154650000Y-79971000D01*
X152690000Y-79971000D02*
X151304000Y-79971000D01*
X156020000Y-80011000D02*
X154650000Y-80011000D01*
X152690000Y-80011000D02*
X151320000Y-80011000D01*
X156003000Y-80051000D02*
X154650000Y-80051000D01*
X152690000Y-80051000D02*
X151337000Y-80051000D01*
X155985000Y-80091000D02*
X154650000Y-80091000D01*
X152690000Y-80091000D02*
X151355000Y-80091000D01*
X155966000Y-80131000D02*
X154650000Y-80131000D01*
X152690000Y-80131000D02*
X151374000Y-80131000D01*
X155946000Y-80171000D02*
X154650000Y-80171000D01*
X152690000Y-80171000D02*
X151394000Y-80171000D01*
X155926000Y-80211000D02*
X154650000Y-80211000D01*
X152690000Y-80211000D02*
X151414000Y-80211000D01*
X155904000Y-80251000D02*
X154650000Y-80251000D01*
X152690000Y-80251000D02*
X151436000Y-80251000D01*
X155882000Y-80291000D02*
X154650000Y-80291000D01*
X152690000Y-80291000D02*
X151458000Y-80291000D01*
X155859000Y-80331000D02*
X154650000Y-80331000D01*
X152690000Y-80331000D02*
X151481000Y-80331000D01*
X155835000Y-80371000D02*
X154650000Y-80371000D01*
X152690000Y-80371000D02*
X151505000Y-80371000D01*
X155810000Y-80411000D02*
X154650000Y-80411000D01*
X152690000Y-80411000D02*
X151530000Y-80411000D01*
X155783000Y-80451000D02*
X154650000Y-80451000D01*
X152690000Y-80451000D02*
X151557000Y-80451000D01*
X155756000Y-80491000D02*
X154650000Y-80491000D01*
X152690000Y-80491000D02*
X151584000Y-80491000D01*
X155728000Y-80531000D02*
X154650000Y-80531000D01*
X152690000Y-80531000D02*
X151612000Y-80531000D01*
X155698000Y-80571000D02*
X154650000Y-80571000D01*
X152690000Y-80571000D02*
X151642000Y-80571000D01*
X155667000Y-80611000D02*
X154650000Y-80611000D01*
X152690000Y-80611000D02*
X151673000Y-80611000D01*
X155635000Y-80651000D02*
X154650000Y-80651000D01*
X152690000Y-80651000D02*
X151705000Y-80651000D01*
X155602000Y-80691000D02*
X154650000Y-80691000D01*
X152690000Y-80691000D02*
X151738000Y-80691000D01*
X155567000Y-80731000D02*
X154650000Y-80731000D01*
X152690000Y-80731000D02*
X151773000Y-80731000D01*
X155531000Y-80771000D02*
X154650000Y-80771000D01*
X152690000Y-80771000D02*
X151809000Y-80771000D01*
X155493000Y-80811000D02*
X154650000Y-80811000D01*
X152690000Y-80811000D02*
X151847000Y-80811000D01*
X155453000Y-80851000D02*
X154650000Y-80851000D01*
X152690000Y-80851000D02*
X151887000Y-80851000D01*
X155412000Y-80891000D02*
X154650000Y-80891000D01*
X152690000Y-80891000D02*
X151928000Y-80891000D01*
X155369000Y-80931000D02*
X154650000Y-80931000D01*
X152690000Y-80931000D02*
X151971000Y-80931000D01*
X155324000Y-80971000D02*
X154650000Y-80971000D01*
X152690000Y-80971000D02*
X152016000Y-80971000D01*
X155276000Y-81011000D02*
X152064000Y-81011000D01*
X155226000Y-81051000D02*
X152114000Y-81051000D01*
X155174000Y-81091000D02*
X152166000Y-81091000D01*
X155118000Y-81131000D02*
X152222000Y-81131000D01*
X155060000Y-81171000D02*
X152280000Y-81171000D01*
X154997000Y-81211000D02*
X152343000Y-81211000D01*
X154931000Y-81251000D02*
X152409000Y-81251000D01*
X154859000Y-81291000D02*
X152481000Y-81291000D01*
X154782000Y-81331000D02*
X152558000Y-81331000D01*
X154698000Y-81371000D02*
X152642000Y-81371000D01*
X154604000Y-81411000D02*
X152736000Y-81411000D01*
X154499000Y-81451000D02*
X152841000Y-81451000D01*
X154377000Y-81491000D02*
X152963000Y-81491000D01*
X154229000Y-81531000D02*
X153111000Y-81531000D01*
X154024000Y-81571000D02*
X153316000Y-81571000D01*
X153670000Y-75810000D02*
X153670000Y-77010000D01*
X154320000Y-76410000D02*
X153020000Y-76410000D01*
X151130000Y-82510000D02*
X156250000Y-82510000D01*
X151130000Y-85130000D02*
X156250000Y-85130000D01*
X151130000Y-82510000D02*
X151130000Y-85130000D01*
X156250000Y-82510000D02*
X156250000Y-85130000D01*
X153579723Y-58455722D02*
G75*
G03X153580000Y-53844420I-1179723J2305722D01*
G01*
X151220277Y-58455722D02*
G75*
G02X151220000Y-53844420I1179723J2305722D01*
G01*
X151220277Y-58455722D02*
G75*
G03X153580000Y-58455580I1179723J2305722D01*
G01*
X154950000Y-56150000D02*
X149850000Y-56150000D01*
X154950000Y-56190000D02*
X153380000Y-56190000D01*
X151420000Y-56190000D02*
X149850000Y-56190000D01*
X154949000Y-56230000D02*
X153380000Y-56230000D01*
X151420000Y-56230000D02*
X149851000Y-56230000D01*
X154948000Y-56270000D02*
X153380000Y-56270000D01*
X151420000Y-56270000D02*
X149852000Y-56270000D01*
X154946000Y-56310000D02*
X153380000Y-56310000D01*
X151420000Y-56310000D02*
X149854000Y-56310000D01*
X154943000Y-56350000D02*
X153380000Y-56350000D01*
X151420000Y-56350000D02*
X149857000Y-56350000D01*
X154939000Y-56390000D02*
X153380000Y-56390000D01*
X151420000Y-56390000D02*
X149861000Y-56390000D01*
X154935000Y-56430000D02*
X153380000Y-56430000D01*
X151420000Y-56430000D02*
X149865000Y-56430000D01*
X154931000Y-56470000D02*
X153380000Y-56470000D01*
X151420000Y-56470000D02*
X149869000Y-56470000D01*
X154925000Y-56510000D02*
X153380000Y-56510000D01*
X151420000Y-56510000D02*
X149875000Y-56510000D01*
X154919000Y-56550000D02*
X153380000Y-56550000D01*
X151420000Y-56550000D02*
X149881000Y-56550000D01*
X154913000Y-56590000D02*
X153380000Y-56590000D01*
X151420000Y-56590000D02*
X149887000Y-56590000D01*
X154906000Y-56630000D02*
X153380000Y-56630000D01*
X151420000Y-56630000D02*
X149894000Y-56630000D01*
X154898000Y-56670000D02*
X153380000Y-56670000D01*
X151420000Y-56670000D02*
X149902000Y-56670000D01*
X154889000Y-56710000D02*
X153380000Y-56710000D01*
X151420000Y-56710000D02*
X149911000Y-56710000D01*
X154880000Y-56750000D02*
X153380000Y-56750000D01*
X151420000Y-56750000D02*
X149920000Y-56750000D01*
X154870000Y-56790000D02*
X153380000Y-56790000D01*
X151420000Y-56790000D02*
X149930000Y-56790000D01*
X154860000Y-56830000D02*
X153380000Y-56830000D01*
X151420000Y-56830000D02*
X149940000Y-56830000D01*
X154848000Y-56871000D02*
X153380000Y-56871000D01*
X151420000Y-56871000D02*
X149952000Y-56871000D01*
X154836000Y-56911000D02*
X153380000Y-56911000D01*
X151420000Y-56911000D02*
X149964000Y-56911000D01*
X154824000Y-56951000D02*
X153380000Y-56951000D01*
X151420000Y-56951000D02*
X149976000Y-56951000D01*
X154810000Y-56991000D02*
X153380000Y-56991000D01*
X151420000Y-56991000D02*
X149990000Y-56991000D01*
X154796000Y-57031000D02*
X153380000Y-57031000D01*
X151420000Y-57031000D02*
X150004000Y-57031000D01*
X154782000Y-57071000D02*
X153380000Y-57071000D01*
X151420000Y-57071000D02*
X150018000Y-57071000D01*
X154766000Y-57111000D02*
X153380000Y-57111000D01*
X151420000Y-57111000D02*
X150034000Y-57111000D01*
X154750000Y-57151000D02*
X153380000Y-57151000D01*
X151420000Y-57151000D02*
X150050000Y-57151000D01*
X154733000Y-57191000D02*
X153380000Y-57191000D01*
X151420000Y-57191000D02*
X150067000Y-57191000D01*
X154715000Y-57231000D02*
X153380000Y-57231000D01*
X151420000Y-57231000D02*
X150085000Y-57231000D01*
X154696000Y-57271000D02*
X153380000Y-57271000D01*
X151420000Y-57271000D02*
X150104000Y-57271000D01*
X154676000Y-57311000D02*
X153380000Y-57311000D01*
X151420000Y-57311000D02*
X150124000Y-57311000D01*
X154656000Y-57351000D02*
X153380000Y-57351000D01*
X151420000Y-57351000D02*
X150144000Y-57351000D01*
X154634000Y-57391000D02*
X153380000Y-57391000D01*
X151420000Y-57391000D02*
X150166000Y-57391000D01*
X154612000Y-57431000D02*
X153380000Y-57431000D01*
X151420000Y-57431000D02*
X150188000Y-57431000D01*
X154589000Y-57471000D02*
X153380000Y-57471000D01*
X151420000Y-57471000D02*
X150211000Y-57471000D01*
X154565000Y-57511000D02*
X153380000Y-57511000D01*
X151420000Y-57511000D02*
X150235000Y-57511000D01*
X154540000Y-57551000D02*
X153380000Y-57551000D01*
X151420000Y-57551000D02*
X150260000Y-57551000D01*
X154513000Y-57591000D02*
X153380000Y-57591000D01*
X151420000Y-57591000D02*
X150287000Y-57591000D01*
X154486000Y-57631000D02*
X153380000Y-57631000D01*
X151420000Y-57631000D02*
X150314000Y-57631000D01*
X154458000Y-57671000D02*
X153380000Y-57671000D01*
X151420000Y-57671000D02*
X150342000Y-57671000D01*
X154428000Y-57711000D02*
X153380000Y-57711000D01*
X151420000Y-57711000D02*
X150372000Y-57711000D01*
X154397000Y-57751000D02*
X153380000Y-57751000D01*
X151420000Y-57751000D02*
X150403000Y-57751000D01*
X154365000Y-57791000D02*
X153380000Y-57791000D01*
X151420000Y-57791000D02*
X150435000Y-57791000D01*
X154332000Y-57831000D02*
X153380000Y-57831000D01*
X151420000Y-57831000D02*
X150468000Y-57831000D01*
X154297000Y-57871000D02*
X153380000Y-57871000D01*
X151420000Y-57871000D02*
X150503000Y-57871000D01*
X154261000Y-57911000D02*
X153380000Y-57911000D01*
X151420000Y-57911000D02*
X150539000Y-57911000D01*
X154223000Y-57951000D02*
X153380000Y-57951000D01*
X151420000Y-57951000D02*
X150577000Y-57951000D01*
X154183000Y-57991000D02*
X153380000Y-57991000D01*
X151420000Y-57991000D02*
X150617000Y-57991000D01*
X154142000Y-58031000D02*
X153380000Y-58031000D01*
X151420000Y-58031000D02*
X150658000Y-58031000D01*
X154099000Y-58071000D02*
X153380000Y-58071000D01*
X151420000Y-58071000D02*
X150701000Y-58071000D01*
X154054000Y-58111000D02*
X153380000Y-58111000D01*
X151420000Y-58111000D02*
X150746000Y-58111000D01*
X154006000Y-58151000D02*
X150794000Y-58151000D01*
X153956000Y-58191000D02*
X150844000Y-58191000D01*
X153904000Y-58231000D02*
X150896000Y-58231000D01*
X153848000Y-58271000D02*
X150952000Y-58271000D01*
X153790000Y-58311000D02*
X151010000Y-58311000D01*
X153727000Y-58351000D02*
X151073000Y-58351000D01*
X153661000Y-58391000D02*
X151139000Y-58391000D01*
X153589000Y-58431000D02*
X151211000Y-58431000D01*
X153512000Y-58471000D02*
X151288000Y-58471000D01*
X153428000Y-58511000D02*
X151372000Y-58511000D01*
X153334000Y-58551000D02*
X151466000Y-58551000D01*
X153229000Y-58591000D02*
X151571000Y-58591000D01*
X153107000Y-58631000D02*
X151693000Y-58631000D01*
X152959000Y-58671000D02*
X151841000Y-58671000D01*
X152754000Y-58711000D02*
X152046000Y-58711000D01*
X152400000Y-52950000D02*
X152400000Y-54150000D01*
X153050000Y-53550000D02*
X151750000Y-53550000D01*
X156170000Y-58420000D02*
X156170000Y-53300000D01*
X158790000Y-58420000D02*
X158790000Y-53300000D01*
X156170000Y-58420000D02*
X158790000Y-58420000D01*
X156170000Y-53300000D02*
X158790000Y-53300000D01*
X104049723Y-73695722D02*
G75*
G03X104050000Y-69084420I-1179723J2305722D01*
G01*
X101690277Y-73695722D02*
G75*
G02X101690000Y-69084420I1179723J2305722D01*
G01*
X101690277Y-73695722D02*
G75*
G03X104050000Y-73695580I1179723J2305722D01*
G01*
X105420000Y-71390000D02*
X100320000Y-71390000D01*
X105420000Y-71430000D02*
X103850000Y-71430000D01*
X101890000Y-71430000D02*
X100320000Y-71430000D01*
X105419000Y-71470000D02*
X103850000Y-71470000D01*
X101890000Y-71470000D02*
X100321000Y-71470000D01*
X105418000Y-71510000D02*
X103850000Y-71510000D01*
X101890000Y-71510000D02*
X100322000Y-71510000D01*
X105416000Y-71550000D02*
X103850000Y-71550000D01*
X101890000Y-71550000D02*
X100324000Y-71550000D01*
X105413000Y-71590000D02*
X103850000Y-71590000D01*
X101890000Y-71590000D02*
X100327000Y-71590000D01*
X105409000Y-71630000D02*
X103850000Y-71630000D01*
X101890000Y-71630000D02*
X100331000Y-71630000D01*
X105405000Y-71670000D02*
X103850000Y-71670000D01*
X101890000Y-71670000D02*
X100335000Y-71670000D01*
X105401000Y-71710000D02*
X103850000Y-71710000D01*
X101890000Y-71710000D02*
X100339000Y-71710000D01*
X105395000Y-71750000D02*
X103850000Y-71750000D01*
X101890000Y-71750000D02*
X100345000Y-71750000D01*
X105389000Y-71790000D02*
X103850000Y-71790000D01*
X101890000Y-71790000D02*
X100351000Y-71790000D01*
X105383000Y-71830000D02*
X103850000Y-71830000D01*
X101890000Y-71830000D02*
X100357000Y-71830000D01*
X105376000Y-71870000D02*
X103850000Y-71870000D01*
X101890000Y-71870000D02*
X100364000Y-71870000D01*
X105368000Y-71910000D02*
X103850000Y-71910000D01*
X101890000Y-71910000D02*
X100372000Y-71910000D01*
X105359000Y-71950000D02*
X103850000Y-71950000D01*
X101890000Y-71950000D02*
X100381000Y-71950000D01*
X105350000Y-71990000D02*
X103850000Y-71990000D01*
X101890000Y-71990000D02*
X100390000Y-71990000D01*
X105340000Y-72030000D02*
X103850000Y-72030000D01*
X101890000Y-72030000D02*
X100400000Y-72030000D01*
X105330000Y-72070000D02*
X103850000Y-72070000D01*
X101890000Y-72070000D02*
X100410000Y-72070000D01*
X105318000Y-72111000D02*
X103850000Y-72111000D01*
X101890000Y-72111000D02*
X100422000Y-72111000D01*
X105306000Y-72151000D02*
X103850000Y-72151000D01*
X101890000Y-72151000D02*
X100434000Y-72151000D01*
X105294000Y-72191000D02*
X103850000Y-72191000D01*
X101890000Y-72191000D02*
X100446000Y-72191000D01*
X105280000Y-72231000D02*
X103850000Y-72231000D01*
X101890000Y-72231000D02*
X100460000Y-72231000D01*
X105266000Y-72271000D02*
X103850000Y-72271000D01*
X101890000Y-72271000D02*
X100474000Y-72271000D01*
X105252000Y-72311000D02*
X103850000Y-72311000D01*
X101890000Y-72311000D02*
X100488000Y-72311000D01*
X105236000Y-72351000D02*
X103850000Y-72351000D01*
X101890000Y-72351000D02*
X100504000Y-72351000D01*
X105220000Y-72391000D02*
X103850000Y-72391000D01*
X101890000Y-72391000D02*
X100520000Y-72391000D01*
X105203000Y-72431000D02*
X103850000Y-72431000D01*
X101890000Y-72431000D02*
X100537000Y-72431000D01*
X105185000Y-72471000D02*
X103850000Y-72471000D01*
X101890000Y-72471000D02*
X100555000Y-72471000D01*
X105166000Y-72511000D02*
X103850000Y-72511000D01*
X101890000Y-72511000D02*
X100574000Y-72511000D01*
X105146000Y-72551000D02*
X103850000Y-72551000D01*
X101890000Y-72551000D02*
X100594000Y-72551000D01*
X105126000Y-72591000D02*
X103850000Y-72591000D01*
X101890000Y-72591000D02*
X100614000Y-72591000D01*
X105104000Y-72631000D02*
X103850000Y-72631000D01*
X101890000Y-72631000D02*
X100636000Y-72631000D01*
X105082000Y-72671000D02*
X103850000Y-72671000D01*
X101890000Y-72671000D02*
X100658000Y-72671000D01*
X105059000Y-72711000D02*
X103850000Y-72711000D01*
X101890000Y-72711000D02*
X100681000Y-72711000D01*
X105035000Y-72751000D02*
X103850000Y-72751000D01*
X101890000Y-72751000D02*
X100705000Y-72751000D01*
X105010000Y-72791000D02*
X103850000Y-72791000D01*
X101890000Y-72791000D02*
X100730000Y-72791000D01*
X104983000Y-72831000D02*
X103850000Y-72831000D01*
X101890000Y-72831000D02*
X100757000Y-72831000D01*
X104956000Y-72871000D02*
X103850000Y-72871000D01*
X101890000Y-72871000D02*
X100784000Y-72871000D01*
X104928000Y-72911000D02*
X103850000Y-72911000D01*
X101890000Y-72911000D02*
X100812000Y-72911000D01*
X104898000Y-72951000D02*
X103850000Y-72951000D01*
X101890000Y-72951000D02*
X100842000Y-72951000D01*
X104867000Y-72991000D02*
X103850000Y-72991000D01*
X101890000Y-72991000D02*
X100873000Y-72991000D01*
X104835000Y-73031000D02*
X103850000Y-73031000D01*
X101890000Y-73031000D02*
X100905000Y-73031000D01*
X104802000Y-73071000D02*
X103850000Y-73071000D01*
X101890000Y-73071000D02*
X100938000Y-73071000D01*
X104767000Y-73111000D02*
X103850000Y-73111000D01*
X101890000Y-73111000D02*
X100973000Y-73111000D01*
X104731000Y-73151000D02*
X103850000Y-73151000D01*
X101890000Y-73151000D02*
X101009000Y-73151000D01*
X104693000Y-73191000D02*
X103850000Y-73191000D01*
X101890000Y-73191000D02*
X101047000Y-73191000D01*
X104653000Y-73231000D02*
X103850000Y-73231000D01*
X101890000Y-73231000D02*
X101087000Y-73231000D01*
X104612000Y-73271000D02*
X103850000Y-73271000D01*
X101890000Y-73271000D02*
X101128000Y-73271000D01*
X104569000Y-73311000D02*
X103850000Y-73311000D01*
X101890000Y-73311000D02*
X101171000Y-73311000D01*
X104524000Y-73351000D02*
X103850000Y-73351000D01*
X101890000Y-73351000D02*
X101216000Y-73351000D01*
X104476000Y-73391000D02*
X101264000Y-73391000D01*
X104426000Y-73431000D02*
X101314000Y-73431000D01*
X104374000Y-73471000D02*
X101366000Y-73471000D01*
X104318000Y-73511000D02*
X101422000Y-73511000D01*
X104260000Y-73551000D02*
X101480000Y-73551000D01*
X104197000Y-73591000D02*
X101543000Y-73591000D01*
X104131000Y-73631000D02*
X101609000Y-73631000D01*
X104059000Y-73671000D02*
X101681000Y-73671000D01*
X103982000Y-73711000D02*
X101758000Y-73711000D01*
X103898000Y-73751000D02*
X101842000Y-73751000D01*
X103804000Y-73791000D02*
X101936000Y-73791000D01*
X103699000Y-73831000D02*
X102041000Y-73831000D01*
X103577000Y-73871000D02*
X102163000Y-73871000D01*
X103429000Y-73911000D02*
X102311000Y-73911000D01*
X103224000Y-73951000D02*
X102516000Y-73951000D01*
X102870000Y-68190000D02*
X102870000Y-69390000D01*
X103520000Y-68790000D02*
X102220000Y-68790000D01*
X106640000Y-73700000D02*
X106640000Y-68580000D01*
X109260000Y-73700000D02*
X109260000Y-68580000D01*
X106640000Y-73700000D02*
X109260000Y-73700000D01*
X106640000Y-68580000D02*
X109260000Y-68580000D01*
X128210000Y-53280000D02*
X128210000Y-58480000D01*
X138430000Y-53280000D02*
X128210000Y-53280000D01*
X141030000Y-58480000D02*
X128210000Y-58480000D01*
X138430000Y-53280000D02*
X138430000Y-55880000D01*
X138430000Y-55880000D02*
X141030000Y-55880000D01*
X141030000Y-55880000D02*
X141030000Y-58480000D01*
X139700000Y-53280000D02*
X141030000Y-53280000D01*
X141030000Y-53280000D02*
X141030000Y-54610000D01*
X152340000Y-71180000D02*
X155000000Y-71180000D01*
X152340000Y-68580000D02*
X152340000Y-71180000D01*
X155000000Y-68580000D02*
X155000000Y-71180000D01*
X152340000Y-68580000D02*
X155000000Y-68580000D01*
X152340000Y-67310000D02*
X152340000Y-65980000D01*
X152340000Y-65980000D02*
X153670000Y-65980000D01*
X152340000Y-94040000D02*
X155000000Y-94040000D01*
X152340000Y-91440000D02*
X152340000Y-94040000D01*
X155000000Y-91440000D02*
X155000000Y-94040000D01*
X152340000Y-91440000D02*
X155000000Y-91440000D01*
X152340000Y-90170000D02*
X152340000Y-88840000D01*
X152340000Y-88840000D02*
X153670000Y-88840000D01*
X152340000Y-139760000D02*
X155000000Y-139760000D01*
X152340000Y-137160000D02*
X152340000Y-139760000D01*
X155000000Y-137160000D02*
X155000000Y-139760000D01*
X152340000Y-137160000D02*
X155000000Y-137160000D01*
X152340000Y-135890000D02*
X152340000Y-134560000D01*
X152340000Y-134560000D02*
X153670000Y-134560000D01*
X152340000Y-116900000D02*
X155000000Y-116900000D01*
X152340000Y-114300000D02*
X152340000Y-116900000D01*
X155000000Y-114300000D02*
X155000000Y-116900000D01*
X152340000Y-114300000D02*
X155000000Y-114300000D01*
X152340000Y-113030000D02*
X152340000Y-111700000D01*
X152340000Y-111700000D02*
X153670000Y-111700000D01*
X111720000Y-89570000D02*
X114340000Y-89570000D01*
X114340000Y-89570000D02*
X114340000Y-83150000D01*
X114340000Y-83150000D02*
X111720000Y-83150000D01*
X111720000Y-83150000D02*
X111720000Y-89570000D01*
X113030000Y-90460000D02*
X113030000Y-89570000D01*
X113030000Y-82260000D02*
X113030000Y-83150000D01*
X133310000Y-89570000D02*
X135930000Y-89570000D01*
X135930000Y-89570000D02*
X135930000Y-83150000D01*
X135930000Y-83150000D02*
X133310000Y-83150000D01*
X133310000Y-83150000D02*
X133310000Y-89570000D01*
X134620000Y-90460000D02*
X134620000Y-89570000D01*
X134620000Y-82260000D02*
X134620000Y-83150000D01*
X120820000Y-108080000D02*
X120820000Y-105280000D01*
X120820000Y-105280000D02*
X107780000Y-105280000D01*
X107780000Y-105280000D02*
X107780000Y-108080000D01*
X107780000Y-108080000D02*
X120820000Y-108080000D01*
X118110000Y-108080000D02*
X118110000Y-105280000D01*
X185439000Y-138339000D02*
X190360000Y-138339000D01*
X185439000Y-148760000D02*
X190360000Y-148760000D01*
X190360000Y-138339000D02*
X190360000Y-142185000D01*
X190360000Y-144915000D02*
X190360000Y-148760000D01*
X185439000Y-147415000D02*
X185439000Y-148760000D01*
X185439000Y-138339000D02*
X185439000Y-139685000D01*
X185439000Y-142415000D02*
X185439000Y-144685000D01*
X186823000Y-141740000D02*
X190360000Y-141740000D01*
X186823000Y-145360000D02*
X190360000Y-145360000D01*
X185439000Y-142415000D02*
X185439000Y-144685000D01*
X190360000Y-141740000D02*
X190360000Y-142185000D01*
X190360000Y-144915000D02*
X190360000Y-145360000D01*
X157420000Y-68580000D02*
X157420000Y-76260000D01*
X157420000Y-76260000D02*
X160080000Y-76260000D01*
X160080000Y-76260000D02*
X160080000Y-68580000D01*
X160080000Y-68580000D02*
X157420000Y-68580000D01*
X157420000Y-67310000D02*
X157420000Y-65980000D01*
X157420000Y-65980000D02*
X158750000Y-65980000D01*
X157420000Y-91440000D02*
X157420000Y-99120000D01*
X157420000Y-99120000D02*
X160080000Y-99120000D01*
X160080000Y-99120000D02*
X160080000Y-91440000D01*
X160080000Y-91440000D02*
X157420000Y-91440000D01*
X157420000Y-90170000D02*
X157420000Y-88840000D01*
X157420000Y-88840000D02*
X158750000Y-88840000D01*
X157420000Y-137160000D02*
X157420000Y-144840000D01*
X157420000Y-144840000D02*
X160080000Y-144840000D01*
X160080000Y-144840000D02*
X160080000Y-137160000D01*
X160080000Y-137160000D02*
X157420000Y-137160000D01*
X157420000Y-135890000D02*
X157420000Y-134560000D01*
X157420000Y-134560000D02*
X158750000Y-134560000D01*
X157420000Y-114300000D02*
X157420000Y-121980000D01*
X157420000Y-121980000D02*
X160080000Y-121980000D01*
X160080000Y-121980000D02*
X160080000Y-114300000D01*
X160080000Y-114300000D02*
X157420000Y-114300000D01*
X157420000Y-113030000D02*
X157420000Y-111700000D01*
X157420000Y-111700000D02*
X158750000Y-111700000D01*
X174990000Y-77410000D02*
G75*
G02X172990000Y-77410000I-1000000J0D01*
G01*
X172990000Y-77410000D02*
X171340000Y-77410000D01*
X171340000Y-77410000D02*
X171340000Y-95310000D01*
X171340000Y-95310000D02*
X176640000Y-95310000D01*
X176640000Y-95310000D02*
X176640000Y-77410000D01*
X176640000Y-77410000D02*
X174990000Y-77410000D01*
X174990000Y-102810000D02*
G75*
G02X172990000Y-102810000I-1000000J0D01*
G01*
X172990000Y-102810000D02*
X171340000Y-102810000D01*
X171340000Y-102810000D02*
X171340000Y-120710000D01*
X171340000Y-120710000D02*
X176640000Y-120710000D01*
X176640000Y-120710000D02*
X176640000Y-102810000D01*
X176640000Y-102810000D02*
X174990000Y-102810000D01*
X194370000Y-96520000D02*
X194370000Y-91380000D01*
X194370000Y-91380000D02*
X191710000Y-91380000D01*
X191710000Y-91380000D02*
X191710000Y-96520000D01*
X191710000Y-96520000D02*
X194370000Y-96520000D01*
X194370000Y-97790000D02*
X194370000Y-99120000D01*
X194370000Y-99120000D02*
X193040000Y-99120000D01*
X194370000Y-111760000D02*
X194370000Y-106620000D01*
X194370000Y-106620000D02*
X191710000Y-106620000D01*
X191710000Y-106620000D02*
X191710000Y-111760000D01*
X191710000Y-111760000D02*
X194370000Y-111760000D01*
X194370000Y-113030000D02*
X194370000Y-114360000D01*
X194370000Y-114360000D02*
X193040000Y-114360000D01*
X194370000Y-127000000D02*
X194370000Y-121860000D01*
X194370000Y-121860000D02*
X191710000Y-121860000D01*
X191710000Y-121860000D02*
X191710000Y-127000000D01*
X191710000Y-127000000D02*
X194370000Y-127000000D01*
X194370000Y-128270000D02*
X194370000Y-129600000D01*
X194370000Y-129600000D02*
X193040000Y-129600000D01*
X174990000Y-138370000D02*
G75*
G02X172990000Y-138370000I-1000000J0D01*
G01*
X172990000Y-138370000D02*
X171340000Y-138370000D01*
X171340000Y-138370000D02*
X171340000Y-148650000D01*
X171340000Y-148650000D02*
X176640000Y-148650000D01*
X176640000Y-148650000D02*
X176640000Y-138370000D01*
X176640000Y-138370000D02*
X174990000Y-138370000D01*
X104080000Y-80010000D02*
X104080000Y-102930000D01*
X104080000Y-102930000D02*
X106740000Y-102930000D01*
X106740000Y-102930000D02*
X106740000Y-80010000D01*
X106740000Y-80010000D02*
X104080000Y-80010000D01*
X104080000Y-78740000D02*
X104080000Y-77410000D01*
X104080000Y-77410000D02*
X105410000Y-77410000D01*
X125670000Y-80010000D02*
X125670000Y-102930000D01*
X125670000Y-102930000D02*
X128330000Y-102930000D01*
X128330000Y-102930000D02*
X128330000Y-80010000D01*
X128330000Y-80010000D02*
X125670000Y-80010000D01*
X125670000Y-78740000D02*
X125670000Y-77410000D01*
X125670000Y-77410000D02*
X127000000Y-77410000D01*
X143570000Y-112760000D02*
G75*
G02X143570000Y-110760000I0J1000000D01*
G01*
X143570000Y-110760000D02*
X143570000Y-108525000D01*
X143570000Y-108525000D02*
X128210000Y-108525000D01*
X128210000Y-108525000D02*
X128210000Y-114995000D01*
X128210000Y-114995000D02*
X143570000Y-114995000D01*
X143570000Y-114995000D02*
X143570000Y-112760000D01*
X114300000Y-53280000D02*
X124520000Y-53280000D01*
X124520000Y-53280000D02*
X124520000Y-58480000D01*
X124520000Y-58480000D02*
X111700000Y-58480000D01*
X111700000Y-58480000D02*
X111700000Y-55880000D01*
X111700000Y-55880000D02*
X114300000Y-55880000D01*
X114300000Y-55880000D02*
X114300000Y-53280000D01*
X113030000Y-53280000D02*
X111700000Y-53280000D01*
X111700000Y-53280000D02*
X111700000Y-54550000D01*
X185550000Y-76030000D02*
X182750000Y-76030000D01*
X182750000Y-76030000D02*
X182750000Y-96690000D01*
X182750000Y-96690000D02*
X185550000Y-96690000D01*
X185550000Y-96690000D02*
X185550000Y-76030000D01*
X185550000Y-78740000D02*
X182750000Y-78740000D01*
X185550000Y-101430000D02*
X182750000Y-101430000D01*
X182750000Y-101430000D02*
X182750000Y-122090000D01*
X182750000Y-122090000D02*
X185550000Y-122090000D01*
X185550000Y-122090000D02*
X185550000Y-101430000D01*
X185550000Y-104140000D02*
X182750000Y-104140000D01*
X168850000Y-134680000D02*
X174050000Y-134680000D01*
X168850000Y-127000000D02*
X168850000Y-134680000D01*
X174050000Y-124400000D02*
X174050000Y-134680000D01*
X168850000Y-127000000D02*
X171450000Y-127000000D01*
X171450000Y-127000000D02*
X171450000Y-124400000D01*
X171450000Y-124400000D02*
X174050000Y-124400000D01*
X168850000Y-125730000D02*
X168850000Y-124400000D01*
X168850000Y-124400000D02*
X170180000Y-124400000D01*
X173930000Y-134680000D02*
X179130000Y-134680000D01*
X173930000Y-127000000D02*
X173930000Y-134680000D01*
X179130000Y-124400000D02*
X179130000Y-134680000D01*
X173930000Y-127000000D02*
X176530000Y-127000000D01*
X176530000Y-127000000D02*
X176530000Y-124400000D01*
X176530000Y-124400000D02*
X179130000Y-124400000D01*
X173930000Y-125730000D02*
X173930000Y-124400000D01*
X173930000Y-124400000D02*
X175260000Y-124400000D01*
X179010000Y-134680000D02*
X184210000Y-134680000D01*
X179010000Y-127000000D02*
X179010000Y-134680000D01*
X184210000Y-124400000D02*
X184210000Y-134680000D01*
X179010000Y-127000000D02*
X181610000Y-127000000D01*
X181610000Y-127000000D02*
X181610000Y-124400000D01*
X181610000Y-124400000D02*
X184210000Y-124400000D01*
X179010000Y-125730000D02*
X179010000Y-124400000D01*
X179010000Y-124400000D02*
X180340000Y-124400000D01*
X194370000Y-76140000D02*
X191710000Y-76140000D01*
X194370000Y-81280000D02*
X194370000Y-76140000D01*
X191710000Y-81280000D02*
X191710000Y-76140000D01*
X194370000Y-81280000D02*
X191710000Y-81280000D01*
X194370000Y-82550000D02*
X194370000Y-83880000D01*
X194370000Y-83880000D02*
X193040000Y-83880000D01*
D14*
X133183334Y-66397143D02*
X133135715Y-66444762D01*
X132992858Y-66492381D01*
X132897620Y-66492381D01*
X132754762Y-66444762D01*
X132659524Y-66349524D01*
X132611905Y-66254286D01*
X132564286Y-66063810D01*
X132564286Y-65920952D01*
X132611905Y-65730476D01*
X132659524Y-65635238D01*
X132754762Y-65540000D01*
X132897620Y-65492381D01*
X132992858Y-65492381D01*
X133135715Y-65540000D01*
X133183334Y-65587619D01*
X134135715Y-66492381D02*
X133564286Y-66492381D01*
X133850000Y-66492381D02*
X133850000Y-65492381D01*
X133754762Y-65635238D01*
X133659524Y-65730476D01*
X133564286Y-65778095D01*
X143343334Y-67667143D02*
X143295715Y-67714762D01*
X143152858Y-67762381D01*
X143057620Y-67762381D01*
X142914762Y-67714762D01*
X142819524Y-67619524D01*
X142771905Y-67524286D01*
X142724286Y-67333810D01*
X142724286Y-67190952D01*
X142771905Y-67000476D01*
X142819524Y-66905238D01*
X142914762Y-66810000D01*
X143057620Y-66762381D01*
X143152858Y-66762381D01*
X143295715Y-66810000D01*
X143343334Y-66857619D01*
X143724286Y-66857619D02*
X143771905Y-66810000D01*
X143867143Y-66762381D01*
X144105239Y-66762381D01*
X144200477Y-66810000D01*
X144248096Y-66857619D01*
X144295715Y-66952857D01*
X144295715Y-67048095D01*
X144248096Y-67190952D01*
X143676667Y-67762381D01*
X144295715Y-67762381D01*
X138263334Y-66397143D02*
X138215715Y-66444762D01*
X138072858Y-66492381D01*
X137977620Y-66492381D01*
X137834762Y-66444762D01*
X137739524Y-66349524D01*
X137691905Y-66254286D01*
X137644286Y-66063810D01*
X137644286Y-65920952D01*
X137691905Y-65730476D01*
X137739524Y-65635238D01*
X137834762Y-65540000D01*
X137977620Y-65492381D01*
X138072858Y-65492381D01*
X138215715Y-65540000D01*
X138263334Y-65587619D01*
X138596667Y-65492381D02*
X139215715Y-65492381D01*
X138882381Y-65873333D01*
X139025239Y-65873333D01*
X139120477Y-65920952D01*
X139168096Y-65968571D01*
X139215715Y-66063810D01*
X139215715Y-66301905D01*
X139168096Y-66397143D01*
X139120477Y-66444762D01*
X139025239Y-66492381D01*
X138739524Y-66492381D01*
X138644286Y-66444762D01*
X138596667Y-66397143D01*
X144613334Y-53697143D02*
X144565715Y-53744762D01*
X144422858Y-53792381D01*
X144327620Y-53792381D01*
X144184762Y-53744762D01*
X144089524Y-53649524D01*
X144041905Y-53554286D01*
X143994286Y-53363810D01*
X143994286Y-53220952D01*
X144041905Y-53030476D01*
X144089524Y-52935238D01*
X144184762Y-52840000D01*
X144327620Y-52792381D01*
X144422858Y-52792381D01*
X144565715Y-52840000D01*
X144613334Y-52887619D01*
X145470477Y-53125714D02*
X145470477Y-53792381D01*
X145232381Y-52744762D02*
X144994286Y-53459048D01*
X145613334Y-53459048D01*
X102703334Y-60047143D02*
X102655715Y-60094762D01*
X102512858Y-60142381D01*
X102417620Y-60142381D01*
X102274762Y-60094762D01*
X102179524Y-59999524D01*
X102131905Y-59904286D01*
X102084286Y-59713810D01*
X102084286Y-59570952D01*
X102131905Y-59380476D01*
X102179524Y-59285238D01*
X102274762Y-59190000D01*
X102417620Y-59142381D01*
X102512858Y-59142381D01*
X102655715Y-59190000D01*
X102703334Y-59237619D01*
X103608096Y-59142381D02*
X103131905Y-59142381D01*
X103084286Y-59618571D01*
X103131905Y-59570952D01*
X103227143Y-59523333D01*
X103465239Y-59523333D01*
X103560477Y-59570952D01*
X103608096Y-59618571D01*
X103655715Y-59713810D01*
X103655715Y-59951905D01*
X103608096Y-60047143D01*
X103560477Y-60094762D01*
X103465239Y-60142381D01*
X103227143Y-60142381D01*
X103131905Y-60094762D01*
X103084286Y-60047143D01*
X107783334Y-60047143D02*
X107735715Y-60094762D01*
X107592858Y-60142381D01*
X107497620Y-60142381D01*
X107354762Y-60094762D01*
X107259524Y-59999524D01*
X107211905Y-59904286D01*
X107164286Y-59713810D01*
X107164286Y-59570952D01*
X107211905Y-59380476D01*
X107259524Y-59285238D01*
X107354762Y-59190000D01*
X107497620Y-59142381D01*
X107592858Y-59142381D01*
X107735715Y-59190000D01*
X107783334Y-59237619D01*
X108640477Y-59142381D02*
X108450000Y-59142381D01*
X108354762Y-59190000D01*
X108307143Y-59237619D01*
X108211905Y-59380476D01*
X108164286Y-59570952D01*
X108164286Y-59951905D01*
X108211905Y-60047143D01*
X108259524Y-60094762D01*
X108354762Y-60142381D01*
X108545239Y-60142381D01*
X108640477Y-60094762D01*
X108688096Y-60047143D01*
X108735715Y-59951905D01*
X108735715Y-59713810D01*
X108688096Y-59618571D01*
X108640477Y-59570952D01*
X108545239Y-59523333D01*
X108354762Y-59523333D01*
X108259524Y-59570952D01*
X108211905Y-59618571D01*
X108164286Y-59713810D01*
X121753334Y-66397143D02*
X121705715Y-66444762D01*
X121562858Y-66492381D01*
X121467620Y-66492381D01*
X121324762Y-66444762D01*
X121229524Y-66349524D01*
X121181905Y-66254286D01*
X121134286Y-66063810D01*
X121134286Y-65920952D01*
X121181905Y-65730476D01*
X121229524Y-65635238D01*
X121324762Y-65540000D01*
X121467620Y-65492381D01*
X121562858Y-65492381D01*
X121705715Y-65540000D01*
X121753334Y-65587619D01*
X122324762Y-65920952D02*
X122229524Y-65873333D01*
X122181905Y-65825714D01*
X122134286Y-65730476D01*
X122134286Y-65682857D01*
X122181905Y-65587619D01*
X122229524Y-65540000D01*
X122324762Y-65492381D01*
X122515239Y-65492381D01*
X122610477Y-65540000D01*
X122658096Y-65587619D01*
X122705715Y-65682857D01*
X122705715Y-65730476D01*
X122658096Y-65825714D01*
X122610477Y-65873333D01*
X122515239Y-65920952D01*
X122324762Y-65920952D01*
X122229524Y-65968571D01*
X122181905Y-66016190D01*
X122134286Y-66111429D01*
X122134286Y-66301905D01*
X122181905Y-66397143D01*
X122229524Y-66444762D01*
X122324762Y-66492381D01*
X122515239Y-66492381D01*
X122610477Y-66444762D01*
X122658096Y-66397143D01*
X122705715Y-66301905D01*
X122705715Y-66111429D01*
X122658096Y-66016190D01*
X122610477Y-65968571D01*
X122515239Y-65920952D01*
X126833334Y-66397143D02*
X126785715Y-66444762D01*
X126642858Y-66492381D01*
X126547620Y-66492381D01*
X126404762Y-66444762D01*
X126309524Y-66349524D01*
X126261905Y-66254286D01*
X126214286Y-66063810D01*
X126214286Y-65920952D01*
X126261905Y-65730476D01*
X126309524Y-65635238D01*
X126404762Y-65540000D01*
X126547620Y-65492381D01*
X126642858Y-65492381D01*
X126785715Y-65540000D01*
X126833334Y-65587619D01*
X127309524Y-66492381D02*
X127500000Y-66492381D01*
X127595239Y-66444762D01*
X127642858Y-66397143D01*
X127738096Y-66254286D01*
X127785715Y-66063810D01*
X127785715Y-65682857D01*
X127738096Y-65587619D01*
X127690477Y-65540000D01*
X127595239Y-65492381D01*
X127404762Y-65492381D01*
X127309524Y-65540000D01*
X127261905Y-65587619D01*
X127214286Y-65682857D01*
X127214286Y-65920952D01*
X127261905Y-66016190D01*
X127309524Y-66063810D01*
X127404762Y-66111429D01*
X127595239Y-66111429D01*
X127690477Y-66063810D01*
X127738096Y-66016190D01*
X127785715Y-65920952D01*
X158107143Y-126087143D02*
X158059524Y-126134762D01*
X157916667Y-126182381D01*
X157821429Y-126182381D01*
X157678571Y-126134762D01*
X157583333Y-126039524D01*
X157535714Y-125944286D01*
X157488095Y-125753810D01*
X157488095Y-125610952D01*
X157535714Y-125420476D01*
X157583333Y-125325238D01*
X157678571Y-125230000D01*
X157821429Y-125182381D01*
X157916667Y-125182381D01*
X158059524Y-125230000D01*
X158107143Y-125277619D01*
X159059524Y-126182381D02*
X158488095Y-126182381D01*
X158773809Y-126182381D02*
X158773809Y-125182381D01*
X158678571Y-125325238D01*
X158583333Y-125420476D01*
X158488095Y-125468095D01*
X159678571Y-125182381D02*
X159773810Y-125182381D01*
X159869048Y-125230000D01*
X159916667Y-125277619D01*
X159964286Y-125372857D01*
X160011905Y-125563333D01*
X160011905Y-125801429D01*
X159964286Y-125991905D01*
X159916667Y-126087143D01*
X159869048Y-126134762D01*
X159773810Y-126182381D01*
X159678571Y-126182381D01*
X159583333Y-126134762D01*
X159535714Y-126087143D01*
X159488095Y-125991905D01*
X159440476Y-125801429D01*
X159440476Y-125563333D01*
X159488095Y-125372857D01*
X159535714Y-125277619D01*
X159583333Y-125230000D01*
X159678571Y-125182381D01*
X158107143Y-129897143D02*
X158059524Y-129944762D01*
X157916667Y-129992381D01*
X157821429Y-129992381D01*
X157678571Y-129944762D01*
X157583333Y-129849524D01*
X157535714Y-129754286D01*
X157488095Y-129563810D01*
X157488095Y-129420952D01*
X157535714Y-129230476D01*
X157583333Y-129135238D01*
X157678571Y-129040000D01*
X157821429Y-128992381D01*
X157916667Y-128992381D01*
X158059524Y-129040000D01*
X158107143Y-129087619D01*
X159059524Y-129992381D02*
X158488095Y-129992381D01*
X158773809Y-129992381D02*
X158773809Y-128992381D01*
X158678571Y-129135238D01*
X158583333Y-129230476D01*
X158488095Y-129278095D01*
X160011905Y-129992381D02*
X159440476Y-129992381D01*
X159726190Y-129992381D02*
X159726190Y-128992381D01*
X159630952Y-129135238D01*
X159535714Y-129230476D01*
X159440476Y-129278095D01*
X158107143Y-80367143D02*
X158059524Y-80414762D01*
X157916667Y-80462381D01*
X157821429Y-80462381D01*
X157678571Y-80414762D01*
X157583333Y-80319524D01*
X157535714Y-80224286D01*
X157488095Y-80033810D01*
X157488095Y-79890952D01*
X157535714Y-79700476D01*
X157583333Y-79605238D01*
X157678571Y-79510000D01*
X157821429Y-79462381D01*
X157916667Y-79462381D01*
X158059524Y-79510000D01*
X158107143Y-79557619D01*
X159059524Y-80462381D02*
X158488095Y-80462381D01*
X158773809Y-80462381D02*
X158773809Y-79462381D01*
X158678571Y-79605238D01*
X158583333Y-79700476D01*
X158488095Y-79748095D01*
X159440476Y-79557619D02*
X159488095Y-79510000D01*
X159583333Y-79462381D01*
X159821429Y-79462381D01*
X159916667Y-79510000D01*
X159964286Y-79557619D01*
X160011905Y-79652857D01*
X160011905Y-79748095D01*
X159964286Y-79890952D01*
X159392857Y-80462381D01*
X160011905Y-80462381D01*
X158107143Y-84177143D02*
X158059524Y-84224762D01*
X157916667Y-84272381D01*
X157821429Y-84272381D01*
X157678571Y-84224762D01*
X157583333Y-84129524D01*
X157535714Y-84034286D01*
X157488095Y-83843810D01*
X157488095Y-83700952D01*
X157535714Y-83510476D01*
X157583333Y-83415238D01*
X157678571Y-83320000D01*
X157821429Y-83272381D01*
X157916667Y-83272381D01*
X158059524Y-83320000D01*
X158107143Y-83367619D01*
X159059524Y-84272381D02*
X158488095Y-84272381D01*
X158773809Y-84272381D02*
X158773809Y-83272381D01*
X158678571Y-83415238D01*
X158583333Y-83510476D01*
X158488095Y-83558095D01*
X159392857Y-83272381D02*
X160011905Y-83272381D01*
X159678571Y-83653333D01*
X159821429Y-83653333D01*
X159916667Y-83700952D01*
X159964286Y-83748571D01*
X160011905Y-83843810D01*
X160011905Y-84081905D01*
X159964286Y-84177143D01*
X159916667Y-84224762D01*
X159821429Y-84272381D01*
X159535714Y-84272381D01*
X159440476Y-84224762D01*
X159392857Y-84177143D01*
X151757143Y-60047144D02*
X151709524Y-60094763D01*
X151566667Y-60142382D01*
X151471429Y-60142382D01*
X151328571Y-60094763D01*
X151233333Y-59999525D01*
X151185714Y-59904287D01*
X151138095Y-59713811D01*
X151138095Y-59570953D01*
X151185714Y-59380477D01*
X151233333Y-59285239D01*
X151328571Y-59190001D01*
X151471429Y-59142382D01*
X151566667Y-59142382D01*
X151709524Y-59190001D01*
X151757143Y-59237620D01*
X152709524Y-60142382D02*
X152138095Y-60142382D01*
X152423809Y-60142382D02*
X152423809Y-59142382D01*
X152328571Y-59285239D01*
X152233333Y-59380477D01*
X152138095Y-59428096D01*
X153566667Y-59475715D02*
X153566667Y-60142382D01*
X153328571Y-59094763D02*
X153090476Y-59809049D01*
X153709524Y-59809049D01*
X156837143Y-60047143D02*
X156789524Y-60094762D01*
X156646667Y-60142381D01*
X156551429Y-60142381D01*
X156408571Y-60094762D01*
X156313333Y-59999524D01*
X156265714Y-59904286D01*
X156218095Y-59713810D01*
X156218095Y-59570952D01*
X156265714Y-59380476D01*
X156313333Y-59285238D01*
X156408571Y-59190000D01*
X156551429Y-59142381D01*
X156646667Y-59142381D01*
X156789524Y-59190000D01*
X156837143Y-59237619D01*
X157789524Y-60142381D02*
X157218095Y-60142381D01*
X157503809Y-60142381D02*
X157503809Y-59142381D01*
X157408571Y-59285238D01*
X157313333Y-59380476D01*
X157218095Y-59428095D01*
X158694286Y-59142381D02*
X158218095Y-59142381D01*
X158170476Y-59618571D01*
X158218095Y-59570952D01*
X158313333Y-59523333D01*
X158551429Y-59523333D01*
X158646667Y-59570952D01*
X158694286Y-59618571D01*
X158741905Y-59713810D01*
X158741905Y-59951905D01*
X158694286Y-60047143D01*
X158646667Y-60094762D01*
X158551429Y-60142381D01*
X158313333Y-60142381D01*
X158218095Y-60094762D01*
X158170476Y-60047143D01*
X102227143Y-66397143D02*
X102179524Y-66444762D01*
X102036667Y-66492381D01*
X101941429Y-66492381D01*
X101798571Y-66444762D01*
X101703333Y-66349524D01*
X101655714Y-66254286D01*
X101608095Y-66063810D01*
X101608095Y-65920952D01*
X101655714Y-65730476D01*
X101703333Y-65635238D01*
X101798571Y-65540000D01*
X101941429Y-65492381D01*
X102036667Y-65492381D01*
X102179524Y-65540000D01*
X102227143Y-65587619D01*
X103179524Y-66492381D02*
X102608095Y-66492381D01*
X102893809Y-66492381D02*
X102893809Y-65492381D01*
X102798571Y-65635238D01*
X102703333Y-65730476D01*
X102608095Y-65778095D01*
X104036667Y-65492381D02*
X103846190Y-65492381D01*
X103750952Y-65540000D01*
X103703333Y-65587619D01*
X103608095Y-65730476D01*
X103560476Y-65920952D01*
X103560476Y-66301905D01*
X103608095Y-66397143D01*
X103655714Y-66444762D01*
X103750952Y-66492381D01*
X103941429Y-66492381D01*
X104036667Y-66444762D01*
X104084286Y-66397143D01*
X104131905Y-66301905D01*
X104131905Y-66063810D01*
X104084286Y-65968571D01*
X104036667Y-65920952D01*
X103941429Y-65873333D01*
X103750952Y-65873333D01*
X103655714Y-65920952D01*
X103608095Y-65968571D01*
X103560476Y-66063810D01*
X107307143Y-66397143D02*
X107259524Y-66444762D01*
X107116667Y-66492381D01*
X107021429Y-66492381D01*
X106878571Y-66444762D01*
X106783333Y-66349524D01*
X106735714Y-66254286D01*
X106688095Y-66063810D01*
X106688095Y-65920952D01*
X106735714Y-65730476D01*
X106783333Y-65635238D01*
X106878571Y-65540000D01*
X107021429Y-65492381D01*
X107116667Y-65492381D01*
X107259524Y-65540000D01*
X107307143Y-65587619D01*
X108259524Y-66492381D02*
X107688095Y-66492381D01*
X107973809Y-66492381D02*
X107973809Y-65492381D01*
X107878571Y-65635238D01*
X107783333Y-65730476D01*
X107688095Y-65778095D01*
X108592857Y-65492381D02*
X109259524Y-65492381D01*
X108830952Y-66492381D01*
X127936667Y-59142381D02*
X127936667Y-59856667D01*
X127889047Y-59999524D01*
X127793809Y-60094762D01*
X127650952Y-60142381D01*
X127555714Y-60142381D01*
X128936667Y-60142381D02*
X128365238Y-60142381D01*
X128650952Y-60142381D02*
X128650952Y-59142381D01*
X128555714Y-59285238D01*
X128460476Y-59380476D01*
X128365238Y-59428095D01*
X153336667Y-64432381D02*
X153336667Y-65146667D01*
X153289047Y-65289524D01*
X153193809Y-65384762D01*
X153050952Y-65432381D01*
X152955714Y-65432381D01*
X154241429Y-64765714D02*
X154241429Y-65432381D01*
X154003333Y-64384762D02*
X153765238Y-65099048D01*
X154384286Y-65099048D01*
X153336667Y-87292381D02*
X153336667Y-88006667D01*
X153289047Y-88149524D01*
X153193809Y-88244762D01*
X153050952Y-88292381D01*
X152955714Y-88292381D01*
X154289048Y-87292381D02*
X153812857Y-87292381D01*
X153765238Y-87768571D01*
X153812857Y-87720952D01*
X153908095Y-87673333D01*
X154146191Y-87673333D01*
X154241429Y-87720952D01*
X154289048Y-87768571D01*
X154336667Y-87863810D01*
X154336667Y-88101905D01*
X154289048Y-88197143D01*
X154241429Y-88244762D01*
X154146191Y-88292381D01*
X153908095Y-88292381D01*
X153812857Y-88244762D01*
X153765238Y-88197143D01*
X153336667Y-133012381D02*
X153336667Y-133726667D01*
X153289047Y-133869524D01*
X153193809Y-133964762D01*
X153050952Y-134012381D01*
X152955714Y-134012381D01*
X154241429Y-133012381D02*
X154050952Y-133012381D01*
X153955714Y-133060000D01*
X153908095Y-133107619D01*
X153812857Y-133250476D01*
X153765238Y-133440952D01*
X153765238Y-133821905D01*
X153812857Y-133917143D01*
X153860476Y-133964762D01*
X153955714Y-134012381D01*
X154146191Y-134012381D01*
X154241429Y-133964762D01*
X154289048Y-133917143D01*
X154336667Y-133821905D01*
X154336667Y-133583810D01*
X154289048Y-133488571D01*
X154241429Y-133440952D01*
X154146191Y-133393333D01*
X153955714Y-133393333D01*
X153860476Y-133440952D01*
X153812857Y-133488571D01*
X153765238Y-133583810D01*
X153336667Y-110152381D02*
X153336667Y-110866667D01*
X153289047Y-111009524D01*
X153193809Y-111104762D01*
X153050952Y-111152381D01*
X152955714Y-111152381D01*
X153717619Y-110152381D02*
X154384286Y-110152381D01*
X153955714Y-111152381D01*
X116673334Y-85542381D02*
X116340000Y-85066190D01*
X116101905Y-85542381D02*
X116101905Y-84542381D01*
X116482858Y-84542381D01*
X116578096Y-84590000D01*
X116625715Y-84637619D01*
X116673334Y-84732857D01*
X116673334Y-84875714D01*
X116625715Y-84970952D01*
X116578096Y-85018571D01*
X116482858Y-85066190D01*
X116101905Y-85066190D01*
X117149524Y-85542381D02*
X117340000Y-85542381D01*
X117435239Y-85494762D01*
X117482858Y-85447143D01*
X117578096Y-85304286D01*
X117625715Y-85113810D01*
X117625715Y-84732857D01*
X117578096Y-84637619D01*
X117530477Y-84590000D01*
X117435239Y-84542381D01*
X117244762Y-84542381D01*
X117149524Y-84590000D01*
X117101905Y-84637619D01*
X117054286Y-84732857D01*
X117054286Y-84970952D01*
X117101905Y-85066190D01*
X117149524Y-85113810D01*
X117244762Y-85161429D01*
X117435239Y-85161429D01*
X117530477Y-85113810D01*
X117578096Y-85066190D01*
X117625715Y-84970952D01*
X137787143Y-86812381D02*
X137453809Y-86336190D01*
X137215714Y-86812381D02*
X137215714Y-85812381D01*
X137596667Y-85812381D01*
X137691905Y-85860000D01*
X137739524Y-85907619D01*
X137787143Y-86002857D01*
X137787143Y-86145714D01*
X137739524Y-86240952D01*
X137691905Y-86288571D01*
X137596667Y-86336190D01*
X137215714Y-86336190D01*
X138739524Y-86812381D02*
X138168095Y-86812381D01*
X138453809Y-86812381D02*
X138453809Y-85812381D01*
X138358571Y-85955238D01*
X138263333Y-86050476D01*
X138168095Y-86098095D01*
X139358571Y-85812381D02*
X139453810Y-85812381D01*
X139549048Y-85860000D01*
X139596667Y-85907619D01*
X139644286Y-86002857D01*
X139691905Y-86193333D01*
X139691905Y-86431429D01*
X139644286Y-86621905D01*
X139596667Y-86717143D01*
X139549048Y-86764762D01*
X139453810Y-86812381D01*
X139358571Y-86812381D01*
X139263333Y-86764762D01*
X139215714Y-86717143D01*
X139168095Y-86621905D01*
X139120476Y-86431429D01*
X139120476Y-86193333D01*
X139168095Y-86002857D01*
X139215714Y-85907619D01*
X139263333Y-85860000D01*
X139358571Y-85812381D01*
X113609524Y-104592381D02*
X113276190Y-104116190D01*
X113038095Y-104592381D02*
X113038095Y-103592381D01*
X113419048Y-103592381D01*
X113514286Y-103640000D01*
X113561905Y-103687619D01*
X113609524Y-103782857D01*
X113609524Y-103925714D01*
X113561905Y-104020952D01*
X113514286Y-104068571D01*
X113419048Y-104116190D01*
X113038095Y-104116190D01*
X114038095Y-104592381D02*
X114038095Y-103592381D01*
X114609524Y-104592381D01*
X114609524Y-103592381D01*
X115609524Y-104592381D02*
X115038095Y-104592381D01*
X115323809Y-104592381D02*
X115323809Y-103592381D01*
X115228571Y-103735238D01*
X115133333Y-103830476D01*
X115038095Y-103878095D01*
X184904762Y-137602381D02*
X184571428Y-137126190D01*
X184333333Y-137602381D02*
X184333333Y-136602381D01*
X184714286Y-136602381D01*
X184809524Y-136650000D01*
X184857143Y-136697619D01*
X184904762Y-136792857D01*
X184904762Y-136935714D01*
X184857143Y-137030952D01*
X184809524Y-137078571D01*
X184714286Y-137126190D01*
X184333333Y-137126190D01*
X185190476Y-136602381D02*
X185523809Y-137602381D01*
X185857143Y-136602381D01*
X186714286Y-137602381D02*
X186142857Y-137602381D01*
X186428571Y-137602381D02*
X186428571Y-136602381D01*
X186333333Y-136745238D01*
X186238095Y-136840476D01*
X186142857Y-136888095D01*
X157988095Y-64432381D02*
X157988095Y-65241905D01*
X158035714Y-65337143D01*
X158083333Y-65384762D01*
X158178571Y-65432381D01*
X158369048Y-65432381D01*
X158464286Y-65384762D01*
X158511905Y-65337143D01*
X158559524Y-65241905D01*
X158559524Y-64432381D01*
X159559524Y-65432381D02*
X158988095Y-65432381D01*
X159273809Y-65432381D02*
X159273809Y-64432381D01*
X159178571Y-64575238D01*
X159083333Y-64670476D01*
X158988095Y-64718095D01*
X157988095Y-87292381D02*
X157988095Y-88101905D01*
X158035714Y-88197143D01*
X158083333Y-88244762D01*
X158178571Y-88292381D01*
X158369048Y-88292381D01*
X158464286Y-88244762D01*
X158511905Y-88197143D01*
X158559524Y-88101905D01*
X158559524Y-87292381D01*
X158988095Y-87387619D02*
X159035714Y-87340000D01*
X159130952Y-87292381D01*
X159369048Y-87292381D01*
X159464286Y-87340000D01*
X159511905Y-87387619D01*
X159559524Y-87482857D01*
X159559524Y-87578095D01*
X159511905Y-87720952D01*
X158940476Y-88292381D01*
X159559524Y-88292381D01*
X157988095Y-133012381D02*
X157988095Y-133821905D01*
X158035714Y-133917143D01*
X158083333Y-133964762D01*
X158178571Y-134012381D01*
X158369048Y-134012381D01*
X158464286Y-133964762D01*
X158511905Y-133917143D01*
X158559524Y-133821905D01*
X158559524Y-133012381D01*
X158940476Y-133012381D02*
X159559524Y-133012381D01*
X159226190Y-133393333D01*
X159369048Y-133393333D01*
X159464286Y-133440952D01*
X159511905Y-133488571D01*
X159559524Y-133583810D01*
X159559524Y-133821905D01*
X159511905Y-133917143D01*
X159464286Y-133964762D01*
X159369048Y-134012381D01*
X159083333Y-134012381D01*
X158988095Y-133964762D01*
X158940476Y-133917143D01*
X157988095Y-110152381D02*
X157988095Y-110961905D01*
X158035714Y-111057143D01*
X158083333Y-111104762D01*
X158178571Y-111152381D01*
X158369048Y-111152381D01*
X158464286Y-111104762D01*
X158511905Y-111057143D01*
X158559524Y-110961905D01*
X158559524Y-110152381D01*
X159464286Y-110485714D02*
X159464286Y-111152381D01*
X159226190Y-110104762D02*
X158988095Y-110819048D01*
X159607143Y-110819048D01*
X173228095Y-75862381D02*
X173228095Y-76671905D01*
X173275714Y-76767143D01*
X173323333Y-76814762D01*
X173418571Y-76862381D01*
X173609048Y-76862381D01*
X173704286Y-76814762D01*
X173751905Y-76767143D01*
X173799524Y-76671905D01*
X173799524Y-75862381D01*
X174751905Y-75862381D02*
X174275714Y-75862381D01*
X174228095Y-76338571D01*
X174275714Y-76290952D01*
X174370952Y-76243333D01*
X174609048Y-76243333D01*
X174704286Y-76290952D01*
X174751905Y-76338571D01*
X174799524Y-76433810D01*
X174799524Y-76671905D01*
X174751905Y-76767143D01*
X174704286Y-76814762D01*
X174609048Y-76862381D01*
X174370952Y-76862381D01*
X174275714Y-76814762D01*
X174228095Y-76767143D01*
X173228095Y-101262381D02*
X173228095Y-102071905D01*
X173275714Y-102167143D01*
X173323333Y-102214762D01*
X173418571Y-102262381D01*
X173609048Y-102262381D01*
X173704286Y-102214762D01*
X173751905Y-102167143D01*
X173799524Y-102071905D01*
X173799524Y-101262381D01*
X174704286Y-101262381D02*
X174513809Y-101262381D01*
X174418571Y-101310000D01*
X174370952Y-101357619D01*
X174275714Y-101500476D01*
X174228095Y-101690952D01*
X174228095Y-102071905D01*
X174275714Y-102167143D01*
X174323333Y-102214762D01*
X174418571Y-102262381D01*
X174609048Y-102262381D01*
X174704286Y-102214762D01*
X174751905Y-102167143D01*
X174799524Y-102071905D01*
X174799524Y-101833810D01*
X174751905Y-101738571D01*
X174704286Y-101690952D01*
X174609048Y-101643333D01*
X174418571Y-101643333D01*
X174323333Y-101690952D01*
X174275714Y-101738571D01*
X174228095Y-101833810D01*
X192278095Y-89622381D02*
X192278095Y-90431905D01*
X192325714Y-90527143D01*
X192373333Y-90574762D01*
X192468571Y-90622381D01*
X192659048Y-90622381D01*
X192754286Y-90574762D01*
X192801905Y-90527143D01*
X192849524Y-90431905D01*
X192849524Y-89622381D01*
X193468571Y-90050952D02*
X193373333Y-90003333D01*
X193325714Y-89955714D01*
X193278095Y-89860476D01*
X193278095Y-89812857D01*
X193325714Y-89717619D01*
X193373333Y-89670000D01*
X193468571Y-89622381D01*
X193659048Y-89622381D01*
X193754286Y-89670000D01*
X193801905Y-89717619D01*
X193849524Y-89812857D01*
X193849524Y-89860476D01*
X193801905Y-89955714D01*
X193754286Y-90003333D01*
X193659048Y-90050952D01*
X193468571Y-90050952D01*
X193373333Y-90098571D01*
X193325714Y-90146190D01*
X193278095Y-90241429D01*
X193278095Y-90431905D01*
X193325714Y-90527143D01*
X193373333Y-90574762D01*
X193468571Y-90622381D01*
X193659048Y-90622381D01*
X193754286Y-90574762D01*
X193801905Y-90527143D01*
X193849524Y-90431905D01*
X193849524Y-90241429D01*
X193801905Y-90146190D01*
X193754286Y-90098571D01*
X193659048Y-90050952D01*
X192278095Y-104862381D02*
X192278095Y-105671905D01*
X192325714Y-105767143D01*
X192373333Y-105814762D01*
X192468571Y-105862381D01*
X192659048Y-105862381D01*
X192754286Y-105814762D01*
X192801905Y-105767143D01*
X192849524Y-105671905D01*
X192849524Y-104862381D01*
X193373333Y-105862381D02*
X193563809Y-105862381D01*
X193659048Y-105814762D01*
X193706667Y-105767143D01*
X193801905Y-105624286D01*
X193849524Y-105433810D01*
X193849524Y-105052857D01*
X193801905Y-104957619D01*
X193754286Y-104910000D01*
X193659048Y-104862381D01*
X193468571Y-104862381D01*
X193373333Y-104910000D01*
X193325714Y-104957619D01*
X193278095Y-105052857D01*
X193278095Y-105290952D01*
X193325714Y-105386190D01*
X193373333Y-105433810D01*
X193468571Y-105481429D01*
X193659048Y-105481429D01*
X193754286Y-105433810D01*
X193801905Y-105386190D01*
X193849524Y-105290952D01*
X191801905Y-120102381D02*
X191801905Y-120911905D01*
X191849524Y-121007143D01*
X191897143Y-121054762D01*
X191992381Y-121102381D01*
X192182858Y-121102381D01*
X192278096Y-121054762D01*
X192325715Y-121007143D01*
X192373334Y-120911905D01*
X192373334Y-120102381D01*
X193373334Y-121102381D02*
X192801905Y-121102381D01*
X193087619Y-121102381D02*
X193087619Y-120102381D01*
X192992381Y-120245238D01*
X192897143Y-120340476D01*
X192801905Y-120388095D01*
X193992381Y-120102381D02*
X194087620Y-120102381D01*
X194182858Y-120150000D01*
X194230477Y-120197619D01*
X194278096Y-120292857D01*
X194325715Y-120483333D01*
X194325715Y-120721429D01*
X194278096Y-120911905D01*
X194230477Y-121007143D01*
X194182858Y-121054762D01*
X194087620Y-121102381D01*
X193992381Y-121102381D01*
X193897143Y-121054762D01*
X193849524Y-121007143D01*
X193801905Y-120911905D01*
X193754286Y-120721429D01*
X193754286Y-120483333D01*
X193801905Y-120292857D01*
X193849524Y-120197619D01*
X193897143Y-120150000D01*
X193992381Y-120102381D01*
X172751905Y-136822381D02*
X172751905Y-137631905D01*
X172799524Y-137727143D01*
X172847143Y-137774762D01*
X172942381Y-137822381D01*
X173132858Y-137822381D01*
X173228096Y-137774762D01*
X173275715Y-137727143D01*
X173323334Y-137631905D01*
X173323334Y-136822381D01*
X174323334Y-137822381D02*
X173751905Y-137822381D01*
X174037619Y-137822381D02*
X174037619Y-136822381D01*
X173942381Y-136965238D01*
X173847143Y-137060476D01*
X173751905Y-137108095D01*
X174704286Y-136917619D02*
X174751905Y-136870000D01*
X174847143Y-136822381D01*
X175085239Y-136822381D01*
X175180477Y-136870000D01*
X175228096Y-136917619D01*
X175275715Y-137012857D01*
X175275715Y-137108095D01*
X175228096Y-137250952D01*
X174656667Y-137822381D01*
X175275715Y-137822381D01*
X104171905Y-75862381D02*
X104171905Y-76671905D01*
X104219524Y-76767143D01*
X104267143Y-76814762D01*
X104362381Y-76862381D01*
X104552858Y-76862381D01*
X104648096Y-76814762D01*
X104695715Y-76767143D01*
X104743334Y-76671905D01*
X104743334Y-75862381D01*
X105743334Y-76862381D02*
X105171905Y-76862381D01*
X105457619Y-76862381D02*
X105457619Y-75862381D01*
X105362381Y-76005238D01*
X105267143Y-76100476D01*
X105171905Y-76148095D01*
X106076667Y-75862381D02*
X106695715Y-75862381D01*
X106362381Y-76243333D01*
X106505239Y-76243333D01*
X106600477Y-76290952D01*
X106648096Y-76338571D01*
X106695715Y-76433810D01*
X106695715Y-76671905D01*
X106648096Y-76767143D01*
X106600477Y-76814762D01*
X106505239Y-76862381D01*
X106219524Y-76862381D01*
X106124286Y-76814762D01*
X106076667Y-76767143D01*
X125761905Y-75862381D02*
X125761905Y-76671905D01*
X125809524Y-76767143D01*
X125857143Y-76814762D01*
X125952381Y-76862381D01*
X126142858Y-76862381D01*
X126238096Y-76814762D01*
X126285715Y-76767143D01*
X126333334Y-76671905D01*
X126333334Y-75862381D01*
X127333334Y-76862381D02*
X126761905Y-76862381D01*
X127047619Y-76862381D02*
X127047619Y-75862381D01*
X126952381Y-76005238D01*
X126857143Y-76100476D01*
X126761905Y-76148095D01*
X128190477Y-76195714D02*
X128190477Y-76862381D01*
X127952381Y-75814762D02*
X127714286Y-76529048D01*
X128333334Y-76529048D01*
X134651905Y-103592381D02*
X134651905Y-104401905D01*
X134699524Y-104497143D01*
X134747143Y-104544762D01*
X134842381Y-104592381D01*
X135032858Y-104592381D01*
X135128096Y-104544762D01*
X135175715Y-104497143D01*
X135223334Y-104401905D01*
X135223334Y-103592381D01*
X136223334Y-104592381D02*
X135651905Y-104592381D01*
X135937619Y-104592381D02*
X135937619Y-103592381D01*
X135842381Y-103735238D01*
X135747143Y-103830476D01*
X135651905Y-103878095D01*
X137128096Y-103592381D02*
X136651905Y-103592381D01*
X136604286Y-104068571D01*
X136651905Y-104020952D01*
X136747143Y-103973333D01*
X136985239Y-103973333D01*
X137080477Y-104020952D01*
X137128096Y-104068571D01*
X137175715Y-104163810D01*
X137175715Y-104401905D01*
X137128096Y-104497143D01*
X137080477Y-104544762D01*
X136985239Y-104592381D01*
X136747143Y-104592381D01*
X136651905Y-104544762D01*
X136604286Y-104497143D01*
X111426667Y-59142381D02*
X111426667Y-59856667D01*
X111379047Y-59999524D01*
X111283809Y-60094762D01*
X111140952Y-60142381D01*
X111045714Y-60142381D01*
X111855238Y-59237619D02*
X111902857Y-59190000D01*
X111998095Y-59142381D01*
X112236191Y-59142381D01*
X112331429Y-59190000D01*
X112379048Y-59237619D01*
X112426667Y-59332857D01*
X112426667Y-59428095D01*
X112379048Y-59570952D01*
X111807619Y-60142381D01*
X112426667Y-60142381D01*
X183459524Y-75382381D02*
X183126190Y-74906190D01*
X182888095Y-75382381D02*
X182888095Y-74382381D01*
X183269048Y-74382381D01*
X183364286Y-74430000D01*
X183411905Y-74477619D01*
X183459524Y-74572857D01*
X183459524Y-74715714D01*
X183411905Y-74810952D01*
X183364286Y-74858571D01*
X183269048Y-74906190D01*
X182888095Y-74906190D01*
X183888095Y-75382381D02*
X183888095Y-74382381D01*
X184459524Y-75382381D01*
X184459524Y-74382381D01*
X184888095Y-74477619D02*
X184935714Y-74430000D01*
X185030952Y-74382381D01*
X185269048Y-74382381D01*
X185364286Y-74430000D01*
X185411905Y-74477619D01*
X185459524Y-74572857D01*
X185459524Y-74668095D01*
X185411905Y-74810952D01*
X184840476Y-75382381D01*
X185459524Y-75382381D01*
X183459524Y-100782381D02*
X183126190Y-100306190D01*
X182888095Y-100782381D02*
X182888095Y-99782381D01*
X183269048Y-99782381D01*
X183364286Y-99830000D01*
X183411905Y-99877619D01*
X183459524Y-99972857D01*
X183459524Y-100115714D01*
X183411905Y-100210952D01*
X183364286Y-100258571D01*
X183269048Y-100306190D01*
X182888095Y-100306190D01*
X183888095Y-100782381D02*
X183888095Y-99782381D01*
X184459524Y-100782381D01*
X184459524Y-99782381D01*
X184840476Y-99782381D02*
X185459524Y-99782381D01*
X185126190Y-100163333D01*
X185269048Y-100163333D01*
X185364286Y-100210952D01*
X185411905Y-100258571D01*
X185459524Y-100353810D01*
X185459524Y-100591905D01*
X185411905Y-100687143D01*
X185364286Y-100734762D01*
X185269048Y-100782381D01*
X184983333Y-100782381D01*
X184888095Y-100734762D01*
X184840476Y-100687143D01*
X171450000Y-128627143D02*
X171497619Y-128674762D01*
X171450000Y-128722381D01*
X171402381Y-128674762D01*
X171450000Y-128627143D01*
X171450000Y-128722381D01*
X176291905Y-128627143D02*
X176339524Y-128674762D01*
X176291905Y-128722381D01*
X176244286Y-128674762D01*
X176291905Y-128627143D01*
X176291905Y-128722381D01*
X176768095Y-128627143D02*
X176815714Y-128674762D01*
X176768095Y-128722381D01*
X176720476Y-128674762D01*
X176768095Y-128627143D01*
X176768095Y-128722381D01*
X181133810Y-128627143D02*
X181181429Y-128674762D01*
X181133810Y-128722381D01*
X181086191Y-128674762D01*
X181133810Y-128627143D01*
X181133810Y-128722381D01*
X181610000Y-128627143D02*
X181657619Y-128674762D01*
X181610000Y-128722381D01*
X181562381Y-128674762D01*
X181610000Y-128627143D01*
X181610000Y-128722381D01*
X182086190Y-128627143D02*
X182133809Y-128674762D01*
X182086190Y-128722381D01*
X182038571Y-128674762D01*
X182086190Y-128627143D01*
X182086190Y-128722381D01*
X192278095Y-84332381D02*
X192278095Y-85141905D01*
X192325714Y-85237143D01*
X192373333Y-85284762D01*
X192468571Y-85332381D01*
X192659048Y-85332381D01*
X192754286Y-85284762D01*
X192801905Y-85237143D01*
X192849524Y-85141905D01*
X192849524Y-84332381D01*
X193230476Y-84332381D02*
X193897143Y-84332381D01*
X193468571Y-85332381D01*
M02*
