G04 #@! TF.FileFunction,Legend,Bot*
%FSLAX46Y46*%
G04 Gerber Fmt 4.6, Leading zero omitted, Abs format (unit mm)*
G04 Created by KiCad (PCBNEW 4.0.7) date 11/29/17 05:36:57*
%MOMM*%
%LPD*%
G01*
G04 APERTURE LIST*
%ADD10C,0.100000*%
%ADD11C,0.120000*%
%ADD12C,0.150000*%
G04 APERTURE END LIST*
D10*
D11*
X175320000Y-52645000D02*
X175320000Y-57845000D01*
X165100000Y-52645000D02*
X175320000Y-52645000D01*
X162500000Y-57845000D02*
X175320000Y-57845000D01*
X165100000Y-52645000D02*
X165100000Y-55245000D01*
X165100000Y-55245000D02*
X162500000Y-55245000D01*
X162500000Y-55245000D02*
X162500000Y-57845000D01*
X163830000Y-52645000D02*
X162500000Y-52645000D01*
X162500000Y-52645000D02*
X162500000Y-53975000D01*
D12*
X178133333Y-54697381D02*
X178133333Y-55411667D01*
X178180953Y-55554524D01*
X178276191Y-55649762D01*
X178419048Y-55697381D01*
X178514286Y-55697381D01*
X177752381Y-54697381D02*
X177133333Y-54697381D01*
X177466667Y-55078333D01*
X177323809Y-55078333D01*
X177228571Y-55125952D01*
X177180952Y-55173571D01*
X177133333Y-55268810D01*
X177133333Y-55506905D01*
X177180952Y-55602143D01*
X177228571Y-55649762D01*
X177323809Y-55697381D01*
X177609524Y-55697381D01*
X177704762Y-55649762D01*
X177752381Y-55602143D01*
X144867381Y-58221667D02*
X145581667Y-58221667D01*
X145724524Y-58174047D01*
X145819762Y-58078809D01*
X145867381Y-57935952D01*
X145867381Y-57840714D01*
X145867381Y-58697857D02*
X144867381Y-58697857D01*
X144867381Y-59078810D01*
X144915000Y-59174048D01*
X144962619Y-59221667D01*
X145057857Y-59269286D01*
X145200714Y-59269286D01*
X145295952Y-59221667D01*
X145343571Y-59174048D01*
X145391190Y-59078810D01*
X145391190Y-58697857D01*
X145867381Y-60221667D02*
X145867381Y-59650238D01*
X145867381Y-59935952D02*
X144867381Y-59935952D01*
X145010238Y-59840714D01*
X145105476Y-59745476D01*
X145153095Y-59650238D01*
M02*
