G04 #@! TF.FileFunction,Copper,L1,Top,Signal*
%FSLAX46Y46*%
G04 Gerber Fmt 4.6, Leading zero omitted, Abs format (unit mm)*
G04 Created by KiCad (PCBNEW 4.0.7) date 11/29/17 00:42:09*
%MOMM*%
%LPD*%
G01*
G04 APERTURE LIST*
%ADD10C,0.100000*%
%ADD11R,1.700000X1.700000*%
%ADD12O,1.700000X1.700000*%
%ADD13R,1.600000X1.600000*%
%ADD14C,1.600000*%
%ADD15O,1.600000X1.600000*%
%ADD16C,2.340000*%
%ADD17C,1.700000*%
%ADD18C,0.889000*%
%ADD19C,0.381000*%
%ADD20C,0.254000*%
G04 APERTURE END LIST*
D10*
D11*
X162560000Y-54610000D03*
D12*
X162560000Y-57150000D03*
X165100000Y-54610000D03*
X165100000Y-57150000D03*
X167640000Y-54610000D03*
X167640000Y-57150000D03*
X170180000Y-54610000D03*
X170180000Y-57150000D03*
X172720000Y-54610000D03*
X172720000Y-57150000D03*
D13*
X133350000Y-61500000D03*
D14*
X133350000Y-63500000D03*
D13*
X143510000Y-62770000D03*
D14*
X143510000Y-64770000D03*
X138430000Y-63500000D03*
X138430000Y-61000000D03*
X144780000Y-58380000D03*
X144780000Y-55880000D03*
D13*
X102870000Y-55150000D03*
D14*
X102870000Y-57150000D03*
X107950000Y-57150000D03*
X107950000Y-54650000D03*
D13*
X121920000Y-70390000D03*
D14*
X121920000Y-72390000D03*
X127000000Y-72390000D03*
X127000000Y-69890000D03*
D13*
X153670000Y-123730000D03*
D14*
X153670000Y-125730000D03*
X152440000Y-129540000D03*
X154940000Y-129540000D03*
D13*
X153670000Y-78010000D03*
D14*
X153670000Y-80010000D03*
X152440000Y-83820000D03*
X154940000Y-83820000D03*
D13*
X152400000Y-55150000D03*
D14*
X152400000Y-57150000D03*
X157480000Y-57110000D03*
X157480000Y-54610000D03*
D13*
X102870000Y-70390000D03*
D14*
X102870000Y-72390000D03*
X107950000Y-72390000D03*
X107950000Y-69890000D03*
D11*
X139700000Y-54610000D03*
D12*
X139700000Y-57150000D03*
X137160000Y-54610000D03*
X137160000Y-57150000D03*
X134620000Y-54610000D03*
X134620000Y-57150000D03*
X132080000Y-54610000D03*
X132080000Y-57150000D03*
X129540000Y-54610000D03*
X129540000Y-57150000D03*
D11*
X153670000Y-67310000D03*
D12*
X153670000Y-69850000D03*
D11*
X153670000Y-90170000D03*
D12*
X153670000Y-92710000D03*
D11*
X153670000Y-135890000D03*
D12*
X153670000Y-138430000D03*
D11*
X153670000Y-113030000D03*
D12*
X153670000Y-115570000D03*
D14*
X113030000Y-91440000D03*
D15*
X113030000Y-81280000D03*
D14*
X134620000Y-91440000D03*
D15*
X134620000Y-81280000D03*
D13*
X119380000Y-106680000D03*
D15*
X116840000Y-106680000D03*
X114300000Y-106680000D03*
X111760000Y-106680000D03*
X109220000Y-106680000D03*
D16*
X185500000Y-146050000D03*
X190500000Y-143550000D03*
X185500000Y-141050000D03*
D11*
X158750000Y-67310000D03*
D12*
X158750000Y-69850000D03*
X158750000Y-72390000D03*
X158750000Y-74930000D03*
D11*
X158750000Y-90170000D03*
D12*
X158750000Y-92710000D03*
X158750000Y-95250000D03*
X158750000Y-97790000D03*
D11*
X158750000Y-135890000D03*
D12*
X158750000Y-138430000D03*
X158750000Y-140970000D03*
X158750000Y-143510000D03*
D11*
X158750000Y-113030000D03*
D12*
X158750000Y-115570000D03*
X158750000Y-118110000D03*
X158750000Y-120650000D03*
D13*
X170180000Y-78740000D03*
D15*
X177800000Y-93980000D03*
X170180000Y-81280000D03*
X177800000Y-91440000D03*
X170180000Y-83820000D03*
X177800000Y-88900000D03*
X170180000Y-86360000D03*
X177800000Y-86360000D03*
X170180000Y-88900000D03*
X177800000Y-83820000D03*
X170180000Y-91440000D03*
X177800000Y-81280000D03*
X170180000Y-93980000D03*
X177800000Y-78740000D03*
D13*
X170180000Y-104140000D03*
D15*
X177800000Y-119380000D03*
X170180000Y-106680000D03*
X177800000Y-116840000D03*
X170180000Y-109220000D03*
X177800000Y-114300000D03*
X170180000Y-111760000D03*
X177800000Y-111760000D03*
X170180000Y-114300000D03*
X177800000Y-109220000D03*
X170180000Y-116840000D03*
X177800000Y-106680000D03*
X170180000Y-119380000D03*
X177800000Y-104140000D03*
D11*
X193040000Y-97790000D03*
D12*
X193040000Y-95250000D03*
X193040000Y-92710000D03*
D11*
X193040000Y-113030000D03*
D12*
X193040000Y-110490000D03*
X193040000Y-107950000D03*
D11*
X193040000Y-128270000D03*
D12*
X193040000Y-125730000D03*
X193040000Y-123190000D03*
D13*
X170180000Y-139700000D03*
D15*
X177800000Y-147320000D03*
X170180000Y-142240000D03*
X177800000Y-144780000D03*
X170180000Y-144780000D03*
X177800000Y-142240000D03*
X170180000Y-147320000D03*
X177800000Y-139700000D03*
D11*
X105410000Y-78740000D03*
D12*
X105410000Y-81280000D03*
X105410000Y-83820000D03*
X105410000Y-86360000D03*
X105410000Y-88900000D03*
X105410000Y-91440000D03*
X105410000Y-93980000D03*
X105410000Y-96520000D03*
X105410000Y-99060000D03*
X105410000Y-101600000D03*
D11*
X127000000Y-78740000D03*
D12*
X127000000Y-81280000D03*
X127000000Y-83820000D03*
X127000000Y-86360000D03*
X127000000Y-88900000D03*
X127000000Y-91440000D03*
X127000000Y-93980000D03*
X127000000Y-96520000D03*
X127000000Y-99060000D03*
X127000000Y-101600000D03*
D13*
X142240000Y-106680000D03*
D15*
X129540000Y-116840000D03*
X139700000Y-106680000D03*
X132080000Y-116840000D03*
X137160000Y-106680000D03*
X134620000Y-116840000D03*
X134620000Y-106680000D03*
X137160000Y-116840000D03*
X132080000Y-106680000D03*
X139700000Y-116840000D03*
X129540000Y-106680000D03*
X142240000Y-116840000D03*
D11*
X113030000Y-54610000D03*
D12*
X113030000Y-57150000D03*
X115570000Y-54610000D03*
X115570000Y-57150000D03*
X118110000Y-54610000D03*
X118110000Y-57150000D03*
X120650000Y-54610000D03*
X120650000Y-57150000D03*
X123190000Y-54610000D03*
X123190000Y-57150000D03*
D13*
X184150000Y-77470000D03*
D15*
X184150000Y-80010000D03*
X184150000Y-82550000D03*
X184150000Y-85090000D03*
X184150000Y-87630000D03*
X184150000Y-90170000D03*
X184150000Y-92710000D03*
X184150000Y-95250000D03*
D13*
X184150000Y-102870000D03*
D15*
X184150000Y-105410000D03*
X184150000Y-107950000D03*
X184150000Y-110490000D03*
X184150000Y-113030000D03*
X184150000Y-115570000D03*
X184150000Y-118110000D03*
X184150000Y-120650000D03*
D11*
X170180000Y-125730000D03*
D12*
X172720000Y-125730000D03*
X170180000Y-128270000D03*
X172720000Y-128270000D03*
X170180000Y-130810000D03*
X172720000Y-130810000D03*
D17*
X170180000Y-133350000D03*
D12*
X172720000Y-133350000D03*
D11*
X175260000Y-125730000D03*
D12*
X177800000Y-125730000D03*
X175260000Y-128270000D03*
X177800000Y-128270000D03*
X175260000Y-130810000D03*
X177800000Y-130810000D03*
X175260000Y-133350000D03*
X177800000Y-133350000D03*
D11*
X180340000Y-125730000D03*
D12*
X182880000Y-125730000D03*
X180340000Y-128270000D03*
X182880000Y-128270000D03*
X180340000Y-130810000D03*
X182880000Y-130810000D03*
X180340000Y-133350000D03*
X182880000Y-133350000D03*
D11*
X193040000Y-82550000D03*
D12*
X193040000Y-80010000D03*
X193040000Y-77470000D03*
D18*
X123251577Y-87967344D03*
X115553500Y-59694700D03*
D19*
X158750000Y-74930000D02*
X156970770Y-74930000D01*
X156970770Y-74930000D02*
X153665135Y-71624365D01*
X153665135Y-71624365D02*
X153665135Y-69854865D01*
X153665135Y-69854865D02*
X153670000Y-69850000D01*
X170180000Y-93980000D02*
X168399848Y-92199848D01*
X168399848Y-92199848D02*
X168399848Y-85600152D01*
X168399848Y-85600152D02*
X169380001Y-84619999D01*
X169380001Y-84619999D02*
X170180000Y-83820000D01*
X152440000Y-83820000D02*
X152439436Y-83820564D01*
X170180000Y-109220000D02*
X170180519Y-109220000D01*
X152438764Y-129541236D02*
X152440000Y-129540000D01*
X134594800Y-62647500D02*
X134758335Y-62483965D01*
X134758335Y-62483965D02*
X134758335Y-59853135D01*
X134758335Y-59853135D02*
X134599493Y-59694293D01*
X134599493Y-59694293D02*
X134599493Y-57137504D01*
X134594800Y-62647500D02*
X134643211Y-62599089D01*
X134643211Y-62599089D02*
X137529089Y-62599089D01*
X137529089Y-62599089D02*
X138430000Y-63500000D01*
X153670000Y-80010000D02*
X153670677Y-80009323D01*
X153670677Y-80009323D02*
X155178414Y-80009323D01*
X158765053Y-76422684D02*
X158765053Y-74969951D01*
X155178414Y-80009323D02*
X158765053Y-76422684D01*
X133742300Y-63500000D02*
X134594800Y-62647500D01*
X133350000Y-63500000D02*
X133742300Y-63500000D01*
X162560000Y-57150000D02*
X161265200Y-57150000D01*
X157480000Y-57150000D02*
X161265200Y-57150000D01*
X157480000Y-57110000D02*
X157480000Y-57150000D01*
X154940000Y-83820000D02*
X151876800Y-80756800D01*
X151876800Y-80756800D02*
X151876800Y-78776257D01*
X151876800Y-78776257D02*
X152643057Y-78010000D01*
X152643057Y-78010000D02*
X153670000Y-78010000D01*
X180550585Y-141050623D02*
X179150623Y-141050623D01*
X179150623Y-141050623D02*
X177800000Y-139700000D01*
X177800000Y-147320000D02*
X180546042Y-144573958D01*
X180546042Y-144573958D02*
X180546042Y-141050000D01*
X180546042Y-141050000D02*
X185500000Y-141050000D01*
X193040000Y-125730000D02*
X193129081Y-125730000D01*
X193129081Y-125730000D02*
X194830204Y-127431123D01*
X194830204Y-127431123D02*
X194830204Y-129866331D01*
X194830204Y-129866331D02*
X185476784Y-139219751D01*
X185476784Y-139219751D02*
X185476784Y-140994129D01*
X177800000Y-104140000D02*
X181280330Y-100659670D01*
X181280330Y-100659670D02*
X194799952Y-100659670D01*
X194834364Y-100962033D02*
X194831397Y-100965000D01*
X194799952Y-100659670D02*
X194834364Y-100625258D01*
X194834364Y-100625258D02*
X194834364Y-100962033D01*
X194831397Y-104140734D02*
X194831397Y-100965000D01*
X194831397Y-100965000D02*
X194831397Y-95253501D01*
X158750000Y-90170000D02*
X158750000Y-87630000D01*
X158750000Y-87630000D02*
X154940000Y-83820000D01*
X194831397Y-95253501D02*
X194831397Y-81801397D01*
X194831397Y-81801397D02*
X194830663Y-81800663D01*
X194830663Y-81800663D02*
X194830663Y-80501518D01*
X194830663Y-80501518D02*
X194339145Y-80010000D01*
X194339145Y-80010000D02*
X193040000Y-80010000D01*
X194831397Y-95253501D02*
X194827896Y-95250000D01*
X194830663Y-104138644D02*
X194829307Y-104140000D01*
X194829307Y-104138644D02*
X194829307Y-104140000D01*
X194829307Y-104140000D02*
X194829307Y-110481365D01*
X194829307Y-110481365D02*
X194827558Y-110483114D01*
X194829307Y-104138644D02*
X194830663Y-104140000D01*
X194831397Y-104140734D02*
X194830663Y-104140000D01*
X194828400Y-110493271D02*
X194821694Y-110486565D01*
X194821694Y-110486565D02*
X193052052Y-110486565D01*
X193052052Y-110486565D02*
X193047759Y-110482272D01*
X193040000Y-95250000D02*
X194827896Y-95250000D01*
X194827896Y-95250000D02*
X194828857Y-95250961D01*
X194827908Y-110481389D02*
X194827025Y-110482272D01*
X194827025Y-110482272D02*
X194827025Y-123942975D01*
X194827025Y-123942975D02*
X193040000Y-125730000D01*
X194827558Y-110483114D02*
X194822900Y-110487772D01*
X158750000Y-138430000D02*
X157258782Y-138430000D01*
X157258782Y-138430000D02*
X156013628Y-137184846D01*
X156013628Y-137184846D02*
X156013628Y-133718040D01*
X156013628Y-133718040D02*
X154940000Y-132644412D01*
X154940000Y-132644412D02*
X154940000Y-129540000D01*
X138430000Y-58467648D02*
X138430000Y-58420000D01*
X138430000Y-58420000D02*
X137160000Y-57150000D01*
X138430000Y-61000000D02*
X138430000Y-58467648D01*
X138430000Y-58467648D02*
X139746456Y-57151192D01*
X193040000Y-80010000D02*
X191745200Y-80010000D01*
X162560000Y-54610000D02*
X157480000Y-54610000D01*
X154940000Y-125000000D02*
X153670000Y-123730000D01*
X154940000Y-129540000D02*
X154940000Y-125000000D01*
X190475200Y-78740000D02*
X177800000Y-78740000D01*
X191745200Y-80010000D02*
X190475200Y-78740000D01*
X118110000Y-54610000D02*
X116177000Y-52677000D01*
X116177000Y-52677000D02*
X111168444Y-52677000D01*
X111168444Y-52677000D02*
X109858365Y-53987079D01*
X109858365Y-53987079D02*
X109858365Y-60309535D01*
X101610500Y-68557400D02*
X101610500Y-92720500D01*
X109858365Y-60309535D02*
X101610500Y-68557400D01*
X101610500Y-92720500D02*
X105410000Y-96520000D01*
X105410000Y-96520000D02*
X114300000Y-105410000D01*
X114300000Y-105410000D02*
X114300000Y-106680000D01*
X120650000Y-54610000D02*
X122393494Y-52866506D01*
X122393494Y-52866506D02*
X123866255Y-52866506D01*
X123866255Y-52866506D02*
X124686734Y-53686985D01*
X124686734Y-53686985D02*
X124686734Y-58178566D01*
X124686734Y-58178566D02*
X123665635Y-59199665D01*
X123665635Y-59199665D02*
X123665635Y-87492404D01*
X123665635Y-87492404D02*
X123696076Y-87522845D01*
X123696076Y-87522845D02*
X123251577Y-87967344D01*
X109220000Y-106680000D02*
X111241830Y-108701830D01*
X111241830Y-108701830D02*
X117307482Y-108701830D01*
X117307482Y-108701830D02*
X118135100Y-107874212D01*
X118135100Y-107874212D02*
X118135100Y-95327922D01*
X118135100Y-95327922D02*
X115146540Y-92339362D01*
X115146540Y-92339362D02*
X115146540Y-60101660D01*
X115146540Y-60101660D02*
X115553500Y-59694700D01*
X109220000Y-106680000D02*
X105410000Y-102870000D01*
X105410000Y-102870000D02*
X105410000Y-101600000D01*
X153670000Y-135890000D02*
X153670000Y-134659000D01*
X153670000Y-134659000D02*
X150308713Y-131297713D01*
X150308713Y-131297713D02*
X150308713Y-61545093D01*
X150308713Y-61545093D02*
X154790358Y-57063448D01*
X154790358Y-57063448D02*
X154790358Y-54559739D01*
X154790358Y-54559739D02*
X156451606Y-52898491D01*
X156451606Y-52898491D02*
X165928491Y-52898491D01*
X165928491Y-52898491D02*
X166790001Y-53760001D01*
X166790001Y-53760001D02*
X167640000Y-54610000D01*
X167640000Y-57150000D02*
X167640000Y-57169586D01*
X167640000Y-57169586D02*
X163992508Y-60817078D01*
X163992508Y-60817078D02*
X163992508Y-90007492D01*
X163992508Y-90007492D02*
X158750000Y-95250000D01*
X158750000Y-135890000D02*
X158750000Y-129752062D01*
X158750000Y-129752062D02*
X155745410Y-126747472D01*
X155745410Y-126747472D02*
X155745410Y-110467390D01*
X155745410Y-110467390D02*
X165496354Y-100716446D01*
X165496354Y-100716446D02*
X165496354Y-61860603D01*
X165496354Y-61860603D02*
X170180000Y-57176957D01*
X170180000Y-57176957D02*
X170180000Y-57150000D01*
X162415900Y-120650000D02*
X162415900Y-112433331D01*
X162415900Y-112433331D02*
X169432798Y-105416433D01*
X169432798Y-105416433D02*
X171303669Y-105416433D01*
X171303669Y-105416433D02*
X172057217Y-104662885D01*
X172057217Y-104662885D02*
X172057217Y-102371321D01*
X172057217Y-102371321D02*
X167000199Y-97314303D01*
X167000199Y-97314303D02*
X167000199Y-62869801D01*
X167000199Y-62869801D02*
X172720000Y-57150000D01*
X170180000Y-142240000D02*
X168962218Y-142240000D01*
X168962218Y-142240000D02*
X162416506Y-135694288D01*
X162416506Y-135694288D02*
X162416506Y-120650606D01*
X162416506Y-120650606D02*
X162415900Y-120650000D01*
D20*
X170180000Y-142240000D02*
X171450000Y-140970000D01*
X171450000Y-140970000D02*
X171450000Y-132080000D01*
X171450000Y-132080000D02*
X171029999Y-131659999D01*
X171029999Y-131659999D02*
X170180000Y-130810000D01*
D19*
X158750000Y-120650000D02*
X160044800Y-120650000D01*
X160044800Y-120650000D02*
X162415900Y-120650000D01*
X127000000Y-93980000D02*
X121879547Y-88859547D01*
X121879547Y-88859547D02*
X121879547Y-87436508D01*
X121879547Y-87436508D02*
X120226500Y-85783461D01*
X120226500Y-85783461D02*
X120226500Y-61315581D01*
X120226500Y-61315581D02*
X123190000Y-58352081D01*
X123190000Y-58352081D02*
X123190000Y-57150000D01*
X120650000Y-57150000D02*
X119060692Y-58739308D01*
X119060692Y-58739308D02*
X119060692Y-88580692D01*
X119060692Y-88580692D02*
X127000000Y-96520000D01*
X127000000Y-99060000D02*
X117894884Y-89954884D01*
X117894884Y-89954884D02*
X117894884Y-57365116D01*
X117894884Y-57365116D02*
X118110000Y-57150000D01*
X115570000Y-54610000D02*
X114275100Y-53315100D01*
X114275100Y-53315100D02*
X111601209Y-53315100D01*
X111601209Y-53315100D02*
X110769532Y-54146777D01*
X110769532Y-54146777D02*
X110769532Y-93700468D01*
X110769532Y-93700468D02*
X110490000Y-93980000D01*
X116840000Y-106680000D02*
X116840000Y-105435200D01*
X105410000Y-93980000D02*
X106704800Y-93980000D01*
X110490000Y-93980000D02*
X106704800Y-93980000D01*
X110490000Y-99085200D02*
X116840000Y-105435200D01*
X110490000Y-93980000D02*
X110490000Y-99085200D01*
X127000000Y-101600000D02*
X116578743Y-91178743D01*
X116578743Y-91178743D02*
X116578743Y-59453543D01*
X116578743Y-59453543D02*
X115570000Y-58444800D01*
X115570000Y-58444800D02*
X115570000Y-57150000D01*
X153670000Y-113030000D02*
X153670000Y-111799000D01*
X153670000Y-111799000D02*
X150943724Y-109072724D01*
X150943724Y-109072724D02*
X150943724Y-62165868D01*
X150943724Y-62165868D02*
X155680750Y-57428842D01*
X155680750Y-57428842D02*
X155680750Y-56318248D01*
X155680750Y-56318248D02*
X156082433Y-55916565D01*
X156082433Y-55916565D02*
X156506450Y-55916565D01*
D20*
X156510640Y-55918999D02*
X164265339Y-55918999D01*
X164265339Y-55918999D02*
X164265888Y-55918450D01*
D19*
X164267257Y-55936245D02*
X165100000Y-55103502D01*
X165100000Y-55103502D02*
X165100000Y-54610000D01*
X158750000Y-72390000D02*
X162488663Y-68651337D01*
X162488663Y-68651337D02*
X162488663Y-59773554D01*
X162488663Y-59773554D02*
X165100000Y-57162217D01*
X165100000Y-57162217D02*
X165100000Y-57150000D01*
X127000000Y-78740000D02*
X127000000Y-75496060D01*
X127000000Y-75496060D02*
X128445448Y-74050612D01*
X128445448Y-74050612D02*
X128445448Y-71335448D01*
X128445448Y-71335448D02*
X127000000Y-69890000D01*
X144780000Y-55880000D02*
X142356697Y-58303303D01*
X142356697Y-58303303D02*
X142356697Y-61592406D01*
X142356697Y-61592406D02*
X143528289Y-62763998D01*
X143510000Y-62770000D02*
X143510000Y-62769619D01*
X144810036Y-55856134D02*
X144789475Y-55856134D01*
X144789475Y-55856134D02*
X143543341Y-54610000D01*
X143543341Y-54610000D02*
X139724800Y-54610000D01*
X139700000Y-116840000D02*
X139700000Y-106680000D01*
X102870000Y-70390000D02*
X104114800Y-70390000D01*
X106665000Y-69890000D02*
X105410000Y-71145000D01*
X107950000Y-69890000D02*
X106665000Y-69890000D01*
X105410000Y-78740000D02*
X105410000Y-71145000D01*
X104655000Y-70390000D02*
X104114800Y-70390000D01*
X105410000Y-71145000D02*
X104655000Y-70390000D01*
X127000000Y-81280000D02*
X126744443Y-81280000D01*
X126744443Y-81280000D02*
X125449568Y-79985125D01*
X125449568Y-79985125D02*
X125449568Y-73940432D01*
X125449568Y-73940432D02*
X127000000Y-72390000D01*
X144791443Y-58358212D02*
X145831704Y-59398473D01*
X145831704Y-59398473D02*
X145831704Y-63884618D01*
X145831704Y-63884618D02*
X144946824Y-64769498D01*
X144946824Y-64769498D02*
X143510502Y-64769498D01*
X143510502Y-64769498D02*
X143510000Y-64770000D01*
X142240000Y-116840000D02*
X142240000Y-106680000D01*
X142240000Y-96520000D02*
X127000000Y-81280000D01*
X142240000Y-106680000D02*
X142240000Y-96520000D01*
X127000000Y-86360000D02*
X124598281Y-83958281D01*
X124598281Y-83958281D02*
X124598281Y-59727453D01*
X124598281Y-59727453D02*
X125691000Y-58634734D01*
X125691000Y-58634734D02*
X125691000Y-53667434D01*
X125691000Y-53667434D02*
X126723434Y-52635000D01*
X126723434Y-52635000D02*
X135227124Y-52635000D01*
X135227124Y-52635000D02*
X137144695Y-54552571D01*
X137160000Y-106680000D02*
X135634774Y-108205226D01*
X135634774Y-108205226D02*
X133903245Y-108205226D01*
X133903245Y-108205226D02*
X133375499Y-107677480D01*
X133375499Y-107677480D02*
X133375499Y-107203999D01*
X133375499Y-107203999D02*
X133375100Y-107203600D01*
X133375100Y-107203600D02*
X133375100Y-105747000D01*
X133375100Y-105747000D02*
X129904763Y-102276663D01*
X129904763Y-102276663D02*
X129904763Y-89264763D01*
X129904763Y-89264763D02*
X127000000Y-86360000D01*
X134620000Y-106680000D02*
X134620000Y-105435200D01*
X134620000Y-105435200D02*
X131914865Y-102730065D01*
X131914865Y-102730065D02*
X131914865Y-88734865D01*
X131914865Y-88734865D02*
X127000000Y-83820000D01*
X134620000Y-81280000D02*
X134620000Y-70903700D01*
X127415305Y-53314200D02*
X130720651Y-53314200D01*
X134620000Y-70903700D02*
X126647597Y-62931297D01*
X126647597Y-62931297D02*
X126647597Y-54081908D01*
X130720651Y-53314200D02*
X132060042Y-54653591D01*
X126647597Y-54081908D02*
X127415305Y-53314200D01*
D20*
X173951001Y-142278999D02*
X171450000Y-144780000D01*
X171450000Y-144780000D02*
X170180000Y-144780000D01*
X170180000Y-128270000D02*
X171488999Y-129578999D01*
X171488999Y-129578999D02*
X173310881Y-129578999D01*
X173310881Y-129578999D02*
X173951001Y-130219119D01*
X173951001Y-130219119D02*
X173951001Y-142278999D01*
D19*
X158750000Y-143510000D02*
X160556131Y-141703869D01*
X160556131Y-141703869D02*
X160556131Y-130328772D01*
X160556131Y-130328772D02*
X156697853Y-126470494D01*
X156697853Y-126470494D02*
X156697853Y-110788598D01*
X156697853Y-110788598D02*
X163346451Y-104140000D01*
X163346451Y-104140000D02*
X170180000Y-104140000D01*
X170180000Y-139700000D02*
X168932568Y-139700000D01*
X168932568Y-139700000D02*
X166574613Y-137342045D01*
X166574613Y-137342045D02*
X166574613Y-116242260D01*
X166574613Y-116242260D02*
X168516873Y-114300000D01*
X168516873Y-114300000D02*
X170180000Y-114300000D01*
D20*
X170180000Y-139700000D02*
X170180000Y-133350000D01*
D19*
X193040000Y-77470000D02*
X184150000Y-77470000D01*
X177800000Y-81280000D02*
X170180000Y-81280000D01*
X180314800Y-80010000D02*
X179044800Y-81280000D01*
X184150000Y-80010000D02*
X180314800Y-80010000D01*
X177800000Y-81280000D02*
X179044800Y-81280000D01*
X193040000Y-82550000D02*
X184150000Y-82550000D01*
X180314800Y-85090000D02*
X179044800Y-83820000D01*
X184150000Y-85090000D02*
X180314800Y-85090000D01*
X177800000Y-83820000D02*
X179044800Y-83820000D01*
X186665200Y-87630000D02*
X191745200Y-92710000D01*
X184150000Y-87630000D02*
X186665200Y-87630000D01*
X193040000Y-92710000D02*
X191745200Y-92710000D01*
X180314800Y-90170000D02*
X179044800Y-91440000D01*
X184150000Y-90170000D02*
X180314800Y-90170000D01*
X177800000Y-91440000D02*
X179044800Y-91440000D01*
X170180000Y-91440000D02*
X177800000Y-91440000D01*
X190474800Y-97790000D02*
X193040000Y-97790000D01*
X185394800Y-92710000D02*
X190474800Y-97790000D01*
X184150000Y-92710000D02*
X185394800Y-92710000D01*
X180314800Y-95250000D02*
X179044800Y-93980000D01*
X184150000Y-95250000D02*
X180314800Y-95250000D01*
X177800000Y-93980000D02*
X179044800Y-93980000D01*
X184150000Y-102870000D02*
X182905200Y-102870000D01*
X179095200Y-106680000D02*
X177800000Y-106680000D01*
X182905200Y-102870000D02*
X179095200Y-106680000D01*
X177800000Y-106680000D02*
X170180000Y-106680000D01*
X184150000Y-105410000D02*
X187272622Y-105410000D01*
X187272622Y-105410000D02*
X189812622Y-107950000D01*
X189812622Y-107950000D02*
X193040000Y-107950000D01*
X184150000Y-107950000D02*
X181280098Y-107950000D01*
X181280098Y-107950000D02*
X180010098Y-109220000D01*
X180010098Y-109220000D02*
X177800000Y-109220000D01*
X184150000Y-110490000D02*
X187383269Y-110490000D01*
X187383269Y-110490000D02*
X189923269Y-113030000D01*
X189923269Y-113030000D02*
X193040000Y-113030000D01*
X179095200Y-116840000D02*
X177800000Y-116840000D01*
X182905200Y-113030000D02*
X179095200Y-116840000D01*
X184150000Y-113030000D02*
X182905200Y-113030000D01*
X170180000Y-116840000D02*
X177800000Y-116840000D01*
X184168826Y-115570000D02*
X191788826Y-123190000D01*
X191788826Y-123190000D02*
X193040000Y-123190000D01*
X184150000Y-118110000D02*
X181546821Y-118110000D01*
X181546821Y-118110000D02*
X180276821Y-119380000D01*
X180276821Y-119380000D02*
X177800000Y-119380000D01*
X193040000Y-128270000D02*
X191776389Y-128270000D01*
X191776389Y-128270000D02*
X184156389Y-120650000D01*
M02*
