G04 #@! TF.FileFunction,Legend,Top*
%FSLAX46Y46*%
G04 Gerber Fmt 4.6, Leading zero omitted, Abs format (unit mm)*
G04 Created by KiCad (PCBNEW 4.0.7) date 11/29/17 05:36:57*
%MOMM*%
%LPD*%
G01*
G04 APERTURE LIST*
%ADD10C,0.100000*%
%ADD11C,0.200000*%
%ADD12C,0.127000*%
%ADD13C,0.120000*%
%ADD14C,0.150000*%
G04 APERTURE END LIST*
D10*
D11*
X198120000Y-50800000D02*
X149860000Y-50800000D01*
X198120000Y-150495000D02*
X198120000Y-50800000D01*
X149860000Y-150495000D02*
X198120000Y-150495000D01*
X149860000Y-50800000D02*
X149860000Y-150495000D01*
X149860000Y-50800000D02*
X101600000Y-50800000D01*
X149860000Y-150495000D02*
X149860000Y-50800000D01*
X101600000Y-150495000D02*
X149860000Y-150495000D01*
X101600000Y-50800000D02*
X101600000Y-150495000D01*
D12*
X168637857Y-133652381D02*
X169907857Y-133652381D01*
X168698333Y-133652381D02*
X168637857Y-133531429D01*
X168637857Y-133289524D01*
X168698333Y-133168572D01*
X168758810Y-133108095D01*
X168879762Y-133047619D01*
X169242619Y-133047619D01*
X169363571Y-133108095D01*
X169424048Y-133168572D01*
X169484524Y-133289524D01*
X169484524Y-133531429D01*
X169424048Y-133652381D01*
X169484524Y-132503333D02*
X168637857Y-132503333D01*
X168879762Y-132503333D02*
X168758810Y-132442857D01*
X168698333Y-132382381D01*
X168637857Y-132261428D01*
X168637857Y-132140476D01*
X169484524Y-131535714D02*
X169424048Y-131656667D01*
X169363571Y-131717143D01*
X169242619Y-131777619D01*
X168879762Y-131777619D01*
X168758810Y-131717143D01*
X168698333Y-131656667D01*
X168637857Y-131535714D01*
X168637857Y-131354286D01*
X168698333Y-131233334D01*
X168758810Y-131172857D01*
X168879762Y-131112381D01*
X169242619Y-131112381D01*
X169363571Y-131172857D01*
X169424048Y-131233334D01*
X169484524Y-131354286D01*
X169484524Y-131535714D01*
X168637857Y-130749524D02*
X168637857Y-130265714D01*
X168214524Y-130568095D02*
X169303095Y-130568095D01*
X169424048Y-130507619D01*
X169484524Y-130386666D01*
X169484524Y-130265714D01*
X169484524Y-129660952D02*
X169424048Y-129781905D01*
X169363571Y-129842381D01*
X169242619Y-129902857D01*
X168879762Y-129902857D01*
X168758810Y-129842381D01*
X168698333Y-129781905D01*
X168637857Y-129660952D01*
X168637857Y-129479524D01*
X168698333Y-129358572D01*
X168758810Y-129298095D01*
X168879762Y-129237619D01*
X169242619Y-129237619D01*
X169363571Y-129298095D01*
X169424048Y-129358572D01*
X169484524Y-129479524D01*
X169484524Y-129660952D01*
X169484524Y-127181428D02*
X168819286Y-127181428D01*
X168698333Y-127241905D01*
X168637857Y-127362857D01*
X168637857Y-127604762D01*
X168698333Y-127725714D01*
X169424048Y-127181428D02*
X169484524Y-127302381D01*
X169484524Y-127604762D01*
X169424048Y-127725714D01*
X169303095Y-127786190D01*
X169182143Y-127786190D01*
X169061190Y-127725714D01*
X169000714Y-127604762D01*
X169000714Y-127302381D01*
X168940238Y-127181428D01*
X169484524Y-126576666D02*
X168637857Y-126576666D01*
X168879762Y-126576666D02*
X168758810Y-126516190D01*
X168698333Y-126455714D01*
X168637857Y-126334761D01*
X168637857Y-126213809D01*
X169424048Y-125306667D02*
X169484524Y-125427619D01*
X169484524Y-125669524D01*
X169424048Y-125790476D01*
X169303095Y-125850952D01*
X168819286Y-125850952D01*
X168698333Y-125790476D01*
X168637857Y-125669524D01*
X168637857Y-125427619D01*
X168698333Y-125306667D01*
X168819286Y-125246190D01*
X168940238Y-125246190D01*
X169061190Y-125850952D01*
X169484524Y-124157619D02*
X168819286Y-124157619D01*
X168698333Y-124218096D01*
X168637857Y-124339048D01*
X168637857Y-124580953D01*
X168698333Y-124701905D01*
X169424048Y-124157619D02*
X169484524Y-124278572D01*
X169484524Y-124580953D01*
X169424048Y-124701905D01*
X169303095Y-124762381D01*
X169182143Y-124762381D01*
X169061190Y-124701905D01*
X169000714Y-124580953D01*
X169000714Y-124278572D01*
X168940238Y-124157619D01*
D13*
X137069723Y-64170722D02*
G75*
G03X137070000Y-59559420I-1179723J2305722D01*
G01*
X134710277Y-64170722D02*
G75*
G02X134710000Y-59559420I1179723J2305722D01*
G01*
X134710277Y-64170722D02*
G75*
G03X137070000Y-64170580I1179723J2305722D01*
G01*
X138440000Y-61865000D02*
X133340000Y-61865000D01*
X138440000Y-61905000D02*
X136870000Y-61905000D01*
X134910000Y-61905000D02*
X133340000Y-61905000D01*
X138439000Y-61945000D02*
X136870000Y-61945000D01*
X134910000Y-61945000D02*
X133341000Y-61945000D01*
X138438000Y-61985000D02*
X136870000Y-61985000D01*
X134910000Y-61985000D02*
X133342000Y-61985000D01*
X138436000Y-62025000D02*
X136870000Y-62025000D01*
X134910000Y-62025000D02*
X133344000Y-62025000D01*
X138433000Y-62065000D02*
X136870000Y-62065000D01*
X134910000Y-62065000D02*
X133347000Y-62065000D01*
X138429000Y-62105000D02*
X136870000Y-62105000D01*
X134910000Y-62105000D02*
X133351000Y-62105000D01*
X138425000Y-62145000D02*
X136870000Y-62145000D01*
X134910000Y-62145000D02*
X133355000Y-62145000D01*
X138421000Y-62185000D02*
X136870000Y-62185000D01*
X134910000Y-62185000D02*
X133359000Y-62185000D01*
X138415000Y-62225000D02*
X136870000Y-62225000D01*
X134910000Y-62225000D02*
X133365000Y-62225000D01*
X138409000Y-62265000D02*
X136870000Y-62265000D01*
X134910000Y-62265000D02*
X133371000Y-62265000D01*
X138403000Y-62305000D02*
X136870000Y-62305000D01*
X134910000Y-62305000D02*
X133377000Y-62305000D01*
X138396000Y-62345000D02*
X136870000Y-62345000D01*
X134910000Y-62345000D02*
X133384000Y-62345000D01*
X138388000Y-62385000D02*
X136870000Y-62385000D01*
X134910000Y-62385000D02*
X133392000Y-62385000D01*
X138379000Y-62425000D02*
X136870000Y-62425000D01*
X134910000Y-62425000D02*
X133401000Y-62425000D01*
X138370000Y-62465000D02*
X136870000Y-62465000D01*
X134910000Y-62465000D02*
X133410000Y-62465000D01*
X138360000Y-62505000D02*
X136870000Y-62505000D01*
X134910000Y-62505000D02*
X133420000Y-62505000D01*
X138350000Y-62545000D02*
X136870000Y-62545000D01*
X134910000Y-62545000D02*
X133430000Y-62545000D01*
X138338000Y-62586000D02*
X136870000Y-62586000D01*
X134910000Y-62586000D02*
X133442000Y-62586000D01*
X138326000Y-62626000D02*
X136870000Y-62626000D01*
X134910000Y-62626000D02*
X133454000Y-62626000D01*
X138314000Y-62666000D02*
X136870000Y-62666000D01*
X134910000Y-62666000D02*
X133466000Y-62666000D01*
X138300000Y-62706000D02*
X136870000Y-62706000D01*
X134910000Y-62706000D02*
X133480000Y-62706000D01*
X138286000Y-62746000D02*
X136870000Y-62746000D01*
X134910000Y-62746000D02*
X133494000Y-62746000D01*
X138272000Y-62786000D02*
X136870000Y-62786000D01*
X134910000Y-62786000D02*
X133508000Y-62786000D01*
X138256000Y-62826000D02*
X136870000Y-62826000D01*
X134910000Y-62826000D02*
X133524000Y-62826000D01*
X138240000Y-62866000D02*
X136870000Y-62866000D01*
X134910000Y-62866000D02*
X133540000Y-62866000D01*
X138223000Y-62906000D02*
X136870000Y-62906000D01*
X134910000Y-62906000D02*
X133557000Y-62906000D01*
X138205000Y-62946000D02*
X136870000Y-62946000D01*
X134910000Y-62946000D02*
X133575000Y-62946000D01*
X138186000Y-62986000D02*
X136870000Y-62986000D01*
X134910000Y-62986000D02*
X133594000Y-62986000D01*
X138166000Y-63026000D02*
X136870000Y-63026000D01*
X134910000Y-63026000D02*
X133614000Y-63026000D01*
X138146000Y-63066000D02*
X136870000Y-63066000D01*
X134910000Y-63066000D02*
X133634000Y-63066000D01*
X138124000Y-63106000D02*
X136870000Y-63106000D01*
X134910000Y-63106000D02*
X133656000Y-63106000D01*
X138102000Y-63146000D02*
X136870000Y-63146000D01*
X134910000Y-63146000D02*
X133678000Y-63146000D01*
X138079000Y-63186000D02*
X136870000Y-63186000D01*
X134910000Y-63186000D02*
X133701000Y-63186000D01*
X138055000Y-63226000D02*
X136870000Y-63226000D01*
X134910000Y-63226000D02*
X133725000Y-63226000D01*
X138030000Y-63266000D02*
X136870000Y-63266000D01*
X134910000Y-63266000D02*
X133750000Y-63266000D01*
X138003000Y-63306000D02*
X136870000Y-63306000D01*
X134910000Y-63306000D02*
X133777000Y-63306000D01*
X137976000Y-63346000D02*
X136870000Y-63346000D01*
X134910000Y-63346000D02*
X133804000Y-63346000D01*
X137948000Y-63386000D02*
X136870000Y-63386000D01*
X134910000Y-63386000D02*
X133832000Y-63386000D01*
X137918000Y-63426000D02*
X136870000Y-63426000D01*
X134910000Y-63426000D02*
X133862000Y-63426000D01*
X137887000Y-63466000D02*
X136870000Y-63466000D01*
X134910000Y-63466000D02*
X133893000Y-63466000D01*
X137855000Y-63506000D02*
X136870000Y-63506000D01*
X134910000Y-63506000D02*
X133925000Y-63506000D01*
X137822000Y-63546000D02*
X136870000Y-63546000D01*
X134910000Y-63546000D02*
X133958000Y-63546000D01*
X137787000Y-63586000D02*
X136870000Y-63586000D01*
X134910000Y-63586000D02*
X133993000Y-63586000D01*
X137751000Y-63626000D02*
X136870000Y-63626000D01*
X134910000Y-63626000D02*
X134029000Y-63626000D01*
X137713000Y-63666000D02*
X136870000Y-63666000D01*
X134910000Y-63666000D02*
X134067000Y-63666000D01*
X137673000Y-63706000D02*
X136870000Y-63706000D01*
X134910000Y-63706000D02*
X134107000Y-63706000D01*
X137632000Y-63746000D02*
X136870000Y-63746000D01*
X134910000Y-63746000D02*
X134148000Y-63746000D01*
X137589000Y-63786000D02*
X136870000Y-63786000D01*
X134910000Y-63786000D02*
X134191000Y-63786000D01*
X137544000Y-63826000D02*
X136870000Y-63826000D01*
X134910000Y-63826000D02*
X134236000Y-63826000D01*
X137496000Y-63866000D02*
X134284000Y-63866000D01*
X137446000Y-63906000D02*
X134334000Y-63906000D01*
X137394000Y-63946000D02*
X134386000Y-63946000D01*
X137338000Y-63986000D02*
X134442000Y-63986000D01*
X137280000Y-64026000D02*
X134500000Y-64026000D01*
X137217000Y-64066000D02*
X134563000Y-64066000D01*
X137151000Y-64106000D02*
X134629000Y-64106000D01*
X137079000Y-64146000D02*
X134701000Y-64146000D01*
X137002000Y-64186000D02*
X134778000Y-64186000D01*
X136918000Y-64226000D02*
X134862000Y-64226000D01*
X136824000Y-64266000D02*
X134956000Y-64266000D01*
X136719000Y-64306000D02*
X135061000Y-64306000D01*
X136597000Y-64346000D02*
X135183000Y-64346000D01*
X136449000Y-64386000D02*
X135331000Y-64386000D01*
X136244000Y-64426000D02*
X135536000Y-64426000D01*
X135890000Y-58665000D02*
X135890000Y-59865000D01*
X136540000Y-59265000D02*
X135240000Y-59265000D01*
X147229723Y-65440722D02*
G75*
G03X147230000Y-60829420I-1179723J2305722D01*
G01*
X144870277Y-65440722D02*
G75*
G02X144870000Y-60829420I1179723J2305722D01*
G01*
X144870277Y-65440722D02*
G75*
G03X147230000Y-65440580I1179723J2305722D01*
G01*
X148600000Y-63135000D02*
X143500000Y-63135000D01*
X148600000Y-63175000D02*
X147030000Y-63175000D01*
X145070000Y-63175000D02*
X143500000Y-63175000D01*
X148599000Y-63215000D02*
X147030000Y-63215000D01*
X145070000Y-63215000D02*
X143501000Y-63215000D01*
X148598000Y-63255000D02*
X147030000Y-63255000D01*
X145070000Y-63255000D02*
X143502000Y-63255000D01*
X148596000Y-63295000D02*
X147030000Y-63295000D01*
X145070000Y-63295000D02*
X143504000Y-63295000D01*
X148593000Y-63335000D02*
X147030000Y-63335000D01*
X145070000Y-63335000D02*
X143507000Y-63335000D01*
X148589000Y-63375000D02*
X147030000Y-63375000D01*
X145070000Y-63375000D02*
X143511000Y-63375000D01*
X148585000Y-63415000D02*
X147030000Y-63415000D01*
X145070000Y-63415000D02*
X143515000Y-63415000D01*
X148581000Y-63455000D02*
X147030000Y-63455000D01*
X145070000Y-63455000D02*
X143519000Y-63455000D01*
X148575000Y-63495000D02*
X147030000Y-63495000D01*
X145070000Y-63495000D02*
X143525000Y-63495000D01*
X148569000Y-63535000D02*
X147030000Y-63535000D01*
X145070000Y-63535000D02*
X143531000Y-63535000D01*
X148563000Y-63575000D02*
X147030000Y-63575000D01*
X145070000Y-63575000D02*
X143537000Y-63575000D01*
X148556000Y-63615000D02*
X147030000Y-63615000D01*
X145070000Y-63615000D02*
X143544000Y-63615000D01*
X148548000Y-63655000D02*
X147030000Y-63655000D01*
X145070000Y-63655000D02*
X143552000Y-63655000D01*
X148539000Y-63695000D02*
X147030000Y-63695000D01*
X145070000Y-63695000D02*
X143561000Y-63695000D01*
X148530000Y-63735000D02*
X147030000Y-63735000D01*
X145070000Y-63735000D02*
X143570000Y-63735000D01*
X148520000Y-63775000D02*
X147030000Y-63775000D01*
X145070000Y-63775000D02*
X143580000Y-63775000D01*
X148510000Y-63815000D02*
X147030000Y-63815000D01*
X145070000Y-63815000D02*
X143590000Y-63815000D01*
X148498000Y-63856000D02*
X147030000Y-63856000D01*
X145070000Y-63856000D02*
X143602000Y-63856000D01*
X148486000Y-63896000D02*
X147030000Y-63896000D01*
X145070000Y-63896000D02*
X143614000Y-63896000D01*
X148474000Y-63936000D02*
X147030000Y-63936000D01*
X145070000Y-63936000D02*
X143626000Y-63936000D01*
X148460000Y-63976000D02*
X147030000Y-63976000D01*
X145070000Y-63976000D02*
X143640000Y-63976000D01*
X148446000Y-64016000D02*
X147030000Y-64016000D01*
X145070000Y-64016000D02*
X143654000Y-64016000D01*
X148432000Y-64056000D02*
X147030000Y-64056000D01*
X145070000Y-64056000D02*
X143668000Y-64056000D01*
X148416000Y-64096000D02*
X147030000Y-64096000D01*
X145070000Y-64096000D02*
X143684000Y-64096000D01*
X148400000Y-64136000D02*
X147030000Y-64136000D01*
X145070000Y-64136000D02*
X143700000Y-64136000D01*
X148383000Y-64176000D02*
X147030000Y-64176000D01*
X145070000Y-64176000D02*
X143717000Y-64176000D01*
X148365000Y-64216000D02*
X147030000Y-64216000D01*
X145070000Y-64216000D02*
X143735000Y-64216000D01*
X148346000Y-64256000D02*
X147030000Y-64256000D01*
X145070000Y-64256000D02*
X143754000Y-64256000D01*
X148326000Y-64296000D02*
X147030000Y-64296000D01*
X145070000Y-64296000D02*
X143774000Y-64296000D01*
X148306000Y-64336000D02*
X147030000Y-64336000D01*
X145070000Y-64336000D02*
X143794000Y-64336000D01*
X148284000Y-64376000D02*
X147030000Y-64376000D01*
X145070000Y-64376000D02*
X143816000Y-64376000D01*
X148262000Y-64416000D02*
X147030000Y-64416000D01*
X145070000Y-64416000D02*
X143838000Y-64416000D01*
X148239000Y-64456000D02*
X147030000Y-64456000D01*
X145070000Y-64456000D02*
X143861000Y-64456000D01*
X148215000Y-64496000D02*
X147030000Y-64496000D01*
X145070000Y-64496000D02*
X143885000Y-64496000D01*
X148190000Y-64536000D02*
X147030000Y-64536000D01*
X145070000Y-64536000D02*
X143910000Y-64536000D01*
X148163000Y-64576000D02*
X147030000Y-64576000D01*
X145070000Y-64576000D02*
X143937000Y-64576000D01*
X148136000Y-64616000D02*
X147030000Y-64616000D01*
X145070000Y-64616000D02*
X143964000Y-64616000D01*
X148108000Y-64656000D02*
X147030000Y-64656000D01*
X145070000Y-64656000D02*
X143992000Y-64656000D01*
X148078000Y-64696000D02*
X147030000Y-64696000D01*
X145070000Y-64696000D02*
X144022000Y-64696000D01*
X148047000Y-64736000D02*
X147030000Y-64736000D01*
X145070000Y-64736000D02*
X144053000Y-64736000D01*
X148015000Y-64776000D02*
X147030000Y-64776000D01*
X145070000Y-64776000D02*
X144085000Y-64776000D01*
X147982000Y-64816000D02*
X147030000Y-64816000D01*
X145070000Y-64816000D02*
X144118000Y-64816000D01*
X147947000Y-64856000D02*
X147030000Y-64856000D01*
X145070000Y-64856000D02*
X144153000Y-64856000D01*
X147911000Y-64896000D02*
X147030000Y-64896000D01*
X145070000Y-64896000D02*
X144189000Y-64896000D01*
X147873000Y-64936000D02*
X147030000Y-64936000D01*
X145070000Y-64936000D02*
X144227000Y-64936000D01*
X147833000Y-64976000D02*
X147030000Y-64976000D01*
X145070000Y-64976000D02*
X144267000Y-64976000D01*
X147792000Y-65016000D02*
X147030000Y-65016000D01*
X145070000Y-65016000D02*
X144308000Y-65016000D01*
X147749000Y-65056000D02*
X147030000Y-65056000D01*
X145070000Y-65056000D02*
X144351000Y-65056000D01*
X147704000Y-65096000D02*
X147030000Y-65096000D01*
X145070000Y-65096000D02*
X144396000Y-65096000D01*
X147656000Y-65136000D02*
X144444000Y-65136000D01*
X147606000Y-65176000D02*
X144494000Y-65176000D01*
X147554000Y-65216000D02*
X144546000Y-65216000D01*
X147498000Y-65256000D02*
X144602000Y-65256000D01*
X147440000Y-65296000D02*
X144660000Y-65296000D01*
X147377000Y-65336000D02*
X144723000Y-65336000D01*
X147311000Y-65376000D02*
X144789000Y-65376000D01*
X147239000Y-65416000D02*
X144861000Y-65416000D01*
X147162000Y-65456000D02*
X144938000Y-65456000D01*
X147078000Y-65496000D02*
X145022000Y-65496000D01*
X146984000Y-65536000D02*
X145116000Y-65536000D01*
X146879000Y-65576000D02*
X145221000Y-65576000D01*
X146757000Y-65616000D02*
X145343000Y-65616000D01*
X146609000Y-65656000D02*
X145491000Y-65656000D01*
X146404000Y-65696000D02*
X145696000Y-65696000D01*
X146050000Y-59935000D02*
X146050000Y-61135000D01*
X146700000Y-60535000D02*
X145400000Y-60535000D01*
X139660000Y-64175000D02*
X139660000Y-59055000D01*
X142280000Y-64175000D02*
X142280000Y-59055000D01*
X139660000Y-64175000D02*
X142280000Y-64175000D01*
X139660000Y-59055000D02*
X142280000Y-59055000D01*
X146010000Y-59055000D02*
X146010000Y-53935000D01*
X148630000Y-59055000D02*
X148630000Y-53935000D01*
X146010000Y-59055000D02*
X148630000Y-59055000D01*
X146010000Y-53935000D02*
X148630000Y-53935000D01*
X106589723Y-57820722D02*
G75*
G03X106590000Y-53209420I-1179723J2305722D01*
G01*
X104230277Y-57820722D02*
G75*
G02X104230000Y-53209420I1179723J2305722D01*
G01*
X104230277Y-57820722D02*
G75*
G03X106590000Y-57820580I1179723J2305722D01*
G01*
X107960000Y-55515000D02*
X102860000Y-55515000D01*
X107960000Y-55555000D02*
X106390000Y-55555000D01*
X104430000Y-55555000D02*
X102860000Y-55555000D01*
X107959000Y-55595000D02*
X106390000Y-55595000D01*
X104430000Y-55595000D02*
X102861000Y-55595000D01*
X107958000Y-55635000D02*
X106390000Y-55635000D01*
X104430000Y-55635000D02*
X102862000Y-55635000D01*
X107956000Y-55675000D02*
X106390000Y-55675000D01*
X104430000Y-55675000D02*
X102864000Y-55675000D01*
X107953000Y-55715000D02*
X106390000Y-55715000D01*
X104430000Y-55715000D02*
X102867000Y-55715000D01*
X107949000Y-55755000D02*
X106390000Y-55755000D01*
X104430000Y-55755000D02*
X102871000Y-55755000D01*
X107945000Y-55795000D02*
X106390000Y-55795000D01*
X104430000Y-55795000D02*
X102875000Y-55795000D01*
X107941000Y-55835000D02*
X106390000Y-55835000D01*
X104430000Y-55835000D02*
X102879000Y-55835000D01*
X107935000Y-55875000D02*
X106390000Y-55875000D01*
X104430000Y-55875000D02*
X102885000Y-55875000D01*
X107929000Y-55915000D02*
X106390000Y-55915000D01*
X104430000Y-55915000D02*
X102891000Y-55915000D01*
X107923000Y-55955000D02*
X106390000Y-55955000D01*
X104430000Y-55955000D02*
X102897000Y-55955000D01*
X107916000Y-55995000D02*
X106390000Y-55995000D01*
X104430000Y-55995000D02*
X102904000Y-55995000D01*
X107908000Y-56035000D02*
X106390000Y-56035000D01*
X104430000Y-56035000D02*
X102912000Y-56035000D01*
X107899000Y-56075000D02*
X106390000Y-56075000D01*
X104430000Y-56075000D02*
X102921000Y-56075000D01*
X107890000Y-56115000D02*
X106390000Y-56115000D01*
X104430000Y-56115000D02*
X102930000Y-56115000D01*
X107880000Y-56155000D02*
X106390000Y-56155000D01*
X104430000Y-56155000D02*
X102940000Y-56155000D01*
X107870000Y-56195000D02*
X106390000Y-56195000D01*
X104430000Y-56195000D02*
X102950000Y-56195000D01*
X107858000Y-56236000D02*
X106390000Y-56236000D01*
X104430000Y-56236000D02*
X102962000Y-56236000D01*
X107846000Y-56276000D02*
X106390000Y-56276000D01*
X104430000Y-56276000D02*
X102974000Y-56276000D01*
X107834000Y-56316000D02*
X106390000Y-56316000D01*
X104430000Y-56316000D02*
X102986000Y-56316000D01*
X107820000Y-56356000D02*
X106390000Y-56356000D01*
X104430000Y-56356000D02*
X103000000Y-56356000D01*
X107806000Y-56396000D02*
X106390000Y-56396000D01*
X104430000Y-56396000D02*
X103014000Y-56396000D01*
X107792000Y-56436000D02*
X106390000Y-56436000D01*
X104430000Y-56436000D02*
X103028000Y-56436000D01*
X107776000Y-56476000D02*
X106390000Y-56476000D01*
X104430000Y-56476000D02*
X103044000Y-56476000D01*
X107760000Y-56516000D02*
X106390000Y-56516000D01*
X104430000Y-56516000D02*
X103060000Y-56516000D01*
X107743000Y-56556000D02*
X106390000Y-56556000D01*
X104430000Y-56556000D02*
X103077000Y-56556000D01*
X107725000Y-56596000D02*
X106390000Y-56596000D01*
X104430000Y-56596000D02*
X103095000Y-56596000D01*
X107706000Y-56636000D02*
X106390000Y-56636000D01*
X104430000Y-56636000D02*
X103114000Y-56636000D01*
X107686000Y-56676000D02*
X106390000Y-56676000D01*
X104430000Y-56676000D02*
X103134000Y-56676000D01*
X107666000Y-56716000D02*
X106390000Y-56716000D01*
X104430000Y-56716000D02*
X103154000Y-56716000D01*
X107644000Y-56756000D02*
X106390000Y-56756000D01*
X104430000Y-56756000D02*
X103176000Y-56756000D01*
X107622000Y-56796000D02*
X106390000Y-56796000D01*
X104430000Y-56796000D02*
X103198000Y-56796000D01*
X107599000Y-56836000D02*
X106390000Y-56836000D01*
X104430000Y-56836000D02*
X103221000Y-56836000D01*
X107575000Y-56876000D02*
X106390000Y-56876000D01*
X104430000Y-56876000D02*
X103245000Y-56876000D01*
X107550000Y-56916000D02*
X106390000Y-56916000D01*
X104430000Y-56916000D02*
X103270000Y-56916000D01*
X107523000Y-56956000D02*
X106390000Y-56956000D01*
X104430000Y-56956000D02*
X103297000Y-56956000D01*
X107496000Y-56996000D02*
X106390000Y-56996000D01*
X104430000Y-56996000D02*
X103324000Y-56996000D01*
X107468000Y-57036000D02*
X106390000Y-57036000D01*
X104430000Y-57036000D02*
X103352000Y-57036000D01*
X107438000Y-57076000D02*
X106390000Y-57076000D01*
X104430000Y-57076000D02*
X103382000Y-57076000D01*
X107407000Y-57116000D02*
X106390000Y-57116000D01*
X104430000Y-57116000D02*
X103413000Y-57116000D01*
X107375000Y-57156000D02*
X106390000Y-57156000D01*
X104430000Y-57156000D02*
X103445000Y-57156000D01*
X107342000Y-57196000D02*
X106390000Y-57196000D01*
X104430000Y-57196000D02*
X103478000Y-57196000D01*
X107307000Y-57236000D02*
X106390000Y-57236000D01*
X104430000Y-57236000D02*
X103513000Y-57236000D01*
X107271000Y-57276000D02*
X106390000Y-57276000D01*
X104430000Y-57276000D02*
X103549000Y-57276000D01*
X107233000Y-57316000D02*
X106390000Y-57316000D01*
X104430000Y-57316000D02*
X103587000Y-57316000D01*
X107193000Y-57356000D02*
X106390000Y-57356000D01*
X104430000Y-57356000D02*
X103627000Y-57356000D01*
X107152000Y-57396000D02*
X106390000Y-57396000D01*
X104430000Y-57396000D02*
X103668000Y-57396000D01*
X107109000Y-57436000D02*
X106390000Y-57436000D01*
X104430000Y-57436000D02*
X103711000Y-57436000D01*
X107064000Y-57476000D02*
X106390000Y-57476000D01*
X104430000Y-57476000D02*
X103756000Y-57476000D01*
X107016000Y-57516000D02*
X103804000Y-57516000D01*
X106966000Y-57556000D02*
X103854000Y-57556000D01*
X106914000Y-57596000D02*
X103906000Y-57596000D01*
X106858000Y-57636000D02*
X103962000Y-57636000D01*
X106800000Y-57676000D02*
X104020000Y-57676000D01*
X106737000Y-57716000D02*
X104083000Y-57716000D01*
X106671000Y-57756000D02*
X104149000Y-57756000D01*
X106599000Y-57796000D02*
X104221000Y-57796000D01*
X106522000Y-57836000D02*
X104298000Y-57836000D01*
X106438000Y-57876000D02*
X104382000Y-57876000D01*
X106344000Y-57916000D02*
X104476000Y-57916000D01*
X106239000Y-57956000D02*
X104581000Y-57956000D01*
X106117000Y-57996000D02*
X104703000Y-57996000D01*
X105969000Y-58036000D02*
X104851000Y-58036000D01*
X105764000Y-58076000D02*
X105056000Y-58076000D01*
X105410000Y-52315000D02*
X105410000Y-53515000D01*
X106060000Y-52915000D02*
X104760000Y-52915000D01*
X109180000Y-57825000D02*
X109180000Y-52705000D01*
X111800000Y-57825000D02*
X111800000Y-52705000D01*
X109180000Y-57825000D02*
X111800000Y-57825000D01*
X109180000Y-52705000D02*
X111800000Y-52705000D01*
X125639723Y-73060722D02*
G75*
G03X125640000Y-68449420I-1179723J2305722D01*
G01*
X123280277Y-73060722D02*
G75*
G02X123280000Y-68449420I1179723J2305722D01*
G01*
X123280277Y-73060722D02*
G75*
G03X125640000Y-73060580I1179723J2305722D01*
G01*
X127010000Y-70755000D02*
X121910000Y-70755000D01*
X127010000Y-70795000D02*
X125440000Y-70795000D01*
X123480000Y-70795000D02*
X121910000Y-70795000D01*
X127009000Y-70835000D02*
X125440000Y-70835000D01*
X123480000Y-70835000D02*
X121911000Y-70835000D01*
X127008000Y-70875000D02*
X125440000Y-70875000D01*
X123480000Y-70875000D02*
X121912000Y-70875000D01*
X127006000Y-70915000D02*
X125440000Y-70915000D01*
X123480000Y-70915000D02*
X121914000Y-70915000D01*
X127003000Y-70955000D02*
X125440000Y-70955000D01*
X123480000Y-70955000D02*
X121917000Y-70955000D01*
X126999000Y-70995000D02*
X125440000Y-70995000D01*
X123480000Y-70995000D02*
X121921000Y-70995000D01*
X126995000Y-71035000D02*
X125440000Y-71035000D01*
X123480000Y-71035000D02*
X121925000Y-71035000D01*
X126991000Y-71075000D02*
X125440000Y-71075000D01*
X123480000Y-71075000D02*
X121929000Y-71075000D01*
X126985000Y-71115000D02*
X125440000Y-71115000D01*
X123480000Y-71115000D02*
X121935000Y-71115000D01*
X126979000Y-71155000D02*
X125440000Y-71155000D01*
X123480000Y-71155000D02*
X121941000Y-71155000D01*
X126973000Y-71195000D02*
X125440000Y-71195000D01*
X123480000Y-71195000D02*
X121947000Y-71195000D01*
X126966000Y-71235000D02*
X125440000Y-71235000D01*
X123480000Y-71235000D02*
X121954000Y-71235000D01*
X126958000Y-71275000D02*
X125440000Y-71275000D01*
X123480000Y-71275000D02*
X121962000Y-71275000D01*
X126949000Y-71315000D02*
X125440000Y-71315000D01*
X123480000Y-71315000D02*
X121971000Y-71315000D01*
X126940000Y-71355000D02*
X125440000Y-71355000D01*
X123480000Y-71355000D02*
X121980000Y-71355000D01*
X126930000Y-71395000D02*
X125440000Y-71395000D01*
X123480000Y-71395000D02*
X121990000Y-71395000D01*
X126920000Y-71435000D02*
X125440000Y-71435000D01*
X123480000Y-71435000D02*
X122000000Y-71435000D01*
X126908000Y-71476000D02*
X125440000Y-71476000D01*
X123480000Y-71476000D02*
X122012000Y-71476000D01*
X126896000Y-71516000D02*
X125440000Y-71516000D01*
X123480000Y-71516000D02*
X122024000Y-71516000D01*
X126884000Y-71556000D02*
X125440000Y-71556000D01*
X123480000Y-71556000D02*
X122036000Y-71556000D01*
X126870000Y-71596000D02*
X125440000Y-71596000D01*
X123480000Y-71596000D02*
X122050000Y-71596000D01*
X126856000Y-71636000D02*
X125440000Y-71636000D01*
X123480000Y-71636000D02*
X122064000Y-71636000D01*
X126842000Y-71676000D02*
X125440000Y-71676000D01*
X123480000Y-71676000D02*
X122078000Y-71676000D01*
X126826000Y-71716000D02*
X125440000Y-71716000D01*
X123480000Y-71716000D02*
X122094000Y-71716000D01*
X126810000Y-71756000D02*
X125440000Y-71756000D01*
X123480000Y-71756000D02*
X122110000Y-71756000D01*
X126793000Y-71796000D02*
X125440000Y-71796000D01*
X123480000Y-71796000D02*
X122127000Y-71796000D01*
X126775000Y-71836000D02*
X125440000Y-71836000D01*
X123480000Y-71836000D02*
X122145000Y-71836000D01*
X126756000Y-71876000D02*
X125440000Y-71876000D01*
X123480000Y-71876000D02*
X122164000Y-71876000D01*
X126736000Y-71916000D02*
X125440000Y-71916000D01*
X123480000Y-71916000D02*
X122184000Y-71916000D01*
X126716000Y-71956000D02*
X125440000Y-71956000D01*
X123480000Y-71956000D02*
X122204000Y-71956000D01*
X126694000Y-71996000D02*
X125440000Y-71996000D01*
X123480000Y-71996000D02*
X122226000Y-71996000D01*
X126672000Y-72036000D02*
X125440000Y-72036000D01*
X123480000Y-72036000D02*
X122248000Y-72036000D01*
X126649000Y-72076000D02*
X125440000Y-72076000D01*
X123480000Y-72076000D02*
X122271000Y-72076000D01*
X126625000Y-72116000D02*
X125440000Y-72116000D01*
X123480000Y-72116000D02*
X122295000Y-72116000D01*
X126600000Y-72156000D02*
X125440000Y-72156000D01*
X123480000Y-72156000D02*
X122320000Y-72156000D01*
X126573000Y-72196000D02*
X125440000Y-72196000D01*
X123480000Y-72196000D02*
X122347000Y-72196000D01*
X126546000Y-72236000D02*
X125440000Y-72236000D01*
X123480000Y-72236000D02*
X122374000Y-72236000D01*
X126518000Y-72276000D02*
X125440000Y-72276000D01*
X123480000Y-72276000D02*
X122402000Y-72276000D01*
X126488000Y-72316000D02*
X125440000Y-72316000D01*
X123480000Y-72316000D02*
X122432000Y-72316000D01*
X126457000Y-72356000D02*
X125440000Y-72356000D01*
X123480000Y-72356000D02*
X122463000Y-72356000D01*
X126425000Y-72396000D02*
X125440000Y-72396000D01*
X123480000Y-72396000D02*
X122495000Y-72396000D01*
X126392000Y-72436000D02*
X125440000Y-72436000D01*
X123480000Y-72436000D02*
X122528000Y-72436000D01*
X126357000Y-72476000D02*
X125440000Y-72476000D01*
X123480000Y-72476000D02*
X122563000Y-72476000D01*
X126321000Y-72516000D02*
X125440000Y-72516000D01*
X123480000Y-72516000D02*
X122599000Y-72516000D01*
X126283000Y-72556000D02*
X125440000Y-72556000D01*
X123480000Y-72556000D02*
X122637000Y-72556000D01*
X126243000Y-72596000D02*
X125440000Y-72596000D01*
X123480000Y-72596000D02*
X122677000Y-72596000D01*
X126202000Y-72636000D02*
X125440000Y-72636000D01*
X123480000Y-72636000D02*
X122718000Y-72636000D01*
X126159000Y-72676000D02*
X125440000Y-72676000D01*
X123480000Y-72676000D02*
X122761000Y-72676000D01*
X126114000Y-72716000D02*
X125440000Y-72716000D01*
X123480000Y-72716000D02*
X122806000Y-72716000D01*
X126066000Y-72756000D02*
X122854000Y-72756000D01*
X126016000Y-72796000D02*
X122904000Y-72796000D01*
X125964000Y-72836000D02*
X122956000Y-72836000D01*
X125908000Y-72876000D02*
X123012000Y-72876000D01*
X125850000Y-72916000D02*
X123070000Y-72916000D01*
X125787000Y-72956000D02*
X123133000Y-72956000D01*
X125721000Y-72996000D02*
X123199000Y-72996000D01*
X125649000Y-73036000D02*
X123271000Y-73036000D01*
X125572000Y-73076000D02*
X123348000Y-73076000D01*
X125488000Y-73116000D02*
X123432000Y-73116000D01*
X125394000Y-73156000D02*
X123526000Y-73156000D01*
X125289000Y-73196000D02*
X123631000Y-73196000D01*
X125167000Y-73236000D02*
X123753000Y-73236000D01*
X125019000Y-73276000D02*
X123901000Y-73276000D01*
X124814000Y-73316000D02*
X124106000Y-73316000D01*
X124460000Y-67555000D02*
X124460000Y-68755000D01*
X125110000Y-68155000D02*
X123810000Y-68155000D01*
X128230000Y-73065000D02*
X128230000Y-67945000D01*
X130850000Y-73065000D02*
X130850000Y-67945000D01*
X128230000Y-73065000D02*
X130850000Y-73065000D01*
X128230000Y-67945000D02*
X130850000Y-67945000D01*
X156119723Y-126400722D02*
G75*
G03X156120000Y-121789420I-1179723J2305722D01*
G01*
X153760277Y-126400722D02*
G75*
G02X153760000Y-121789420I1179723J2305722D01*
G01*
X153760277Y-126400722D02*
G75*
G03X156120000Y-126400580I1179723J2305722D01*
G01*
X157490000Y-124095000D02*
X152390000Y-124095000D01*
X157490000Y-124135000D02*
X155920000Y-124135000D01*
X153960000Y-124135000D02*
X152390000Y-124135000D01*
X157489000Y-124175000D02*
X155920000Y-124175000D01*
X153960000Y-124175000D02*
X152391000Y-124175000D01*
X157488000Y-124215000D02*
X155920000Y-124215000D01*
X153960000Y-124215000D02*
X152392000Y-124215000D01*
X157486000Y-124255000D02*
X155920000Y-124255000D01*
X153960000Y-124255000D02*
X152394000Y-124255000D01*
X157483000Y-124295000D02*
X155920000Y-124295000D01*
X153960000Y-124295000D02*
X152397000Y-124295000D01*
X157479000Y-124335000D02*
X155920000Y-124335000D01*
X153960000Y-124335000D02*
X152401000Y-124335000D01*
X157475000Y-124375000D02*
X155920000Y-124375000D01*
X153960000Y-124375000D02*
X152405000Y-124375000D01*
X157471000Y-124415000D02*
X155920000Y-124415000D01*
X153960000Y-124415000D02*
X152409000Y-124415000D01*
X157465000Y-124455000D02*
X155920000Y-124455000D01*
X153960000Y-124455000D02*
X152415000Y-124455000D01*
X157459000Y-124495000D02*
X155920000Y-124495000D01*
X153960000Y-124495000D02*
X152421000Y-124495000D01*
X157453000Y-124535000D02*
X155920000Y-124535000D01*
X153960000Y-124535000D02*
X152427000Y-124535000D01*
X157446000Y-124575000D02*
X155920000Y-124575000D01*
X153960000Y-124575000D02*
X152434000Y-124575000D01*
X157438000Y-124615000D02*
X155920000Y-124615000D01*
X153960000Y-124615000D02*
X152442000Y-124615000D01*
X157429000Y-124655000D02*
X155920000Y-124655000D01*
X153960000Y-124655000D02*
X152451000Y-124655000D01*
X157420000Y-124695000D02*
X155920000Y-124695000D01*
X153960000Y-124695000D02*
X152460000Y-124695000D01*
X157410000Y-124735000D02*
X155920000Y-124735000D01*
X153960000Y-124735000D02*
X152470000Y-124735000D01*
X157400000Y-124775000D02*
X155920000Y-124775000D01*
X153960000Y-124775000D02*
X152480000Y-124775000D01*
X157388000Y-124816000D02*
X155920000Y-124816000D01*
X153960000Y-124816000D02*
X152492000Y-124816000D01*
X157376000Y-124856000D02*
X155920000Y-124856000D01*
X153960000Y-124856000D02*
X152504000Y-124856000D01*
X157364000Y-124896000D02*
X155920000Y-124896000D01*
X153960000Y-124896000D02*
X152516000Y-124896000D01*
X157350000Y-124936000D02*
X155920000Y-124936000D01*
X153960000Y-124936000D02*
X152530000Y-124936000D01*
X157336000Y-124976000D02*
X155920000Y-124976000D01*
X153960000Y-124976000D02*
X152544000Y-124976000D01*
X157322000Y-125016000D02*
X155920000Y-125016000D01*
X153960000Y-125016000D02*
X152558000Y-125016000D01*
X157306000Y-125056000D02*
X155920000Y-125056000D01*
X153960000Y-125056000D02*
X152574000Y-125056000D01*
X157290000Y-125096000D02*
X155920000Y-125096000D01*
X153960000Y-125096000D02*
X152590000Y-125096000D01*
X157273000Y-125136000D02*
X155920000Y-125136000D01*
X153960000Y-125136000D02*
X152607000Y-125136000D01*
X157255000Y-125176000D02*
X155920000Y-125176000D01*
X153960000Y-125176000D02*
X152625000Y-125176000D01*
X157236000Y-125216000D02*
X155920000Y-125216000D01*
X153960000Y-125216000D02*
X152644000Y-125216000D01*
X157216000Y-125256000D02*
X155920000Y-125256000D01*
X153960000Y-125256000D02*
X152664000Y-125256000D01*
X157196000Y-125296000D02*
X155920000Y-125296000D01*
X153960000Y-125296000D02*
X152684000Y-125296000D01*
X157174000Y-125336000D02*
X155920000Y-125336000D01*
X153960000Y-125336000D02*
X152706000Y-125336000D01*
X157152000Y-125376000D02*
X155920000Y-125376000D01*
X153960000Y-125376000D02*
X152728000Y-125376000D01*
X157129000Y-125416000D02*
X155920000Y-125416000D01*
X153960000Y-125416000D02*
X152751000Y-125416000D01*
X157105000Y-125456000D02*
X155920000Y-125456000D01*
X153960000Y-125456000D02*
X152775000Y-125456000D01*
X157080000Y-125496000D02*
X155920000Y-125496000D01*
X153960000Y-125496000D02*
X152800000Y-125496000D01*
X157053000Y-125536000D02*
X155920000Y-125536000D01*
X153960000Y-125536000D02*
X152827000Y-125536000D01*
X157026000Y-125576000D02*
X155920000Y-125576000D01*
X153960000Y-125576000D02*
X152854000Y-125576000D01*
X156998000Y-125616000D02*
X155920000Y-125616000D01*
X153960000Y-125616000D02*
X152882000Y-125616000D01*
X156968000Y-125656000D02*
X155920000Y-125656000D01*
X153960000Y-125656000D02*
X152912000Y-125656000D01*
X156937000Y-125696000D02*
X155920000Y-125696000D01*
X153960000Y-125696000D02*
X152943000Y-125696000D01*
X156905000Y-125736000D02*
X155920000Y-125736000D01*
X153960000Y-125736000D02*
X152975000Y-125736000D01*
X156872000Y-125776000D02*
X155920000Y-125776000D01*
X153960000Y-125776000D02*
X153008000Y-125776000D01*
X156837000Y-125816000D02*
X155920000Y-125816000D01*
X153960000Y-125816000D02*
X153043000Y-125816000D01*
X156801000Y-125856000D02*
X155920000Y-125856000D01*
X153960000Y-125856000D02*
X153079000Y-125856000D01*
X156763000Y-125896000D02*
X155920000Y-125896000D01*
X153960000Y-125896000D02*
X153117000Y-125896000D01*
X156723000Y-125936000D02*
X155920000Y-125936000D01*
X153960000Y-125936000D02*
X153157000Y-125936000D01*
X156682000Y-125976000D02*
X155920000Y-125976000D01*
X153960000Y-125976000D02*
X153198000Y-125976000D01*
X156639000Y-126016000D02*
X155920000Y-126016000D01*
X153960000Y-126016000D02*
X153241000Y-126016000D01*
X156594000Y-126056000D02*
X155920000Y-126056000D01*
X153960000Y-126056000D02*
X153286000Y-126056000D01*
X156546000Y-126096000D02*
X153334000Y-126096000D01*
X156496000Y-126136000D02*
X153384000Y-126136000D01*
X156444000Y-126176000D02*
X153436000Y-126176000D01*
X156388000Y-126216000D02*
X153492000Y-126216000D01*
X156330000Y-126256000D02*
X153550000Y-126256000D01*
X156267000Y-126296000D02*
X153613000Y-126296000D01*
X156201000Y-126336000D02*
X153679000Y-126336000D01*
X156129000Y-126376000D02*
X153751000Y-126376000D01*
X156052000Y-126416000D02*
X153828000Y-126416000D01*
X155968000Y-126456000D02*
X153912000Y-126456000D01*
X155874000Y-126496000D02*
X154006000Y-126496000D01*
X155769000Y-126536000D02*
X154111000Y-126536000D01*
X155647000Y-126576000D02*
X154233000Y-126576000D01*
X155499000Y-126616000D02*
X154381000Y-126616000D01*
X155294000Y-126656000D02*
X154586000Y-126656000D01*
X154940000Y-120895000D02*
X154940000Y-122095000D01*
X155590000Y-121495000D02*
X154290000Y-121495000D01*
X152400000Y-127595000D02*
X157520000Y-127595000D01*
X152400000Y-130215000D02*
X157520000Y-130215000D01*
X152400000Y-127595000D02*
X152400000Y-130215000D01*
X157520000Y-127595000D02*
X157520000Y-130215000D01*
X156119723Y-80680722D02*
G75*
G03X156120000Y-76069420I-1179723J2305722D01*
G01*
X153760277Y-80680722D02*
G75*
G02X153760000Y-76069420I1179723J2305722D01*
G01*
X153760277Y-80680722D02*
G75*
G03X156120000Y-80680580I1179723J2305722D01*
G01*
X157490000Y-78375000D02*
X152390000Y-78375000D01*
X157490000Y-78415000D02*
X155920000Y-78415000D01*
X153960000Y-78415000D02*
X152390000Y-78415000D01*
X157489000Y-78455000D02*
X155920000Y-78455000D01*
X153960000Y-78455000D02*
X152391000Y-78455000D01*
X157488000Y-78495000D02*
X155920000Y-78495000D01*
X153960000Y-78495000D02*
X152392000Y-78495000D01*
X157486000Y-78535000D02*
X155920000Y-78535000D01*
X153960000Y-78535000D02*
X152394000Y-78535000D01*
X157483000Y-78575000D02*
X155920000Y-78575000D01*
X153960000Y-78575000D02*
X152397000Y-78575000D01*
X157479000Y-78615000D02*
X155920000Y-78615000D01*
X153960000Y-78615000D02*
X152401000Y-78615000D01*
X157475000Y-78655000D02*
X155920000Y-78655000D01*
X153960000Y-78655000D02*
X152405000Y-78655000D01*
X157471000Y-78695000D02*
X155920000Y-78695000D01*
X153960000Y-78695000D02*
X152409000Y-78695000D01*
X157465000Y-78735000D02*
X155920000Y-78735000D01*
X153960000Y-78735000D02*
X152415000Y-78735000D01*
X157459000Y-78775000D02*
X155920000Y-78775000D01*
X153960000Y-78775000D02*
X152421000Y-78775000D01*
X157453000Y-78815000D02*
X155920000Y-78815000D01*
X153960000Y-78815000D02*
X152427000Y-78815000D01*
X157446000Y-78855000D02*
X155920000Y-78855000D01*
X153960000Y-78855000D02*
X152434000Y-78855000D01*
X157438000Y-78895000D02*
X155920000Y-78895000D01*
X153960000Y-78895000D02*
X152442000Y-78895000D01*
X157429000Y-78935000D02*
X155920000Y-78935000D01*
X153960000Y-78935000D02*
X152451000Y-78935000D01*
X157420000Y-78975000D02*
X155920000Y-78975000D01*
X153960000Y-78975000D02*
X152460000Y-78975000D01*
X157410000Y-79015000D02*
X155920000Y-79015000D01*
X153960000Y-79015000D02*
X152470000Y-79015000D01*
X157400000Y-79055000D02*
X155920000Y-79055000D01*
X153960000Y-79055000D02*
X152480000Y-79055000D01*
X157388000Y-79096000D02*
X155920000Y-79096000D01*
X153960000Y-79096000D02*
X152492000Y-79096000D01*
X157376000Y-79136000D02*
X155920000Y-79136000D01*
X153960000Y-79136000D02*
X152504000Y-79136000D01*
X157364000Y-79176000D02*
X155920000Y-79176000D01*
X153960000Y-79176000D02*
X152516000Y-79176000D01*
X157350000Y-79216000D02*
X155920000Y-79216000D01*
X153960000Y-79216000D02*
X152530000Y-79216000D01*
X157336000Y-79256000D02*
X155920000Y-79256000D01*
X153960000Y-79256000D02*
X152544000Y-79256000D01*
X157322000Y-79296000D02*
X155920000Y-79296000D01*
X153960000Y-79296000D02*
X152558000Y-79296000D01*
X157306000Y-79336000D02*
X155920000Y-79336000D01*
X153960000Y-79336000D02*
X152574000Y-79336000D01*
X157290000Y-79376000D02*
X155920000Y-79376000D01*
X153960000Y-79376000D02*
X152590000Y-79376000D01*
X157273000Y-79416000D02*
X155920000Y-79416000D01*
X153960000Y-79416000D02*
X152607000Y-79416000D01*
X157255000Y-79456000D02*
X155920000Y-79456000D01*
X153960000Y-79456000D02*
X152625000Y-79456000D01*
X157236000Y-79496000D02*
X155920000Y-79496000D01*
X153960000Y-79496000D02*
X152644000Y-79496000D01*
X157216000Y-79536000D02*
X155920000Y-79536000D01*
X153960000Y-79536000D02*
X152664000Y-79536000D01*
X157196000Y-79576000D02*
X155920000Y-79576000D01*
X153960000Y-79576000D02*
X152684000Y-79576000D01*
X157174000Y-79616000D02*
X155920000Y-79616000D01*
X153960000Y-79616000D02*
X152706000Y-79616000D01*
X157152000Y-79656000D02*
X155920000Y-79656000D01*
X153960000Y-79656000D02*
X152728000Y-79656000D01*
X157129000Y-79696000D02*
X155920000Y-79696000D01*
X153960000Y-79696000D02*
X152751000Y-79696000D01*
X157105000Y-79736000D02*
X155920000Y-79736000D01*
X153960000Y-79736000D02*
X152775000Y-79736000D01*
X157080000Y-79776000D02*
X155920000Y-79776000D01*
X153960000Y-79776000D02*
X152800000Y-79776000D01*
X157053000Y-79816000D02*
X155920000Y-79816000D01*
X153960000Y-79816000D02*
X152827000Y-79816000D01*
X157026000Y-79856000D02*
X155920000Y-79856000D01*
X153960000Y-79856000D02*
X152854000Y-79856000D01*
X156998000Y-79896000D02*
X155920000Y-79896000D01*
X153960000Y-79896000D02*
X152882000Y-79896000D01*
X156968000Y-79936000D02*
X155920000Y-79936000D01*
X153960000Y-79936000D02*
X152912000Y-79936000D01*
X156937000Y-79976000D02*
X155920000Y-79976000D01*
X153960000Y-79976000D02*
X152943000Y-79976000D01*
X156905000Y-80016000D02*
X155920000Y-80016000D01*
X153960000Y-80016000D02*
X152975000Y-80016000D01*
X156872000Y-80056000D02*
X155920000Y-80056000D01*
X153960000Y-80056000D02*
X153008000Y-80056000D01*
X156837000Y-80096000D02*
X155920000Y-80096000D01*
X153960000Y-80096000D02*
X153043000Y-80096000D01*
X156801000Y-80136000D02*
X155920000Y-80136000D01*
X153960000Y-80136000D02*
X153079000Y-80136000D01*
X156763000Y-80176000D02*
X155920000Y-80176000D01*
X153960000Y-80176000D02*
X153117000Y-80176000D01*
X156723000Y-80216000D02*
X155920000Y-80216000D01*
X153960000Y-80216000D02*
X153157000Y-80216000D01*
X156682000Y-80256000D02*
X155920000Y-80256000D01*
X153960000Y-80256000D02*
X153198000Y-80256000D01*
X156639000Y-80296000D02*
X155920000Y-80296000D01*
X153960000Y-80296000D02*
X153241000Y-80296000D01*
X156594000Y-80336000D02*
X155920000Y-80336000D01*
X153960000Y-80336000D02*
X153286000Y-80336000D01*
X156546000Y-80376000D02*
X153334000Y-80376000D01*
X156496000Y-80416000D02*
X153384000Y-80416000D01*
X156444000Y-80456000D02*
X153436000Y-80456000D01*
X156388000Y-80496000D02*
X153492000Y-80496000D01*
X156330000Y-80536000D02*
X153550000Y-80536000D01*
X156267000Y-80576000D02*
X153613000Y-80576000D01*
X156201000Y-80616000D02*
X153679000Y-80616000D01*
X156129000Y-80656000D02*
X153751000Y-80656000D01*
X156052000Y-80696000D02*
X153828000Y-80696000D01*
X155968000Y-80736000D02*
X153912000Y-80736000D01*
X155874000Y-80776000D02*
X154006000Y-80776000D01*
X155769000Y-80816000D02*
X154111000Y-80816000D01*
X155647000Y-80856000D02*
X154233000Y-80856000D01*
X155499000Y-80896000D02*
X154381000Y-80896000D01*
X155294000Y-80936000D02*
X154586000Y-80936000D01*
X154940000Y-75175000D02*
X154940000Y-76375000D01*
X155590000Y-75775000D02*
X154290000Y-75775000D01*
X152400000Y-81875000D02*
X157520000Y-81875000D01*
X152400000Y-84495000D02*
X157520000Y-84495000D01*
X152400000Y-81875000D02*
X152400000Y-84495000D01*
X157520000Y-81875000D02*
X157520000Y-84495000D01*
X154849723Y-57820722D02*
G75*
G03X154850000Y-53209420I-1179723J2305722D01*
G01*
X152490277Y-57820722D02*
G75*
G02X152490000Y-53209420I1179723J2305722D01*
G01*
X152490277Y-57820722D02*
G75*
G03X154850000Y-57820580I1179723J2305722D01*
G01*
X156220000Y-55515000D02*
X151120000Y-55515000D01*
X156220000Y-55555000D02*
X154650000Y-55555000D01*
X152690000Y-55555000D02*
X151120000Y-55555000D01*
X156219000Y-55595000D02*
X154650000Y-55595000D01*
X152690000Y-55595000D02*
X151121000Y-55595000D01*
X156218000Y-55635000D02*
X154650000Y-55635000D01*
X152690000Y-55635000D02*
X151122000Y-55635000D01*
X156216000Y-55675000D02*
X154650000Y-55675000D01*
X152690000Y-55675000D02*
X151124000Y-55675000D01*
X156213000Y-55715000D02*
X154650000Y-55715000D01*
X152690000Y-55715000D02*
X151127000Y-55715000D01*
X156209000Y-55755000D02*
X154650000Y-55755000D01*
X152690000Y-55755000D02*
X151131000Y-55755000D01*
X156205000Y-55795000D02*
X154650000Y-55795000D01*
X152690000Y-55795000D02*
X151135000Y-55795000D01*
X156201000Y-55835000D02*
X154650000Y-55835000D01*
X152690000Y-55835000D02*
X151139000Y-55835000D01*
X156195000Y-55875000D02*
X154650000Y-55875000D01*
X152690000Y-55875000D02*
X151145000Y-55875000D01*
X156189000Y-55915000D02*
X154650000Y-55915000D01*
X152690000Y-55915000D02*
X151151000Y-55915000D01*
X156183000Y-55955000D02*
X154650000Y-55955000D01*
X152690000Y-55955000D02*
X151157000Y-55955000D01*
X156176000Y-55995000D02*
X154650000Y-55995000D01*
X152690000Y-55995000D02*
X151164000Y-55995000D01*
X156168000Y-56035000D02*
X154650000Y-56035000D01*
X152690000Y-56035000D02*
X151172000Y-56035000D01*
X156159000Y-56075000D02*
X154650000Y-56075000D01*
X152690000Y-56075000D02*
X151181000Y-56075000D01*
X156150000Y-56115000D02*
X154650000Y-56115000D01*
X152690000Y-56115000D02*
X151190000Y-56115000D01*
X156140000Y-56155000D02*
X154650000Y-56155000D01*
X152690000Y-56155000D02*
X151200000Y-56155000D01*
X156130000Y-56195000D02*
X154650000Y-56195000D01*
X152690000Y-56195000D02*
X151210000Y-56195000D01*
X156118000Y-56236000D02*
X154650000Y-56236000D01*
X152690000Y-56236000D02*
X151222000Y-56236000D01*
X156106000Y-56276000D02*
X154650000Y-56276000D01*
X152690000Y-56276000D02*
X151234000Y-56276000D01*
X156094000Y-56316000D02*
X154650000Y-56316000D01*
X152690000Y-56316000D02*
X151246000Y-56316000D01*
X156080000Y-56356000D02*
X154650000Y-56356000D01*
X152690000Y-56356000D02*
X151260000Y-56356000D01*
X156066000Y-56396000D02*
X154650000Y-56396000D01*
X152690000Y-56396000D02*
X151274000Y-56396000D01*
X156052000Y-56436000D02*
X154650000Y-56436000D01*
X152690000Y-56436000D02*
X151288000Y-56436000D01*
X156036000Y-56476000D02*
X154650000Y-56476000D01*
X152690000Y-56476000D02*
X151304000Y-56476000D01*
X156020000Y-56516000D02*
X154650000Y-56516000D01*
X152690000Y-56516000D02*
X151320000Y-56516000D01*
X156003000Y-56556000D02*
X154650000Y-56556000D01*
X152690000Y-56556000D02*
X151337000Y-56556000D01*
X155985000Y-56596000D02*
X154650000Y-56596000D01*
X152690000Y-56596000D02*
X151355000Y-56596000D01*
X155966000Y-56636000D02*
X154650000Y-56636000D01*
X152690000Y-56636000D02*
X151374000Y-56636000D01*
X155946000Y-56676000D02*
X154650000Y-56676000D01*
X152690000Y-56676000D02*
X151394000Y-56676000D01*
X155926000Y-56716000D02*
X154650000Y-56716000D01*
X152690000Y-56716000D02*
X151414000Y-56716000D01*
X155904000Y-56756000D02*
X154650000Y-56756000D01*
X152690000Y-56756000D02*
X151436000Y-56756000D01*
X155882000Y-56796000D02*
X154650000Y-56796000D01*
X152690000Y-56796000D02*
X151458000Y-56796000D01*
X155859000Y-56836000D02*
X154650000Y-56836000D01*
X152690000Y-56836000D02*
X151481000Y-56836000D01*
X155835000Y-56876000D02*
X154650000Y-56876000D01*
X152690000Y-56876000D02*
X151505000Y-56876000D01*
X155810000Y-56916000D02*
X154650000Y-56916000D01*
X152690000Y-56916000D02*
X151530000Y-56916000D01*
X155783000Y-56956000D02*
X154650000Y-56956000D01*
X152690000Y-56956000D02*
X151557000Y-56956000D01*
X155756000Y-56996000D02*
X154650000Y-56996000D01*
X152690000Y-56996000D02*
X151584000Y-56996000D01*
X155728000Y-57036000D02*
X154650000Y-57036000D01*
X152690000Y-57036000D02*
X151612000Y-57036000D01*
X155698000Y-57076000D02*
X154650000Y-57076000D01*
X152690000Y-57076000D02*
X151642000Y-57076000D01*
X155667000Y-57116000D02*
X154650000Y-57116000D01*
X152690000Y-57116000D02*
X151673000Y-57116000D01*
X155635000Y-57156000D02*
X154650000Y-57156000D01*
X152690000Y-57156000D02*
X151705000Y-57156000D01*
X155602000Y-57196000D02*
X154650000Y-57196000D01*
X152690000Y-57196000D02*
X151738000Y-57196000D01*
X155567000Y-57236000D02*
X154650000Y-57236000D01*
X152690000Y-57236000D02*
X151773000Y-57236000D01*
X155531000Y-57276000D02*
X154650000Y-57276000D01*
X152690000Y-57276000D02*
X151809000Y-57276000D01*
X155493000Y-57316000D02*
X154650000Y-57316000D01*
X152690000Y-57316000D02*
X151847000Y-57316000D01*
X155453000Y-57356000D02*
X154650000Y-57356000D01*
X152690000Y-57356000D02*
X151887000Y-57356000D01*
X155412000Y-57396000D02*
X154650000Y-57396000D01*
X152690000Y-57396000D02*
X151928000Y-57396000D01*
X155369000Y-57436000D02*
X154650000Y-57436000D01*
X152690000Y-57436000D02*
X151971000Y-57436000D01*
X155324000Y-57476000D02*
X154650000Y-57476000D01*
X152690000Y-57476000D02*
X152016000Y-57476000D01*
X155276000Y-57516000D02*
X152064000Y-57516000D01*
X155226000Y-57556000D02*
X152114000Y-57556000D01*
X155174000Y-57596000D02*
X152166000Y-57596000D01*
X155118000Y-57636000D02*
X152222000Y-57636000D01*
X155060000Y-57676000D02*
X152280000Y-57676000D01*
X154997000Y-57716000D02*
X152343000Y-57716000D01*
X154931000Y-57756000D02*
X152409000Y-57756000D01*
X154859000Y-57796000D02*
X152481000Y-57796000D01*
X154782000Y-57836000D02*
X152558000Y-57836000D01*
X154698000Y-57876000D02*
X152642000Y-57876000D01*
X154604000Y-57916000D02*
X152736000Y-57916000D01*
X154499000Y-57956000D02*
X152841000Y-57956000D01*
X154377000Y-57996000D02*
X152963000Y-57996000D01*
X154229000Y-58036000D02*
X153111000Y-58036000D01*
X154024000Y-58076000D02*
X153316000Y-58076000D01*
X153670000Y-52315000D02*
X153670000Y-53515000D01*
X154320000Y-52915000D02*
X153020000Y-52915000D01*
X157440000Y-57785000D02*
X157440000Y-52665000D01*
X160060000Y-57785000D02*
X160060000Y-52665000D01*
X157440000Y-57785000D02*
X160060000Y-57785000D01*
X157440000Y-52665000D02*
X160060000Y-52665000D01*
X106589723Y-73060722D02*
G75*
G03X106590000Y-68449420I-1179723J2305722D01*
G01*
X104230277Y-73060722D02*
G75*
G02X104230000Y-68449420I1179723J2305722D01*
G01*
X104230277Y-73060722D02*
G75*
G03X106590000Y-73060580I1179723J2305722D01*
G01*
X107960000Y-70755000D02*
X102860000Y-70755000D01*
X107960000Y-70795000D02*
X106390000Y-70795000D01*
X104430000Y-70795000D02*
X102860000Y-70795000D01*
X107959000Y-70835000D02*
X106390000Y-70835000D01*
X104430000Y-70835000D02*
X102861000Y-70835000D01*
X107958000Y-70875000D02*
X106390000Y-70875000D01*
X104430000Y-70875000D02*
X102862000Y-70875000D01*
X107956000Y-70915000D02*
X106390000Y-70915000D01*
X104430000Y-70915000D02*
X102864000Y-70915000D01*
X107953000Y-70955000D02*
X106390000Y-70955000D01*
X104430000Y-70955000D02*
X102867000Y-70955000D01*
X107949000Y-70995000D02*
X106390000Y-70995000D01*
X104430000Y-70995000D02*
X102871000Y-70995000D01*
X107945000Y-71035000D02*
X106390000Y-71035000D01*
X104430000Y-71035000D02*
X102875000Y-71035000D01*
X107941000Y-71075000D02*
X106390000Y-71075000D01*
X104430000Y-71075000D02*
X102879000Y-71075000D01*
X107935000Y-71115000D02*
X106390000Y-71115000D01*
X104430000Y-71115000D02*
X102885000Y-71115000D01*
X107929000Y-71155000D02*
X106390000Y-71155000D01*
X104430000Y-71155000D02*
X102891000Y-71155000D01*
X107923000Y-71195000D02*
X106390000Y-71195000D01*
X104430000Y-71195000D02*
X102897000Y-71195000D01*
X107916000Y-71235000D02*
X106390000Y-71235000D01*
X104430000Y-71235000D02*
X102904000Y-71235000D01*
X107908000Y-71275000D02*
X106390000Y-71275000D01*
X104430000Y-71275000D02*
X102912000Y-71275000D01*
X107899000Y-71315000D02*
X106390000Y-71315000D01*
X104430000Y-71315000D02*
X102921000Y-71315000D01*
X107890000Y-71355000D02*
X106390000Y-71355000D01*
X104430000Y-71355000D02*
X102930000Y-71355000D01*
X107880000Y-71395000D02*
X106390000Y-71395000D01*
X104430000Y-71395000D02*
X102940000Y-71395000D01*
X107870000Y-71435000D02*
X106390000Y-71435000D01*
X104430000Y-71435000D02*
X102950000Y-71435000D01*
X107858000Y-71476000D02*
X106390000Y-71476000D01*
X104430000Y-71476000D02*
X102962000Y-71476000D01*
X107846000Y-71516000D02*
X106390000Y-71516000D01*
X104430000Y-71516000D02*
X102974000Y-71516000D01*
X107834000Y-71556000D02*
X106390000Y-71556000D01*
X104430000Y-71556000D02*
X102986000Y-71556000D01*
X107820000Y-71596000D02*
X106390000Y-71596000D01*
X104430000Y-71596000D02*
X103000000Y-71596000D01*
X107806000Y-71636000D02*
X106390000Y-71636000D01*
X104430000Y-71636000D02*
X103014000Y-71636000D01*
X107792000Y-71676000D02*
X106390000Y-71676000D01*
X104430000Y-71676000D02*
X103028000Y-71676000D01*
X107776000Y-71716000D02*
X106390000Y-71716000D01*
X104430000Y-71716000D02*
X103044000Y-71716000D01*
X107760000Y-71756000D02*
X106390000Y-71756000D01*
X104430000Y-71756000D02*
X103060000Y-71756000D01*
X107743000Y-71796000D02*
X106390000Y-71796000D01*
X104430000Y-71796000D02*
X103077000Y-71796000D01*
X107725000Y-71836000D02*
X106390000Y-71836000D01*
X104430000Y-71836000D02*
X103095000Y-71836000D01*
X107706000Y-71876000D02*
X106390000Y-71876000D01*
X104430000Y-71876000D02*
X103114000Y-71876000D01*
X107686000Y-71916000D02*
X106390000Y-71916000D01*
X104430000Y-71916000D02*
X103134000Y-71916000D01*
X107666000Y-71956000D02*
X106390000Y-71956000D01*
X104430000Y-71956000D02*
X103154000Y-71956000D01*
X107644000Y-71996000D02*
X106390000Y-71996000D01*
X104430000Y-71996000D02*
X103176000Y-71996000D01*
X107622000Y-72036000D02*
X106390000Y-72036000D01*
X104430000Y-72036000D02*
X103198000Y-72036000D01*
X107599000Y-72076000D02*
X106390000Y-72076000D01*
X104430000Y-72076000D02*
X103221000Y-72076000D01*
X107575000Y-72116000D02*
X106390000Y-72116000D01*
X104430000Y-72116000D02*
X103245000Y-72116000D01*
X107550000Y-72156000D02*
X106390000Y-72156000D01*
X104430000Y-72156000D02*
X103270000Y-72156000D01*
X107523000Y-72196000D02*
X106390000Y-72196000D01*
X104430000Y-72196000D02*
X103297000Y-72196000D01*
X107496000Y-72236000D02*
X106390000Y-72236000D01*
X104430000Y-72236000D02*
X103324000Y-72236000D01*
X107468000Y-72276000D02*
X106390000Y-72276000D01*
X104430000Y-72276000D02*
X103352000Y-72276000D01*
X107438000Y-72316000D02*
X106390000Y-72316000D01*
X104430000Y-72316000D02*
X103382000Y-72316000D01*
X107407000Y-72356000D02*
X106390000Y-72356000D01*
X104430000Y-72356000D02*
X103413000Y-72356000D01*
X107375000Y-72396000D02*
X106390000Y-72396000D01*
X104430000Y-72396000D02*
X103445000Y-72396000D01*
X107342000Y-72436000D02*
X106390000Y-72436000D01*
X104430000Y-72436000D02*
X103478000Y-72436000D01*
X107307000Y-72476000D02*
X106390000Y-72476000D01*
X104430000Y-72476000D02*
X103513000Y-72476000D01*
X107271000Y-72516000D02*
X106390000Y-72516000D01*
X104430000Y-72516000D02*
X103549000Y-72516000D01*
X107233000Y-72556000D02*
X106390000Y-72556000D01*
X104430000Y-72556000D02*
X103587000Y-72556000D01*
X107193000Y-72596000D02*
X106390000Y-72596000D01*
X104430000Y-72596000D02*
X103627000Y-72596000D01*
X107152000Y-72636000D02*
X106390000Y-72636000D01*
X104430000Y-72636000D02*
X103668000Y-72636000D01*
X107109000Y-72676000D02*
X106390000Y-72676000D01*
X104430000Y-72676000D02*
X103711000Y-72676000D01*
X107064000Y-72716000D02*
X106390000Y-72716000D01*
X104430000Y-72716000D02*
X103756000Y-72716000D01*
X107016000Y-72756000D02*
X103804000Y-72756000D01*
X106966000Y-72796000D02*
X103854000Y-72796000D01*
X106914000Y-72836000D02*
X103906000Y-72836000D01*
X106858000Y-72876000D02*
X103962000Y-72876000D01*
X106800000Y-72916000D02*
X104020000Y-72916000D01*
X106737000Y-72956000D02*
X104083000Y-72956000D01*
X106671000Y-72996000D02*
X104149000Y-72996000D01*
X106599000Y-73036000D02*
X104221000Y-73036000D01*
X106522000Y-73076000D02*
X104298000Y-73076000D01*
X106438000Y-73116000D02*
X104382000Y-73116000D01*
X106344000Y-73156000D02*
X104476000Y-73156000D01*
X106239000Y-73196000D02*
X104581000Y-73196000D01*
X106117000Y-73236000D02*
X104703000Y-73236000D01*
X105969000Y-73276000D02*
X104851000Y-73276000D01*
X105764000Y-73316000D02*
X105056000Y-73316000D01*
X105410000Y-67555000D02*
X105410000Y-68755000D01*
X106060000Y-68155000D02*
X104760000Y-68155000D01*
X109180000Y-73065000D02*
X109180000Y-67945000D01*
X111800000Y-73065000D02*
X111800000Y-67945000D01*
X109180000Y-73065000D02*
X111800000Y-73065000D01*
X109180000Y-67945000D02*
X111800000Y-67945000D01*
X130750000Y-52645000D02*
X130750000Y-57845000D01*
X140970000Y-52645000D02*
X130750000Y-52645000D01*
X143570000Y-57845000D02*
X130750000Y-57845000D01*
X140970000Y-52645000D02*
X140970000Y-55245000D01*
X140970000Y-55245000D02*
X143570000Y-55245000D01*
X143570000Y-55245000D02*
X143570000Y-57845000D01*
X142240000Y-52645000D02*
X143570000Y-52645000D01*
X143570000Y-52645000D02*
X143570000Y-53975000D01*
X153610000Y-70545000D02*
X156270000Y-70545000D01*
X153610000Y-67945000D02*
X153610000Y-70545000D01*
X156270000Y-67945000D02*
X156270000Y-70545000D01*
X153610000Y-67945000D02*
X156270000Y-67945000D01*
X153610000Y-66675000D02*
X153610000Y-65345000D01*
X153610000Y-65345000D02*
X154940000Y-65345000D01*
X153610000Y-93405000D02*
X156270000Y-93405000D01*
X153610000Y-90805000D02*
X153610000Y-93405000D01*
X156270000Y-90805000D02*
X156270000Y-93405000D01*
X153610000Y-90805000D02*
X156270000Y-90805000D01*
X153610000Y-89535000D02*
X153610000Y-88205000D01*
X153610000Y-88205000D02*
X154940000Y-88205000D01*
X153610000Y-139125000D02*
X156270000Y-139125000D01*
X153610000Y-136525000D02*
X153610000Y-139125000D01*
X156270000Y-136525000D02*
X156270000Y-139125000D01*
X153610000Y-136525000D02*
X156270000Y-136525000D01*
X153610000Y-135255000D02*
X153610000Y-133925000D01*
X153610000Y-133925000D02*
X154940000Y-133925000D01*
X153610000Y-116265000D02*
X156270000Y-116265000D01*
X153610000Y-113665000D02*
X153610000Y-116265000D01*
X156270000Y-113665000D02*
X156270000Y-116265000D01*
X153610000Y-113665000D02*
X156270000Y-113665000D01*
X153610000Y-112395000D02*
X153610000Y-111065000D01*
X153610000Y-111065000D02*
X154940000Y-111065000D01*
X114260000Y-88935000D02*
X116880000Y-88935000D01*
X116880000Y-88935000D02*
X116880000Y-82515000D01*
X116880000Y-82515000D02*
X114260000Y-82515000D01*
X114260000Y-82515000D02*
X114260000Y-88935000D01*
X115570000Y-89825000D02*
X115570000Y-88935000D01*
X115570000Y-81625000D02*
X115570000Y-82515000D01*
X135850000Y-88935000D02*
X138470000Y-88935000D01*
X138470000Y-88935000D02*
X138470000Y-82515000D01*
X138470000Y-82515000D02*
X135850000Y-82515000D01*
X135850000Y-82515000D02*
X135850000Y-88935000D01*
X137160000Y-89825000D02*
X137160000Y-88935000D01*
X137160000Y-81625000D02*
X137160000Y-82515000D01*
X123360000Y-107445000D02*
X123360000Y-104645000D01*
X123360000Y-104645000D02*
X110320000Y-104645000D01*
X110320000Y-104645000D02*
X110320000Y-107445000D01*
X110320000Y-107445000D02*
X123360000Y-107445000D01*
X120650000Y-107445000D02*
X120650000Y-104645000D01*
X186709000Y-137704000D02*
X191630000Y-137704000D01*
X186709000Y-148125000D02*
X191630000Y-148125000D01*
X191630000Y-137704000D02*
X191630000Y-141550000D01*
X191630000Y-144280000D02*
X191630000Y-148125000D01*
X186709000Y-146780000D02*
X186709000Y-148125000D01*
X186709000Y-137704000D02*
X186709000Y-139050000D01*
X186709000Y-141780000D02*
X186709000Y-144050000D01*
X188093000Y-141105000D02*
X191630000Y-141105000D01*
X188093000Y-144725000D02*
X191630000Y-144725000D01*
X186709000Y-141780000D02*
X186709000Y-144050000D01*
X191630000Y-141105000D02*
X191630000Y-141550000D01*
X191630000Y-144280000D02*
X191630000Y-144725000D01*
X158690000Y-67945000D02*
X158690000Y-75625000D01*
X158690000Y-75625000D02*
X161350000Y-75625000D01*
X161350000Y-75625000D02*
X161350000Y-67945000D01*
X161350000Y-67945000D02*
X158690000Y-67945000D01*
X158690000Y-66675000D02*
X158690000Y-65345000D01*
X158690000Y-65345000D02*
X160020000Y-65345000D01*
X158690000Y-90805000D02*
X158690000Y-98485000D01*
X158690000Y-98485000D02*
X161350000Y-98485000D01*
X161350000Y-98485000D02*
X161350000Y-90805000D01*
X161350000Y-90805000D02*
X158690000Y-90805000D01*
X158690000Y-89535000D02*
X158690000Y-88205000D01*
X158690000Y-88205000D02*
X160020000Y-88205000D01*
X158690000Y-136525000D02*
X158690000Y-144205000D01*
X158690000Y-144205000D02*
X161350000Y-144205000D01*
X161350000Y-144205000D02*
X161350000Y-136525000D01*
X161350000Y-136525000D02*
X158690000Y-136525000D01*
X158690000Y-135255000D02*
X158690000Y-133925000D01*
X158690000Y-133925000D02*
X160020000Y-133925000D01*
X158690000Y-113665000D02*
X158690000Y-121345000D01*
X158690000Y-121345000D02*
X161350000Y-121345000D01*
X161350000Y-121345000D02*
X161350000Y-113665000D01*
X161350000Y-113665000D02*
X158690000Y-113665000D01*
X158690000Y-112395000D02*
X158690000Y-111065000D01*
X158690000Y-111065000D02*
X160020000Y-111065000D01*
X176260000Y-76775000D02*
G75*
G02X174260000Y-76775000I-1000000J0D01*
G01*
X174260000Y-76775000D02*
X172610000Y-76775000D01*
X172610000Y-76775000D02*
X172610000Y-94675000D01*
X172610000Y-94675000D02*
X177910000Y-94675000D01*
X177910000Y-94675000D02*
X177910000Y-76775000D01*
X177910000Y-76775000D02*
X176260000Y-76775000D01*
X176260000Y-102175000D02*
G75*
G02X174260000Y-102175000I-1000000J0D01*
G01*
X174260000Y-102175000D02*
X172610000Y-102175000D01*
X172610000Y-102175000D02*
X172610000Y-120075000D01*
X172610000Y-120075000D02*
X177910000Y-120075000D01*
X177910000Y-120075000D02*
X177910000Y-102175000D01*
X177910000Y-102175000D02*
X176260000Y-102175000D01*
X195640000Y-95885000D02*
X195640000Y-90745000D01*
X195640000Y-90745000D02*
X192980000Y-90745000D01*
X192980000Y-90745000D02*
X192980000Y-95885000D01*
X192980000Y-95885000D02*
X195640000Y-95885000D01*
X195640000Y-97155000D02*
X195640000Y-98485000D01*
X195640000Y-98485000D02*
X194310000Y-98485000D01*
X195640000Y-111125000D02*
X195640000Y-105985000D01*
X195640000Y-105985000D02*
X192980000Y-105985000D01*
X192980000Y-105985000D02*
X192980000Y-111125000D01*
X192980000Y-111125000D02*
X195640000Y-111125000D01*
X195640000Y-112395000D02*
X195640000Y-113725000D01*
X195640000Y-113725000D02*
X194310000Y-113725000D01*
X195640000Y-126365000D02*
X195640000Y-121225000D01*
X195640000Y-121225000D02*
X192980000Y-121225000D01*
X192980000Y-121225000D02*
X192980000Y-126365000D01*
X192980000Y-126365000D02*
X195640000Y-126365000D01*
X195640000Y-127635000D02*
X195640000Y-128965000D01*
X195640000Y-128965000D02*
X194310000Y-128965000D01*
X176260000Y-137735000D02*
G75*
G02X174260000Y-137735000I-1000000J0D01*
G01*
X174260000Y-137735000D02*
X172610000Y-137735000D01*
X172610000Y-137735000D02*
X172610000Y-148015000D01*
X172610000Y-148015000D02*
X177910000Y-148015000D01*
X177910000Y-148015000D02*
X177910000Y-137735000D01*
X177910000Y-137735000D02*
X176260000Y-137735000D01*
X106620000Y-79375000D02*
X106620000Y-102295000D01*
X106620000Y-102295000D02*
X109280000Y-102295000D01*
X109280000Y-102295000D02*
X109280000Y-79375000D01*
X109280000Y-79375000D02*
X106620000Y-79375000D01*
X106620000Y-78105000D02*
X106620000Y-76775000D01*
X106620000Y-76775000D02*
X107950000Y-76775000D01*
X128210000Y-79375000D02*
X128210000Y-102295000D01*
X128210000Y-102295000D02*
X130870000Y-102295000D01*
X130870000Y-102295000D02*
X130870000Y-79375000D01*
X130870000Y-79375000D02*
X128210000Y-79375000D01*
X128210000Y-78105000D02*
X128210000Y-76775000D01*
X128210000Y-76775000D02*
X129540000Y-76775000D01*
X146110000Y-112125000D02*
G75*
G02X146110000Y-110125000I0J1000000D01*
G01*
X146110000Y-110125000D02*
X146110000Y-107890000D01*
X146110000Y-107890000D02*
X130750000Y-107890000D01*
X130750000Y-107890000D02*
X130750000Y-114360000D01*
X130750000Y-114360000D02*
X146110000Y-114360000D01*
X146110000Y-114360000D02*
X146110000Y-112125000D01*
X116840000Y-52645000D02*
X127060000Y-52645000D01*
X127060000Y-52645000D02*
X127060000Y-57845000D01*
X127060000Y-57845000D02*
X114240000Y-57845000D01*
X114240000Y-57845000D02*
X114240000Y-55245000D01*
X114240000Y-55245000D02*
X116840000Y-55245000D01*
X116840000Y-55245000D02*
X116840000Y-52645000D01*
X115570000Y-52645000D02*
X114240000Y-52645000D01*
X114240000Y-52645000D02*
X114240000Y-53915000D01*
X186820000Y-75395000D02*
X184020000Y-75395000D01*
X184020000Y-75395000D02*
X184020000Y-96055000D01*
X184020000Y-96055000D02*
X186820000Y-96055000D01*
X186820000Y-96055000D02*
X186820000Y-75395000D01*
X186820000Y-78105000D02*
X184020000Y-78105000D01*
X186820000Y-100795000D02*
X184020000Y-100795000D01*
X184020000Y-100795000D02*
X184020000Y-121455000D01*
X184020000Y-121455000D02*
X186820000Y-121455000D01*
X186820000Y-121455000D02*
X186820000Y-100795000D01*
X186820000Y-103505000D02*
X184020000Y-103505000D01*
X170120000Y-134045000D02*
X175320000Y-134045000D01*
X170120000Y-126365000D02*
X170120000Y-134045000D01*
X175320000Y-123765000D02*
X175320000Y-134045000D01*
X170120000Y-126365000D02*
X172720000Y-126365000D01*
X172720000Y-126365000D02*
X172720000Y-123765000D01*
X172720000Y-123765000D02*
X175320000Y-123765000D01*
X170120000Y-125095000D02*
X170120000Y-123765000D01*
X170120000Y-123765000D02*
X171450000Y-123765000D01*
X175200000Y-134045000D02*
X180400000Y-134045000D01*
X175200000Y-126365000D02*
X175200000Y-134045000D01*
X180400000Y-123765000D02*
X180400000Y-134045000D01*
X175200000Y-126365000D02*
X177800000Y-126365000D01*
X177800000Y-126365000D02*
X177800000Y-123765000D01*
X177800000Y-123765000D02*
X180400000Y-123765000D01*
X175200000Y-125095000D02*
X175200000Y-123765000D01*
X175200000Y-123765000D02*
X176530000Y-123765000D01*
X180280000Y-134045000D02*
X185480000Y-134045000D01*
X180280000Y-126365000D02*
X180280000Y-134045000D01*
X185480000Y-123765000D02*
X185480000Y-134045000D01*
X180280000Y-126365000D02*
X182880000Y-126365000D01*
X182880000Y-126365000D02*
X182880000Y-123765000D01*
X182880000Y-123765000D02*
X185480000Y-123765000D01*
X180280000Y-125095000D02*
X180280000Y-123765000D01*
X180280000Y-123765000D02*
X181610000Y-123765000D01*
X195640000Y-75505000D02*
X192980000Y-75505000D01*
X195640000Y-80645000D02*
X195640000Y-75505000D01*
X192980000Y-80645000D02*
X192980000Y-75505000D01*
X195640000Y-80645000D02*
X192980000Y-80645000D01*
X195640000Y-81915000D02*
X195640000Y-83245000D01*
X195640000Y-83245000D02*
X194310000Y-83245000D01*
D14*
X135723334Y-65762143D02*
X135675715Y-65809762D01*
X135532858Y-65857381D01*
X135437620Y-65857381D01*
X135294762Y-65809762D01*
X135199524Y-65714524D01*
X135151905Y-65619286D01*
X135104286Y-65428810D01*
X135104286Y-65285952D01*
X135151905Y-65095476D01*
X135199524Y-65000238D01*
X135294762Y-64905000D01*
X135437620Y-64857381D01*
X135532858Y-64857381D01*
X135675715Y-64905000D01*
X135723334Y-64952619D01*
X136675715Y-65857381D02*
X136104286Y-65857381D01*
X136390000Y-65857381D02*
X136390000Y-64857381D01*
X136294762Y-65000238D01*
X136199524Y-65095476D01*
X136104286Y-65143095D01*
X145883334Y-67032143D02*
X145835715Y-67079762D01*
X145692858Y-67127381D01*
X145597620Y-67127381D01*
X145454762Y-67079762D01*
X145359524Y-66984524D01*
X145311905Y-66889286D01*
X145264286Y-66698810D01*
X145264286Y-66555952D01*
X145311905Y-66365476D01*
X145359524Y-66270238D01*
X145454762Y-66175000D01*
X145597620Y-66127381D01*
X145692858Y-66127381D01*
X145835715Y-66175000D01*
X145883334Y-66222619D01*
X146264286Y-66222619D02*
X146311905Y-66175000D01*
X146407143Y-66127381D01*
X146645239Y-66127381D01*
X146740477Y-66175000D01*
X146788096Y-66222619D01*
X146835715Y-66317857D01*
X146835715Y-66413095D01*
X146788096Y-66555952D01*
X146216667Y-67127381D01*
X146835715Y-67127381D01*
X140803334Y-65762143D02*
X140755715Y-65809762D01*
X140612858Y-65857381D01*
X140517620Y-65857381D01*
X140374762Y-65809762D01*
X140279524Y-65714524D01*
X140231905Y-65619286D01*
X140184286Y-65428810D01*
X140184286Y-65285952D01*
X140231905Y-65095476D01*
X140279524Y-65000238D01*
X140374762Y-64905000D01*
X140517620Y-64857381D01*
X140612858Y-64857381D01*
X140755715Y-64905000D01*
X140803334Y-64952619D01*
X141136667Y-64857381D02*
X141755715Y-64857381D01*
X141422381Y-65238333D01*
X141565239Y-65238333D01*
X141660477Y-65285952D01*
X141708096Y-65333571D01*
X141755715Y-65428810D01*
X141755715Y-65666905D01*
X141708096Y-65762143D01*
X141660477Y-65809762D01*
X141565239Y-65857381D01*
X141279524Y-65857381D01*
X141184286Y-65809762D01*
X141136667Y-65762143D01*
X147153334Y-53062143D02*
X147105715Y-53109762D01*
X146962858Y-53157381D01*
X146867620Y-53157381D01*
X146724762Y-53109762D01*
X146629524Y-53014524D01*
X146581905Y-52919286D01*
X146534286Y-52728810D01*
X146534286Y-52585952D01*
X146581905Y-52395476D01*
X146629524Y-52300238D01*
X146724762Y-52205000D01*
X146867620Y-52157381D01*
X146962858Y-52157381D01*
X147105715Y-52205000D01*
X147153334Y-52252619D01*
X148010477Y-52490714D02*
X148010477Y-53157381D01*
X147772381Y-52109762D02*
X147534286Y-52824048D01*
X148153334Y-52824048D01*
X105243334Y-59412143D02*
X105195715Y-59459762D01*
X105052858Y-59507381D01*
X104957620Y-59507381D01*
X104814762Y-59459762D01*
X104719524Y-59364524D01*
X104671905Y-59269286D01*
X104624286Y-59078810D01*
X104624286Y-58935952D01*
X104671905Y-58745476D01*
X104719524Y-58650238D01*
X104814762Y-58555000D01*
X104957620Y-58507381D01*
X105052858Y-58507381D01*
X105195715Y-58555000D01*
X105243334Y-58602619D01*
X106148096Y-58507381D02*
X105671905Y-58507381D01*
X105624286Y-58983571D01*
X105671905Y-58935952D01*
X105767143Y-58888333D01*
X106005239Y-58888333D01*
X106100477Y-58935952D01*
X106148096Y-58983571D01*
X106195715Y-59078810D01*
X106195715Y-59316905D01*
X106148096Y-59412143D01*
X106100477Y-59459762D01*
X106005239Y-59507381D01*
X105767143Y-59507381D01*
X105671905Y-59459762D01*
X105624286Y-59412143D01*
X110323334Y-59412143D02*
X110275715Y-59459762D01*
X110132858Y-59507381D01*
X110037620Y-59507381D01*
X109894762Y-59459762D01*
X109799524Y-59364524D01*
X109751905Y-59269286D01*
X109704286Y-59078810D01*
X109704286Y-58935952D01*
X109751905Y-58745476D01*
X109799524Y-58650238D01*
X109894762Y-58555000D01*
X110037620Y-58507381D01*
X110132858Y-58507381D01*
X110275715Y-58555000D01*
X110323334Y-58602619D01*
X111180477Y-58507381D02*
X110990000Y-58507381D01*
X110894762Y-58555000D01*
X110847143Y-58602619D01*
X110751905Y-58745476D01*
X110704286Y-58935952D01*
X110704286Y-59316905D01*
X110751905Y-59412143D01*
X110799524Y-59459762D01*
X110894762Y-59507381D01*
X111085239Y-59507381D01*
X111180477Y-59459762D01*
X111228096Y-59412143D01*
X111275715Y-59316905D01*
X111275715Y-59078810D01*
X111228096Y-58983571D01*
X111180477Y-58935952D01*
X111085239Y-58888333D01*
X110894762Y-58888333D01*
X110799524Y-58935952D01*
X110751905Y-58983571D01*
X110704286Y-59078810D01*
X124293334Y-65762143D02*
X124245715Y-65809762D01*
X124102858Y-65857381D01*
X124007620Y-65857381D01*
X123864762Y-65809762D01*
X123769524Y-65714524D01*
X123721905Y-65619286D01*
X123674286Y-65428810D01*
X123674286Y-65285952D01*
X123721905Y-65095476D01*
X123769524Y-65000238D01*
X123864762Y-64905000D01*
X124007620Y-64857381D01*
X124102858Y-64857381D01*
X124245715Y-64905000D01*
X124293334Y-64952619D01*
X124864762Y-65285952D02*
X124769524Y-65238333D01*
X124721905Y-65190714D01*
X124674286Y-65095476D01*
X124674286Y-65047857D01*
X124721905Y-64952619D01*
X124769524Y-64905000D01*
X124864762Y-64857381D01*
X125055239Y-64857381D01*
X125150477Y-64905000D01*
X125198096Y-64952619D01*
X125245715Y-65047857D01*
X125245715Y-65095476D01*
X125198096Y-65190714D01*
X125150477Y-65238333D01*
X125055239Y-65285952D01*
X124864762Y-65285952D01*
X124769524Y-65333571D01*
X124721905Y-65381190D01*
X124674286Y-65476429D01*
X124674286Y-65666905D01*
X124721905Y-65762143D01*
X124769524Y-65809762D01*
X124864762Y-65857381D01*
X125055239Y-65857381D01*
X125150477Y-65809762D01*
X125198096Y-65762143D01*
X125245715Y-65666905D01*
X125245715Y-65476429D01*
X125198096Y-65381190D01*
X125150477Y-65333571D01*
X125055239Y-65285952D01*
X129373334Y-65762143D02*
X129325715Y-65809762D01*
X129182858Y-65857381D01*
X129087620Y-65857381D01*
X128944762Y-65809762D01*
X128849524Y-65714524D01*
X128801905Y-65619286D01*
X128754286Y-65428810D01*
X128754286Y-65285952D01*
X128801905Y-65095476D01*
X128849524Y-65000238D01*
X128944762Y-64905000D01*
X129087620Y-64857381D01*
X129182858Y-64857381D01*
X129325715Y-64905000D01*
X129373334Y-64952619D01*
X129849524Y-65857381D02*
X130040000Y-65857381D01*
X130135239Y-65809762D01*
X130182858Y-65762143D01*
X130278096Y-65619286D01*
X130325715Y-65428810D01*
X130325715Y-65047857D01*
X130278096Y-64952619D01*
X130230477Y-64905000D01*
X130135239Y-64857381D01*
X129944762Y-64857381D01*
X129849524Y-64905000D01*
X129801905Y-64952619D01*
X129754286Y-65047857D01*
X129754286Y-65285952D01*
X129801905Y-65381190D01*
X129849524Y-65428810D01*
X129944762Y-65476429D01*
X130135239Y-65476429D01*
X130230477Y-65428810D01*
X130278096Y-65381190D01*
X130325715Y-65285952D01*
X159377143Y-125452143D02*
X159329524Y-125499762D01*
X159186667Y-125547381D01*
X159091429Y-125547381D01*
X158948571Y-125499762D01*
X158853333Y-125404524D01*
X158805714Y-125309286D01*
X158758095Y-125118810D01*
X158758095Y-124975952D01*
X158805714Y-124785476D01*
X158853333Y-124690238D01*
X158948571Y-124595000D01*
X159091429Y-124547381D01*
X159186667Y-124547381D01*
X159329524Y-124595000D01*
X159377143Y-124642619D01*
X160329524Y-125547381D02*
X159758095Y-125547381D01*
X160043809Y-125547381D02*
X160043809Y-124547381D01*
X159948571Y-124690238D01*
X159853333Y-124785476D01*
X159758095Y-124833095D01*
X160948571Y-124547381D02*
X161043810Y-124547381D01*
X161139048Y-124595000D01*
X161186667Y-124642619D01*
X161234286Y-124737857D01*
X161281905Y-124928333D01*
X161281905Y-125166429D01*
X161234286Y-125356905D01*
X161186667Y-125452143D01*
X161139048Y-125499762D01*
X161043810Y-125547381D01*
X160948571Y-125547381D01*
X160853333Y-125499762D01*
X160805714Y-125452143D01*
X160758095Y-125356905D01*
X160710476Y-125166429D01*
X160710476Y-124928333D01*
X160758095Y-124737857D01*
X160805714Y-124642619D01*
X160853333Y-124595000D01*
X160948571Y-124547381D01*
X159377143Y-129262143D02*
X159329524Y-129309762D01*
X159186667Y-129357381D01*
X159091429Y-129357381D01*
X158948571Y-129309762D01*
X158853333Y-129214524D01*
X158805714Y-129119286D01*
X158758095Y-128928810D01*
X158758095Y-128785952D01*
X158805714Y-128595476D01*
X158853333Y-128500238D01*
X158948571Y-128405000D01*
X159091429Y-128357381D01*
X159186667Y-128357381D01*
X159329524Y-128405000D01*
X159377143Y-128452619D01*
X160329524Y-129357381D02*
X159758095Y-129357381D01*
X160043809Y-129357381D02*
X160043809Y-128357381D01*
X159948571Y-128500238D01*
X159853333Y-128595476D01*
X159758095Y-128643095D01*
X161281905Y-129357381D02*
X160710476Y-129357381D01*
X160996190Y-129357381D02*
X160996190Y-128357381D01*
X160900952Y-128500238D01*
X160805714Y-128595476D01*
X160710476Y-128643095D01*
X159377143Y-79732143D02*
X159329524Y-79779762D01*
X159186667Y-79827381D01*
X159091429Y-79827381D01*
X158948571Y-79779762D01*
X158853333Y-79684524D01*
X158805714Y-79589286D01*
X158758095Y-79398810D01*
X158758095Y-79255952D01*
X158805714Y-79065476D01*
X158853333Y-78970238D01*
X158948571Y-78875000D01*
X159091429Y-78827381D01*
X159186667Y-78827381D01*
X159329524Y-78875000D01*
X159377143Y-78922619D01*
X160329524Y-79827381D02*
X159758095Y-79827381D01*
X160043809Y-79827381D02*
X160043809Y-78827381D01*
X159948571Y-78970238D01*
X159853333Y-79065476D01*
X159758095Y-79113095D01*
X160710476Y-78922619D02*
X160758095Y-78875000D01*
X160853333Y-78827381D01*
X161091429Y-78827381D01*
X161186667Y-78875000D01*
X161234286Y-78922619D01*
X161281905Y-79017857D01*
X161281905Y-79113095D01*
X161234286Y-79255952D01*
X160662857Y-79827381D01*
X161281905Y-79827381D01*
X159377143Y-83542143D02*
X159329524Y-83589762D01*
X159186667Y-83637381D01*
X159091429Y-83637381D01*
X158948571Y-83589762D01*
X158853333Y-83494524D01*
X158805714Y-83399286D01*
X158758095Y-83208810D01*
X158758095Y-83065952D01*
X158805714Y-82875476D01*
X158853333Y-82780238D01*
X158948571Y-82685000D01*
X159091429Y-82637381D01*
X159186667Y-82637381D01*
X159329524Y-82685000D01*
X159377143Y-82732619D01*
X160329524Y-83637381D02*
X159758095Y-83637381D01*
X160043809Y-83637381D02*
X160043809Y-82637381D01*
X159948571Y-82780238D01*
X159853333Y-82875476D01*
X159758095Y-82923095D01*
X160662857Y-82637381D02*
X161281905Y-82637381D01*
X160948571Y-83018333D01*
X161091429Y-83018333D01*
X161186667Y-83065952D01*
X161234286Y-83113571D01*
X161281905Y-83208810D01*
X161281905Y-83446905D01*
X161234286Y-83542143D01*
X161186667Y-83589762D01*
X161091429Y-83637381D01*
X160805714Y-83637381D01*
X160710476Y-83589762D01*
X160662857Y-83542143D01*
X153027143Y-59412144D02*
X152979524Y-59459763D01*
X152836667Y-59507382D01*
X152741429Y-59507382D01*
X152598571Y-59459763D01*
X152503333Y-59364525D01*
X152455714Y-59269287D01*
X152408095Y-59078811D01*
X152408095Y-58935953D01*
X152455714Y-58745477D01*
X152503333Y-58650239D01*
X152598571Y-58555001D01*
X152741429Y-58507382D01*
X152836667Y-58507382D01*
X152979524Y-58555001D01*
X153027143Y-58602620D01*
X153979524Y-59507382D02*
X153408095Y-59507382D01*
X153693809Y-59507382D02*
X153693809Y-58507382D01*
X153598571Y-58650239D01*
X153503333Y-58745477D01*
X153408095Y-58793096D01*
X154836667Y-58840715D02*
X154836667Y-59507382D01*
X154598571Y-58459763D02*
X154360476Y-59174049D01*
X154979524Y-59174049D01*
X158107143Y-59412143D02*
X158059524Y-59459762D01*
X157916667Y-59507381D01*
X157821429Y-59507381D01*
X157678571Y-59459762D01*
X157583333Y-59364524D01*
X157535714Y-59269286D01*
X157488095Y-59078810D01*
X157488095Y-58935952D01*
X157535714Y-58745476D01*
X157583333Y-58650238D01*
X157678571Y-58555000D01*
X157821429Y-58507381D01*
X157916667Y-58507381D01*
X158059524Y-58555000D01*
X158107143Y-58602619D01*
X159059524Y-59507381D02*
X158488095Y-59507381D01*
X158773809Y-59507381D02*
X158773809Y-58507381D01*
X158678571Y-58650238D01*
X158583333Y-58745476D01*
X158488095Y-58793095D01*
X159964286Y-58507381D02*
X159488095Y-58507381D01*
X159440476Y-58983571D01*
X159488095Y-58935952D01*
X159583333Y-58888333D01*
X159821429Y-58888333D01*
X159916667Y-58935952D01*
X159964286Y-58983571D01*
X160011905Y-59078810D01*
X160011905Y-59316905D01*
X159964286Y-59412143D01*
X159916667Y-59459762D01*
X159821429Y-59507381D01*
X159583333Y-59507381D01*
X159488095Y-59459762D01*
X159440476Y-59412143D01*
X104767143Y-65762143D02*
X104719524Y-65809762D01*
X104576667Y-65857381D01*
X104481429Y-65857381D01*
X104338571Y-65809762D01*
X104243333Y-65714524D01*
X104195714Y-65619286D01*
X104148095Y-65428810D01*
X104148095Y-65285952D01*
X104195714Y-65095476D01*
X104243333Y-65000238D01*
X104338571Y-64905000D01*
X104481429Y-64857381D01*
X104576667Y-64857381D01*
X104719524Y-64905000D01*
X104767143Y-64952619D01*
X105719524Y-65857381D02*
X105148095Y-65857381D01*
X105433809Y-65857381D02*
X105433809Y-64857381D01*
X105338571Y-65000238D01*
X105243333Y-65095476D01*
X105148095Y-65143095D01*
X106576667Y-64857381D02*
X106386190Y-64857381D01*
X106290952Y-64905000D01*
X106243333Y-64952619D01*
X106148095Y-65095476D01*
X106100476Y-65285952D01*
X106100476Y-65666905D01*
X106148095Y-65762143D01*
X106195714Y-65809762D01*
X106290952Y-65857381D01*
X106481429Y-65857381D01*
X106576667Y-65809762D01*
X106624286Y-65762143D01*
X106671905Y-65666905D01*
X106671905Y-65428810D01*
X106624286Y-65333571D01*
X106576667Y-65285952D01*
X106481429Y-65238333D01*
X106290952Y-65238333D01*
X106195714Y-65285952D01*
X106148095Y-65333571D01*
X106100476Y-65428810D01*
X109847143Y-65762143D02*
X109799524Y-65809762D01*
X109656667Y-65857381D01*
X109561429Y-65857381D01*
X109418571Y-65809762D01*
X109323333Y-65714524D01*
X109275714Y-65619286D01*
X109228095Y-65428810D01*
X109228095Y-65285952D01*
X109275714Y-65095476D01*
X109323333Y-65000238D01*
X109418571Y-64905000D01*
X109561429Y-64857381D01*
X109656667Y-64857381D01*
X109799524Y-64905000D01*
X109847143Y-64952619D01*
X110799524Y-65857381D02*
X110228095Y-65857381D01*
X110513809Y-65857381D02*
X110513809Y-64857381D01*
X110418571Y-65000238D01*
X110323333Y-65095476D01*
X110228095Y-65143095D01*
X111132857Y-64857381D02*
X111799524Y-64857381D01*
X111370952Y-65857381D01*
X130476667Y-58507381D02*
X130476667Y-59221667D01*
X130429047Y-59364524D01*
X130333809Y-59459762D01*
X130190952Y-59507381D01*
X130095714Y-59507381D01*
X131476667Y-59507381D02*
X130905238Y-59507381D01*
X131190952Y-59507381D02*
X131190952Y-58507381D01*
X131095714Y-58650238D01*
X131000476Y-58745476D01*
X130905238Y-58793095D01*
X154606667Y-63797381D02*
X154606667Y-64511667D01*
X154559047Y-64654524D01*
X154463809Y-64749762D01*
X154320952Y-64797381D01*
X154225714Y-64797381D01*
X155511429Y-64130714D02*
X155511429Y-64797381D01*
X155273333Y-63749762D02*
X155035238Y-64464048D01*
X155654286Y-64464048D01*
X154606667Y-86657381D02*
X154606667Y-87371667D01*
X154559047Y-87514524D01*
X154463809Y-87609762D01*
X154320952Y-87657381D01*
X154225714Y-87657381D01*
X155559048Y-86657381D02*
X155082857Y-86657381D01*
X155035238Y-87133571D01*
X155082857Y-87085952D01*
X155178095Y-87038333D01*
X155416191Y-87038333D01*
X155511429Y-87085952D01*
X155559048Y-87133571D01*
X155606667Y-87228810D01*
X155606667Y-87466905D01*
X155559048Y-87562143D01*
X155511429Y-87609762D01*
X155416191Y-87657381D01*
X155178095Y-87657381D01*
X155082857Y-87609762D01*
X155035238Y-87562143D01*
X154606667Y-132377381D02*
X154606667Y-133091667D01*
X154559047Y-133234524D01*
X154463809Y-133329762D01*
X154320952Y-133377381D01*
X154225714Y-133377381D01*
X155511429Y-132377381D02*
X155320952Y-132377381D01*
X155225714Y-132425000D01*
X155178095Y-132472619D01*
X155082857Y-132615476D01*
X155035238Y-132805952D01*
X155035238Y-133186905D01*
X155082857Y-133282143D01*
X155130476Y-133329762D01*
X155225714Y-133377381D01*
X155416191Y-133377381D01*
X155511429Y-133329762D01*
X155559048Y-133282143D01*
X155606667Y-133186905D01*
X155606667Y-132948810D01*
X155559048Y-132853571D01*
X155511429Y-132805952D01*
X155416191Y-132758333D01*
X155225714Y-132758333D01*
X155130476Y-132805952D01*
X155082857Y-132853571D01*
X155035238Y-132948810D01*
X154606667Y-109517381D02*
X154606667Y-110231667D01*
X154559047Y-110374524D01*
X154463809Y-110469762D01*
X154320952Y-110517381D01*
X154225714Y-110517381D01*
X154987619Y-109517381D02*
X155654286Y-109517381D01*
X155225714Y-110517381D01*
X119213334Y-84907381D02*
X118880000Y-84431190D01*
X118641905Y-84907381D02*
X118641905Y-83907381D01*
X119022858Y-83907381D01*
X119118096Y-83955000D01*
X119165715Y-84002619D01*
X119213334Y-84097857D01*
X119213334Y-84240714D01*
X119165715Y-84335952D01*
X119118096Y-84383571D01*
X119022858Y-84431190D01*
X118641905Y-84431190D01*
X119689524Y-84907381D02*
X119880000Y-84907381D01*
X119975239Y-84859762D01*
X120022858Y-84812143D01*
X120118096Y-84669286D01*
X120165715Y-84478810D01*
X120165715Y-84097857D01*
X120118096Y-84002619D01*
X120070477Y-83955000D01*
X119975239Y-83907381D01*
X119784762Y-83907381D01*
X119689524Y-83955000D01*
X119641905Y-84002619D01*
X119594286Y-84097857D01*
X119594286Y-84335952D01*
X119641905Y-84431190D01*
X119689524Y-84478810D01*
X119784762Y-84526429D01*
X119975239Y-84526429D01*
X120070477Y-84478810D01*
X120118096Y-84431190D01*
X120165715Y-84335952D01*
X140327143Y-86177381D02*
X139993809Y-85701190D01*
X139755714Y-86177381D02*
X139755714Y-85177381D01*
X140136667Y-85177381D01*
X140231905Y-85225000D01*
X140279524Y-85272619D01*
X140327143Y-85367857D01*
X140327143Y-85510714D01*
X140279524Y-85605952D01*
X140231905Y-85653571D01*
X140136667Y-85701190D01*
X139755714Y-85701190D01*
X141279524Y-86177381D02*
X140708095Y-86177381D01*
X140993809Y-86177381D02*
X140993809Y-85177381D01*
X140898571Y-85320238D01*
X140803333Y-85415476D01*
X140708095Y-85463095D01*
X141898571Y-85177381D02*
X141993810Y-85177381D01*
X142089048Y-85225000D01*
X142136667Y-85272619D01*
X142184286Y-85367857D01*
X142231905Y-85558333D01*
X142231905Y-85796429D01*
X142184286Y-85986905D01*
X142136667Y-86082143D01*
X142089048Y-86129762D01*
X141993810Y-86177381D01*
X141898571Y-86177381D01*
X141803333Y-86129762D01*
X141755714Y-86082143D01*
X141708095Y-85986905D01*
X141660476Y-85796429D01*
X141660476Y-85558333D01*
X141708095Y-85367857D01*
X141755714Y-85272619D01*
X141803333Y-85225000D01*
X141898571Y-85177381D01*
X116149524Y-103957381D02*
X115816190Y-103481190D01*
X115578095Y-103957381D02*
X115578095Y-102957381D01*
X115959048Y-102957381D01*
X116054286Y-103005000D01*
X116101905Y-103052619D01*
X116149524Y-103147857D01*
X116149524Y-103290714D01*
X116101905Y-103385952D01*
X116054286Y-103433571D01*
X115959048Y-103481190D01*
X115578095Y-103481190D01*
X116578095Y-103957381D02*
X116578095Y-102957381D01*
X117149524Y-103957381D01*
X117149524Y-102957381D01*
X118149524Y-103957381D02*
X117578095Y-103957381D01*
X117863809Y-103957381D02*
X117863809Y-102957381D01*
X117768571Y-103100238D01*
X117673333Y-103195476D01*
X117578095Y-103243095D01*
X186174762Y-136967381D02*
X185841428Y-136491190D01*
X185603333Y-136967381D02*
X185603333Y-135967381D01*
X185984286Y-135967381D01*
X186079524Y-136015000D01*
X186127143Y-136062619D01*
X186174762Y-136157857D01*
X186174762Y-136300714D01*
X186127143Y-136395952D01*
X186079524Y-136443571D01*
X185984286Y-136491190D01*
X185603333Y-136491190D01*
X186460476Y-135967381D02*
X186793809Y-136967381D01*
X187127143Y-135967381D01*
X187984286Y-136967381D02*
X187412857Y-136967381D01*
X187698571Y-136967381D02*
X187698571Y-135967381D01*
X187603333Y-136110238D01*
X187508095Y-136205476D01*
X187412857Y-136253095D01*
X159258095Y-63797381D02*
X159258095Y-64606905D01*
X159305714Y-64702143D01*
X159353333Y-64749762D01*
X159448571Y-64797381D01*
X159639048Y-64797381D01*
X159734286Y-64749762D01*
X159781905Y-64702143D01*
X159829524Y-64606905D01*
X159829524Y-63797381D01*
X160829524Y-64797381D02*
X160258095Y-64797381D01*
X160543809Y-64797381D02*
X160543809Y-63797381D01*
X160448571Y-63940238D01*
X160353333Y-64035476D01*
X160258095Y-64083095D01*
X159258095Y-86657381D02*
X159258095Y-87466905D01*
X159305714Y-87562143D01*
X159353333Y-87609762D01*
X159448571Y-87657381D01*
X159639048Y-87657381D01*
X159734286Y-87609762D01*
X159781905Y-87562143D01*
X159829524Y-87466905D01*
X159829524Y-86657381D01*
X160258095Y-86752619D02*
X160305714Y-86705000D01*
X160400952Y-86657381D01*
X160639048Y-86657381D01*
X160734286Y-86705000D01*
X160781905Y-86752619D01*
X160829524Y-86847857D01*
X160829524Y-86943095D01*
X160781905Y-87085952D01*
X160210476Y-87657381D01*
X160829524Y-87657381D01*
X159258095Y-132377381D02*
X159258095Y-133186905D01*
X159305714Y-133282143D01*
X159353333Y-133329762D01*
X159448571Y-133377381D01*
X159639048Y-133377381D01*
X159734286Y-133329762D01*
X159781905Y-133282143D01*
X159829524Y-133186905D01*
X159829524Y-132377381D01*
X160210476Y-132377381D02*
X160829524Y-132377381D01*
X160496190Y-132758333D01*
X160639048Y-132758333D01*
X160734286Y-132805952D01*
X160781905Y-132853571D01*
X160829524Y-132948810D01*
X160829524Y-133186905D01*
X160781905Y-133282143D01*
X160734286Y-133329762D01*
X160639048Y-133377381D01*
X160353333Y-133377381D01*
X160258095Y-133329762D01*
X160210476Y-133282143D01*
X159258095Y-109517381D02*
X159258095Y-110326905D01*
X159305714Y-110422143D01*
X159353333Y-110469762D01*
X159448571Y-110517381D01*
X159639048Y-110517381D01*
X159734286Y-110469762D01*
X159781905Y-110422143D01*
X159829524Y-110326905D01*
X159829524Y-109517381D01*
X160734286Y-109850714D02*
X160734286Y-110517381D01*
X160496190Y-109469762D02*
X160258095Y-110184048D01*
X160877143Y-110184048D01*
X174498095Y-75227381D02*
X174498095Y-76036905D01*
X174545714Y-76132143D01*
X174593333Y-76179762D01*
X174688571Y-76227381D01*
X174879048Y-76227381D01*
X174974286Y-76179762D01*
X175021905Y-76132143D01*
X175069524Y-76036905D01*
X175069524Y-75227381D01*
X176021905Y-75227381D02*
X175545714Y-75227381D01*
X175498095Y-75703571D01*
X175545714Y-75655952D01*
X175640952Y-75608333D01*
X175879048Y-75608333D01*
X175974286Y-75655952D01*
X176021905Y-75703571D01*
X176069524Y-75798810D01*
X176069524Y-76036905D01*
X176021905Y-76132143D01*
X175974286Y-76179762D01*
X175879048Y-76227381D01*
X175640952Y-76227381D01*
X175545714Y-76179762D01*
X175498095Y-76132143D01*
X174498095Y-100627381D02*
X174498095Y-101436905D01*
X174545714Y-101532143D01*
X174593333Y-101579762D01*
X174688571Y-101627381D01*
X174879048Y-101627381D01*
X174974286Y-101579762D01*
X175021905Y-101532143D01*
X175069524Y-101436905D01*
X175069524Y-100627381D01*
X175974286Y-100627381D02*
X175783809Y-100627381D01*
X175688571Y-100675000D01*
X175640952Y-100722619D01*
X175545714Y-100865476D01*
X175498095Y-101055952D01*
X175498095Y-101436905D01*
X175545714Y-101532143D01*
X175593333Y-101579762D01*
X175688571Y-101627381D01*
X175879048Y-101627381D01*
X175974286Y-101579762D01*
X176021905Y-101532143D01*
X176069524Y-101436905D01*
X176069524Y-101198810D01*
X176021905Y-101103571D01*
X175974286Y-101055952D01*
X175879048Y-101008333D01*
X175688571Y-101008333D01*
X175593333Y-101055952D01*
X175545714Y-101103571D01*
X175498095Y-101198810D01*
X193548095Y-88987381D02*
X193548095Y-89796905D01*
X193595714Y-89892143D01*
X193643333Y-89939762D01*
X193738571Y-89987381D01*
X193929048Y-89987381D01*
X194024286Y-89939762D01*
X194071905Y-89892143D01*
X194119524Y-89796905D01*
X194119524Y-88987381D01*
X194738571Y-89415952D02*
X194643333Y-89368333D01*
X194595714Y-89320714D01*
X194548095Y-89225476D01*
X194548095Y-89177857D01*
X194595714Y-89082619D01*
X194643333Y-89035000D01*
X194738571Y-88987381D01*
X194929048Y-88987381D01*
X195024286Y-89035000D01*
X195071905Y-89082619D01*
X195119524Y-89177857D01*
X195119524Y-89225476D01*
X195071905Y-89320714D01*
X195024286Y-89368333D01*
X194929048Y-89415952D01*
X194738571Y-89415952D01*
X194643333Y-89463571D01*
X194595714Y-89511190D01*
X194548095Y-89606429D01*
X194548095Y-89796905D01*
X194595714Y-89892143D01*
X194643333Y-89939762D01*
X194738571Y-89987381D01*
X194929048Y-89987381D01*
X195024286Y-89939762D01*
X195071905Y-89892143D01*
X195119524Y-89796905D01*
X195119524Y-89606429D01*
X195071905Y-89511190D01*
X195024286Y-89463571D01*
X194929048Y-89415952D01*
X193548095Y-104227381D02*
X193548095Y-105036905D01*
X193595714Y-105132143D01*
X193643333Y-105179762D01*
X193738571Y-105227381D01*
X193929048Y-105227381D01*
X194024286Y-105179762D01*
X194071905Y-105132143D01*
X194119524Y-105036905D01*
X194119524Y-104227381D01*
X194643333Y-105227381D02*
X194833809Y-105227381D01*
X194929048Y-105179762D01*
X194976667Y-105132143D01*
X195071905Y-104989286D01*
X195119524Y-104798810D01*
X195119524Y-104417857D01*
X195071905Y-104322619D01*
X195024286Y-104275000D01*
X194929048Y-104227381D01*
X194738571Y-104227381D01*
X194643333Y-104275000D01*
X194595714Y-104322619D01*
X194548095Y-104417857D01*
X194548095Y-104655952D01*
X194595714Y-104751190D01*
X194643333Y-104798810D01*
X194738571Y-104846429D01*
X194929048Y-104846429D01*
X195024286Y-104798810D01*
X195071905Y-104751190D01*
X195119524Y-104655952D01*
X193071905Y-119467381D02*
X193071905Y-120276905D01*
X193119524Y-120372143D01*
X193167143Y-120419762D01*
X193262381Y-120467381D01*
X193452858Y-120467381D01*
X193548096Y-120419762D01*
X193595715Y-120372143D01*
X193643334Y-120276905D01*
X193643334Y-119467381D01*
X194643334Y-120467381D02*
X194071905Y-120467381D01*
X194357619Y-120467381D02*
X194357619Y-119467381D01*
X194262381Y-119610238D01*
X194167143Y-119705476D01*
X194071905Y-119753095D01*
X195262381Y-119467381D02*
X195357620Y-119467381D01*
X195452858Y-119515000D01*
X195500477Y-119562619D01*
X195548096Y-119657857D01*
X195595715Y-119848333D01*
X195595715Y-120086429D01*
X195548096Y-120276905D01*
X195500477Y-120372143D01*
X195452858Y-120419762D01*
X195357620Y-120467381D01*
X195262381Y-120467381D01*
X195167143Y-120419762D01*
X195119524Y-120372143D01*
X195071905Y-120276905D01*
X195024286Y-120086429D01*
X195024286Y-119848333D01*
X195071905Y-119657857D01*
X195119524Y-119562619D01*
X195167143Y-119515000D01*
X195262381Y-119467381D01*
X174021905Y-136187381D02*
X174021905Y-136996905D01*
X174069524Y-137092143D01*
X174117143Y-137139762D01*
X174212381Y-137187381D01*
X174402858Y-137187381D01*
X174498096Y-137139762D01*
X174545715Y-137092143D01*
X174593334Y-136996905D01*
X174593334Y-136187381D01*
X175593334Y-137187381D02*
X175021905Y-137187381D01*
X175307619Y-137187381D02*
X175307619Y-136187381D01*
X175212381Y-136330238D01*
X175117143Y-136425476D01*
X175021905Y-136473095D01*
X175974286Y-136282619D02*
X176021905Y-136235000D01*
X176117143Y-136187381D01*
X176355239Y-136187381D01*
X176450477Y-136235000D01*
X176498096Y-136282619D01*
X176545715Y-136377857D01*
X176545715Y-136473095D01*
X176498096Y-136615952D01*
X175926667Y-137187381D01*
X176545715Y-137187381D01*
X106711905Y-75227381D02*
X106711905Y-76036905D01*
X106759524Y-76132143D01*
X106807143Y-76179762D01*
X106902381Y-76227381D01*
X107092858Y-76227381D01*
X107188096Y-76179762D01*
X107235715Y-76132143D01*
X107283334Y-76036905D01*
X107283334Y-75227381D01*
X108283334Y-76227381D02*
X107711905Y-76227381D01*
X107997619Y-76227381D02*
X107997619Y-75227381D01*
X107902381Y-75370238D01*
X107807143Y-75465476D01*
X107711905Y-75513095D01*
X108616667Y-75227381D02*
X109235715Y-75227381D01*
X108902381Y-75608333D01*
X109045239Y-75608333D01*
X109140477Y-75655952D01*
X109188096Y-75703571D01*
X109235715Y-75798810D01*
X109235715Y-76036905D01*
X109188096Y-76132143D01*
X109140477Y-76179762D01*
X109045239Y-76227381D01*
X108759524Y-76227381D01*
X108664286Y-76179762D01*
X108616667Y-76132143D01*
X128301905Y-75227381D02*
X128301905Y-76036905D01*
X128349524Y-76132143D01*
X128397143Y-76179762D01*
X128492381Y-76227381D01*
X128682858Y-76227381D01*
X128778096Y-76179762D01*
X128825715Y-76132143D01*
X128873334Y-76036905D01*
X128873334Y-75227381D01*
X129873334Y-76227381D02*
X129301905Y-76227381D01*
X129587619Y-76227381D02*
X129587619Y-75227381D01*
X129492381Y-75370238D01*
X129397143Y-75465476D01*
X129301905Y-75513095D01*
X130730477Y-75560714D02*
X130730477Y-76227381D01*
X130492381Y-75179762D02*
X130254286Y-75894048D01*
X130873334Y-75894048D01*
X137191905Y-102957381D02*
X137191905Y-103766905D01*
X137239524Y-103862143D01*
X137287143Y-103909762D01*
X137382381Y-103957381D01*
X137572858Y-103957381D01*
X137668096Y-103909762D01*
X137715715Y-103862143D01*
X137763334Y-103766905D01*
X137763334Y-102957381D01*
X138763334Y-103957381D02*
X138191905Y-103957381D01*
X138477619Y-103957381D02*
X138477619Y-102957381D01*
X138382381Y-103100238D01*
X138287143Y-103195476D01*
X138191905Y-103243095D01*
X139668096Y-102957381D02*
X139191905Y-102957381D01*
X139144286Y-103433571D01*
X139191905Y-103385952D01*
X139287143Y-103338333D01*
X139525239Y-103338333D01*
X139620477Y-103385952D01*
X139668096Y-103433571D01*
X139715715Y-103528810D01*
X139715715Y-103766905D01*
X139668096Y-103862143D01*
X139620477Y-103909762D01*
X139525239Y-103957381D01*
X139287143Y-103957381D01*
X139191905Y-103909762D01*
X139144286Y-103862143D01*
X113966667Y-58507381D02*
X113966667Y-59221667D01*
X113919047Y-59364524D01*
X113823809Y-59459762D01*
X113680952Y-59507381D01*
X113585714Y-59507381D01*
X114395238Y-58602619D02*
X114442857Y-58555000D01*
X114538095Y-58507381D01*
X114776191Y-58507381D01*
X114871429Y-58555000D01*
X114919048Y-58602619D01*
X114966667Y-58697857D01*
X114966667Y-58793095D01*
X114919048Y-58935952D01*
X114347619Y-59507381D01*
X114966667Y-59507381D01*
X184729524Y-74747381D02*
X184396190Y-74271190D01*
X184158095Y-74747381D02*
X184158095Y-73747381D01*
X184539048Y-73747381D01*
X184634286Y-73795000D01*
X184681905Y-73842619D01*
X184729524Y-73937857D01*
X184729524Y-74080714D01*
X184681905Y-74175952D01*
X184634286Y-74223571D01*
X184539048Y-74271190D01*
X184158095Y-74271190D01*
X185158095Y-74747381D02*
X185158095Y-73747381D01*
X185729524Y-74747381D01*
X185729524Y-73747381D01*
X186158095Y-73842619D02*
X186205714Y-73795000D01*
X186300952Y-73747381D01*
X186539048Y-73747381D01*
X186634286Y-73795000D01*
X186681905Y-73842619D01*
X186729524Y-73937857D01*
X186729524Y-74033095D01*
X186681905Y-74175952D01*
X186110476Y-74747381D01*
X186729524Y-74747381D01*
X184729524Y-100147381D02*
X184396190Y-99671190D01*
X184158095Y-100147381D02*
X184158095Y-99147381D01*
X184539048Y-99147381D01*
X184634286Y-99195000D01*
X184681905Y-99242619D01*
X184729524Y-99337857D01*
X184729524Y-99480714D01*
X184681905Y-99575952D01*
X184634286Y-99623571D01*
X184539048Y-99671190D01*
X184158095Y-99671190D01*
X185158095Y-100147381D02*
X185158095Y-99147381D01*
X185729524Y-100147381D01*
X185729524Y-99147381D01*
X186110476Y-99147381D02*
X186729524Y-99147381D01*
X186396190Y-99528333D01*
X186539048Y-99528333D01*
X186634286Y-99575952D01*
X186681905Y-99623571D01*
X186729524Y-99718810D01*
X186729524Y-99956905D01*
X186681905Y-100052143D01*
X186634286Y-100099762D01*
X186539048Y-100147381D01*
X186253333Y-100147381D01*
X186158095Y-100099762D01*
X186110476Y-100052143D01*
X172720000Y-127992143D02*
X172767619Y-128039762D01*
X172720000Y-128087381D01*
X172672381Y-128039762D01*
X172720000Y-127992143D01*
X172720000Y-128087381D01*
X177561905Y-127992143D02*
X177609524Y-128039762D01*
X177561905Y-128087381D01*
X177514286Y-128039762D01*
X177561905Y-127992143D01*
X177561905Y-128087381D01*
X178038095Y-127992143D02*
X178085714Y-128039762D01*
X178038095Y-128087381D01*
X177990476Y-128039762D01*
X178038095Y-127992143D01*
X178038095Y-128087381D01*
X182403810Y-127992143D02*
X182451429Y-128039762D01*
X182403810Y-128087381D01*
X182356191Y-128039762D01*
X182403810Y-127992143D01*
X182403810Y-128087381D01*
X182880000Y-127992143D02*
X182927619Y-128039762D01*
X182880000Y-128087381D01*
X182832381Y-128039762D01*
X182880000Y-127992143D01*
X182880000Y-128087381D01*
X183356190Y-127992143D02*
X183403809Y-128039762D01*
X183356190Y-128087381D01*
X183308571Y-128039762D01*
X183356190Y-127992143D01*
X183356190Y-128087381D01*
X193548095Y-83697381D02*
X193548095Y-84506905D01*
X193595714Y-84602143D01*
X193643333Y-84649762D01*
X193738571Y-84697381D01*
X193929048Y-84697381D01*
X194024286Y-84649762D01*
X194071905Y-84602143D01*
X194119524Y-84506905D01*
X194119524Y-83697381D01*
X194500476Y-83697381D02*
X195167143Y-83697381D01*
X194738571Y-84697381D01*
M02*
