G04 #@! TF.FileFunction,Copper,L2,Bot,Signal*
%FSLAX46Y46*%
G04 Gerber Fmt 4.6, Leading zero omitted, Abs format (unit mm)*
G04 Created by KiCad (PCBNEW 4.0.7) date 11/29/17 05:36:57*
%MOMM*%
%LPD*%
G01*
G04 APERTURE LIST*
%ADD10C,0.100000*%
%ADD11R,1.700000X1.700000*%
%ADD12O,1.700000X1.700000*%
%ADD13R,1.600000X1.600000*%
%ADD14C,1.600000*%
%ADD15O,1.600000X1.600000*%
%ADD16C,2.340000*%
%ADD17C,1.700000*%
%ADD18R,0.600000X0.400000*%
%ADD19C,0.889000*%
%ADD20C,0.381000*%
%ADD21C,0.254000*%
%ADD22C,0.304800*%
G04 APERTURE END LIST*
D10*
D11*
X163830000Y-53975000D03*
D12*
X163830000Y-56515000D03*
X166370000Y-53975000D03*
X166370000Y-56515000D03*
X168910000Y-53975000D03*
X168910000Y-56515000D03*
X171450000Y-53975000D03*
X171450000Y-56515000D03*
X173990000Y-53975000D03*
X173990000Y-56515000D03*
D13*
X135890000Y-60865000D03*
D14*
X135890000Y-62865000D03*
D13*
X146050000Y-62135000D03*
D14*
X146050000Y-64135000D03*
X140970000Y-62865000D03*
X140970000Y-60365000D03*
X147320000Y-57745000D03*
X147320000Y-55245000D03*
D13*
X105410000Y-54515000D03*
D14*
X105410000Y-56515000D03*
X110490000Y-56515000D03*
X110490000Y-54015000D03*
D13*
X124460000Y-69755000D03*
D14*
X124460000Y-71755000D03*
X129540000Y-71755000D03*
X129540000Y-69255000D03*
D13*
X154940000Y-123095000D03*
D14*
X154940000Y-125095000D03*
X153710000Y-128905000D03*
X156210000Y-128905000D03*
D13*
X154940000Y-77375000D03*
D14*
X154940000Y-79375000D03*
X153710000Y-83185000D03*
X156210000Y-83185000D03*
D13*
X153670000Y-54515000D03*
D14*
X153670000Y-56515000D03*
X158750000Y-56475000D03*
X158750000Y-53975000D03*
D13*
X105410000Y-69755000D03*
D14*
X105410000Y-71755000D03*
X110490000Y-71755000D03*
X110490000Y-69255000D03*
D11*
X142240000Y-53975000D03*
D12*
X142240000Y-56515000D03*
X139700000Y-53975000D03*
X139700000Y-56515000D03*
X137160000Y-53975000D03*
X137160000Y-56515000D03*
X134620000Y-53975000D03*
X134620000Y-56515000D03*
X132080000Y-53975000D03*
X132080000Y-56515000D03*
D11*
X154940000Y-66675000D03*
D12*
X154940000Y-69215000D03*
D11*
X154940000Y-89535000D03*
D12*
X154940000Y-92075000D03*
D11*
X154940000Y-135255000D03*
D12*
X154940000Y-137795000D03*
D11*
X154940000Y-112395000D03*
D12*
X154940000Y-114935000D03*
D14*
X115570000Y-90805000D03*
D15*
X115570000Y-80645000D03*
D14*
X137160000Y-90805000D03*
D15*
X137160000Y-80645000D03*
D13*
X121920000Y-106045000D03*
D15*
X119380000Y-106045000D03*
X116840000Y-106045000D03*
X114300000Y-106045000D03*
X111760000Y-106045000D03*
D16*
X186770000Y-145415000D03*
X191770000Y-142915000D03*
X186770000Y-140415000D03*
D11*
X160020000Y-66675000D03*
D12*
X160020000Y-69215000D03*
X160020000Y-71755000D03*
X160020000Y-74295000D03*
D11*
X160020000Y-89535000D03*
D12*
X160020000Y-92075000D03*
X160020000Y-94615000D03*
X160020000Y-97155000D03*
D11*
X160020000Y-135255000D03*
D12*
X160020000Y-137795000D03*
X160020000Y-140335000D03*
X160020000Y-142875000D03*
D11*
X160020000Y-112395000D03*
D12*
X160020000Y-114935000D03*
X160020000Y-117475000D03*
X160020000Y-120015000D03*
D13*
X171450000Y-78105000D03*
D15*
X179070000Y-93345000D03*
X171450000Y-80645000D03*
X179070000Y-90805000D03*
X171450000Y-83185000D03*
X179070000Y-88265000D03*
X171450000Y-85725000D03*
X179070000Y-85725000D03*
X171450000Y-88265000D03*
X179070000Y-83185000D03*
X171450000Y-90805000D03*
X179070000Y-80645000D03*
X171450000Y-93345000D03*
X179070000Y-78105000D03*
D13*
X171450000Y-103505000D03*
D15*
X179070000Y-118745000D03*
X171450000Y-106045000D03*
X179070000Y-116205000D03*
X171450000Y-108585000D03*
X179070000Y-113665000D03*
X171450000Y-111125000D03*
X179070000Y-111125000D03*
X171450000Y-113665000D03*
X179070000Y-108585000D03*
X171450000Y-116205000D03*
X179070000Y-106045000D03*
X171450000Y-118745000D03*
X179070000Y-103505000D03*
D11*
X194310000Y-97155000D03*
D12*
X194310000Y-94615000D03*
X194310000Y-92075000D03*
D11*
X194310000Y-112395000D03*
D12*
X194310000Y-109855000D03*
X194310000Y-107315000D03*
D11*
X194310000Y-127635000D03*
D12*
X194310000Y-125095000D03*
X194310000Y-122555000D03*
D13*
X171450000Y-139065000D03*
D15*
X179070000Y-146685000D03*
X171450000Y-141605000D03*
X179070000Y-144145000D03*
X171450000Y-144145000D03*
X179070000Y-141605000D03*
X171450000Y-146685000D03*
X179070000Y-139065000D03*
D11*
X107950000Y-78105000D03*
D12*
X107950000Y-80645000D03*
X107950000Y-83185000D03*
X107950000Y-85725000D03*
X107950000Y-88265000D03*
X107950000Y-90805000D03*
X107950000Y-93345000D03*
X107950000Y-95885000D03*
X107950000Y-98425000D03*
X107950000Y-100965000D03*
D11*
X129540000Y-78105000D03*
D12*
X129540000Y-80645000D03*
X129540000Y-83185000D03*
X129540000Y-85725000D03*
X129540000Y-88265000D03*
X129540000Y-90805000D03*
X129540000Y-93345000D03*
X129540000Y-95885000D03*
X129540000Y-98425000D03*
X129540000Y-100965000D03*
D13*
X144780000Y-106045000D03*
D15*
X132080000Y-116205000D03*
X142240000Y-106045000D03*
X134620000Y-116205000D03*
X139700000Y-106045000D03*
X137160000Y-116205000D03*
X137160000Y-106045000D03*
X139700000Y-116205000D03*
X134620000Y-106045000D03*
X142240000Y-116205000D03*
X132080000Y-106045000D03*
X144780000Y-116205000D03*
D11*
X115570000Y-53975000D03*
D12*
X115570000Y-56515000D03*
X118110000Y-53975000D03*
X118110000Y-56515000D03*
X120650000Y-53975000D03*
X120650000Y-56515000D03*
X123190000Y-53975000D03*
X123190000Y-56515000D03*
X125730000Y-53975000D03*
X125730000Y-56515000D03*
D13*
X185420000Y-76835000D03*
D15*
X185420000Y-79375000D03*
X185420000Y-81915000D03*
X185420000Y-84455000D03*
X185420000Y-86995000D03*
X185420000Y-89535000D03*
X185420000Y-92075000D03*
X185420000Y-94615000D03*
D13*
X185420000Y-102235000D03*
D15*
X185420000Y-104775000D03*
X185420000Y-107315000D03*
X185420000Y-109855000D03*
X185420000Y-112395000D03*
X185420000Y-114935000D03*
X185420000Y-117475000D03*
X185420000Y-120015000D03*
D11*
X171450000Y-125095000D03*
D12*
X173990000Y-125095000D03*
X171450000Y-127635000D03*
X173990000Y-127635000D03*
X171450000Y-130175000D03*
X173990000Y-130175000D03*
D17*
X171450000Y-132715000D03*
D12*
X173990000Y-132715000D03*
D11*
X176530000Y-125095000D03*
D12*
X179070000Y-125095000D03*
X176530000Y-127635000D03*
X179070000Y-127635000D03*
X176530000Y-130175000D03*
X179070000Y-130175000D03*
X176530000Y-132715000D03*
X179070000Y-132715000D03*
D11*
X181610000Y-125095000D03*
D12*
X184150000Y-125095000D03*
X181610000Y-127635000D03*
X184150000Y-127635000D03*
X181610000Y-130175000D03*
X184150000Y-130175000D03*
X181610000Y-132715000D03*
X184150000Y-132715000D03*
D18*
X144145000Y-59505000D03*
X144145000Y-58605000D03*
D11*
X194310000Y-81915000D03*
D12*
X194310000Y-79375000D03*
X194310000Y-76835000D03*
D19*
X125791577Y-87332344D03*
X118093500Y-59059700D03*
D20*
X158750000Y-56475000D02*
X157950001Y-57274999D01*
X157950001Y-57314999D02*
X152537291Y-62727709D01*
X152537291Y-62727709D02*
X152537291Y-68385202D01*
X157950001Y-57274999D02*
X157950001Y-57314999D01*
X152537291Y-68385202D02*
X153357774Y-69205685D01*
X154930685Y-69205685D02*
X154940000Y-69215000D01*
X153357774Y-69205685D02*
X154930685Y-69205685D01*
X154940000Y-114935000D02*
X154940000Y-116229800D01*
X152856241Y-118313559D02*
X152856241Y-124077412D01*
X152856241Y-124077412D02*
X153873829Y-125095000D01*
X154940000Y-116229800D02*
X152856241Y-118313559D01*
X153873829Y-125095000D02*
X154940000Y-125095000D01*
X160020000Y-140335000D02*
X155854225Y-140335000D01*
X155854225Y-140335000D02*
X154949042Y-139429817D01*
X154949042Y-139429817D02*
X154949042Y-137822534D01*
X144145000Y-59505000D02*
X144145000Y-60320254D01*
X144145000Y-60320254D02*
X143213056Y-61252198D01*
X143213056Y-61252198D02*
X142582802Y-61252198D01*
X142582802Y-61252198D02*
X140970000Y-62865000D01*
X144145000Y-59505000D02*
X144145000Y-60325000D01*
X171450000Y-118745000D02*
X173105122Y-117089878D01*
X173105122Y-117089878D02*
X173105122Y-110807220D01*
X173107902Y-110242383D02*
X173107902Y-111075848D01*
X171450519Y-108585000D02*
X173107902Y-110242383D01*
X173107902Y-111075848D02*
X173114729Y-111082675D01*
X173108969Y-111123662D02*
X173110307Y-111125000D01*
X173110307Y-111125000D02*
X177825200Y-111125000D01*
X177825200Y-111125000D02*
X179070000Y-111125000D01*
X186801911Y-145415000D02*
X191872260Y-145415000D01*
X191872260Y-145415000D02*
X193528737Y-143758523D01*
X193528737Y-143758523D02*
X193528737Y-142093737D01*
X193528737Y-142093737D02*
X184999999Y-133564999D01*
X184999999Y-133564999D02*
X184150000Y-132715000D01*
X179070000Y-144145000D02*
X182906725Y-144145000D01*
X182906725Y-144145000D02*
X184196828Y-145435103D01*
X184196828Y-145435103D02*
X186762819Y-145435103D01*
D21*
X186800797Y-145416114D02*
X186801911Y-145415000D01*
D20*
X154940000Y-137795000D02*
X153525519Y-137795000D01*
X153525519Y-137795000D02*
X152997435Y-137266916D01*
X152997435Y-137266916D02*
X152997435Y-133715612D01*
X152997435Y-133715612D02*
X153708764Y-133004283D01*
X153708764Y-133004283D02*
X153708764Y-128906236D01*
X135890000Y-62865000D02*
X120424798Y-62865000D01*
X120424798Y-62865000D02*
X115570000Y-58010202D01*
X115570000Y-58010202D02*
X115570000Y-56515000D01*
X175285200Y-83185000D02*
X171450000Y-83185000D01*
X177825200Y-85725000D02*
X175285200Y-83185000D01*
X179070000Y-85725000D02*
X177825200Y-85725000D01*
X156234800Y-114885400D02*
X156234800Y-114935000D01*
X158725200Y-112395000D02*
X156234800Y-114885400D01*
X154940000Y-114935000D02*
X156234800Y-114935000D01*
X160020000Y-140335000D02*
X161314800Y-140335000D01*
X153710000Y-80605000D02*
X154940000Y-79375000D01*
X153710000Y-83185000D02*
X153710000Y-80605000D01*
X153710000Y-126325000D02*
X154940000Y-125095000D01*
X153710000Y-128905000D02*
X153710000Y-126325000D01*
X153710000Y-56475000D02*
X153670000Y-56515000D01*
X158750000Y-56475000D02*
X153710000Y-56475000D01*
X141493300Y-62865000D02*
X140970000Y-62865000D01*
X115570000Y-56515000D02*
X110490000Y-56515000D01*
X110490000Y-56515000D02*
X105410000Y-56515000D01*
X167664800Y-146685000D02*
X171450000Y-146685000D01*
X161314800Y-140335000D02*
X167664800Y-146685000D01*
X171450000Y-146685000D02*
X172694800Y-146685000D01*
X175234800Y-144145000D02*
X179070000Y-144145000D01*
X172694800Y-146685000D02*
X175234800Y-144145000D01*
X159440900Y-112395000D02*
X158725200Y-112395000D01*
X159440900Y-112395000D02*
X160020000Y-112395000D01*
X171450000Y-108585000D02*
X170364100Y-108585000D01*
X160020000Y-112395000D02*
X161314800Y-112395000D01*
X171450000Y-93345000D02*
X170205200Y-93345000D01*
X160020000Y-97155000D02*
X166395200Y-97155000D01*
X166395200Y-97155000D02*
X170205200Y-93345000D01*
X166718600Y-97478400D02*
X166395200Y-97155000D01*
X166718600Y-106991200D02*
X166718600Y-97478400D01*
X168312400Y-108585000D02*
X166718600Y-106991200D01*
X170364100Y-108585000D02*
X168312400Y-108585000D01*
X166718600Y-106991200D02*
X161314800Y-112395000D01*
X115570000Y-53975000D02*
X116910700Y-52634300D01*
X116910700Y-52634300D02*
X126633919Y-52634300D01*
X126633919Y-52634300D02*
X128253876Y-54254257D01*
X128253876Y-54254257D02*
X128253876Y-57776386D01*
X131342490Y-60865000D02*
X135890000Y-60865000D01*
X128253876Y-57776386D02*
X131342490Y-60865000D01*
X115570000Y-53975000D02*
X110530000Y-53975000D01*
X110530000Y-53975000D02*
X110490000Y-54015000D01*
X110490000Y-54015000D02*
X110452351Y-53977351D01*
X179070000Y-78105000D02*
X177825200Y-78105000D01*
X177825200Y-78105000D02*
X176557501Y-79372699D01*
X158747899Y-79372699D02*
X158725100Y-79349900D01*
X176557501Y-79372699D02*
X158747899Y-79372699D01*
X158725100Y-79349900D02*
X158725100Y-80744933D01*
X158725100Y-80744933D02*
X156285033Y-83185000D01*
X156285033Y-83185000D02*
X156210000Y-83185000D01*
X163830000Y-53975000D02*
X162087100Y-55717900D01*
X162087100Y-55717900D02*
X162087100Y-62266698D01*
X162087100Y-62266698D02*
X160020000Y-64333798D01*
X160020000Y-64333798D02*
X160020000Y-66675000D01*
X160020000Y-66675000D02*
X158363161Y-68331839D01*
X158363161Y-68331839D02*
X158363161Y-78987961D01*
X158363161Y-78987961D02*
X158725100Y-79349900D01*
D22*
X171450000Y-125095000D02*
X171469603Y-125095000D01*
X172733599Y-132111927D02*
X172733599Y-133318073D01*
X171469603Y-125095000D02*
X172733599Y-126358996D01*
X172733599Y-126358996D02*
X172733599Y-132111927D01*
D20*
X110490000Y-54015000D02*
X108060952Y-54015000D01*
X108060952Y-54015000D02*
X107560952Y-54515000D01*
X107560952Y-54515000D02*
X105410000Y-54515000D01*
X158750000Y-53975000D02*
X156225204Y-53975000D01*
X156225204Y-53975000D02*
X155685204Y-54515000D01*
X155685204Y-54515000D02*
X153670000Y-54515000D01*
X140970000Y-60365000D02*
X138742403Y-60365000D01*
X138742403Y-60365000D02*
X138242403Y-60865000D01*
X138242403Y-60865000D02*
X135890000Y-60865000D01*
D22*
X172733047Y-133318625D02*
X172733047Y-133973422D01*
X172733047Y-133973422D02*
X176554625Y-137795000D01*
X176554625Y-137795000D02*
X176555200Y-137795000D01*
D20*
X154940000Y-120015000D02*
X154940000Y-123095000D01*
X160020000Y-114935000D02*
X154940000Y-120015000D01*
X176555200Y-137795000D02*
X160020000Y-137795000D01*
X177825200Y-139065000D02*
X176555200Y-137795000D01*
X179070000Y-139065000D02*
X177825200Y-139065000D01*
X112016121Y-101107800D02*
X125347078Y-87776843D01*
X125347078Y-87776843D02*
X125791577Y-87332344D01*
X111927700Y-101107800D02*
X112016121Y-101107800D01*
X107950000Y-98425000D02*
X109244800Y-98425000D01*
X114300000Y-106045000D02*
X114300000Y-104800200D01*
X109244800Y-98425000D02*
X111927700Y-101107800D01*
X114300000Y-103480200D02*
X114300000Y-104800200D01*
X111927700Y-101107800D02*
X114300000Y-103480200D01*
X125730000Y-53975000D02*
X127197644Y-55442644D01*
X127197644Y-57550204D02*
X125688148Y-59059700D01*
X127197644Y-55442644D02*
X127197644Y-57550204D01*
X125688148Y-59059700D02*
X118093500Y-59059700D01*
X154940000Y-89535000D02*
X154940000Y-88240200D01*
X161180734Y-60524239D02*
X161180734Y-54286766D01*
X154940000Y-88240200D02*
X154960000Y-88220200D01*
X154960000Y-88220200D02*
X154960000Y-82283300D01*
X154960000Y-82283300D02*
X156870200Y-80373100D01*
X156870200Y-80373100D02*
X156870200Y-64834773D01*
X156870200Y-64834773D02*
X161180734Y-60524239D01*
X161180734Y-54286766D02*
X162787400Y-52680100D01*
X162787400Y-52680100D02*
X170155100Y-52680100D01*
X170155100Y-52680100D02*
X171450000Y-53975000D01*
X154940000Y-66675000D02*
X154940000Y-63989700D01*
X154940000Y-63989700D02*
X160194198Y-58735502D01*
X160194198Y-58735502D02*
X160194198Y-54321502D01*
X160194198Y-54321502D02*
X162511958Y-52003742D01*
X162511958Y-52003742D02*
X172018742Y-52003742D01*
X172018742Y-52003742D02*
X173990000Y-53975000D01*
X129540000Y-78105000D02*
X130834800Y-78105000D01*
X130834800Y-78105000D02*
X139731383Y-87001583D01*
X139731383Y-87001583D02*
X139731383Y-104800200D01*
X139731383Y-104800200D02*
X138422000Y-104800200D01*
X146041824Y-62119630D02*
X146017676Y-62143778D01*
X146017676Y-62143778D02*
X144761983Y-62143778D01*
X144761983Y-62143778D02*
X137650761Y-69255000D01*
X137650761Y-69255000D02*
X129540000Y-69255000D01*
X142240000Y-106045000D02*
X140995200Y-104800200D01*
X140995200Y-104800200D02*
X138422000Y-104800200D01*
X110490000Y-69255000D02*
X121996752Y-69255000D01*
X121996752Y-69255000D02*
X122496752Y-69755000D01*
X122496752Y-69755000D02*
X124460000Y-69755000D01*
X129540000Y-69255000D02*
X127188214Y-69255000D01*
X127188214Y-69255000D02*
X126688214Y-69755000D01*
X126688214Y-69755000D02*
X124460000Y-69755000D01*
X121920000Y-106045000D02*
X123164800Y-106045000D01*
X124409600Y-104800200D02*
X123164800Y-106045000D01*
X138422000Y-104800200D02*
X124409600Y-104800200D01*
X129540000Y-80645000D02*
X130810000Y-80645000D01*
X147310640Y-57750228D02*
X147310640Y-57755141D01*
X147310640Y-57755141D02*
X146666761Y-58399020D01*
X146666761Y-58399020D02*
X131538694Y-58399020D01*
X131538694Y-58399020D02*
X130357219Y-57217545D01*
X130357219Y-57217545D02*
X130357219Y-54427781D01*
X130357219Y-54427781D02*
X130810000Y-53975000D01*
X130810000Y-53975000D02*
X132080000Y-53975000D01*
X144145000Y-58605000D02*
X144351434Y-58398566D01*
X144351434Y-58398566D02*
X146666434Y-58398566D01*
X146666434Y-58398566D02*
X147320000Y-57745000D01*
X146036969Y-64122237D02*
X145965322Y-64122237D01*
X145965322Y-64122237D02*
X138332559Y-71755000D01*
X138332559Y-71755000D02*
X129540000Y-71755000D01*
X124460000Y-71755000D02*
X110490000Y-71755000D01*
X129540000Y-71755000D02*
X124460000Y-71755000D01*
X106631100Y-79326100D02*
X107950000Y-80645000D01*
X106631100Y-71755000D02*
X106631100Y-79326100D01*
X110490000Y-71755000D02*
X106631100Y-71755000D01*
X106631100Y-71755000D02*
X105410000Y-71755000D01*
X129540000Y-85725000D02*
X128245200Y-85725000D01*
X128245200Y-85725000D02*
X127205355Y-84685155D01*
X127205355Y-84685155D02*
X109012562Y-84685155D01*
X109012562Y-84685155D02*
X107972717Y-85725000D01*
X107972717Y-85725000D02*
X107950000Y-85725000D01*
X107950000Y-83185000D02*
X103281358Y-78516358D01*
X103281358Y-78516358D02*
X103281358Y-53806440D01*
X103281358Y-53806440D02*
X105099098Y-51988700D01*
X105099098Y-51988700D02*
X135196661Y-51988700D01*
X135196661Y-51988700D02*
X137142369Y-53934408D01*
X129540000Y-83185000D02*
X107950000Y-83185000D01*
X120697400Y-76762400D02*
X116814800Y-80645000D01*
X132032600Y-76762400D02*
X120697400Y-76762400D01*
X135915200Y-80645000D02*
X132032600Y-76762400D01*
X137160000Y-80645000D02*
X135915200Y-80645000D01*
X115570000Y-80645000D02*
X116814800Y-80645000D01*
X107950000Y-90805000D02*
X115570000Y-90805000D01*
X129540000Y-90805000D02*
X137160000Y-90805000D01*
X171450000Y-144145000D02*
X172694800Y-144145000D01*
X172694800Y-144145000D02*
X173933770Y-142906030D01*
X173933770Y-142906030D02*
X178467108Y-142906030D01*
X178467108Y-142906030D02*
X178472639Y-142900499D01*
X178472639Y-142900499D02*
X179667361Y-142900499D01*
X179667361Y-142900499D02*
X179672892Y-142906030D01*
X179672892Y-142906030D02*
X191737679Y-142906030D01*
X170204800Y-78105000D02*
X161314800Y-69215000D01*
X171450000Y-78105000D02*
X170204800Y-78105000D01*
X160020000Y-69215000D02*
X161314800Y-69215000D01*
X165124800Y-88265000D02*
X161314800Y-92075000D01*
X171450000Y-88265000D02*
X165124800Y-88265000D01*
X160020000Y-92075000D02*
X161314800Y-92075000D01*
X185420000Y-114935000D02*
X185438826Y-114935000D01*
X185426389Y-120015000D02*
X185420000Y-120015000D01*
D21*
G36*
X102743000Y-53379041D02*
X102636028Y-53539135D01*
X102598206Y-53729281D01*
X102582858Y-53806440D01*
X102582858Y-78516358D01*
X102636028Y-78783663D01*
X102787444Y-79010272D01*
X106631225Y-82854053D01*
X106565395Y-83185000D01*
X106668767Y-83704684D01*
X106963144Y-84145251D01*
X107403711Y-84439628D01*
X107480991Y-84455000D01*
X107403711Y-84470372D01*
X106963144Y-84764749D01*
X106668767Y-85205316D01*
X106565395Y-85725000D01*
X106668767Y-86244684D01*
X106963144Y-86685251D01*
X107403711Y-86979628D01*
X107480991Y-86995000D01*
X107403711Y-87010372D01*
X106963144Y-87304749D01*
X106668767Y-87745316D01*
X106565395Y-88265000D01*
X106668767Y-88784684D01*
X106963144Y-89225251D01*
X107403711Y-89519628D01*
X107480991Y-89535000D01*
X107403711Y-89550372D01*
X106963144Y-89844749D01*
X106668767Y-90285316D01*
X106565395Y-90805000D01*
X106668767Y-91324684D01*
X106963144Y-91765251D01*
X107403711Y-92059628D01*
X107480991Y-92075000D01*
X107403711Y-92090372D01*
X106963144Y-92384749D01*
X106668767Y-92825316D01*
X106565395Y-93345000D01*
X106668767Y-93864684D01*
X106963144Y-94305251D01*
X107403711Y-94599628D01*
X107480991Y-94615000D01*
X107403711Y-94630372D01*
X106963144Y-94924749D01*
X106668767Y-95365316D01*
X106565395Y-95885000D01*
X106668767Y-96404684D01*
X106963144Y-96845251D01*
X107403711Y-97139628D01*
X107480991Y-97155000D01*
X107403711Y-97170372D01*
X106963144Y-97464749D01*
X106668767Y-97905316D01*
X106565395Y-98425000D01*
X106668767Y-98944684D01*
X106963144Y-99385251D01*
X107403711Y-99679628D01*
X107480991Y-99695000D01*
X107403711Y-99710372D01*
X106963144Y-100004749D01*
X106668767Y-100445316D01*
X106565395Y-100965000D01*
X106668767Y-101484684D01*
X106963144Y-101925251D01*
X107403711Y-102219628D01*
X107923395Y-102323000D01*
X107976605Y-102323000D01*
X108496289Y-102219628D01*
X108936856Y-101925251D01*
X109231233Y-101484684D01*
X109334605Y-100965000D01*
X109231233Y-100445316D01*
X108936856Y-100004749D01*
X108496289Y-99710372D01*
X108419009Y-99695000D01*
X108496289Y-99679628D01*
X108936856Y-99385251D01*
X109049160Y-99217176D01*
X111433776Y-101601704D01*
X113601500Y-103769519D01*
X113601500Y-104951710D01*
X113349479Y-105120104D01*
X113065941Y-105544450D01*
X113030000Y-105725137D01*
X112994059Y-105544450D01*
X112710521Y-105120104D01*
X112286175Y-104836566D01*
X111785625Y-104737000D01*
X111734375Y-104737000D01*
X111233825Y-104836566D01*
X110809479Y-105120104D01*
X110525941Y-105544450D01*
X110426375Y-106045000D01*
X110525941Y-106545550D01*
X110809479Y-106969896D01*
X111233825Y-107253434D01*
X111734375Y-107353000D01*
X111785625Y-107353000D01*
X112286175Y-107253434D01*
X112710521Y-106969896D01*
X112994059Y-106545550D01*
X113030000Y-106364863D01*
X113065941Y-106545550D01*
X113349479Y-106969896D01*
X113773825Y-107253434D01*
X114274375Y-107353000D01*
X114325625Y-107353000D01*
X114826175Y-107253434D01*
X115250521Y-106969896D01*
X115534059Y-106545550D01*
X115570000Y-106364863D01*
X115605941Y-106545550D01*
X115889479Y-106969896D01*
X116313825Y-107253434D01*
X116814375Y-107353000D01*
X116865625Y-107353000D01*
X117366175Y-107253434D01*
X117790521Y-106969896D01*
X118074059Y-106545550D01*
X118110000Y-106364863D01*
X118145941Y-106545550D01*
X118429479Y-106969896D01*
X118853825Y-107253434D01*
X119354375Y-107353000D01*
X119405625Y-107353000D01*
X119906175Y-107253434D01*
X120330521Y-106969896D01*
X120602048Y-106563526D01*
X120602048Y-106845000D01*
X120637470Y-107033253D01*
X120748728Y-107206153D01*
X120918488Y-107322145D01*
X121120000Y-107362952D01*
X122720000Y-107362952D01*
X122908253Y-107327530D01*
X123081153Y-107216272D01*
X123197145Y-107046512D01*
X123237952Y-106845000D01*
X123237952Y-106728949D01*
X123432105Y-106690330D01*
X123658714Y-106538914D01*
X124660628Y-105537000D01*
X130867951Y-105537000D01*
X130772000Y-106019375D01*
X130772000Y-106070625D01*
X130871566Y-106571175D01*
X131155104Y-106995521D01*
X131579450Y-107279059D01*
X132080000Y-107378625D01*
X132580550Y-107279059D01*
X133004896Y-106995521D01*
X133288434Y-106571175D01*
X133350000Y-106261663D01*
X133411566Y-106571175D01*
X133695104Y-106995521D01*
X134119450Y-107279059D01*
X134620000Y-107378625D01*
X135120550Y-107279059D01*
X135544896Y-106995521D01*
X135828434Y-106571175D01*
X135890000Y-106261663D01*
X135951566Y-106571175D01*
X136235104Y-106995521D01*
X136659450Y-107279059D01*
X137160000Y-107378625D01*
X137660550Y-107279059D01*
X138084896Y-106995521D01*
X138368434Y-106571175D01*
X138430000Y-106261663D01*
X138491566Y-106571175D01*
X138775104Y-106995521D01*
X139199450Y-107279059D01*
X139700000Y-107378625D01*
X140200550Y-107279059D01*
X140624896Y-106995521D01*
X140908434Y-106571175D01*
X140970000Y-106261663D01*
X141031566Y-106571175D01*
X141315104Y-106995521D01*
X141739450Y-107279059D01*
X142240000Y-107378625D01*
X142740550Y-107279059D01*
X143164896Y-106995521D01*
X143448434Y-106571175D01*
X143462048Y-106502733D01*
X143462048Y-106845000D01*
X143497470Y-107033253D01*
X143608728Y-107206153D01*
X143778488Y-107322145D01*
X143980000Y-107362952D01*
X145580000Y-107362952D01*
X145768253Y-107327530D01*
X145941153Y-107216272D01*
X146057145Y-107046512D01*
X146097952Y-106845000D01*
X146097952Y-105245000D01*
X146062530Y-105056747D01*
X145951272Y-104883847D01*
X145781512Y-104767855D01*
X145580000Y-104727048D01*
X143980000Y-104727048D01*
X143791747Y-104762470D01*
X143618847Y-104873728D01*
X143502855Y-105043488D01*
X143462048Y-105245000D01*
X143462048Y-105587267D01*
X143448434Y-105518825D01*
X143164896Y-105094479D01*
X142740550Y-104810941D01*
X142240000Y-104711375D01*
X141951575Y-104768747D01*
X141489114Y-104306286D01*
X141262505Y-104154870D01*
X140995200Y-104101700D01*
X140462000Y-104101700D01*
X140462000Y-86995000D01*
X140451994Y-86945590D01*
X140424803Y-86905197D01*
X140407211Y-86887605D01*
X140376713Y-86734279D01*
X140225297Y-86507669D01*
X131328714Y-77611086D01*
X131103946Y-77460900D01*
X131743272Y-77460900D01*
X135421286Y-81138914D01*
X135647896Y-81290330D01*
X135915200Y-81343500D01*
X136066710Y-81343500D01*
X136235104Y-81595521D01*
X136659450Y-81879059D01*
X137160000Y-81978625D01*
X137660550Y-81879059D01*
X138084896Y-81595521D01*
X138368434Y-81171175D01*
X138468000Y-80670625D01*
X138468000Y-80619375D01*
X138368434Y-80118825D01*
X138084896Y-79694479D01*
X137660550Y-79410941D01*
X137160000Y-79311375D01*
X136659450Y-79410941D01*
X136235104Y-79694479D01*
X136121912Y-79863884D01*
X132526514Y-76268486D01*
X132299905Y-76117070D01*
X132032600Y-76063900D01*
X120697400Y-76063900D01*
X120430096Y-76117070D01*
X120203486Y-76268486D01*
X116608088Y-79863884D01*
X116494896Y-79694479D01*
X116070550Y-79410941D01*
X115570000Y-79311375D01*
X115069450Y-79410941D01*
X114645104Y-79694479D01*
X114361566Y-80118825D01*
X114262000Y-80619375D01*
X114262000Y-80670625D01*
X114361566Y-81171175D01*
X114645104Y-81595521D01*
X115069450Y-81879059D01*
X115570000Y-81978625D01*
X116070550Y-81879059D01*
X116494896Y-81595521D01*
X116663290Y-81343500D01*
X116814800Y-81343500D01*
X117082105Y-81290330D01*
X117308714Y-81138914D01*
X120986728Y-77460900D01*
X128172048Y-77460900D01*
X128172048Y-78955000D01*
X128207470Y-79143253D01*
X128318728Y-79316153D01*
X128488488Y-79432145D01*
X128690000Y-79472952D01*
X128778000Y-79472952D01*
X128778000Y-79534505D01*
X128553144Y-79684749D01*
X128258767Y-80125316D01*
X128155395Y-80645000D01*
X128258767Y-81164684D01*
X128553144Y-81605251D01*
X128778000Y-81755495D01*
X128778000Y-82074505D01*
X128553144Y-82224749D01*
X128378248Y-82486500D01*
X109111752Y-82486500D01*
X108936856Y-82224749D01*
X108496289Y-81930372D01*
X108419009Y-81915000D01*
X108496289Y-81899628D01*
X108936856Y-81605251D01*
X109231233Y-81164684D01*
X109334605Y-80645000D01*
X109231233Y-80125316D01*
X108936856Y-79684749D01*
X108619879Y-79472952D01*
X108800000Y-79472952D01*
X108988253Y-79437530D01*
X109161153Y-79326272D01*
X109277145Y-79156512D01*
X109317952Y-78955000D01*
X109317952Y-77255000D01*
X109282530Y-77066747D01*
X109171272Y-76893847D01*
X109001512Y-76777855D01*
X108800000Y-76737048D01*
X107329600Y-76737048D01*
X107329600Y-72453500D01*
X109363357Y-72453500D01*
X109380485Y-72494954D01*
X109748110Y-72863222D01*
X110228681Y-73062772D01*
X110749036Y-73063226D01*
X111229954Y-72864515D01*
X111598222Y-72496890D01*
X111616239Y-72453500D01*
X123333357Y-72453500D01*
X123350485Y-72494954D01*
X123718110Y-72863222D01*
X124198681Y-73062772D01*
X124719036Y-73063226D01*
X125199954Y-72864515D01*
X125568222Y-72496890D01*
X125586239Y-72453500D01*
X128413357Y-72453500D01*
X128430485Y-72494954D01*
X128798110Y-72863222D01*
X129278681Y-73062772D01*
X129799036Y-73063226D01*
X130279954Y-72864515D01*
X130648222Y-72496890D01*
X130666239Y-72453500D01*
X138332559Y-72453500D01*
X138599864Y-72400330D01*
X138826473Y-72248914D01*
X145678405Y-65396982D01*
X145788681Y-65442772D01*
X146309036Y-65443226D01*
X146789954Y-65244515D01*
X147158222Y-64876890D01*
X147357772Y-64396319D01*
X147358226Y-63875964D01*
X147159515Y-63395046D01*
X147125753Y-63361225D01*
X147211153Y-63306272D01*
X147327145Y-63136512D01*
X147367952Y-62935000D01*
X147367952Y-61335000D01*
X147332530Y-61146747D01*
X147221272Y-60973847D01*
X147051512Y-60857855D01*
X146850000Y-60817048D01*
X145250000Y-60817048D01*
X145061747Y-60852470D01*
X144888847Y-60963728D01*
X144772855Y-61133488D01*
X144732048Y-61335000D01*
X144732048Y-61451232D01*
X144494679Y-61498448D01*
X144268069Y-61649864D01*
X137361433Y-68556500D01*
X130666643Y-68556500D01*
X130649515Y-68515046D01*
X130281890Y-68146778D01*
X129801319Y-67947228D01*
X129280964Y-67946774D01*
X128800046Y-68145485D01*
X128431778Y-68513110D01*
X128413761Y-68556500D01*
X127188214Y-68556500D01*
X126920909Y-68609670D01*
X126694300Y-68761086D01*
X126398886Y-69056500D01*
X125777952Y-69056500D01*
X125777952Y-68955000D01*
X125742530Y-68766747D01*
X125631272Y-68593847D01*
X125461512Y-68477855D01*
X125260000Y-68437048D01*
X123660000Y-68437048D01*
X123471747Y-68472470D01*
X123298847Y-68583728D01*
X123182855Y-68753488D01*
X123142048Y-68955000D01*
X123142048Y-69056500D01*
X122786080Y-69056500D01*
X122490666Y-68761086D01*
X122264057Y-68609670D01*
X121996752Y-68556500D01*
X111616643Y-68556500D01*
X111599515Y-68515046D01*
X111231890Y-68146778D01*
X110751319Y-67947228D01*
X110230964Y-67946774D01*
X109750046Y-68145485D01*
X109381778Y-68513110D01*
X109182228Y-68993681D01*
X109181774Y-69514036D01*
X109380485Y-69994954D01*
X109748110Y-70363222D01*
X110089798Y-70505103D01*
X109750046Y-70645485D01*
X109381778Y-71013110D01*
X109363761Y-71056500D01*
X106536643Y-71056500D01*
X106519515Y-71015046D01*
X106485753Y-70981225D01*
X106571153Y-70926272D01*
X106687145Y-70756512D01*
X106727952Y-70555000D01*
X106727952Y-68955000D01*
X106692530Y-68766747D01*
X106581272Y-68593847D01*
X106411512Y-68477855D01*
X106210000Y-68437048D01*
X104610000Y-68437048D01*
X104421747Y-68472470D01*
X104248847Y-68583728D01*
X104132855Y-68753488D01*
X104092048Y-68955000D01*
X104092048Y-70555000D01*
X104127470Y-70743253D01*
X104238728Y-70916153D01*
X104333818Y-70981125D01*
X104301778Y-71013110D01*
X104102228Y-71493681D01*
X104101774Y-72014036D01*
X104300485Y-72494954D01*
X104668110Y-72863222D01*
X105148681Y-73062772D01*
X105669036Y-73063226D01*
X105932600Y-72954324D01*
X105932600Y-79326100D01*
X105985770Y-79593405D01*
X106137186Y-79820014D01*
X106631225Y-80314053D01*
X106565395Y-80645000D01*
X106607003Y-80854175D01*
X103979858Y-78227030D01*
X103979858Y-63872745D01*
X135061861Y-63872745D01*
X135135995Y-64118864D01*
X135673223Y-64311965D01*
X136243454Y-64284778D01*
X136644005Y-64118864D01*
X136718139Y-63872745D01*
X140141861Y-63872745D01*
X140215995Y-64118864D01*
X140753223Y-64311965D01*
X141323454Y-64284778D01*
X141724005Y-64118864D01*
X141798139Y-63872745D01*
X140970000Y-63044605D01*
X140141861Y-63872745D01*
X136718139Y-63872745D01*
X135890000Y-63044605D01*
X135061861Y-63872745D01*
X103979858Y-63872745D01*
X103979858Y-57522745D01*
X104581861Y-57522745D01*
X104655995Y-57768864D01*
X105193223Y-57961965D01*
X105763454Y-57934778D01*
X106164005Y-57768864D01*
X106238139Y-57522745D01*
X109661861Y-57522745D01*
X109735995Y-57768864D01*
X110273223Y-57961965D01*
X110843454Y-57934778D01*
X111244005Y-57768864D01*
X111318139Y-57522745D01*
X110490000Y-56694605D01*
X109661861Y-57522745D01*
X106238139Y-57522745D01*
X105410000Y-56694605D01*
X104581861Y-57522745D01*
X103979858Y-57522745D01*
X103979858Y-56651075D01*
X103990222Y-56868454D01*
X104156136Y-57269005D01*
X104402255Y-57343139D01*
X105230395Y-56515000D01*
X105216252Y-56500858D01*
X105395858Y-56321252D01*
X105410000Y-56335395D01*
X105424142Y-56321252D01*
X105603748Y-56500858D01*
X105589605Y-56515000D01*
X106417745Y-57343139D01*
X106663864Y-57269005D01*
X106856965Y-56731777D01*
X106836295Y-56298223D01*
X109043035Y-56298223D01*
X109070222Y-56868454D01*
X109236136Y-57269005D01*
X109482255Y-57343139D01*
X110310395Y-56515000D01*
X110669605Y-56515000D01*
X111497745Y-57343139D01*
X111743864Y-57269005D01*
X111886602Y-56871892D01*
X114128514Y-56871892D01*
X114374817Y-57396358D01*
X114803076Y-57786645D01*
X115213110Y-57956476D01*
X115443000Y-57835155D01*
X115443000Y-56642000D01*
X114249181Y-56642000D01*
X114128514Y-56871892D01*
X111886602Y-56871892D01*
X111936965Y-56731777D01*
X111909778Y-56161546D01*
X111743864Y-55760995D01*
X111497745Y-55686861D01*
X110669605Y-56515000D01*
X110310395Y-56515000D01*
X109482255Y-55686861D01*
X109236136Y-55760995D01*
X109043035Y-56298223D01*
X106836295Y-56298223D01*
X106829778Y-56161546D01*
X106663864Y-55760995D01*
X106521616Y-55718148D01*
X106571153Y-55686272D01*
X106687145Y-55516512D01*
X106727952Y-55315000D01*
X106727952Y-55213500D01*
X107560952Y-55213500D01*
X107828257Y-55160330D01*
X108054866Y-55008914D01*
X108350280Y-54713500D01*
X109363357Y-54713500D01*
X109380485Y-54754954D01*
X109748110Y-55123222D01*
X109908332Y-55189752D01*
X109735995Y-55261136D01*
X109661861Y-55507255D01*
X110490000Y-56335395D01*
X111318139Y-55507255D01*
X111244005Y-55261136D01*
X111059665Y-55194877D01*
X111229954Y-55124515D01*
X111598222Y-54756890D01*
X111632848Y-54673500D01*
X114202048Y-54673500D01*
X114202048Y-54825000D01*
X114237470Y-55013253D01*
X114348728Y-55186153D01*
X114518488Y-55302145D01*
X114698554Y-55338609D01*
X114374817Y-55633642D01*
X114128514Y-56158108D01*
X114249181Y-56388000D01*
X115443000Y-56388000D01*
X115443000Y-56368000D01*
X115697000Y-56368000D01*
X115697000Y-56388000D01*
X115717000Y-56388000D01*
X115717000Y-56642000D01*
X115697000Y-56642000D01*
X115697000Y-57835155D01*
X115926890Y-57956476D01*
X116336924Y-57786645D01*
X116765183Y-57396358D01*
X116894817Y-57120322D01*
X117149749Y-57501856D01*
X117590316Y-57796233D01*
X118110000Y-57899605D01*
X118629684Y-57796233D01*
X119070251Y-57501856D01*
X119364628Y-57061289D01*
X119380000Y-56984009D01*
X119395372Y-57061289D01*
X119689749Y-57501856D01*
X120130316Y-57796233D01*
X120650000Y-57899605D01*
X121169684Y-57796233D01*
X121610251Y-57501856D01*
X121904628Y-57061289D01*
X121920000Y-56984009D01*
X121935372Y-57061289D01*
X122229749Y-57501856D01*
X122670316Y-57796233D01*
X123190000Y-57899605D01*
X123709684Y-57796233D01*
X124150251Y-57501856D01*
X124444628Y-57061289D01*
X124460000Y-56984009D01*
X124475372Y-57061289D01*
X124769749Y-57501856D01*
X125210316Y-57796233D01*
X125730000Y-57899605D01*
X125892798Y-57867222D01*
X125398820Y-58361200D01*
X118742083Y-58361200D01*
X118633753Y-58252680D01*
X118283795Y-58107365D01*
X117904867Y-58107035D01*
X117554657Y-58251739D01*
X117286480Y-58519447D01*
X117141165Y-58869405D01*
X117140835Y-59248333D01*
X117285539Y-59598543D01*
X117553247Y-59866720D01*
X117903205Y-60012035D01*
X118282133Y-60012365D01*
X118632343Y-59867661D01*
X118741996Y-59758200D01*
X125688148Y-59758200D01*
X125955453Y-59705030D01*
X126182062Y-59553614D01*
X127641967Y-58093709D01*
X127759962Y-58270300D01*
X130848576Y-61358914D01*
X131075185Y-61510330D01*
X131342490Y-61563500D01*
X134572048Y-61563500D01*
X134572048Y-61665000D01*
X134607470Y-61853253D01*
X134718728Y-62026153D01*
X134779637Y-62067771D01*
X134636136Y-62110995D01*
X134443035Y-62648223D01*
X134470222Y-63218454D01*
X134636136Y-63619005D01*
X134882255Y-63693139D01*
X135710395Y-62865000D01*
X135696252Y-62850858D01*
X135875858Y-62671252D01*
X135890000Y-62685395D01*
X135904142Y-62671252D01*
X136083748Y-62850858D01*
X136069605Y-62865000D01*
X136897745Y-63693139D01*
X137143864Y-63619005D01*
X137336965Y-63081777D01*
X137316295Y-62648223D01*
X139523035Y-62648223D01*
X139550222Y-63218454D01*
X139716136Y-63619005D01*
X139962255Y-63693139D01*
X140790395Y-62865000D01*
X141149605Y-62865000D01*
X141977745Y-63693139D01*
X142223864Y-63619005D01*
X142416965Y-63081777D01*
X142389778Y-62511546D01*
X142223864Y-62110995D01*
X141977745Y-62036861D01*
X141149605Y-62865000D01*
X140790395Y-62865000D01*
X139962255Y-62036861D01*
X139716136Y-62110995D01*
X139523035Y-62648223D01*
X137316295Y-62648223D01*
X137309778Y-62511546D01*
X137143864Y-62110995D01*
X137001616Y-62068148D01*
X137051153Y-62036272D01*
X137167145Y-61866512D01*
X137207952Y-61665000D01*
X137207952Y-61563500D01*
X138242403Y-61563500D01*
X138509708Y-61510330D01*
X138736317Y-61358914D01*
X139031731Y-61063500D01*
X139843357Y-61063500D01*
X139860485Y-61104954D01*
X140228110Y-61473222D01*
X140388332Y-61539752D01*
X140215995Y-61611136D01*
X140141861Y-61857255D01*
X140970000Y-62685395D01*
X141798139Y-61857255D01*
X141724005Y-61611136D01*
X141539665Y-61544877D01*
X141709954Y-61474515D01*
X142078222Y-61106890D01*
X142277772Y-60626319D01*
X142278226Y-60105964D01*
X142136827Y-59763750D01*
X143210000Y-59763750D01*
X143210000Y-59831309D01*
X143306673Y-60064698D01*
X143485301Y-60243327D01*
X143718690Y-60340000D01*
X143859250Y-60340000D01*
X144018000Y-60181250D01*
X144018000Y-59605000D01*
X144272000Y-59605000D01*
X144272000Y-60181250D01*
X144430750Y-60340000D01*
X144571310Y-60340000D01*
X144804699Y-60243327D01*
X144983327Y-60064698D01*
X145080000Y-59831309D01*
X145080000Y-59763750D01*
X144921250Y-59605000D01*
X144272000Y-59605000D01*
X144018000Y-59605000D01*
X143368750Y-59605000D01*
X143210000Y-59763750D01*
X142136827Y-59763750D01*
X142079515Y-59625046D01*
X141711890Y-59256778D01*
X141328353Y-59097520D01*
X143243622Y-59097520D01*
X143210000Y-59178691D01*
X143210000Y-59246250D01*
X143368750Y-59405000D01*
X144018000Y-59405000D01*
X144018000Y-59358000D01*
X144272000Y-59358000D01*
X144272000Y-59405000D01*
X144921250Y-59405000D01*
X145080000Y-59246250D01*
X145080000Y-59178691D01*
X145046378Y-59097520D01*
X146666761Y-59097520D01*
X146934066Y-59044350D01*
X146974053Y-59017631D01*
X147058681Y-59052772D01*
X147579036Y-59053226D01*
X148059954Y-58854515D01*
X148428222Y-58486890D01*
X148627772Y-58006319D01*
X148628226Y-57485964D01*
X148429515Y-57005046D01*
X148061890Y-56636778D01*
X147720202Y-56494897D01*
X148059954Y-56354515D01*
X148428222Y-55986890D01*
X148627772Y-55506319D01*
X148628226Y-54985964D01*
X148429515Y-54505046D01*
X148061890Y-54136778D01*
X147581319Y-53937228D01*
X147060964Y-53936774D01*
X146580046Y-54135485D01*
X146211778Y-54503110D01*
X146012228Y-54983681D01*
X146011774Y-55504036D01*
X146210485Y-55984954D01*
X146578110Y-56353222D01*
X146919798Y-56495103D01*
X146580046Y-56635485D01*
X146211778Y-57003110D01*
X146012228Y-57483681D01*
X146012039Y-57700066D01*
X144351434Y-57700066D01*
X144349152Y-57700520D01*
X142902929Y-57700520D01*
X143200251Y-57501856D01*
X143494628Y-57061289D01*
X143598000Y-56541605D01*
X143598000Y-56488395D01*
X143494628Y-55968711D01*
X143200251Y-55528144D01*
X142923091Y-55342952D01*
X143090000Y-55342952D01*
X143278253Y-55307530D01*
X143451153Y-55196272D01*
X143567145Y-55026512D01*
X143607952Y-54825000D01*
X143607952Y-53125000D01*
X143572530Y-52936747D01*
X143461272Y-52763847D01*
X143291512Y-52647855D01*
X143090000Y-52607048D01*
X141390000Y-52607048D01*
X141201747Y-52642470D01*
X141028847Y-52753728D01*
X140912855Y-52923488D01*
X140872048Y-53125000D01*
X140872048Y-53305121D01*
X140660251Y-52988144D01*
X140219684Y-52693767D01*
X139700000Y-52590395D01*
X139180316Y-52693767D01*
X138739749Y-52988144D01*
X138445372Y-53428711D01*
X138430000Y-53505991D01*
X138414628Y-53428711D01*
X138120251Y-52988144D01*
X137679684Y-52693767D01*
X137160000Y-52590395D01*
X136848204Y-52652415D01*
X135757789Y-51562000D01*
X149098000Y-51562000D01*
X149098000Y-149733000D01*
X102158000Y-149733000D01*
X102158000Y-116179375D01*
X130772000Y-116179375D01*
X130772000Y-116230625D01*
X130871566Y-116731175D01*
X131155104Y-117155521D01*
X131579450Y-117439059D01*
X132080000Y-117538625D01*
X132580550Y-117439059D01*
X133004896Y-117155521D01*
X133288434Y-116731175D01*
X133350000Y-116421663D01*
X133411566Y-116731175D01*
X133695104Y-117155521D01*
X134119450Y-117439059D01*
X134620000Y-117538625D01*
X135120550Y-117439059D01*
X135544896Y-117155521D01*
X135828434Y-116731175D01*
X135890000Y-116421663D01*
X135951566Y-116731175D01*
X136235104Y-117155521D01*
X136659450Y-117439059D01*
X137160000Y-117538625D01*
X137660550Y-117439059D01*
X138084896Y-117155521D01*
X138368434Y-116731175D01*
X138430000Y-116421663D01*
X138491566Y-116731175D01*
X138775104Y-117155521D01*
X139199450Y-117439059D01*
X139700000Y-117538625D01*
X140200550Y-117439059D01*
X140624896Y-117155521D01*
X140908434Y-116731175D01*
X140970000Y-116421663D01*
X141031566Y-116731175D01*
X141315104Y-117155521D01*
X141739450Y-117439059D01*
X142240000Y-117538625D01*
X142740550Y-117439059D01*
X143164896Y-117155521D01*
X143448434Y-116731175D01*
X143510000Y-116421663D01*
X143571566Y-116731175D01*
X143855104Y-117155521D01*
X144279450Y-117439059D01*
X144780000Y-117538625D01*
X145280550Y-117439059D01*
X145704896Y-117155521D01*
X145988434Y-116731175D01*
X146088000Y-116230625D01*
X146088000Y-116179375D01*
X145988434Y-115678825D01*
X145704896Y-115254479D01*
X145280550Y-114970941D01*
X144780000Y-114871375D01*
X144279450Y-114970941D01*
X143855104Y-115254479D01*
X143571566Y-115678825D01*
X143510000Y-115988337D01*
X143448434Y-115678825D01*
X143164896Y-115254479D01*
X142740550Y-114970941D01*
X142240000Y-114871375D01*
X141739450Y-114970941D01*
X141315104Y-115254479D01*
X141031566Y-115678825D01*
X140970000Y-115988337D01*
X140908434Y-115678825D01*
X140624896Y-115254479D01*
X140200550Y-114970941D01*
X139700000Y-114871375D01*
X139199450Y-114970941D01*
X138775104Y-115254479D01*
X138491566Y-115678825D01*
X138430000Y-115988337D01*
X138368434Y-115678825D01*
X138084896Y-115254479D01*
X137660550Y-114970941D01*
X137160000Y-114871375D01*
X136659450Y-114970941D01*
X136235104Y-115254479D01*
X135951566Y-115678825D01*
X135890000Y-115988337D01*
X135828434Y-115678825D01*
X135544896Y-115254479D01*
X135120550Y-114970941D01*
X134620000Y-114871375D01*
X134119450Y-114970941D01*
X133695104Y-115254479D01*
X133411566Y-115678825D01*
X133350000Y-115988337D01*
X133288434Y-115678825D01*
X133004896Y-115254479D01*
X132580550Y-114970941D01*
X132080000Y-114871375D01*
X131579450Y-114970941D01*
X131155104Y-115254479D01*
X130871566Y-115678825D01*
X130772000Y-116179375D01*
X102158000Y-116179375D01*
X102158000Y-51562000D01*
X102743000Y-51562000D01*
X102743000Y-53379041D01*
X102743000Y-53379041D01*
G37*
X102743000Y-53379041D02*
X102636028Y-53539135D01*
X102598206Y-53729281D01*
X102582858Y-53806440D01*
X102582858Y-78516358D01*
X102636028Y-78783663D01*
X102787444Y-79010272D01*
X106631225Y-82854053D01*
X106565395Y-83185000D01*
X106668767Y-83704684D01*
X106963144Y-84145251D01*
X107403711Y-84439628D01*
X107480991Y-84455000D01*
X107403711Y-84470372D01*
X106963144Y-84764749D01*
X106668767Y-85205316D01*
X106565395Y-85725000D01*
X106668767Y-86244684D01*
X106963144Y-86685251D01*
X107403711Y-86979628D01*
X107480991Y-86995000D01*
X107403711Y-87010372D01*
X106963144Y-87304749D01*
X106668767Y-87745316D01*
X106565395Y-88265000D01*
X106668767Y-88784684D01*
X106963144Y-89225251D01*
X107403711Y-89519628D01*
X107480991Y-89535000D01*
X107403711Y-89550372D01*
X106963144Y-89844749D01*
X106668767Y-90285316D01*
X106565395Y-90805000D01*
X106668767Y-91324684D01*
X106963144Y-91765251D01*
X107403711Y-92059628D01*
X107480991Y-92075000D01*
X107403711Y-92090372D01*
X106963144Y-92384749D01*
X106668767Y-92825316D01*
X106565395Y-93345000D01*
X106668767Y-93864684D01*
X106963144Y-94305251D01*
X107403711Y-94599628D01*
X107480991Y-94615000D01*
X107403711Y-94630372D01*
X106963144Y-94924749D01*
X106668767Y-95365316D01*
X106565395Y-95885000D01*
X106668767Y-96404684D01*
X106963144Y-96845251D01*
X107403711Y-97139628D01*
X107480991Y-97155000D01*
X107403711Y-97170372D01*
X106963144Y-97464749D01*
X106668767Y-97905316D01*
X106565395Y-98425000D01*
X106668767Y-98944684D01*
X106963144Y-99385251D01*
X107403711Y-99679628D01*
X107480991Y-99695000D01*
X107403711Y-99710372D01*
X106963144Y-100004749D01*
X106668767Y-100445316D01*
X106565395Y-100965000D01*
X106668767Y-101484684D01*
X106963144Y-101925251D01*
X107403711Y-102219628D01*
X107923395Y-102323000D01*
X107976605Y-102323000D01*
X108496289Y-102219628D01*
X108936856Y-101925251D01*
X109231233Y-101484684D01*
X109334605Y-100965000D01*
X109231233Y-100445316D01*
X108936856Y-100004749D01*
X108496289Y-99710372D01*
X108419009Y-99695000D01*
X108496289Y-99679628D01*
X108936856Y-99385251D01*
X109049160Y-99217176D01*
X111433776Y-101601704D01*
X113601500Y-103769519D01*
X113601500Y-104951710D01*
X113349479Y-105120104D01*
X113065941Y-105544450D01*
X113030000Y-105725137D01*
X112994059Y-105544450D01*
X112710521Y-105120104D01*
X112286175Y-104836566D01*
X111785625Y-104737000D01*
X111734375Y-104737000D01*
X111233825Y-104836566D01*
X110809479Y-105120104D01*
X110525941Y-105544450D01*
X110426375Y-106045000D01*
X110525941Y-106545550D01*
X110809479Y-106969896D01*
X111233825Y-107253434D01*
X111734375Y-107353000D01*
X111785625Y-107353000D01*
X112286175Y-107253434D01*
X112710521Y-106969896D01*
X112994059Y-106545550D01*
X113030000Y-106364863D01*
X113065941Y-106545550D01*
X113349479Y-106969896D01*
X113773825Y-107253434D01*
X114274375Y-107353000D01*
X114325625Y-107353000D01*
X114826175Y-107253434D01*
X115250521Y-106969896D01*
X115534059Y-106545550D01*
X115570000Y-106364863D01*
X115605941Y-106545550D01*
X115889479Y-106969896D01*
X116313825Y-107253434D01*
X116814375Y-107353000D01*
X116865625Y-107353000D01*
X117366175Y-107253434D01*
X117790521Y-106969896D01*
X118074059Y-106545550D01*
X118110000Y-106364863D01*
X118145941Y-106545550D01*
X118429479Y-106969896D01*
X118853825Y-107253434D01*
X119354375Y-107353000D01*
X119405625Y-107353000D01*
X119906175Y-107253434D01*
X120330521Y-106969896D01*
X120602048Y-106563526D01*
X120602048Y-106845000D01*
X120637470Y-107033253D01*
X120748728Y-107206153D01*
X120918488Y-107322145D01*
X121120000Y-107362952D01*
X122720000Y-107362952D01*
X122908253Y-107327530D01*
X123081153Y-107216272D01*
X123197145Y-107046512D01*
X123237952Y-106845000D01*
X123237952Y-106728949D01*
X123432105Y-106690330D01*
X123658714Y-106538914D01*
X124660628Y-105537000D01*
X130867951Y-105537000D01*
X130772000Y-106019375D01*
X130772000Y-106070625D01*
X130871566Y-106571175D01*
X131155104Y-106995521D01*
X131579450Y-107279059D01*
X132080000Y-107378625D01*
X132580550Y-107279059D01*
X133004896Y-106995521D01*
X133288434Y-106571175D01*
X133350000Y-106261663D01*
X133411566Y-106571175D01*
X133695104Y-106995521D01*
X134119450Y-107279059D01*
X134620000Y-107378625D01*
X135120550Y-107279059D01*
X135544896Y-106995521D01*
X135828434Y-106571175D01*
X135890000Y-106261663D01*
X135951566Y-106571175D01*
X136235104Y-106995521D01*
X136659450Y-107279059D01*
X137160000Y-107378625D01*
X137660550Y-107279059D01*
X138084896Y-106995521D01*
X138368434Y-106571175D01*
X138430000Y-106261663D01*
X138491566Y-106571175D01*
X138775104Y-106995521D01*
X139199450Y-107279059D01*
X139700000Y-107378625D01*
X140200550Y-107279059D01*
X140624896Y-106995521D01*
X140908434Y-106571175D01*
X140970000Y-106261663D01*
X141031566Y-106571175D01*
X141315104Y-106995521D01*
X141739450Y-107279059D01*
X142240000Y-107378625D01*
X142740550Y-107279059D01*
X143164896Y-106995521D01*
X143448434Y-106571175D01*
X143462048Y-106502733D01*
X143462048Y-106845000D01*
X143497470Y-107033253D01*
X143608728Y-107206153D01*
X143778488Y-107322145D01*
X143980000Y-107362952D01*
X145580000Y-107362952D01*
X145768253Y-107327530D01*
X145941153Y-107216272D01*
X146057145Y-107046512D01*
X146097952Y-106845000D01*
X146097952Y-105245000D01*
X146062530Y-105056747D01*
X145951272Y-104883847D01*
X145781512Y-104767855D01*
X145580000Y-104727048D01*
X143980000Y-104727048D01*
X143791747Y-104762470D01*
X143618847Y-104873728D01*
X143502855Y-105043488D01*
X143462048Y-105245000D01*
X143462048Y-105587267D01*
X143448434Y-105518825D01*
X143164896Y-105094479D01*
X142740550Y-104810941D01*
X142240000Y-104711375D01*
X141951575Y-104768747D01*
X141489114Y-104306286D01*
X141262505Y-104154870D01*
X140995200Y-104101700D01*
X140462000Y-104101700D01*
X140462000Y-86995000D01*
X140451994Y-86945590D01*
X140424803Y-86905197D01*
X140407211Y-86887605D01*
X140376713Y-86734279D01*
X140225297Y-86507669D01*
X131328714Y-77611086D01*
X131103946Y-77460900D01*
X131743272Y-77460900D01*
X135421286Y-81138914D01*
X135647896Y-81290330D01*
X135915200Y-81343500D01*
X136066710Y-81343500D01*
X136235104Y-81595521D01*
X136659450Y-81879059D01*
X137160000Y-81978625D01*
X137660550Y-81879059D01*
X138084896Y-81595521D01*
X138368434Y-81171175D01*
X138468000Y-80670625D01*
X138468000Y-80619375D01*
X138368434Y-80118825D01*
X138084896Y-79694479D01*
X137660550Y-79410941D01*
X137160000Y-79311375D01*
X136659450Y-79410941D01*
X136235104Y-79694479D01*
X136121912Y-79863884D01*
X132526514Y-76268486D01*
X132299905Y-76117070D01*
X132032600Y-76063900D01*
X120697400Y-76063900D01*
X120430096Y-76117070D01*
X120203486Y-76268486D01*
X116608088Y-79863884D01*
X116494896Y-79694479D01*
X116070550Y-79410941D01*
X115570000Y-79311375D01*
X115069450Y-79410941D01*
X114645104Y-79694479D01*
X114361566Y-80118825D01*
X114262000Y-80619375D01*
X114262000Y-80670625D01*
X114361566Y-81171175D01*
X114645104Y-81595521D01*
X115069450Y-81879059D01*
X115570000Y-81978625D01*
X116070550Y-81879059D01*
X116494896Y-81595521D01*
X116663290Y-81343500D01*
X116814800Y-81343500D01*
X117082105Y-81290330D01*
X117308714Y-81138914D01*
X120986728Y-77460900D01*
X128172048Y-77460900D01*
X128172048Y-78955000D01*
X128207470Y-79143253D01*
X128318728Y-79316153D01*
X128488488Y-79432145D01*
X128690000Y-79472952D01*
X128778000Y-79472952D01*
X128778000Y-79534505D01*
X128553144Y-79684749D01*
X128258767Y-80125316D01*
X128155395Y-80645000D01*
X128258767Y-81164684D01*
X128553144Y-81605251D01*
X128778000Y-81755495D01*
X128778000Y-82074505D01*
X128553144Y-82224749D01*
X128378248Y-82486500D01*
X109111752Y-82486500D01*
X108936856Y-82224749D01*
X108496289Y-81930372D01*
X108419009Y-81915000D01*
X108496289Y-81899628D01*
X108936856Y-81605251D01*
X109231233Y-81164684D01*
X109334605Y-80645000D01*
X109231233Y-80125316D01*
X108936856Y-79684749D01*
X108619879Y-79472952D01*
X108800000Y-79472952D01*
X108988253Y-79437530D01*
X109161153Y-79326272D01*
X109277145Y-79156512D01*
X109317952Y-78955000D01*
X109317952Y-77255000D01*
X109282530Y-77066747D01*
X109171272Y-76893847D01*
X109001512Y-76777855D01*
X108800000Y-76737048D01*
X107329600Y-76737048D01*
X107329600Y-72453500D01*
X109363357Y-72453500D01*
X109380485Y-72494954D01*
X109748110Y-72863222D01*
X110228681Y-73062772D01*
X110749036Y-73063226D01*
X111229954Y-72864515D01*
X111598222Y-72496890D01*
X111616239Y-72453500D01*
X123333357Y-72453500D01*
X123350485Y-72494954D01*
X123718110Y-72863222D01*
X124198681Y-73062772D01*
X124719036Y-73063226D01*
X125199954Y-72864515D01*
X125568222Y-72496890D01*
X125586239Y-72453500D01*
X128413357Y-72453500D01*
X128430485Y-72494954D01*
X128798110Y-72863222D01*
X129278681Y-73062772D01*
X129799036Y-73063226D01*
X130279954Y-72864515D01*
X130648222Y-72496890D01*
X130666239Y-72453500D01*
X138332559Y-72453500D01*
X138599864Y-72400330D01*
X138826473Y-72248914D01*
X145678405Y-65396982D01*
X145788681Y-65442772D01*
X146309036Y-65443226D01*
X146789954Y-65244515D01*
X147158222Y-64876890D01*
X147357772Y-64396319D01*
X147358226Y-63875964D01*
X147159515Y-63395046D01*
X147125753Y-63361225D01*
X147211153Y-63306272D01*
X147327145Y-63136512D01*
X147367952Y-62935000D01*
X147367952Y-61335000D01*
X147332530Y-61146747D01*
X147221272Y-60973847D01*
X147051512Y-60857855D01*
X146850000Y-60817048D01*
X145250000Y-60817048D01*
X145061747Y-60852470D01*
X144888847Y-60963728D01*
X144772855Y-61133488D01*
X144732048Y-61335000D01*
X144732048Y-61451232D01*
X144494679Y-61498448D01*
X144268069Y-61649864D01*
X137361433Y-68556500D01*
X130666643Y-68556500D01*
X130649515Y-68515046D01*
X130281890Y-68146778D01*
X129801319Y-67947228D01*
X129280964Y-67946774D01*
X128800046Y-68145485D01*
X128431778Y-68513110D01*
X128413761Y-68556500D01*
X127188214Y-68556500D01*
X126920909Y-68609670D01*
X126694300Y-68761086D01*
X126398886Y-69056500D01*
X125777952Y-69056500D01*
X125777952Y-68955000D01*
X125742530Y-68766747D01*
X125631272Y-68593847D01*
X125461512Y-68477855D01*
X125260000Y-68437048D01*
X123660000Y-68437048D01*
X123471747Y-68472470D01*
X123298847Y-68583728D01*
X123182855Y-68753488D01*
X123142048Y-68955000D01*
X123142048Y-69056500D01*
X122786080Y-69056500D01*
X122490666Y-68761086D01*
X122264057Y-68609670D01*
X121996752Y-68556500D01*
X111616643Y-68556500D01*
X111599515Y-68515046D01*
X111231890Y-68146778D01*
X110751319Y-67947228D01*
X110230964Y-67946774D01*
X109750046Y-68145485D01*
X109381778Y-68513110D01*
X109182228Y-68993681D01*
X109181774Y-69514036D01*
X109380485Y-69994954D01*
X109748110Y-70363222D01*
X110089798Y-70505103D01*
X109750046Y-70645485D01*
X109381778Y-71013110D01*
X109363761Y-71056500D01*
X106536643Y-71056500D01*
X106519515Y-71015046D01*
X106485753Y-70981225D01*
X106571153Y-70926272D01*
X106687145Y-70756512D01*
X106727952Y-70555000D01*
X106727952Y-68955000D01*
X106692530Y-68766747D01*
X106581272Y-68593847D01*
X106411512Y-68477855D01*
X106210000Y-68437048D01*
X104610000Y-68437048D01*
X104421747Y-68472470D01*
X104248847Y-68583728D01*
X104132855Y-68753488D01*
X104092048Y-68955000D01*
X104092048Y-70555000D01*
X104127470Y-70743253D01*
X104238728Y-70916153D01*
X104333818Y-70981125D01*
X104301778Y-71013110D01*
X104102228Y-71493681D01*
X104101774Y-72014036D01*
X104300485Y-72494954D01*
X104668110Y-72863222D01*
X105148681Y-73062772D01*
X105669036Y-73063226D01*
X105932600Y-72954324D01*
X105932600Y-79326100D01*
X105985770Y-79593405D01*
X106137186Y-79820014D01*
X106631225Y-80314053D01*
X106565395Y-80645000D01*
X106607003Y-80854175D01*
X103979858Y-78227030D01*
X103979858Y-63872745D01*
X135061861Y-63872745D01*
X135135995Y-64118864D01*
X135673223Y-64311965D01*
X136243454Y-64284778D01*
X136644005Y-64118864D01*
X136718139Y-63872745D01*
X140141861Y-63872745D01*
X140215995Y-64118864D01*
X140753223Y-64311965D01*
X141323454Y-64284778D01*
X141724005Y-64118864D01*
X141798139Y-63872745D01*
X140970000Y-63044605D01*
X140141861Y-63872745D01*
X136718139Y-63872745D01*
X135890000Y-63044605D01*
X135061861Y-63872745D01*
X103979858Y-63872745D01*
X103979858Y-57522745D01*
X104581861Y-57522745D01*
X104655995Y-57768864D01*
X105193223Y-57961965D01*
X105763454Y-57934778D01*
X106164005Y-57768864D01*
X106238139Y-57522745D01*
X109661861Y-57522745D01*
X109735995Y-57768864D01*
X110273223Y-57961965D01*
X110843454Y-57934778D01*
X111244005Y-57768864D01*
X111318139Y-57522745D01*
X110490000Y-56694605D01*
X109661861Y-57522745D01*
X106238139Y-57522745D01*
X105410000Y-56694605D01*
X104581861Y-57522745D01*
X103979858Y-57522745D01*
X103979858Y-56651075D01*
X103990222Y-56868454D01*
X104156136Y-57269005D01*
X104402255Y-57343139D01*
X105230395Y-56515000D01*
X105216252Y-56500858D01*
X105395858Y-56321252D01*
X105410000Y-56335395D01*
X105424142Y-56321252D01*
X105603748Y-56500858D01*
X105589605Y-56515000D01*
X106417745Y-57343139D01*
X106663864Y-57269005D01*
X106856965Y-56731777D01*
X106836295Y-56298223D01*
X109043035Y-56298223D01*
X109070222Y-56868454D01*
X109236136Y-57269005D01*
X109482255Y-57343139D01*
X110310395Y-56515000D01*
X110669605Y-56515000D01*
X111497745Y-57343139D01*
X111743864Y-57269005D01*
X111886602Y-56871892D01*
X114128514Y-56871892D01*
X114374817Y-57396358D01*
X114803076Y-57786645D01*
X115213110Y-57956476D01*
X115443000Y-57835155D01*
X115443000Y-56642000D01*
X114249181Y-56642000D01*
X114128514Y-56871892D01*
X111886602Y-56871892D01*
X111936965Y-56731777D01*
X111909778Y-56161546D01*
X111743864Y-55760995D01*
X111497745Y-55686861D01*
X110669605Y-56515000D01*
X110310395Y-56515000D01*
X109482255Y-55686861D01*
X109236136Y-55760995D01*
X109043035Y-56298223D01*
X106836295Y-56298223D01*
X106829778Y-56161546D01*
X106663864Y-55760995D01*
X106521616Y-55718148D01*
X106571153Y-55686272D01*
X106687145Y-55516512D01*
X106727952Y-55315000D01*
X106727952Y-55213500D01*
X107560952Y-55213500D01*
X107828257Y-55160330D01*
X108054866Y-55008914D01*
X108350280Y-54713500D01*
X109363357Y-54713500D01*
X109380485Y-54754954D01*
X109748110Y-55123222D01*
X109908332Y-55189752D01*
X109735995Y-55261136D01*
X109661861Y-55507255D01*
X110490000Y-56335395D01*
X111318139Y-55507255D01*
X111244005Y-55261136D01*
X111059665Y-55194877D01*
X111229954Y-55124515D01*
X111598222Y-54756890D01*
X111632848Y-54673500D01*
X114202048Y-54673500D01*
X114202048Y-54825000D01*
X114237470Y-55013253D01*
X114348728Y-55186153D01*
X114518488Y-55302145D01*
X114698554Y-55338609D01*
X114374817Y-55633642D01*
X114128514Y-56158108D01*
X114249181Y-56388000D01*
X115443000Y-56388000D01*
X115443000Y-56368000D01*
X115697000Y-56368000D01*
X115697000Y-56388000D01*
X115717000Y-56388000D01*
X115717000Y-56642000D01*
X115697000Y-56642000D01*
X115697000Y-57835155D01*
X115926890Y-57956476D01*
X116336924Y-57786645D01*
X116765183Y-57396358D01*
X116894817Y-57120322D01*
X117149749Y-57501856D01*
X117590316Y-57796233D01*
X118110000Y-57899605D01*
X118629684Y-57796233D01*
X119070251Y-57501856D01*
X119364628Y-57061289D01*
X119380000Y-56984009D01*
X119395372Y-57061289D01*
X119689749Y-57501856D01*
X120130316Y-57796233D01*
X120650000Y-57899605D01*
X121169684Y-57796233D01*
X121610251Y-57501856D01*
X121904628Y-57061289D01*
X121920000Y-56984009D01*
X121935372Y-57061289D01*
X122229749Y-57501856D01*
X122670316Y-57796233D01*
X123190000Y-57899605D01*
X123709684Y-57796233D01*
X124150251Y-57501856D01*
X124444628Y-57061289D01*
X124460000Y-56984009D01*
X124475372Y-57061289D01*
X124769749Y-57501856D01*
X125210316Y-57796233D01*
X125730000Y-57899605D01*
X125892798Y-57867222D01*
X125398820Y-58361200D01*
X118742083Y-58361200D01*
X118633753Y-58252680D01*
X118283795Y-58107365D01*
X117904867Y-58107035D01*
X117554657Y-58251739D01*
X117286480Y-58519447D01*
X117141165Y-58869405D01*
X117140835Y-59248333D01*
X117285539Y-59598543D01*
X117553247Y-59866720D01*
X117903205Y-60012035D01*
X118282133Y-60012365D01*
X118632343Y-59867661D01*
X118741996Y-59758200D01*
X125688148Y-59758200D01*
X125955453Y-59705030D01*
X126182062Y-59553614D01*
X127641967Y-58093709D01*
X127759962Y-58270300D01*
X130848576Y-61358914D01*
X131075185Y-61510330D01*
X131342490Y-61563500D01*
X134572048Y-61563500D01*
X134572048Y-61665000D01*
X134607470Y-61853253D01*
X134718728Y-62026153D01*
X134779637Y-62067771D01*
X134636136Y-62110995D01*
X134443035Y-62648223D01*
X134470222Y-63218454D01*
X134636136Y-63619005D01*
X134882255Y-63693139D01*
X135710395Y-62865000D01*
X135696252Y-62850858D01*
X135875858Y-62671252D01*
X135890000Y-62685395D01*
X135904142Y-62671252D01*
X136083748Y-62850858D01*
X136069605Y-62865000D01*
X136897745Y-63693139D01*
X137143864Y-63619005D01*
X137336965Y-63081777D01*
X137316295Y-62648223D01*
X139523035Y-62648223D01*
X139550222Y-63218454D01*
X139716136Y-63619005D01*
X139962255Y-63693139D01*
X140790395Y-62865000D01*
X141149605Y-62865000D01*
X141977745Y-63693139D01*
X142223864Y-63619005D01*
X142416965Y-63081777D01*
X142389778Y-62511546D01*
X142223864Y-62110995D01*
X141977745Y-62036861D01*
X141149605Y-62865000D01*
X140790395Y-62865000D01*
X139962255Y-62036861D01*
X139716136Y-62110995D01*
X139523035Y-62648223D01*
X137316295Y-62648223D01*
X137309778Y-62511546D01*
X137143864Y-62110995D01*
X137001616Y-62068148D01*
X137051153Y-62036272D01*
X137167145Y-61866512D01*
X137207952Y-61665000D01*
X137207952Y-61563500D01*
X138242403Y-61563500D01*
X138509708Y-61510330D01*
X138736317Y-61358914D01*
X139031731Y-61063500D01*
X139843357Y-61063500D01*
X139860485Y-61104954D01*
X140228110Y-61473222D01*
X140388332Y-61539752D01*
X140215995Y-61611136D01*
X140141861Y-61857255D01*
X140970000Y-62685395D01*
X141798139Y-61857255D01*
X141724005Y-61611136D01*
X141539665Y-61544877D01*
X141709954Y-61474515D01*
X142078222Y-61106890D01*
X142277772Y-60626319D01*
X142278226Y-60105964D01*
X142136827Y-59763750D01*
X143210000Y-59763750D01*
X143210000Y-59831309D01*
X143306673Y-60064698D01*
X143485301Y-60243327D01*
X143718690Y-60340000D01*
X143859250Y-60340000D01*
X144018000Y-60181250D01*
X144018000Y-59605000D01*
X144272000Y-59605000D01*
X144272000Y-60181250D01*
X144430750Y-60340000D01*
X144571310Y-60340000D01*
X144804699Y-60243327D01*
X144983327Y-60064698D01*
X145080000Y-59831309D01*
X145080000Y-59763750D01*
X144921250Y-59605000D01*
X144272000Y-59605000D01*
X144018000Y-59605000D01*
X143368750Y-59605000D01*
X143210000Y-59763750D01*
X142136827Y-59763750D01*
X142079515Y-59625046D01*
X141711890Y-59256778D01*
X141328353Y-59097520D01*
X143243622Y-59097520D01*
X143210000Y-59178691D01*
X143210000Y-59246250D01*
X143368750Y-59405000D01*
X144018000Y-59405000D01*
X144018000Y-59358000D01*
X144272000Y-59358000D01*
X144272000Y-59405000D01*
X144921250Y-59405000D01*
X145080000Y-59246250D01*
X145080000Y-59178691D01*
X145046378Y-59097520D01*
X146666761Y-59097520D01*
X146934066Y-59044350D01*
X146974053Y-59017631D01*
X147058681Y-59052772D01*
X147579036Y-59053226D01*
X148059954Y-58854515D01*
X148428222Y-58486890D01*
X148627772Y-58006319D01*
X148628226Y-57485964D01*
X148429515Y-57005046D01*
X148061890Y-56636778D01*
X147720202Y-56494897D01*
X148059954Y-56354515D01*
X148428222Y-55986890D01*
X148627772Y-55506319D01*
X148628226Y-54985964D01*
X148429515Y-54505046D01*
X148061890Y-54136778D01*
X147581319Y-53937228D01*
X147060964Y-53936774D01*
X146580046Y-54135485D01*
X146211778Y-54503110D01*
X146012228Y-54983681D01*
X146011774Y-55504036D01*
X146210485Y-55984954D01*
X146578110Y-56353222D01*
X146919798Y-56495103D01*
X146580046Y-56635485D01*
X146211778Y-57003110D01*
X146012228Y-57483681D01*
X146012039Y-57700066D01*
X144351434Y-57700066D01*
X144349152Y-57700520D01*
X142902929Y-57700520D01*
X143200251Y-57501856D01*
X143494628Y-57061289D01*
X143598000Y-56541605D01*
X143598000Y-56488395D01*
X143494628Y-55968711D01*
X143200251Y-55528144D01*
X142923091Y-55342952D01*
X143090000Y-55342952D01*
X143278253Y-55307530D01*
X143451153Y-55196272D01*
X143567145Y-55026512D01*
X143607952Y-54825000D01*
X143607952Y-53125000D01*
X143572530Y-52936747D01*
X143461272Y-52763847D01*
X143291512Y-52647855D01*
X143090000Y-52607048D01*
X141390000Y-52607048D01*
X141201747Y-52642470D01*
X141028847Y-52753728D01*
X140912855Y-52923488D01*
X140872048Y-53125000D01*
X140872048Y-53305121D01*
X140660251Y-52988144D01*
X140219684Y-52693767D01*
X139700000Y-52590395D01*
X139180316Y-52693767D01*
X138739749Y-52988144D01*
X138445372Y-53428711D01*
X138430000Y-53505991D01*
X138414628Y-53428711D01*
X138120251Y-52988144D01*
X137679684Y-52693767D01*
X137160000Y-52590395D01*
X136848204Y-52652415D01*
X135757789Y-51562000D01*
X149098000Y-51562000D01*
X149098000Y-149733000D01*
X102158000Y-149733000D01*
X102158000Y-116179375D01*
X130772000Y-116179375D01*
X130772000Y-116230625D01*
X130871566Y-116731175D01*
X131155104Y-117155521D01*
X131579450Y-117439059D01*
X132080000Y-117538625D01*
X132580550Y-117439059D01*
X133004896Y-117155521D01*
X133288434Y-116731175D01*
X133350000Y-116421663D01*
X133411566Y-116731175D01*
X133695104Y-117155521D01*
X134119450Y-117439059D01*
X134620000Y-117538625D01*
X135120550Y-117439059D01*
X135544896Y-117155521D01*
X135828434Y-116731175D01*
X135890000Y-116421663D01*
X135951566Y-116731175D01*
X136235104Y-117155521D01*
X136659450Y-117439059D01*
X137160000Y-117538625D01*
X137660550Y-117439059D01*
X138084896Y-117155521D01*
X138368434Y-116731175D01*
X138430000Y-116421663D01*
X138491566Y-116731175D01*
X138775104Y-117155521D01*
X139199450Y-117439059D01*
X139700000Y-117538625D01*
X140200550Y-117439059D01*
X140624896Y-117155521D01*
X140908434Y-116731175D01*
X140970000Y-116421663D01*
X141031566Y-116731175D01*
X141315104Y-117155521D01*
X141739450Y-117439059D01*
X142240000Y-117538625D01*
X142740550Y-117439059D01*
X143164896Y-117155521D01*
X143448434Y-116731175D01*
X143510000Y-116421663D01*
X143571566Y-116731175D01*
X143855104Y-117155521D01*
X144279450Y-117439059D01*
X144780000Y-117538625D01*
X145280550Y-117439059D01*
X145704896Y-117155521D01*
X145988434Y-116731175D01*
X146088000Y-116230625D01*
X146088000Y-116179375D01*
X145988434Y-115678825D01*
X145704896Y-115254479D01*
X145280550Y-114970941D01*
X144780000Y-114871375D01*
X144279450Y-114970941D01*
X143855104Y-115254479D01*
X143571566Y-115678825D01*
X143510000Y-115988337D01*
X143448434Y-115678825D01*
X143164896Y-115254479D01*
X142740550Y-114970941D01*
X142240000Y-114871375D01*
X141739450Y-114970941D01*
X141315104Y-115254479D01*
X141031566Y-115678825D01*
X140970000Y-115988337D01*
X140908434Y-115678825D01*
X140624896Y-115254479D01*
X140200550Y-114970941D01*
X139700000Y-114871375D01*
X139199450Y-114970941D01*
X138775104Y-115254479D01*
X138491566Y-115678825D01*
X138430000Y-115988337D01*
X138368434Y-115678825D01*
X138084896Y-115254479D01*
X137660550Y-114970941D01*
X137160000Y-114871375D01*
X136659450Y-114970941D01*
X136235104Y-115254479D01*
X135951566Y-115678825D01*
X135890000Y-115988337D01*
X135828434Y-115678825D01*
X135544896Y-115254479D01*
X135120550Y-114970941D01*
X134620000Y-114871375D01*
X134119450Y-114970941D01*
X133695104Y-115254479D01*
X133411566Y-115678825D01*
X133350000Y-115988337D01*
X133288434Y-115678825D01*
X133004896Y-115254479D01*
X132580550Y-114970941D01*
X132080000Y-114871375D01*
X131579450Y-114970941D01*
X131155104Y-115254479D01*
X130871566Y-115678825D01*
X130772000Y-116179375D01*
X102158000Y-116179375D01*
X102158000Y-51562000D01*
X102743000Y-51562000D01*
X102743000Y-53379041D01*
G36*
X137287000Y-56388000D02*
X137307000Y-56388000D01*
X137307000Y-56642000D01*
X137287000Y-56642000D01*
X137287000Y-56662000D01*
X137033000Y-56662000D01*
X137033000Y-56642000D01*
X137013000Y-56642000D01*
X137013000Y-56388000D01*
X137033000Y-56388000D01*
X137033000Y-56368000D01*
X137287000Y-56368000D01*
X137287000Y-56388000D01*
X137287000Y-56388000D01*
G37*
X137287000Y-56388000D02*
X137307000Y-56388000D01*
X137307000Y-56642000D01*
X137287000Y-56642000D01*
X137287000Y-56662000D01*
X137033000Y-56662000D01*
X137033000Y-56642000D01*
X137013000Y-56642000D01*
X137013000Y-56388000D01*
X137033000Y-56388000D01*
X137033000Y-56368000D01*
X137287000Y-56368000D01*
X137287000Y-56388000D01*
G36*
X160030930Y-53317336D02*
X159967243Y-53163200D01*
X159563923Y-52759176D01*
X159036691Y-52540250D01*
X158465813Y-52539752D01*
X157938200Y-52757757D01*
X157545773Y-53149500D01*
X156225204Y-53149500D01*
X155909298Y-53212337D01*
X155802028Y-53284013D01*
X155641487Y-53391283D01*
X155641485Y-53391286D01*
X155343270Y-53689500D01*
X155112642Y-53689500D01*
X155073162Y-53479683D01*
X154934090Y-53263559D01*
X154721890Y-53118569D01*
X154470000Y-53067560D01*
X152870000Y-53067560D01*
X152634683Y-53111838D01*
X152418559Y-53250910D01*
X152273569Y-53463110D01*
X152222560Y-53715000D01*
X152222560Y-55315000D01*
X152266838Y-55550317D01*
X152405910Y-55766441D01*
X152412548Y-55770977D01*
X152223035Y-56298223D01*
X152250222Y-56868454D01*
X152416136Y-57269005D01*
X152662255Y-57343139D01*
X153490395Y-56515000D01*
X153476252Y-56500858D01*
X153655858Y-56321253D01*
X153670000Y-56335395D01*
X153684143Y-56321253D01*
X153863748Y-56500858D01*
X153849605Y-56515000D01*
X154677745Y-57343139D01*
X154923864Y-57269005D01*
X155116965Y-56731777D01*
X155094388Y-56258223D01*
X157303035Y-56258223D01*
X157330222Y-56828454D01*
X157496136Y-57229005D01*
X157742255Y-57303139D01*
X158570395Y-56475000D01*
X157742255Y-55646861D01*
X157496136Y-55720995D01*
X157303035Y-56258223D01*
X155094388Y-56258223D01*
X155089778Y-56161546D01*
X154927616Y-55770053D01*
X155066431Y-55566890D01*
X155112276Y-55340500D01*
X155685204Y-55340500D01*
X156001110Y-55277663D01*
X156268921Y-55098717D01*
X156567137Y-54800500D01*
X157546433Y-54800500D01*
X157936077Y-55190824D01*
X158002544Y-55218423D01*
X157995995Y-55221136D01*
X157921861Y-55467255D01*
X158750000Y-56295395D01*
X158764142Y-56281252D01*
X158943748Y-56460858D01*
X158929605Y-56475000D01*
X158943748Y-56489142D01*
X158764142Y-56668748D01*
X158750000Y-56654605D01*
X157921861Y-57482745D01*
X157995995Y-57728864D01*
X158533223Y-57921965D01*
X159103454Y-57894778D01*
X159368698Y-57784910D01*
X159368698Y-58393568D01*
X154356283Y-63405983D01*
X154177337Y-63673794D01*
X154177337Y-63673795D01*
X154114500Y-63989700D01*
X154114500Y-65177560D01*
X154090000Y-65177560D01*
X153854683Y-65221838D01*
X153638559Y-65360910D01*
X153493569Y-65573110D01*
X153442560Y-65825000D01*
X153442560Y-67525000D01*
X153486838Y-67760317D01*
X153625910Y-67976441D01*
X153838110Y-68121431D01*
X153946107Y-68143301D01*
X153668355Y-68448076D01*
X153498524Y-68858110D01*
X153619845Y-69088000D01*
X154813000Y-69088000D01*
X154813000Y-69068000D01*
X155067000Y-69068000D01*
X155067000Y-69088000D01*
X155087000Y-69088000D01*
X155087000Y-69342000D01*
X155067000Y-69342000D01*
X155067000Y-70535819D01*
X155296892Y-70656486D01*
X155821358Y-70410183D01*
X156044700Y-70165111D01*
X156044700Y-76014653D01*
X155991890Y-75978569D01*
X155740000Y-75927560D01*
X154140000Y-75927560D01*
X153904683Y-75971838D01*
X153688559Y-76110910D01*
X153543569Y-76323110D01*
X153492560Y-76575000D01*
X153492560Y-78175000D01*
X153536838Y-78410317D01*
X153675910Y-78626441D01*
X153682548Y-78630977D01*
X153493035Y-79158223D01*
X153520222Y-79728454D01*
X153686136Y-80129005D01*
X153932255Y-80203139D01*
X154760395Y-79375000D01*
X154746252Y-79360858D01*
X154925858Y-79181253D01*
X154940000Y-79195395D01*
X154954143Y-79181253D01*
X155133748Y-79360858D01*
X155119605Y-79375000D01*
X155133748Y-79389142D01*
X154954142Y-79568748D01*
X154940000Y-79554605D01*
X154111861Y-80382745D01*
X154185995Y-80628864D01*
X154723223Y-80821965D01*
X155280469Y-80795397D01*
X154376283Y-81699583D01*
X154268515Y-81860869D01*
X153926777Y-81738035D01*
X153356546Y-81765222D01*
X152955995Y-81931136D01*
X152881861Y-82177255D01*
X153710000Y-83005395D01*
X153724142Y-82991252D01*
X153903748Y-83170858D01*
X153889605Y-83185000D01*
X153903748Y-83199143D01*
X153724142Y-83378748D01*
X153710000Y-83364605D01*
X152881861Y-84192745D01*
X152955995Y-84438864D01*
X153493223Y-84631965D01*
X154063454Y-84604778D01*
X154134500Y-84575350D01*
X154134500Y-88037560D01*
X154090000Y-88037560D01*
X153854683Y-88081838D01*
X153638559Y-88220910D01*
X153493569Y-88433110D01*
X153442560Y-88685000D01*
X153442560Y-90385000D01*
X153486838Y-90620317D01*
X153625910Y-90836441D01*
X153838110Y-90981431D01*
X153946107Y-91003301D01*
X153668355Y-91308076D01*
X153498524Y-91718110D01*
X153619845Y-91948000D01*
X154813000Y-91948000D01*
X154813000Y-91928000D01*
X155067000Y-91928000D01*
X155067000Y-91948000D01*
X156260155Y-91948000D01*
X156381476Y-91718110D01*
X156211645Y-91308076D01*
X155935499Y-91005063D01*
X156025317Y-90988162D01*
X156241441Y-90849090D01*
X156386431Y-90636890D01*
X156437440Y-90385000D01*
X156437440Y-88685000D01*
X156393162Y-88449683D01*
X156254090Y-88233559D01*
X156041890Y-88088569D01*
X155790000Y-88037560D01*
X155785500Y-88037560D01*
X155785500Y-84562527D01*
X155923309Y-84619750D01*
X156494187Y-84620248D01*
X157021800Y-84402243D01*
X157425824Y-83998923D01*
X157644750Y-83471691D01*
X157645168Y-82992299D01*
X159308817Y-81328650D01*
X159487763Y-81060839D01*
X159550601Y-80744933D01*
X159550600Y-80744928D01*
X159550600Y-80198199D01*
X170075761Y-80198199D01*
X169986887Y-80645000D01*
X170096120Y-81194151D01*
X170407189Y-81659698D01*
X170811703Y-81929986D01*
X170594866Y-82032611D01*
X170218959Y-82447577D01*
X170058096Y-82835961D01*
X170180085Y-83058000D01*
X171323000Y-83058000D01*
X171323000Y-83038000D01*
X171577000Y-83038000D01*
X171577000Y-83058000D01*
X172719915Y-83058000D01*
X172841904Y-82835961D01*
X172681041Y-82447577D01*
X172305134Y-82032611D01*
X172088297Y-81929986D01*
X172492811Y-81659698D01*
X172803880Y-81194151D01*
X172913113Y-80645000D01*
X172824239Y-80198199D01*
X176557501Y-80198199D01*
X176873407Y-80135362D01*
X177141218Y-79956416D01*
X178007461Y-79090173D01*
X178027189Y-79119698D01*
X178409275Y-79375000D01*
X178027189Y-79630302D01*
X177716120Y-80095849D01*
X177606887Y-80645000D01*
X177716120Y-81194151D01*
X178027189Y-81659698D01*
X178409275Y-81915000D01*
X178027189Y-82170302D01*
X177716120Y-82635849D01*
X177606887Y-83185000D01*
X177716120Y-83734151D01*
X178027189Y-84199698D01*
X178431703Y-84469986D01*
X178214866Y-84572611D01*
X177838959Y-84987577D01*
X177678096Y-85375961D01*
X177800085Y-85598000D01*
X178943000Y-85598000D01*
X178943000Y-85578000D01*
X179197000Y-85578000D01*
X179197000Y-85598000D01*
X180339915Y-85598000D01*
X180461904Y-85375961D01*
X180301041Y-84987577D01*
X179925134Y-84572611D01*
X179708297Y-84469986D01*
X180112811Y-84199698D01*
X180423880Y-83734151D01*
X180533113Y-83185000D01*
X180423880Y-82635849D01*
X180112811Y-82170302D01*
X179730725Y-81915000D01*
X180112811Y-81659698D01*
X180423880Y-81194151D01*
X180533113Y-80645000D01*
X180423880Y-80095849D01*
X180112811Y-79630302D01*
X179730725Y-79375000D01*
X180112811Y-79119698D01*
X180423880Y-78654151D01*
X180533113Y-78105000D01*
X180423880Y-77555849D01*
X180112811Y-77090302D01*
X179647264Y-76779233D01*
X179098113Y-76670000D01*
X179041887Y-76670000D01*
X178492736Y-76779233D01*
X178027189Y-77090302D01*
X177900771Y-77279500D01*
X177825200Y-77279500D01*
X177509294Y-77342337D01*
X177241483Y-77521283D01*
X176215567Y-78547199D01*
X172897440Y-78547199D01*
X172897440Y-77305000D01*
X172853162Y-77069683D01*
X172714090Y-76853559D01*
X172501890Y-76708569D01*
X172250000Y-76657560D01*
X170650000Y-76657560D01*
X170414683Y-76701838D01*
X170198559Y-76840910D01*
X170161858Y-76894624D01*
X169302234Y-76035000D01*
X183972560Y-76035000D01*
X183972560Y-77635000D01*
X184016838Y-77870317D01*
X184155910Y-78086441D01*
X184368110Y-78231431D01*
X184512375Y-78260645D01*
X184405302Y-78332189D01*
X184094233Y-78797736D01*
X183985000Y-79346887D01*
X183985000Y-79403113D01*
X184094233Y-79952264D01*
X184405302Y-80417811D01*
X184745314Y-80645000D01*
X184405302Y-80872189D01*
X184094233Y-81337736D01*
X183985000Y-81886887D01*
X183985000Y-81943113D01*
X184094233Y-82492264D01*
X184405302Y-82957811D01*
X184745314Y-83185000D01*
X184405302Y-83412189D01*
X184094233Y-83877736D01*
X183985000Y-84426887D01*
X183985000Y-84483113D01*
X184094233Y-85032264D01*
X184405302Y-85497811D01*
X184745314Y-85725000D01*
X184405302Y-85952189D01*
X184094233Y-86417736D01*
X183985000Y-86966887D01*
X183985000Y-87023113D01*
X184094233Y-87572264D01*
X184405302Y-88037811D01*
X184745314Y-88265000D01*
X184405302Y-88492189D01*
X184094233Y-88957736D01*
X183985000Y-89506887D01*
X183985000Y-89563113D01*
X184094233Y-90112264D01*
X184405302Y-90577811D01*
X184745314Y-90805000D01*
X184405302Y-91032189D01*
X184094233Y-91497736D01*
X183985000Y-92046887D01*
X183985000Y-92103113D01*
X184094233Y-92652264D01*
X184405302Y-93117811D01*
X184745314Y-93345000D01*
X184405302Y-93572189D01*
X184094233Y-94037736D01*
X183985000Y-94586887D01*
X183985000Y-94643113D01*
X184094233Y-95192264D01*
X184405302Y-95657811D01*
X184870849Y-95968880D01*
X185420000Y-96078113D01*
X185969151Y-95968880D01*
X186434698Y-95657811D01*
X186745767Y-95192264D01*
X186855000Y-94643113D01*
X186855000Y-94586887D01*
X186745767Y-94037736D01*
X186434698Y-93572189D01*
X186094686Y-93345000D01*
X186434698Y-93117811D01*
X186745767Y-92652264D01*
X186855000Y-92103113D01*
X186855000Y-92075000D01*
X192795907Y-92075000D01*
X192908946Y-92643285D01*
X193230853Y-93125054D01*
X193560026Y-93345000D01*
X193230853Y-93564946D01*
X192908946Y-94046715D01*
X192795907Y-94615000D01*
X192908946Y-95183285D01*
X193230853Y-95665054D01*
X193272452Y-95692850D01*
X193224683Y-95701838D01*
X193008559Y-95840910D01*
X192863569Y-96053110D01*
X192812560Y-96305000D01*
X192812560Y-98005000D01*
X192856838Y-98240317D01*
X192995910Y-98456441D01*
X193208110Y-98601431D01*
X193460000Y-98652440D01*
X195160000Y-98652440D01*
X195395317Y-98608162D01*
X195611441Y-98469090D01*
X195756431Y-98256890D01*
X195807440Y-98005000D01*
X195807440Y-96305000D01*
X195763162Y-96069683D01*
X195624090Y-95853559D01*
X195411890Y-95708569D01*
X195344459Y-95694914D01*
X195389147Y-95665054D01*
X195711054Y-95183285D01*
X195824093Y-94615000D01*
X195711054Y-94046715D01*
X195389147Y-93564946D01*
X195059974Y-93345000D01*
X195389147Y-93125054D01*
X195711054Y-92643285D01*
X195824093Y-92075000D01*
X195711054Y-91506715D01*
X195389147Y-91024946D01*
X194907378Y-90703039D01*
X194339093Y-90590000D01*
X194280907Y-90590000D01*
X193712622Y-90703039D01*
X193230853Y-91024946D01*
X192908946Y-91506715D01*
X192795907Y-92075000D01*
X186855000Y-92075000D01*
X186855000Y-92046887D01*
X186745767Y-91497736D01*
X186434698Y-91032189D01*
X186094686Y-90805000D01*
X186434698Y-90577811D01*
X186745767Y-90112264D01*
X186855000Y-89563113D01*
X186855000Y-89506887D01*
X186745767Y-88957736D01*
X186434698Y-88492189D01*
X186094686Y-88265000D01*
X186434698Y-88037811D01*
X186745767Y-87572264D01*
X186855000Y-87023113D01*
X186855000Y-86966887D01*
X186745767Y-86417736D01*
X186434698Y-85952189D01*
X186094686Y-85725000D01*
X186434698Y-85497811D01*
X186745767Y-85032264D01*
X186855000Y-84483113D01*
X186855000Y-84426887D01*
X186745767Y-83877736D01*
X186434698Y-83412189D01*
X186094686Y-83185000D01*
X186434698Y-82957811D01*
X186745767Y-82492264D01*
X186855000Y-81943113D01*
X186855000Y-81886887D01*
X186745767Y-81337736D01*
X186434698Y-80872189D01*
X186094686Y-80645000D01*
X186434698Y-80417811D01*
X186745767Y-79952264D01*
X186855000Y-79403113D01*
X186855000Y-79346887D01*
X186745767Y-78797736D01*
X186434698Y-78332189D01*
X186329428Y-78261850D01*
X186455317Y-78238162D01*
X186671441Y-78099090D01*
X186816431Y-77886890D01*
X186867440Y-77635000D01*
X186867440Y-76835000D01*
X192795907Y-76835000D01*
X192908946Y-77403285D01*
X193230853Y-77885054D01*
X193560026Y-78105000D01*
X193230853Y-78324946D01*
X192908946Y-78806715D01*
X192795907Y-79375000D01*
X192908946Y-79943285D01*
X193230853Y-80425054D01*
X193272452Y-80452850D01*
X193224683Y-80461838D01*
X193008559Y-80600910D01*
X192863569Y-80813110D01*
X192812560Y-81065000D01*
X192812560Y-82765000D01*
X192856838Y-83000317D01*
X192995910Y-83216441D01*
X193208110Y-83361431D01*
X193460000Y-83412440D01*
X195160000Y-83412440D01*
X195395317Y-83368162D01*
X195611441Y-83229090D01*
X195756431Y-83016890D01*
X195807440Y-82765000D01*
X195807440Y-81065000D01*
X195763162Y-80829683D01*
X195624090Y-80613559D01*
X195411890Y-80468569D01*
X195344459Y-80454914D01*
X195389147Y-80425054D01*
X195711054Y-79943285D01*
X195824093Y-79375000D01*
X195711054Y-78806715D01*
X195389147Y-78324946D01*
X195059974Y-78105000D01*
X195389147Y-77885054D01*
X195711054Y-77403285D01*
X195824093Y-76835000D01*
X195711054Y-76266715D01*
X195389147Y-75784946D01*
X194907378Y-75463039D01*
X194339093Y-75350000D01*
X194280907Y-75350000D01*
X193712622Y-75463039D01*
X193230853Y-75784946D01*
X192908946Y-76266715D01*
X192795907Y-76835000D01*
X186867440Y-76835000D01*
X186867440Y-76035000D01*
X186823162Y-75799683D01*
X186684090Y-75583559D01*
X186471890Y-75438569D01*
X186220000Y-75387560D01*
X184620000Y-75387560D01*
X184384683Y-75431838D01*
X184168559Y-75570910D01*
X184023569Y-75783110D01*
X183972560Y-76035000D01*
X169302234Y-76035000D01*
X161898517Y-68631283D01*
X161630706Y-68452337D01*
X161314800Y-68389500D01*
X161249189Y-68389500D01*
X161099147Y-68164946D01*
X161057548Y-68137150D01*
X161105317Y-68128162D01*
X161321441Y-67989090D01*
X161466431Y-67776890D01*
X161517440Y-67525000D01*
X161517440Y-65825000D01*
X161473162Y-65589683D01*
X161334090Y-65373559D01*
X161121890Y-65228569D01*
X160870000Y-65177560D01*
X160845500Y-65177560D01*
X160845500Y-64675732D01*
X162670817Y-62850415D01*
X162849763Y-62582604D01*
X162912601Y-62266698D01*
X162912600Y-62266693D01*
X162912600Y-57649511D01*
X163063076Y-57786645D01*
X163473110Y-57956476D01*
X163703000Y-57835155D01*
X163703000Y-56642000D01*
X163683000Y-56642000D01*
X163683000Y-56388000D01*
X163703000Y-56388000D01*
X163703000Y-56368000D01*
X163957000Y-56368000D01*
X163957000Y-56388000D01*
X163977000Y-56388000D01*
X163977000Y-56642000D01*
X163957000Y-56642000D01*
X163957000Y-57835155D01*
X164186890Y-57956476D01*
X164596924Y-57786645D01*
X165025183Y-57396358D01*
X165092298Y-57253447D01*
X165319946Y-57594147D01*
X165801715Y-57916054D01*
X166370000Y-58029093D01*
X166938285Y-57916054D01*
X167420054Y-57594147D01*
X167640000Y-57264974D01*
X167859946Y-57594147D01*
X168341715Y-57916054D01*
X168910000Y-58029093D01*
X169478285Y-57916054D01*
X169960054Y-57594147D01*
X170180000Y-57264974D01*
X170399946Y-57594147D01*
X170881715Y-57916054D01*
X171450000Y-58029093D01*
X172018285Y-57916054D01*
X172500054Y-57594147D01*
X172720000Y-57264974D01*
X172939946Y-57594147D01*
X173421715Y-57916054D01*
X173990000Y-58029093D01*
X174558285Y-57916054D01*
X175040054Y-57594147D01*
X175361961Y-57112378D01*
X175475000Y-56544093D01*
X175475000Y-56485907D01*
X175361961Y-55917622D01*
X175040054Y-55435853D01*
X174754422Y-55245000D01*
X175040054Y-55054147D01*
X175361961Y-54572378D01*
X175475000Y-54004093D01*
X175475000Y-53945907D01*
X175361961Y-53377622D01*
X175040054Y-52895853D01*
X174558285Y-52573946D01*
X173990000Y-52460907D01*
X173700855Y-52518421D01*
X172744434Y-51562000D01*
X197358000Y-51562000D01*
X197358000Y-149733000D01*
X150622000Y-149733000D01*
X150622000Y-147034039D01*
X170058096Y-147034039D01*
X170218959Y-147422423D01*
X170594866Y-147837389D01*
X171100959Y-148076914D01*
X171323000Y-147955629D01*
X171323000Y-146812000D01*
X171577000Y-146812000D01*
X171577000Y-147955629D01*
X171799041Y-148076914D01*
X172305134Y-147837389D01*
X172681041Y-147422423D01*
X172841904Y-147034039D01*
X172719915Y-146812000D01*
X171577000Y-146812000D01*
X171323000Y-146812000D01*
X170180085Y-146812000D01*
X170058096Y-147034039D01*
X150622000Y-147034039D01*
X150622000Y-146685000D01*
X177606887Y-146685000D01*
X177716120Y-147234151D01*
X178027189Y-147699698D01*
X178492736Y-148010767D01*
X179041887Y-148120000D01*
X179098113Y-148120000D01*
X179647264Y-148010767D01*
X180112811Y-147699698D01*
X180423880Y-147234151D01*
X180532021Y-146690486D01*
X185674120Y-146690486D01*
X185793586Y-146974984D01*
X186464890Y-147229894D01*
X187182646Y-147208504D01*
X187746414Y-146974984D01*
X187865880Y-146690486D01*
X186770000Y-145594605D01*
X185674120Y-146690486D01*
X180532021Y-146690486D01*
X180533113Y-146685000D01*
X180423880Y-146135849D01*
X180112811Y-145670302D01*
X179708297Y-145400014D01*
X179925134Y-145297389D01*
X180094984Y-145109890D01*
X184955106Y-145109890D01*
X184976496Y-145827646D01*
X185210016Y-146391414D01*
X185494514Y-146510880D01*
X186590395Y-145415000D01*
X186949605Y-145415000D01*
X188045486Y-146510880D01*
X188329984Y-146391414D01*
X188584894Y-145720110D01*
X188563504Y-145002354D01*
X188329984Y-144438586D01*
X188045486Y-144319120D01*
X186949605Y-145415000D01*
X186590395Y-145415000D01*
X185494514Y-144319120D01*
X185210016Y-144438586D01*
X184955106Y-145109890D01*
X180094984Y-145109890D01*
X180301041Y-144882423D01*
X180461904Y-144494039D01*
X180339915Y-144272000D01*
X179197000Y-144272000D01*
X179197000Y-144292000D01*
X178943000Y-144292000D01*
X178943000Y-144272000D01*
X177800085Y-144272000D01*
X177678096Y-144494039D01*
X177838959Y-144882423D01*
X178214866Y-145297389D01*
X178431703Y-145400014D01*
X178027189Y-145670302D01*
X177716120Y-146135849D01*
X177606887Y-146685000D01*
X150622000Y-146685000D01*
X150622000Y-142875000D01*
X158505907Y-142875000D01*
X158618946Y-143443285D01*
X158940853Y-143925054D01*
X159422622Y-144246961D01*
X159990907Y-144360000D01*
X160049093Y-144360000D01*
X160617378Y-144246961D01*
X161099147Y-143925054D01*
X161421054Y-143443285D01*
X161534093Y-142875000D01*
X161421054Y-142306715D01*
X161099147Y-141824946D01*
X160758447Y-141597298D01*
X160901358Y-141530183D01*
X161291645Y-141101924D01*
X161461476Y-140691890D01*
X161340155Y-140462000D01*
X160147000Y-140462000D01*
X160147000Y-140482000D01*
X159893000Y-140482000D01*
X159893000Y-140462000D01*
X158699845Y-140462000D01*
X158578524Y-140691890D01*
X158748355Y-141101924D01*
X159138642Y-141530183D01*
X159281553Y-141597298D01*
X158940853Y-141824946D01*
X158618946Y-142306715D01*
X158505907Y-142875000D01*
X150622000Y-142875000D01*
X150622000Y-138151890D01*
X153498524Y-138151890D01*
X153668355Y-138561924D01*
X154058642Y-138990183D01*
X154583108Y-139236486D01*
X154813000Y-139115819D01*
X154813000Y-137922000D01*
X155067000Y-137922000D01*
X155067000Y-139115819D01*
X155296892Y-139236486D01*
X155821358Y-138990183D01*
X156211645Y-138561924D01*
X156381476Y-138151890D01*
X156260155Y-137922000D01*
X155067000Y-137922000D01*
X154813000Y-137922000D01*
X153619845Y-137922000D01*
X153498524Y-138151890D01*
X150622000Y-138151890D01*
X150622000Y-137795000D01*
X158505907Y-137795000D01*
X158618946Y-138363285D01*
X158940853Y-138845054D01*
X159281553Y-139072702D01*
X159138642Y-139139817D01*
X158748355Y-139568076D01*
X158578524Y-139978110D01*
X158699845Y-140208000D01*
X159893000Y-140208000D01*
X159893000Y-140188000D01*
X160147000Y-140188000D01*
X160147000Y-140208000D01*
X161340155Y-140208000D01*
X161461476Y-139978110D01*
X161291645Y-139568076D01*
X160901358Y-139139817D01*
X160758447Y-139072702D01*
X161099147Y-138845054D01*
X161249189Y-138620500D01*
X170002560Y-138620500D01*
X170002560Y-139865000D01*
X170046838Y-140100317D01*
X170185910Y-140316441D01*
X170398110Y-140461431D01*
X170553089Y-140492815D01*
X170407189Y-140590302D01*
X170096120Y-141055849D01*
X169986887Y-141605000D01*
X170096120Y-142154151D01*
X170407189Y-142619698D01*
X170789275Y-142875000D01*
X170407189Y-143130302D01*
X170096120Y-143595849D01*
X169986887Y-144145000D01*
X170096120Y-144694151D01*
X170407189Y-145159698D01*
X170811703Y-145429986D01*
X170594866Y-145532611D01*
X170218959Y-145947577D01*
X170058096Y-146335961D01*
X170180085Y-146558000D01*
X171323000Y-146558000D01*
X171323000Y-146538000D01*
X171577000Y-146538000D01*
X171577000Y-146558000D01*
X172719915Y-146558000D01*
X172841904Y-146335961D01*
X172681041Y-145947577D01*
X172305134Y-145532611D01*
X172088297Y-145429986D01*
X172492811Y-145159698D01*
X172619229Y-144970500D01*
X172694800Y-144970500D01*
X173010706Y-144907663D01*
X173278517Y-144728717D01*
X174275704Y-143731530D01*
X177704782Y-143731530D01*
X177678096Y-143795961D01*
X177800085Y-144018000D01*
X178943000Y-144018000D01*
X178943000Y-143998000D01*
X179197000Y-143998000D01*
X179197000Y-144018000D01*
X180339915Y-144018000D01*
X180461904Y-143795961D01*
X180435218Y-143731530D01*
X186091708Y-143731530D01*
X185793586Y-143855016D01*
X185674120Y-144139514D01*
X186770000Y-145235395D01*
X187865880Y-144139514D01*
X187746414Y-143855016D01*
X187421214Y-143731530D01*
X190154370Y-143731530D01*
X190238903Y-143936115D01*
X190746215Y-144444312D01*
X191409388Y-144719686D01*
X192127462Y-144720313D01*
X192791115Y-144446097D01*
X193299312Y-143938785D01*
X193574686Y-143275612D01*
X193575313Y-142557538D01*
X193301097Y-141893885D01*
X192793785Y-141385688D01*
X192130612Y-141110314D01*
X191412538Y-141109687D01*
X190748885Y-141383903D01*
X190240688Y-141891215D01*
X190162077Y-142080530D01*
X187465762Y-142080530D01*
X187791115Y-141946097D01*
X188299312Y-141438785D01*
X188574686Y-140775612D01*
X188575313Y-140057538D01*
X188301097Y-139393885D01*
X187793785Y-138885688D01*
X187130612Y-138610314D01*
X186412538Y-138609687D01*
X185748885Y-138883903D01*
X185240688Y-139391215D01*
X184965314Y-140054388D01*
X184964687Y-140772462D01*
X185238903Y-141436115D01*
X185746215Y-141944312D01*
X186074264Y-142080530D01*
X180438524Y-142080530D01*
X180533113Y-141605000D01*
X180423880Y-141055849D01*
X180112811Y-140590302D01*
X179730725Y-140335000D01*
X180112811Y-140079698D01*
X180423880Y-139614151D01*
X180533113Y-139065000D01*
X180423880Y-138515849D01*
X180112811Y-138050302D01*
X179647264Y-137739233D01*
X179098113Y-137630000D01*
X179041887Y-137630000D01*
X178492736Y-137739233D01*
X178027189Y-138050302D01*
X178007461Y-138079827D01*
X177138917Y-137211283D01*
X176974801Y-137101624D01*
X174064204Y-134191027D01*
X174587378Y-134086961D01*
X175069147Y-133765054D01*
X175260000Y-133479422D01*
X175450853Y-133765054D01*
X175932622Y-134086961D01*
X176500907Y-134200000D01*
X176559093Y-134200000D01*
X177127378Y-134086961D01*
X177609147Y-133765054D01*
X177800000Y-133479422D01*
X177990853Y-133765054D01*
X178472622Y-134086961D01*
X179040907Y-134200000D01*
X179099093Y-134200000D01*
X179667378Y-134086961D01*
X180149147Y-133765054D01*
X180340000Y-133479422D01*
X180530853Y-133765054D01*
X181012622Y-134086961D01*
X181580907Y-134200000D01*
X181639093Y-134200000D01*
X182207378Y-134086961D01*
X182689147Y-133765054D01*
X182878345Y-133481899D01*
X182878355Y-133481924D01*
X183268642Y-133910183D01*
X183793108Y-134156486D01*
X184023000Y-134035819D01*
X184023000Y-132842000D01*
X184277000Y-132842000D01*
X184277000Y-134035819D01*
X184506892Y-134156486D01*
X185031358Y-133910183D01*
X185421645Y-133481924D01*
X185591476Y-133071890D01*
X185470155Y-132842000D01*
X184277000Y-132842000D01*
X184023000Y-132842000D01*
X184003000Y-132842000D01*
X184003000Y-132588000D01*
X184023000Y-132588000D01*
X184023000Y-132568000D01*
X184277000Y-132568000D01*
X184277000Y-132588000D01*
X185470155Y-132588000D01*
X185591476Y-132358110D01*
X185421645Y-131948076D01*
X185031358Y-131519817D01*
X184888447Y-131452702D01*
X185229147Y-131225054D01*
X185551054Y-130743285D01*
X185664093Y-130175000D01*
X185551054Y-129606715D01*
X185229147Y-129124946D01*
X184899974Y-128905000D01*
X185229147Y-128685054D01*
X185551054Y-128203285D01*
X185664093Y-127635000D01*
X185551054Y-127066715D01*
X185229147Y-126584946D01*
X184899974Y-126365000D01*
X185229147Y-126145054D01*
X185551054Y-125663285D01*
X185664093Y-125095000D01*
X185551054Y-124526715D01*
X185229147Y-124044946D01*
X184747378Y-123723039D01*
X184179093Y-123610000D01*
X184120907Y-123610000D01*
X183552622Y-123723039D01*
X183070853Y-124044946D01*
X183070029Y-124046179D01*
X183063162Y-124009683D01*
X182924090Y-123793559D01*
X182711890Y-123648569D01*
X182460000Y-123597560D01*
X180760000Y-123597560D01*
X180524683Y-123641838D01*
X180308559Y-123780910D01*
X180163569Y-123993110D01*
X180152159Y-124049454D01*
X180149147Y-124044946D01*
X179667378Y-123723039D01*
X179099093Y-123610000D01*
X179040907Y-123610000D01*
X178472622Y-123723039D01*
X177990853Y-124044946D01*
X177990029Y-124046179D01*
X177983162Y-124009683D01*
X177844090Y-123793559D01*
X177631890Y-123648569D01*
X177380000Y-123597560D01*
X175680000Y-123597560D01*
X175444683Y-123641838D01*
X175228559Y-123780910D01*
X175083569Y-123993110D01*
X175072159Y-124049454D01*
X175069147Y-124044946D01*
X174587378Y-123723039D01*
X174019093Y-123610000D01*
X173960907Y-123610000D01*
X173392622Y-123723039D01*
X172910853Y-124044946D01*
X172910029Y-124046179D01*
X172903162Y-124009683D01*
X172764090Y-123793559D01*
X172551890Y-123648569D01*
X172300000Y-123597560D01*
X170600000Y-123597560D01*
X170364683Y-123641838D01*
X170148559Y-123780910D01*
X170003569Y-123993110D01*
X169952560Y-124245000D01*
X169952560Y-125945000D01*
X169996838Y-126180317D01*
X170135910Y-126396441D01*
X170348110Y-126541431D01*
X170415541Y-126555086D01*
X170370853Y-126584946D01*
X170048946Y-127066715D01*
X169935907Y-127635000D01*
X170048946Y-128203285D01*
X170370853Y-128685054D01*
X170700026Y-128905000D01*
X170370853Y-129124946D01*
X170048946Y-129606715D01*
X169935907Y-130175000D01*
X170048946Y-130743285D01*
X170370853Y-131225054D01*
X170675160Y-131428385D01*
X170609914Y-131455344D01*
X170191812Y-131872717D01*
X169965258Y-132418319D01*
X169964743Y-133009089D01*
X170190344Y-133555086D01*
X170607717Y-133973188D01*
X171153319Y-134199742D01*
X171744089Y-134200257D01*
X171972033Y-134106073D01*
X172005584Y-134274747D01*
X172176271Y-134530198D01*
X174615573Y-136969500D01*
X161249189Y-136969500D01*
X161099147Y-136744946D01*
X161057548Y-136717150D01*
X161105317Y-136708162D01*
X161321441Y-136569090D01*
X161466431Y-136356890D01*
X161517440Y-136105000D01*
X161517440Y-134405000D01*
X161473162Y-134169683D01*
X161334090Y-133953559D01*
X161121890Y-133808569D01*
X160870000Y-133757560D01*
X159170000Y-133757560D01*
X158934683Y-133801838D01*
X158718559Y-133940910D01*
X158573569Y-134153110D01*
X158522560Y-134405000D01*
X158522560Y-136105000D01*
X158566838Y-136340317D01*
X158705910Y-136556441D01*
X158918110Y-136701431D01*
X158985541Y-136715086D01*
X158940853Y-136744946D01*
X158618946Y-137226715D01*
X158505907Y-137795000D01*
X150622000Y-137795000D01*
X150622000Y-134405000D01*
X153442560Y-134405000D01*
X153442560Y-136105000D01*
X153486838Y-136340317D01*
X153625910Y-136556441D01*
X153838110Y-136701431D01*
X153946107Y-136723301D01*
X153668355Y-137028076D01*
X153498524Y-137438110D01*
X153619845Y-137668000D01*
X154813000Y-137668000D01*
X154813000Y-137648000D01*
X155067000Y-137648000D01*
X155067000Y-137668000D01*
X156260155Y-137668000D01*
X156381476Y-137438110D01*
X156211645Y-137028076D01*
X155935499Y-136725063D01*
X156025317Y-136708162D01*
X156241441Y-136569090D01*
X156386431Y-136356890D01*
X156437440Y-136105000D01*
X156437440Y-134405000D01*
X156393162Y-134169683D01*
X156254090Y-133953559D01*
X156041890Y-133808569D01*
X155790000Y-133757560D01*
X154090000Y-133757560D01*
X153854683Y-133801838D01*
X153638559Y-133940910D01*
X153493569Y-134153110D01*
X153442560Y-134405000D01*
X150622000Y-134405000D01*
X150622000Y-129912745D01*
X152881861Y-129912745D01*
X152955995Y-130158864D01*
X153493223Y-130351965D01*
X154063454Y-130324778D01*
X154464005Y-130158864D01*
X154538139Y-129912745D01*
X153710000Y-129084605D01*
X152881861Y-129912745D01*
X150622000Y-129912745D01*
X150622000Y-128688223D01*
X152263035Y-128688223D01*
X152290222Y-129258454D01*
X152456136Y-129659005D01*
X152702255Y-129733139D01*
X153530395Y-128905000D01*
X153889605Y-128905000D01*
X154717745Y-129733139D01*
X154963864Y-129659005D01*
X154966196Y-129652517D01*
X154992757Y-129716800D01*
X155396077Y-130120824D01*
X155923309Y-130339750D01*
X156494187Y-130340248D01*
X157021800Y-130122243D01*
X157425824Y-129718923D01*
X157644750Y-129191691D01*
X157645248Y-128620813D01*
X157427243Y-128093200D01*
X157023923Y-127689176D01*
X156496691Y-127470250D01*
X155925813Y-127469752D01*
X155398200Y-127687757D01*
X154994176Y-128091077D01*
X154966577Y-128157544D01*
X154963864Y-128150995D01*
X154717745Y-128076861D01*
X153889605Y-128905000D01*
X153530395Y-128905000D01*
X152702255Y-128076861D01*
X152456136Y-128150995D01*
X152263035Y-128688223D01*
X150622000Y-128688223D01*
X150622000Y-127897255D01*
X152881861Y-127897255D01*
X153710000Y-128725395D01*
X154538139Y-127897255D01*
X154464005Y-127651136D01*
X153926777Y-127458035D01*
X153356546Y-127485222D01*
X152955995Y-127651136D01*
X152881861Y-127897255D01*
X150622000Y-127897255D01*
X150622000Y-126102745D01*
X154111861Y-126102745D01*
X154185995Y-126348864D01*
X154723223Y-126541965D01*
X155293454Y-126514778D01*
X155694005Y-126348864D01*
X155768139Y-126102745D01*
X154940000Y-125274605D01*
X154111861Y-126102745D01*
X150622000Y-126102745D01*
X150622000Y-122295000D01*
X153492560Y-122295000D01*
X153492560Y-123895000D01*
X153536838Y-124130317D01*
X153675910Y-124346441D01*
X153682548Y-124350977D01*
X153493035Y-124878223D01*
X153520222Y-125448454D01*
X153686136Y-125849005D01*
X153932255Y-125923139D01*
X154760395Y-125095000D01*
X154746252Y-125080858D01*
X154925858Y-124901253D01*
X154940000Y-124915395D01*
X154954143Y-124901253D01*
X155133748Y-125080858D01*
X155119605Y-125095000D01*
X155947745Y-125923139D01*
X156193864Y-125849005D01*
X156386965Y-125311777D01*
X156359778Y-124741546D01*
X156197616Y-124350053D01*
X156336431Y-124146890D01*
X156387440Y-123895000D01*
X156387440Y-122555000D01*
X192795907Y-122555000D01*
X192908946Y-123123285D01*
X193230853Y-123605054D01*
X193560026Y-123825000D01*
X193230853Y-124044946D01*
X192908946Y-124526715D01*
X192795907Y-125095000D01*
X192908946Y-125663285D01*
X193230853Y-126145054D01*
X193272452Y-126172850D01*
X193224683Y-126181838D01*
X193008559Y-126320910D01*
X192863569Y-126533110D01*
X192812560Y-126785000D01*
X192812560Y-128485000D01*
X192856838Y-128720317D01*
X192995910Y-128936441D01*
X193208110Y-129081431D01*
X193460000Y-129132440D01*
X195160000Y-129132440D01*
X195395317Y-129088162D01*
X195611441Y-128949090D01*
X195756431Y-128736890D01*
X195807440Y-128485000D01*
X195807440Y-126785000D01*
X195763162Y-126549683D01*
X195624090Y-126333559D01*
X195411890Y-126188569D01*
X195344459Y-126174914D01*
X195389147Y-126145054D01*
X195711054Y-125663285D01*
X195824093Y-125095000D01*
X195711054Y-124526715D01*
X195389147Y-124044946D01*
X195059974Y-123825000D01*
X195389147Y-123605054D01*
X195711054Y-123123285D01*
X195824093Y-122555000D01*
X195711054Y-121986715D01*
X195389147Y-121504946D01*
X194907378Y-121183039D01*
X194339093Y-121070000D01*
X194280907Y-121070000D01*
X193712622Y-121183039D01*
X193230853Y-121504946D01*
X192908946Y-121986715D01*
X192795907Y-122555000D01*
X156387440Y-122555000D01*
X156387440Y-122295000D01*
X156343162Y-122059683D01*
X156204090Y-121843559D01*
X155991890Y-121698569D01*
X155765500Y-121652724D01*
X155765500Y-120356934D01*
X158529388Y-117593046D01*
X158618946Y-118043285D01*
X158940853Y-118525054D01*
X159270026Y-118745000D01*
X158940853Y-118964946D01*
X158618946Y-119446715D01*
X158505907Y-120015000D01*
X158618946Y-120583285D01*
X158940853Y-121065054D01*
X159422622Y-121386961D01*
X159990907Y-121500000D01*
X160049093Y-121500000D01*
X160617378Y-121386961D01*
X161099147Y-121065054D01*
X161421054Y-120583285D01*
X161534093Y-120015000D01*
X161421054Y-119446715D01*
X161185404Y-119094039D01*
X170058096Y-119094039D01*
X170218959Y-119482423D01*
X170594866Y-119897389D01*
X171100959Y-120136914D01*
X171323000Y-120015629D01*
X171323000Y-118872000D01*
X171577000Y-118872000D01*
X171577000Y-120015629D01*
X171799041Y-120136914D01*
X172305134Y-119897389D01*
X172681041Y-119482423D01*
X172841904Y-119094039D01*
X172719915Y-118872000D01*
X171577000Y-118872000D01*
X171323000Y-118872000D01*
X170180085Y-118872000D01*
X170058096Y-119094039D01*
X161185404Y-119094039D01*
X161099147Y-118964946D01*
X160769974Y-118745000D01*
X161099147Y-118525054D01*
X161421054Y-118043285D01*
X161534093Y-117475000D01*
X161421054Y-116906715D01*
X161099147Y-116424946D01*
X160769974Y-116205000D01*
X161099147Y-115985054D01*
X161421054Y-115503285D01*
X161534093Y-114935000D01*
X161421054Y-114366715D01*
X161099147Y-113884946D01*
X161055223Y-113855597D01*
X161229698Y-113783327D01*
X161408327Y-113604699D01*
X161505000Y-113371310D01*
X161505000Y-112680750D01*
X161346250Y-112522000D01*
X160147000Y-112522000D01*
X160147000Y-112542000D01*
X159893000Y-112542000D01*
X159893000Y-112522000D01*
X158693750Y-112522000D01*
X158535000Y-112680750D01*
X158535000Y-113371310D01*
X158631673Y-113604699D01*
X158810302Y-113783327D01*
X158984777Y-113855597D01*
X158940853Y-113884946D01*
X158618946Y-114366715D01*
X158505907Y-114935000D01*
X158563421Y-115224145D01*
X154356283Y-119431283D01*
X154177337Y-119699094D01*
X154177337Y-119699095D01*
X154114500Y-120015000D01*
X154114500Y-121652358D01*
X153904683Y-121691838D01*
X153688559Y-121830910D01*
X153543569Y-122043110D01*
X153492560Y-122295000D01*
X150622000Y-122295000D01*
X150622000Y-115291890D01*
X153498524Y-115291890D01*
X153668355Y-115701924D01*
X154058642Y-116130183D01*
X154583108Y-116376486D01*
X154813000Y-116255819D01*
X154813000Y-115062000D01*
X155067000Y-115062000D01*
X155067000Y-116255819D01*
X155296892Y-116376486D01*
X155821358Y-116130183D01*
X156211645Y-115701924D01*
X156381476Y-115291890D01*
X156260155Y-115062000D01*
X155067000Y-115062000D01*
X154813000Y-115062000D01*
X153619845Y-115062000D01*
X153498524Y-115291890D01*
X150622000Y-115291890D01*
X150622000Y-111545000D01*
X153442560Y-111545000D01*
X153442560Y-113245000D01*
X153486838Y-113480317D01*
X153625910Y-113696441D01*
X153838110Y-113841431D01*
X153946107Y-113863301D01*
X153668355Y-114168076D01*
X153498524Y-114578110D01*
X153619845Y-114808000D01*
X154813000Y-114808000D01*
X154813000Y-114788000D01*
X155067000Y-114788000D01*
X155067000Y-114808000D01*
X156260155Y-114808000D01*
X156381476Y-114578110D01*
X156211645Y-114168076D01*
X155935499Y-113865063D01*
X156025317Y-113848162D01*
X156241441Y-113709090D01*
X156386431Y-113496890D01*
X156437440Y-113245000D01*
X156437440Y-111545000D01*
X156413674Y-111418690D01*
X158535000Y-111418690D01*
X158535000Y-112109250D01*
X158693750Y-112268000D01*
X159893000Y-112268000D01*
X159893000Y-111068750D01*
X160147000Y-111068750D01*
X160147000Y-112268000D01*
X161346250Y-112268000D01*
X161505000Y-112109250D01*
X161505000Y-111418690D01*
X161408327Y-111185301D01*
X161348026Y-111125000D01*
X169986887Y-111125000D01*
X170096120Y-111674151D01*
X170407189Y-112139698D01*
X170789275Y-112395000D01*
X170407189Y-112650302D01*
X170096120Y-113115849D01*
X169986887Y-113665000D01*
X170096120Y-114214151D01*
X170407189Y-114679698D01*
X170789275Y-114935000D01*
X170407189Y-115190302D01*
X170096120Y-115655849D01*
X169986887Y-116205000D01*
X170096120Y-116754151D01*
X170407189Y-117219698D01*
X170811703Y-117489986D01*
X170594866Y-117592611D01*
X170218959Y-118007577D01*
X170058096Y-118395961D01*
X170180085Y-118618000D01*
X171323000Y-118618000D01*
X171323000Y-118598000D01*
X171577000Y-118598000D01*
X171577000Y-118618000D01*
X172719915Y-118618000D01*
X172841904Y-118395961D01*
X172681041Y-118007577D01*
X172305134Y-117592611D01*
X172088297Y-117489986D01*
X172492811Y-117219698D01*
X172803880Y-116754151D01*
X172913113Y-116205000D01*
X172803880Y-115655849D01*
X172492811Y-115190302D01*
X172110725Y-114935000D01*
X172492811Y-114679698D01*
X172803880Y-114214151D01*
X172913113Y-113665000D01*
X177606887Y-113665000D01*
X177716120Y-114214151D01*
X178027189Y-114679698D01*
X178409275Y-114935000D01*
X178027189Y-115190302D01*
X177716120Y-115655849D01*
X177606887Y-116205000D01*
X177716120Y-116754151D01*
X178027189Y-117219698D01*
X178409275Y-117475000D01*
X178027189Y-117730302D01*
X177716120Y-118195849D01*
X177606887Y-118745000D01*
X177716120Y-119294151D01*
X178027189Y-119759698D01*
X178492736Y-120070767D01*
X179041887Y-120180000D01*
X179098113Y-120180000D01*
X179647264Y-120070767D01*
X180112811Y-119759698D01*
X180423880Y-119294151D01*
X180533113Y-118745000D01*
X180423880Y-118195849D01*
X180112811Y-117730302D01*
X179730725Y-117475000D01*
X180112811Y-117219698D01*
X180423880Y-116754151D01*
X180533113Y-116205000D01*
X180423880Y-115655849D01*
X180112811Y-115190302D01*
X179730725Y-114935000D01*
X180112811Y-114679698D01*
X180423880Y-114214151D01*
X180533113Y-113665000D01*
X180423880Y-113115849D01*
X180112811Y-112650302D01*
X179708297Y-112380014D01*
X179925134Y-112277389D01*
X180301041Y-111862423D01*
X180461904Y-111474039D01*
X180339915Y-111252000D01*
X179197000Y-111252000D01*
X179197000Y-111272000D01*
X178943000Y-111272000D01*
X178943000Y-111252000D01*
X177800085Y-111252000D01*
X177678096Y-111474039D01*
X177838959Y-111862423D01*
X178214866Y-112277389D01*
X178431703Y-112380014D01*
X178027189Y-112650302D01*
X177716120Y-113115849D01*
X177606887Y-113665000D01*
X172913113Y-113665000D01*
X172803880Y-113115849D01*
X172492811Y-112650302D01*
X172110725Y-112395000D01*
X172492811Y-112139698D01*
X172803880Y-111674151D01*
X172913113Y-111125000D01*
X172803880Y-110575849D01*
X172492811Y-110110302D01*
X172088297Y-109840014D01*
X172305134Y-109737389D01*
X172681041Y-109322423D01*
X172841904Y-108934039D01*
X172719915Y-108712000D01*
X171577000Y-108712000D01*
X171577000Y-108732000D01*
X171323000Y-108732000D01*
X171323000Y-108712000D01*
X170180085Y-108712000D01*
X170058096Y-108934039D01*
X170218959Y-109322423D01*
X170594866Y-109737389D01*
X170811703Y-109840014D01*
X170407189Y-110110302D01*
X170096120Y-110575849D01*
X169986887Y-111125000D01*
X161348026Y-111125000D01*
X161229698Y-111006673D01*
X160996309Y-110910000D01*
X160305750Y-110910000D01*
X160147000Y-111068750D01*
X159893000Y-111068750D01*
X159734250Y-110910000D01*
X159043691Y-110910000D01*
X158810302Y-111006673D01*
X158631673Y-111185301D01*
X158535000Y-111418690D01*
X156413674Y-111418690D01*
X156393162Y-111309683D01*
X156254090Y-111093559D01*
X156041890Y-110948569D01*
X155790000Y-110897560D01*
X154090000Y-110897560D01*
X153854683Y-110941838D01*
X153638559Y-111080910D01*
X153493569Y-111293110D01*
X153442560Y-111545000D01*
X150622000Y-111545000D01*
X150622000Y-106045000D01*
X169986887Y-106045000D01*
X170096120Y-106594151D01*
X170407189Y-107059698D01*
X170811703Y-107329986D01*
X170594866Y-107432611D01*
X170218959Y-107847577D01*
X170058096Y-108235961D01*
X170180085Y-108458000D01*
X171323000Y-108458000D01*
X171323000Y-108438000D01*
X171577000Y-108438000D01*
X171577000Y-108458000D01*
X172719915Y-108458000D01*
X172841904Y-108235961D01*
X172681041Y-107847577D01*
X172305134Y-107432611D01*
X172088297Y-107329986D01*
X172492811Y-107059698D01*
X172803880Y-106594151D01*
X172913113Y-106045000D01*
X172803880Y-105495849D01*
X172492811Y-105030302D01*
X172348535Y-104933899D01*
X172485317Y-104908162D01*
X172701441Y-104769090D01*
X172846431Y-104556890D01*
X172897440Y-104305000D01*
X172897440Y-103505000D01*
X177606887Y-103505000D01*
X177716120Y-104054151D01*
X178027189Y-104519698D01*
X178409275Y-104775000D01*
X178027189Y-105030302D01*
X177716120Y-105495849D01*
X177606887Y-106045000D01*
X177716120Y-106594151D01*
X178027189Y-107059698D01*
X178409275Y-107315000D01*
X178027189Y-107570302D01*
X177716120Y-108035849D01*
X177606887Y-108585000D01*
X177716120Y-109134151D01*
X178027189Y-109599698D01*
X178431703Y-109869986D01*
X178214866Y-109972611D01*
X177838959Y-110387577D01*
X177678096Y-110775961D01*
X177800085Y-110998000D01*
X178943000Y-110998000D01*
X178943000Y-110978000D01*
X179197000Y-110978000D01*
X179197000Y-110998000D01*
X180339915Y-110998000D01*
X180461904Y-110775961D01*
X180301041Y-110387577D01*
X179925134Y-109972611D01*
X179708297Y-109869986D01*
X180112811Y-109599698D01*
X180423880Y-109134151D01*
X180533113Y-108585000D01*
X180423880Y-108035849D01*
X180112811Y-107570302D01*
X179730725Y-107315000D01*
X180112811Y-107059698D01*
X180423880Y-106594151D01*
X180533113Y-106045000D01*
X180423880Y-105495849D01*
X180112811Y-105030302D01*
X179730725Y-104775000D01*
X180112811Y-104519698D01*
X180423880Y-104054151D01*
X180533113Y-103505000D01*
X180423880Y-102955849D01*
X180112811Y-102490302D01*
X179647264Y-102179233D01*
X179098113Y-102070000D01*
X179041887Y-102070000D01*
X178492736Y-102179233D01*
X178027189Y-102490302D01*
X177716120Y-102955849D01*
X177606887Y-103505000D01*
X172897440Y-103505000D01*
X172897440Y-102705000D01*
X172853162Y-102469683D01*
X172714090Y-102253559D01*
X172501890Y-102108569D01*
X172250000Y-102057560D01*
X170650000Y-102057560D01*
X170414683Y-102101838D01*
X170198559Y-102240910D01*
X170053569Y-102453110D01*
X170002560Y-102705000D01*
X170002560Y-104305000D01*
X170046838Y-104540317D01*
X170185910Y-104756441D01*
X170398110Y-104901431D01*
X170553089Y-104932815D01*
X170407189Y-105030302D01*
X170096120Y-105495849D01*
X169986887Y-106045000D01*
X150622000Y-106045000D01*
X150622000Y-101435000D01*
X183972560Y-101435000D01*
X183972560Y-103035000D01*
X184016838Y-103270317D01*
X184155910Y-103486441D01*
X184368110Y-103631431D01*
X184512375Y-103660645D01*
X184405302Y-103732189D01*
X184094233Y-104197736D01*
X183985000Y-104746887D01*
X183985000Y-104803113D01*
X184094233Y-105352264D01*
X184405302Y-105817811D01*
X184745314Y-106045000D01*
X184405302Y-106272189D01*
X184094233Y-106737736D01*
X183985000Y-107286887D01*
X183985000Y-107343113D01*
X184094233Y-107892264D01*
X184405302Y-108357811D01*
X184745314Y-108585000D01*
X184405302Y-108812189D01*
X184094233Y-109277736D01*
X183985000Y-109826887D01*
X183985000Y-109883113D01*
X184094233Y-110432264D01*
X184405302Y-110897811D01*
X184745314Y-111125000D01*
X184405302Y-111352189D01*
X184094233Y-111817736D01*
X183985000Y-112366887D01*
X183985000Y-112423113D01*
X184094233Y-112972264D01*
X184405302Y-113437811D01*
X184745314Y-113665000D01*
X184405302Y-113892189D01*
X184094233Y-114357736D01*
X183985000Y-114906887D01*
X183985000Y-114963113D01*
X184094233Y-115512264D01*
X184405302Y-115977811D01*
X184745314Y-116205000D01*
X184405302Y-116432189D01*
X184094233Y-116897736D01*
X183985000Y-117446887D01*
X183985000Y-117503113D01*
X184094233Y-118052264D01*
X184405302Y-118517811D01*
X184745314Y-118745000D01*
X184405302Y-118972189D01*
X184094233Y-119437736D01*
X183985000Y-119986887D01*
X183985000Y-120043113D01*
X184094233Y-120592264D01*
X184405302Y-121057811D01*
X184870849Y-121368880D01*
X185420000Y-121478113D01*
X185969151Y-121368880D01*
X186434698Y-121057811D01*
X186745767Y-120592264D01*
X186855000Y-120043113D01*
X186855000Y-119986887D01*
X186745767Y-119437736D01*
X186434698Y-118972189D01*
X186094686Y-118745000D01*
X186434698Y-118517811D01*
X186745767Y-118052264D01*
X186855000Y-117503113D01*
X186855000Y-117446887D01*
X186745767Y-116897736D01*
X186434698Y-116432189D01*
X186094686Y-116205000D01*
X186434698Y-115977811D01*
X186745767Y-115512264D01*
X186855000Y-114963113D01*
X186855000Y-114906887D01*
X186745767Y-114357736D01*
X186434698Y-113892189D01*
X186094686Y-113665000D01*
X186434698Y-113437811D01*
X186745767Y-112972264D01*
X186855000Y-112423113D01*
X186855000Y-112366887D01*
X186745767Y-111817736D01*
X186434698Y-111352189D01*
X186094686Y-111125000D01*
X186434698Y-110897811D01*
X186745767Y-110432264D01*
X186855000Y-109883113D01*
X186855000Y-109826887D01*
X186745767Y-109277736D01*
X186434698Y-108812189D01*
X186094686Y-108585000D01*
X186434698Y-108357811D01*
X186745767Y-107892264D01*
X186855000Y-107343113D01*
X186855000Y-107315000D01*
X192795907Y-107315000D01*
X192908946Y-107883285D01*
X193230853Y-108365054D01*
X193560026Y-108585000D01*
X193230853Y-108804946D01*
X192908946Y-109286715D01*
X192795907Y-109855000D01*
X192908946Y-110423285D01*
X193230853Y-110905054D01*
X193272452Y-110932850D01*
X193224683Y-110941838D01*
X193008559Y-111080910D01*
X192863569Y-111293110D01*
X192812560Y-111545000D01*
X192812560Y-113245000D01*
X192856838Y-113480317D01*
X192995910Y-113696441D01*
X193208110Y-113841431D01*
X193460000Y-113892440D01*
X195160000Y-113892440D01*
X195395317Y-113848162D01*
X195611441Y-113709090D01*
X195756431Y-113496890D01*
X195807440Y-113245000D01*
X195807440Y-111545000D01*
X195763162Y-111309683D01*
X195624090Y-111093559D01*
X195411890Y-110948569D01*
X195344459Y-110934914D01*
X195389147Y-110905054D01*
X195711054Y-110423285D01*
X195824093Y-109855000D01*
X195711054Y-109286715D01*
X195389147Y-108804946D01*
X195059974Y-108585000D01*
X195389147Y-108365054D01*
X195711054Y-107883285D01*
X195824093Y-107315000D01*
X195711054Y-106746715D01*
X195389147Y-106264946D01*
X194907378Y-105943039D01*
X194339093Y-105830000D01*
X194280907Y-105830000D01*
X193712622Y-105943039D01*
X193230853Y-106264946D01*
X192908946Y-106746715D01*
X192795907Y-107315000D01*
X186855000Y-107315000D01*
X186855000Y-107286887D01*
X186745767Y-106737736D01*
X186434698Y-106272189D01*
X186094686Y-106045000D01*
X186434698Y-105817811D01*
X186745767Y-105352264D01*
X186855000Y-104803113D01*
X186855000Y-104746887D01*
X186745767Y-104197736D01*
X186434698Y-103732189D01*
X186329428Y-103661850D01*
X186455317Y-103638162D01*
X186671441Y-103499090D01*
X186816431Y-103286890D01*
X186867440Y-103035000D01*
X186867440Y-101435000D01*
X186823162Y-101199683D01*
X186684090Y-100983559D01*
X186471890Y-100838569D01*
X186220000Y-100787560D01*
X184620000Y-100787560D01*
X184384683Y-100831838D01*
X184168559Y-100970910D01*
X184023569Y-101183110D01*
X183972560Y-101435000D01*
X150622000Y-101435000D01*
X150622000Y-97511890D01*
X158578524Y-97511890D01*
X158748355Y-97921924D01*
X159138642Y-98350183D01*
X159663108Y-98596486D01*
X159893000Y-98475819D01*
X159893000Y-97282000D01*
X160147000Y-97282000D01*
X160147000Y-98475819D01*
X160376892Y-98596486D01*
X160901358Y-98350183D01*
X161291645Y-97921924D01*
X161461476Y-97511890D01*
X161340155Y-97282000D01*
X160147000Y-97282000D01*
X159893000Y-97282000D01*
X158699845Y-97282000D01*
X158578524Y-97511890D01*
X150622000Y-97511890D01*
X150622000Y-92431890D01*
X153498524Y-92431890D01*
X153668355Y-92841924D01*
X154058642Y-93270183D01*
X154583108Y-93516486D01*
X154813000Y-93395819D01*
X154813000Y-92202000D01*
X155067000Y-92202000D01*
X155067000Y-93395819D01*
X155296892Y-93516486D01*
X155821358Y-93270183D01*
X156211645Y-92841924D01*
X156381476Y-92431890D01*
X156260155Y-92202000D01*
X155067000Y-92202000D01*
X154813000Y-92202000D01*
X153619845Y-92202000D01*
X153498524Y-92431890D01*
X150622000Y-92431890D01*
X150622000Y-92075000D01*
X158505907Y-92075000D01*
X158618946Y-92643285D01*
X158940853Y-93125054D01*
X159270026Y-93345000D01*
X158940853Y-93564946D01*
X158618946Y-94046715D01*
X158505907Y-94615000D01*
X158618946Y-95183285D01*
X158940853Y-95665054D01*
X159281553Y-95892702D01*
X159138642Y-95959817D01*
X158748355Y-96388076D01*
X158578524Y-96798110D01*
X158699845Y-97028000D01*
X159893000Y-97028000D01*
X159893000Y-97008000D01*
X160147000Y-97008000D01*
X160147000Y-97028000D01*
X161340155Y-97028000D01*
X161461476Y-96798110D01*
X161291645Y-96388076D01*
X160901358Y-95959817D01*
X160758447Y-95892702D01*
X161099147Y-95665054D01*
X161421054Y-95183285D01*
X161534093Y-94615000D01*
X161421054Y-94046715D01*
X161185404Y-93694039D01*
X170058096Y-93694039D01*
X170218959Y-94082423D01*
X170594866Y-94497389D01*
X171100959Y-94736914D01*
X171323000Y-94615629D01*
X171323000Y-93472000D01*
X171577000Y-93472000D01*
X171577000Y-94615629D01*
X171799041Y-94736914D01*
X172305134Y-94497389D01*
X172681041Y-94082423D01*
X172841904Y-93694039D01*
X172719915Y-93472000D01*
X171577000Y-93472000D01*
X171323000Y-93472000D01*
X170180085Y-93472000D01*
X170058096Y-93694039D01*
X161185404Y-93694039D01*
X161099147Y-93564946D01*
X160769974Y-93345000D01*
X161099147Y-93125054D01*
X161249189Y-92900500D01*
X161314800Y-92900500D01*
X161630706Y-92837663D01*
X161898517Y-92658717D01*
X165466733Y-89090500D01*
X170280771Y-89090500D01*
X170407189Y-89279698D01*
X170789275Y-89535000D01*
X170407189Y-89790302D01*
X170096120Y-90255849D01*
X169986887Y-90805000D01*
X170096120Y-91354151D01*
X170407189Y-91819698D01*
X170811703Y-92089986D01*
X170594866Y-92192611D01*
X170218959Y-92607577D01*
X170058096Y-92995961D01*
X170180085Y-93218000D01*
X171323000Y-93218000D01*
X171323000Y-93198000D01*
X171577000Y-93198000D01*
X171577000Y-93218000D01*
X172719915Y-93218000D01*
X172841904Y-92995961D01*
X172681041Y-92607577D01*
X172305134Y-92192611D01*
X172088297Y-92089986D01*
X172492811Y-91819698D01*
X172803880Y-91354151D01*
X172913113Y-90805000D01*
X172803880Y-90255849D01*
X172492811Y-89790302D01*
X172110725Y-89535000D01*
X172492811Y-89279698D01*
X172803880Y-88814151D01*
X172913113Y-88265000D01*
X177606887Y-88265000D01*
X177716120Y-88814151D01*
X178027189Y-89279698D01*
X178409275Y-89535000D01*
X178027189Y-89790302D01*
X177716120Y-90255849D01*
X177606887Y-90805000D01*
X177716120Y-91354151D01*
X178027189Y-91819698D01*
X178409275Y-92075000D01*
X178027189Y-92330302D01*
X177716120Y-92795849D01*
X177606887Y-93345000D01*
X177716120Y-93894151D01*
X178027189Y-94359698D01*
X178492736Y-94670767D01*
X179041887Y-94780000D01*
X179098113Y-94780000D01*
X179647264Y-94670767D01*
X180112811Y-94359698D01*
X180423880Y-93894151D01*
X180533113Y-93345000D01*
X180423880Y-92795849D01*
X180112811Y-92330302D01*
X179730725Y-92075000D01*
X180112811Y-91819698D01*
X180423880Y-91354151D01*
X180533113Y-90805000D01*
X180423880Y-90255849D01*
X180112811Y-89790302D01*
X179730725Y-89535000D01*
X180112811Y-89279698D01*
X180423880Y-88814151D01*
X180533113Y-88265000D01*
X180423880Y-87715849D01*
X180112811Y-87250302D01*
X179708297Y-86980014D01*
X179925134Y-86877389D01*
X180301041Y-86462423D01*
X180461904Y-86074039D01*
X180339915Y-85852000D01*
X179197000Y-85852000D01*
X179197000Y-85872000D01*
X178943000Y-85872000D01*
X178943000Y-85852000D01*
X177800085Y-85852000D01*
X177678096Y-86074039D01*
X177838959Y-86462423D01*
X178214866Y-86877389D01*
X178431703Y-86980014D01*
X178027189Y-87250302D01*
X177716120Y-87715849D01*
X177606887Y-88265000D01*
X172913113Y-88265000D01*
X172803880Y-87715849D01*
X172492811Y-87250302D01*
X172110725Y-86995000D01*
X172492811Y-86739698D01*
X172803880Y-86274151D01*
X172913113Y-85725000D01*
X172803880Y-85175849D01*
X172492811Y-84710302D01*
X172088297Y-84440014D01*
X172305134Y-84337389D01*
X172681041Y-83922423D01*
X172841904Y-83534039D01*
X172719915Y-83312000D01*
X171577000Y-83312000D01*
X171577000Y-83332000D01*
X171323000Y-83332000D01*
X171323000Y-83312000D01*
X170180085Y-83312000D01*
X170058096Y-83534039D01*
X170218959Y-83922423D01*
X170594866Y-84337389D01*
X170811703Y-84440014D01*
X170407189Y-84710302D01*
X170096120Y-85175849D01*
X169986887Y-85725000D01*
X170096120Y-86274151D01*
X170407189Y-86739698D01*
X170789275Y-86995000D01*
X170407189Y-87250302D01*
X170280771Y-87439500D01*
X165124805Y-87439500D01*
X165124800Y-87439499D01*
X164808895Y-87502337D01*
X164541083Y-87681283D01*
X164541081Y-87681286D01*
X161138510Y-91083856D01*
X161099147Y-91024946D01*
X161057548Y-90997150D01*
X161105317Y-90988162D01*
X161321441Y-90849090D01*
X161466431Y-90636890D01*
X161517440Y-90385000D01*
X161517440Y-88685000D01*
X161473162Y-88449683D01*
X161334090Y-88233559D01*
X161121890Y-88088569D01*
X160870000Y-88037560D01*
X159170000Y-88037560D01*
X158934683Y-88081838D01*
X158718559Y-88220910D01*
X158573569Y-88433110D01*
X158522560Y-88685000D01*
X158522560Y-90385000D01*
X158566838Y-90620317D01*
X158705910Y-90836441D01*
X158918110Y-90981431D01*
X158985541Y-90995086D01*
X158940853Y-91024946D01*
X158618946Y-91506715D01*
X158505907Y-92075000D01*
X150622000Y-92075000D01*
X150622000Y-82968223D01*
X152263035Y-82968223D01*
X152290222Y-83538454D01*
X152456136Y-83939005D01*
X152702255Y-84013139D01*
X153530395Y-83185000D01*
X152702255Y-82356861D01*
X152456136Y-82430995D01*
X152263035Y-82968223D01*
X150622000Y-82968223D01*
X150622000Y-69571890D01*
X153498524Y-69571890D01*
X153668355Y-69981924D01*
X154058642Y-70410183D01*
X154583108Y-70656486D01*
X154813000Y-70535819D01*
X154813000Y-69342000D01*
X153619845Y-69342000D01*
X153498524Y-69571890D01*
X150622000Y-69571890D01*
X150622000Y-57522745D01*
X152841861Y-57522745D01*
X152915995Y-57768864D01*
X153453223Y-57961965D01*
X154023454Y-57934778D01*
X154424005Y-57768864D01*
X154498139Y-57522745D01*
X153670000Y-56694605D01*
X152841861Y-57522745D01*
X150622000Y-57522745D01*
X150622000Y-51562000D01*
X161786267Y-51562000D01*
X160030930Y-53317336D01*
X160030930Y-53317336D01*
G37*
X160030930Y-53317336D02*
X159967243Y-53163200D01*
X159563923Y-52759176D01*
X159036691Y-52540250D01*
X158465813Y-52539752D01*
X157938200Y-52757757D01*
X157545773Y-53149500D01*
X156225204Y-53149500D01*
X155909298Y-53212337D01*
X155802028Y-53284013D01*
X155641487Y-53391283D01*
X155641485Y-53391286D01*
X155343270Y-53689500D01*
X155112642Y-53689500D01*
X155073162Y-53479683D01*
X154934090Y-53263559D01*
X154721890Y-53118569D01*
X154470000Y-53067560D01*
X152870000Y-53067560D01*
X152634683Y-53111838D01*
X152418559Y-53250910D01*
X152273569Y-53463110D01*
X152222560Y-53715000D01*
X152222560Y-55315000D01*
X152266838Y-55550317D01*
X152405910Y-55766441D01*
X152412548Y-55770977D01*
X152223035Y-56298223D01*
X152250222Y-56868454D01*
X152416136Y-57269005D01*
X152662255Y-57343139D01*
X153490395Y-56515000D01*
X153476252Y-56500858D01*
X153655858Y-56321253D01*
X153670000Y-56335395D01*
X153684143Y-56321253D01*
X153863748Y-56500858D01*
X153849605Y-56515000D01*
X154677745Y-57343139D01*
X154923864Y-57269005D01*
X155116965Y-56731777D01*
X155094388Y-56258223D01*
X157303035Y-56258223D01*
X157330222Y-56828454D01*
X157496136Y-57229005D01*
X157742255Y-57303139D01*
X158570395Y-56475000D01*
X157742255Y-55646861D01*
X157496136Y-55720995D01*
X157303035Y-56258223D01*
X155094388Y-56258223D01*
X155089778Y-56161546D01*
X154927616Y-55770053D01*
X155066431Y-55566890D01*
X155112276Y-55340500D01*
X155685204Y-55340500D01*
X156001110Y-55277663D01*
X156268921Y-55098717D01*
X156567137Y-54800500D01*
X157546433Y-54800500D01*
X157936077Y-55190824D01*
X158002544Y-55218423D01*
X157995995Y-55221136D01*
X157921861Y-55467255D01*
X158750000Y-56295395D01*
X158764142Y-56281252D01*
X158943748Y-56460858D01*
X158929605Y-56475000D01*
X158943748Y-56489142D01*
X158764142Y-56668748D01*
X158750000Y-56654605D01*
X157921861Y-57482745D01*
X157995995Y-57728864D01*
X158533223Y-57921965D01*
X159103454Y-57894778D01*
X159368698Y-57784910D01*
X159368698Y-58393568D01*
X154356283Y-63405983D01*
X154177337Y-63673794D01*
X154177337Y-63673795D01*
X154114500Y-63989700D01*
X154114500Y-65177560D01*
X154090000Y-65177560D01*
X153854683Y-65221838D01*
X153638559Y-65360910D01*
X153493569Y-65573110D01*
X153442560Y-65825000D01*
X153442560Y-67525000D01*
X153486838Y-67760317D01*
X153625910Y-67976441D01*
X153838110Y-68121431D01*
X153946107Y-68143301D01*
X153668355Y-68448076D01*
X153498524Y-68858110D01*
X153619845Y-69088000D01*
X154813000Y-69088000D01*
X154813000Y-69068000D01*
X155067000Y-69068000D01*
X155067000Y-69088000D01*
X155087000Y-69088000D01*
X155087000Y-69342000D01*
X155067000Y-69342000D01*
X155067000Y-70535819D01*
X155296892Y-70656486D01*
X155821358Y-70410183D01*
X156044700Y-70165111D01*
X156044700Y-76014653D01*
X155991890Y-75978569D01*
X155740000Y-75927560D01*
X154140000Y-75927560D01*
X153904683Y-75971838D01*
X153688559Y-76110910D01*
X153543569Y-76323110D01*
X153492560Y-76575000D01*
X153492560Y-78175000D01*
X153536838Y-78410317D01*
X153675910Y-78626441D01*
X153682548Y-78630977D01*
X153493035Y-79158223D01*
X153520222Y-79728454D01*
X153686136Y-80129005D01*
X153932255Y-80203139D01*
X154760395Y-79375000D01*
X154746252Y-79360858D01*
X154925858Y-79181253D01*
X154940000Y-79195395D01*
X154954143Y-79181253D01*
X155133748Y-79360858D01*
X155119605Y-79375000D01*
X155133748Y-79389142D01*
X154954142Y-79568748D01*
X154940000Y-79554605D01*
X154111861Y-80382745D01*
X154185995Y-80628864D01*
X154723223Y-80821965D01*
X155280469Y-80795397D01*
X154376283Y-81699583D01*
X154268515Y-81860869D01*
X153926777Y-81738035D01*
X153356546Y-81765222D01*
X152955995Y-81931136D01*
X152881861Y-82177255D01*
X153710000Y-83005395D01*
X153724142Y-82991252D01*
X153903748Y-83170858D01*
X153889605Y-83185000D01*
X153903748Y-83199143D01*
X153724142Y-83378748D01*
X153710000Y-83364605D01*
X152881861Y-84192745D01*
X152955995Y-84438864D01*
X153493223Y-84631965D01*
X154063454Y-84604778D01*
X154134500Y-84575350D01*
X154134500Y-88037560D01*
X154090000Y-88037560D01*
X153854683Y-88081838D01*
X153638559Y-88220910D01*
X153493569Y-88433110D01*
X153442560Y-88685000D01*
X153442560Y-90385000D01*
X153486838Y-90620317D01*
X153625910Y-90836441D01*
X153838110Y-90981431D01*
X153946107Y-91003301D01*
X153668355Y-91308076D01*
X153498524Y-91718110D01*
X153619845Y-91948000D01*
X154813000Y-91948000D01*
X154813000Y-91928000D01*
X155067000Y-91928000D01*
X155067000Y-91948000D01*
X156260155Y-91948000D01*
X156381476Y-91718110D01*
X156211645Y-91308076D01*
X155935499Y-91005063D01*
X156025317Y-90988162D01*
X156241441Y-90849090D01*
X156386431Y-90636890D01*
X156437440Y-90385000D01*
X156437440Y-88685000D01*
X156393162Y-88449683D01*
X156254090Y-88233559D01*
X156041890Y-88088569D01*
X155790000Y-88037560D01*
X155785500Y-88037560D01*
X155785500Y-84562527D01*
X155923309Y-84619750D01*
X156494187Y-84620248D01*
X157021800Y-84402243D01*
X157425824Y-83998923D01*
X157644750Y-83471691D01*
X157645168Y-82992299D01*
X159308817Y-81328650D01*
X159487763Y-81060839D01*
X159550601Y-80744933D01*
X159550600Y-80744928D01*
X159550600Y-80198199D01*
X170075761Y-80198199D01*
X169986887Y-80645000D01*
X170096120Y-81194151D01*
X170407189Y-81659698D01*
X170811703Y-81929986D01*
X170594866Y-82032611D01*
X170218959Y-82447577D01*
X170058096Y-82835961D01*
X170180085Y-83058000D01*
X171323000Y-83058000D01*
X171323000Y-83038000D01*
X171577000Y-83038000D01*
X171577000Y-83058000D01*
X172719915Y-83058000D01*
X172841904Y-82835961D01*
X172681041Y-82447577D01*
X172305134Y-82032611D01*
X172088297Y-81929986D01*
X172492811Y-81659698D01*
X172803880Y-81194151D01*
X172913113Y-80645000D01*
X172824239Y-80198199D01*
X176557501Y-80198199D01*
X176873407Y-80135362D01*
X177141218Y-79956416D01*
X178007461Y-79090173D01*
X178027189Y-79119698D01*
X178409275Y-79375000D01*
X178027189Y-79630302D01*
X177716120Y-80095849D01*
X177606887Y-80645000D01*
X177716120Y-81194151D01*
X178027189Y-81659698D01*
X178409275Y-81915000D01*
X178027189Y-82170302D01*
X177716120Y-82635849D01*
X177606887Y-83185000D01*
X177716120Y-83734151D01*
X178027189Y-84199698D01*
X178431703Y-84469986D01*
X178214866Y-84572611D01*
X177838959Y-84987577D01*
X177678096Y-85375961D01*
X177800085Y-85598000D01*
X178943000Y-85598000D01*
X178943000Y-85578000D01*
X179197000Y-85578000D01*
X179197000Y-85598000D01*
X180339915Y-85598000D01*
X180461904Y-85375961D01*
X180301041Y-84987577D01*
X179925134Y-84572611D01*
X179708297Y-84469986D01*
X180112811Y-84199698D01*
X180423880Y-83734151D01*
X180533113Y-83185000D01*
X180423880Y-82635849D01*
X180112811Y-82170302D01*
X179730725Y-81915000D01*
X180112811Y-81659698D01*
X180423880Y-81194151D01*
X180533113Y-80645000D01*
X180423880Y-80095849D01*
X180112811Y-79630302D01*
X179730725Y-79375000D01*
X180112811Y-79119698D01*
X180423880Y-78654151D01*
X180533113Y-78105000D01*
X180423880Y-77555849D01*
X180112811Y-77090302D01*
X179647264Y-76779233D01*
X179098113Y-76670000D01*
X179041887Y-76670000D01*
X178492736Y-76779233D01*
X178027189Y-77090302D01*
X177900771Y-77279500D01*
X177825200Y-77279500D01*
X177509294Y-77342337D01*
X177241483Y-77521283D01*
X176215567Y-78547199D01*
X172897440Y-78547199D01*
X172897440Y-77305000D01*
X172853162Y-77069683D01*
X172714090Y-76853559D01*
X172501890Y-76708569D01*
X172250000Y-76657560D01*
X170650000Y-76657560D01*
X170414683Y-76701838D01*
X170198559Y-76840910D01*
X170161858Y-76894624D01*
X169302234Y-76035000D01*
X183972560Y-76035000D01*
X183972560Y-77635000D01*
X184016838Y-77870317D01*
X184155910Y-78086441D01*
X184368110Y-78231431D01*
X184512375Y-78260645D01*
X184405302Y-78332189D01*
X184094233Y-78797736D01*
X183985000Y-79346887D01*
X183985000Y-79403113D01*
X184094233Y-79952264D01*
X184405302Y-80417811D01*
X184745314Y-80645000D01*
X184405302Y-80872189D01*
X184094233Y-81337736D01*
X183985000Y-81886887D01*
X183985000Y-81943113D01*
X184094233Y-82492264D01*
X184405302Y-82957811D01*
X184745314Y-83185000D01*
X184405302Y-83412189D01*
X184094233Y-83877736D01*
X183985000Y-84426887D01*
X183985000Y-84483113D01*
X184094233Y-85032264D01*
X184405302Y-85497811D01*
X184745314Y-85725000D01*
X184405302Y-85952189D01*
X184094233Y-86417736D01*
X183985000Y-86966887D01*
X183985000Y-87023113D01*
X184094233Y-87572264D01*
X184405302Y-88037811D01*
X184745314Y-88265000D01*
X184405302Y-88492189D01*
X184094233Y-88957736D01*
X183985000Y-89506887D01*
X183985000Y-89563113D01*
X184094233Y-90112264D01*
X184405302Y-90577811D01*
X184745314Y-90805000D01*
X184405302Y-91032189D01*
X184094233Y-91497736D01*
X183985000Y-92046887D01*
X183985000Y-92103113D01*
X184094233Y-92652264D01*
X184405302Y-93117811D01*
X184745314Y-93345000D01*
X184405302Y-93572189D01*
X184094233Y-94037736D01*
X183985000Y-94586887D01*
X183985000Y-94643113D01*
X184094233Y-95192264D01*
X184405302Y-95657811D01*
X184870849Y-95968880D01*
X185420000Y-96078113D01*
X185969151Y-95968880D01*
X186434698Y-95657811D01*
X186745767Y-95192264D01*
X186855000Y-94643113D01*
X186855000Y-94586887D01*
X186745767Y-94037736D01*
X186434698Y-93572189D01*
X186094686Y-93345000D01*
X186434698Y-93117811D01*
X186745767Y-92652264D01*
X186855000Y-92103113D01*
X186855000Y-92075000D01*
X192795907Y-92075000D01*
X192908946Y-92643285D01*
X193230853Y-93125054D01*
X193560026Y-93345000D01*
X193230853Y-93564946D01*
X192908946Y-94046715D01*
X192795907Y-94615000D01*
X192908946Y-95183285D01*
X193230853Y-95665054D01*
X193272452Y-95692850D01*
X193224683Y-95701838D01*
X193008559Y-95840910D01*
X192863569Y-96053110D01*
X192812560Y-96305000D01*
X192812560Y-98005000D01*
X192856838Y-98240317D01*
X192995910Y-98456441D01*
X193208110Y-98601431D01*
X193460000Y-98652440D01*
X195160000Y-98652440D01*
X195395317Y-98608162D01*
X195611441Y-98469090D01*
X195756431Y-98256890D01*
X195807440Y-98005000D01*
X195807440Y-96305000D01*
X195763162Y-96069683D01*
X195624090Y-95853559D01*
X195411890Y-95708569D01*
X195344459Y-95694914D01*
X195389147Y-95665054D01*
X195711054Y-95183285D01*
X195824093Y-94615000D01*
X195711054Y-94046715D01*
X195389147Y-93564946D01*
X195059974Y-93345000D01*
X195389147Y-93125054D01*
X195711054Y-92643285D01*
X195824093Y-92075000D01*
X195711054Y-91506715D01*
X195389147Y-91024946D01*
X194907378Y-90703039D01*
X194339093Y-90590000D01*
X194280907Y-90590000D01*
X193712622Y-90703039D01*
X193230853Y-91024946D01*
X192908946Y-91506715D01*
X192795907Y-92075000D01*
X186855000Y-92075000D01*
X186855000Y-92046887D01*
X186745767Y-91497736D01*
X186434698Y-91032189D01*
X186094686Y-90805000D01*
X186434698Y-90577811D01*
X186745767Y-90112264D01*
X186855000Y-89563113D01*
X186855000Y-89506887D01*
X186745767Y-88957736D01*
X186434698Y-88492189D01*
X186094686Y-88265000D01*
X186434698Y-88037811D01*
X186745767Y-87572264D01*
X186855000Y-87023113D01*
X186855000Y-86966887D01*
X186745767Y-86417736D01*
X186434698Y-85952189D01*
X186094686Y-85725000D01*
X186434698Y-85497811D01*
X186745767Y-85032264D01*
X186855000Y-84483113D01*
X186855000Y-84426887D01*
X186745767Y-83877736D01*
X186434698Y-83412189D01*
X186094686Y-83185000D01*
X186434698Y-82957811D01*
X186745767Y-82492264D01*
X186855000Y-81943113D01*
X186855000Y-81886887D01*
X186745767Y-81337736D01*
X186434698Y-80872189D01*
X186094686Y-80645000D01*
X186434698Y-80417811D01*
X186745767Y-79952264D01*
X186855000Y-79403113D01*
X186855000Y-79346887D01*
X186745767Y-78797736D01*
X186434698Y-78332189D01*
X186329428Y-78261850D01*
X186455317Y-78238162D01*
X186671441Y-78099090D01*
X186816431Y-77886890D01*
X186867440Y-77635000D01*
X186867440Y-76835000D01*
X192795907Y-76835000D01*
X192908946Y-77403285D01*
X193230853Y-77885054D01*
X193560026Y-78105000D01*
X193230853Y-78324946D01*
X192908946Y-78806715D01*
X192795907Y-79375000D01*
X192908946Y-79943285D01*
X193230853Y-80425054D01*
X193272452Y-80452850D01*
X193224683Y-80461838D01*
X193008559Y-80600910D01*
X192863569Y-80813110D01*
X192812560Y-81065000D01*
X192812560Y-82765000D01*
X192856838Y-83000317D01*
X192995910Y-83216441D01*
X193208110Y-83361431D01*
X193460000Y-83412440D01*
X195160000Y-83412440D01*
X195395317Y-83368162D01*
X195611441Y-83229090D01*
X195756431Y-83016890D01*
X195807440Y-82765000D01*
X195807440Y-81065000D01*
X195763162Y-80829683D01*
X195624090Y-80613559D01*
X195411890Y-80468569D01*
X195344459Y-80454914D01*
X195389147Y-80425054D01*
X195711054Y-79943285D01*
X195824093Y-79375000D01*
X195711054Y-78806715D01*
X195389147Y-78324946D01*
X195059974Y-78105000D01*
X195389147Y-77885054D01*
X195711054Y-77403285D01*
X195824093Y-76835000D01*
X195711054Y-76266715D01*
X195389147Y-75784946D01*
X194907378Y-75463039D01*
X194339093Y-75350000D01*
X194280907Y-75350000D01*
X193712622Y-75463039D01*
X193230853Y-75784946D01*
X192908946Y-76266715D01*
X192795907Y-76835000D01*
X186867440Y-76835000D01*
X186867440Y-76035000D01*
X186823162Y-75799683D01*
X186684090Y-75583559D01*
X186471890Y-75438569D01*
X186220000Y-75387560D01*
X184620000Y-75387560D01*
X184384683Y-75431838D01*
X184168559Y-75570910D01*
X184023569Y-75783110D01*
X183972560Y-76035000D01*
X169302234Y-76035000D01*
X161898517Y-68631283D01*
X161630706Y-68452337D01*
X161314800Y-68389500D01*
X161249189Y-68389500D01*
X161099147Y-68164946D01*
X161057548Y-68137150D01*
X161105317Y-68128162D01*
X161321441Y-67989090D01*
X161466431Y-67776890D01*
X161517440Y-67525000D01*
X161517440Y-65825000D01*
X161473162Y-65589683D01*
X161334090Y-65373559D01*
X161121890Y-65228569D01*
X160870000Y-65177560D01*
X160845500Y-65177560D01*
X160845500Y-64675732D01*
X162670817Y-62850415D01*
X162849763Y-62582604D01*
X162912601Y-62266698D01*
X162912600Y-62266693D01*
X162912600Y-57649511D01*
X163063076Y-57786645D01*
X163473110Y-57956476D01*
X163703000Y-57835155D01*
X163703000Y-56642000D01*
X163683000Y-56642000D01*
X163683000Y-56388000D01*
X163703000Y-56388000D01*
X163703000Y-56368000D01*
X163957000Y-56368000D01*
X163957000Y-56388000D01*
X163977000Y-56388000D01*
X163977000Y-56642000D01*
X163957000Y-56642000D01*
X163957000Y-57835155D01*
X164186890Y-57956476D01*
X164596924Y-57786645D01*
X165025183Y-57396358D01*
X165092298Y-57253447D01*
X165319946Y-57594147D01*
X165801715Y-57916054D01*
X166370000Y-58029093D01*
X166938285Y-57916054D01*
X167420054Y-57594147D01*
X167640000Y-57264974D01*
X167859946Y-57594147D01*
X168341715Y-57916054D01*
X168910000Y-58029093D01*
X169478285Y-57916054D01*
X169960054Y-57594147D01*
X170180000Y-57264974D01*
X170399946Y-57594147D01*
X170881715Y-57916054D01*
X171450000Y-58029093D01*
X172018285Y-57916054D01*
X172500054Y-57594147D01*
X172720000Y-57264974D01*
X172939946Y-57594147D01*
X173421715Y-57916054D01*
X173990000Y-58029093D01*
X174558285Y-57916054D01*
X175040054Y-57594147D01*
X175361961Y-57112378D01*
X175475000Y-56544093D01*
X175475000Y-56485907D01*
X175361961Y-55917622D01*
X175040054Y-55435853D01*
X174754422Y-55245000D01*
X175040054Y-55054147D01*
X175361961Y-54572378D01*
X175475000Y-54004093D01*
X175475000Y-53945907D01*
X175361961Y-53377622D01*
X175040054Y-52895853D01*
X174558285Y-52573946D01*
X173990000Y-52460907D01*
X173700855Y-52518421D01*
X172744434Y-51562000D01*
X197358000Y-51562000D01*
X197358000Y-149733000D01*
X150622000Y-149733000D01*
X150622000Y-147034039D01*
X170058096Y-147034039D01*
X170218959Y-147422423D01*
X170594866Y-147837389D01*
X171100959Y-148076914D01*
X171323000Y-147955629D01*
X171323000Y-146812000D01*
X171577000Y-146812000D01*
X171577000Y-147955629D01*
X171799041Y-148076914D01*
X172305134Y-147837389D01*
X172681041Y-147422423D01*
X172841904Y-147034039D01*
X172719915Y-146812000D01*
X171577000Y-146812000D01*
X171323000Y-146812000D01*
X170180085Y-146812000D01*
X170058096Y-147034039D01*
X150622000Y-147034039D01*
X150622000Y-146685000D01*
X177606887Y-146685000D01*
X177716120Y-147234151D01*
X178027189Y-147699698D01*
X178492736Y-148010767D01*
X179041887Y-148120000D01*
X179098113Y-148120000D01*
X179647264Y-148010767D01*
X180112811Y-147699698D01*
X180423880Y-147234151D01*
X180532021Y-146690486D01*
X185674120Y-146690486D01*
X185793586Y-146974984D01*
X186464890Y-147229894D01*
X187182646Y-147208504D01*
X187746414Y-146974984D01*
X187865880Y-146690486D01*
X186770000Y-145594605D01*
X185674120Y-146690486D01*
X180532021Y-146690486D01*
X180533113Y-146685000D01*
X180423880Y-146135849D01*
X180112811Y-145670302D01*
X179708297Y-145400014D01*
X179925134Y-145297389D01*
X180094984Y-145109890D01*
X184955106Y-145109890D01*
X184976496Y-145827646D01*
X185210016Y-146391414D01*
X185494514Y-146510880D01*
X186590395Y-145415000D01*
X186949605Y-145415000D01*
X188045486Y-146510880D01*
X188329984Y-146391414D01*
X188584894Y-145720110D01*
X188563504Y-145002354D01*
X188329984Y-144438586D01*
X188045486Y-144319120D01*
X186949605Y-145415000D01*
X186590395Y-145415000D01*
X185494514Y-144319120D01*
X185210016Y-144438586D01*
X184955106Y-145109890D01*
X180094984Y-145109890D01*
X180301041Y-144882423D01*
X180461904Y-144494039D01*
X180339915Y-144272000D01*
X179197000Y-144272000D01*
X179197000Y-144292000D01*
X178943000Y-144292000D01*
X178943000Y-144272000D01*
X177800085Y-144272000D01*
X177678096Y-144494039D01*
X177838959Y-144882423D01*
X178214866Y-145297389D01*
X178431703Y-145400014D01*
X178027189Y-145670302D01*
X177716120Y-146135849D01*
X177606887Y-146685000D01*
X150622000Y-146685000D01*
X150622000Y-142875000D01*
X158505907Y-142875000D01*
X158618946Y-143443285D01*
X158940853Y-143925054D01*
X159422622Y-144246961D01*
X159990907Y-144360000D01*
X160049093Y-144360000D01*
X160617378Y-144246961D01*
X161099147Y-143925054D01*
X161421054Y-143443285D01*
X161534093Y-142875000D01*
X161421054Y-142306715D01*
X161099147Y-141824946D01*
X160758447Y-141597298D01*
X160901358Y-141530183D01*
X161291645Y-141101924D01*
X161461476Y-140691890D01*
X161340155Y-140462000D01*
X160147000Y-140462000D01*
X160147000Y-140482000D01*
X159893000Y-140482000D01*
X159893000Y-140462000D01*
X158699845Y-140462000D01*
X158578524Y-140691890D01*
X158748355Y-141101924D01*
X159138642Y-141530183D01*
X159281553Y-141597298D01*
X158940853Y-141824946D01*
X158618946Y-142306715D01*
X158505907Y-142875000D01*
X150622000Y-142875000D01*
X150622000Y-138151890D01*
X153498524Y-138151890D01*
X153668355Y-138561924D01*
X154058642Y-138990183D01*
X154583108Y-139236486D01*
X154813000Y-139115819D01*
X154813000Y-137922000D01*
X155067000Y-137922000D01*
X155067000Y-139115819D01*
X155296892Y-139236486D01*
X155821358Y-138990183D01*
X156211645Y-138561924D01*
X156381476Y-138151890D01*
X156260155Y-137922000D01*
X155067000Y-137922000D01*
X154813000Y-137922000D01*
X153619845Y-137922000D01*
X153498524Y-138151890D01*
X150622000Y-138151890D01*
X150622000Y-137795000D01*
X158505907Y-137795000D01*
X158618946Y-138363285D01*
X158940853Y-138845054D01*
X159281553Y-139072702D01*
X159138642Y-139139817D01*
X158748355Y-139568076D01*
X158578524Y-139978110D01*
X158699845Y-140208000D01*
X159893000Y-140208000D01*
X159893000Y-140188000D01*
X160147000Y-140188000D01*
X160147000Y-140208000D01*
X161340155Y-140208000D01*
X161461476Y-139978110D01*
X161291645Y-139568076D01*
X160901358Y-139139817D01*
X160758447Y-139072702D01*
X161099147Y-138845054D01*
X161249189Y-138620500D01*
X170002560Y-138620500D01*
X170002560Y-139865000D01*
X170046838Y-140100317D01*
X170185910Y-140316441D01*
X170398110Y-140461431D01*
X170553089Y-140492815D01*
X170407189Y-140590302D01*
X170096120Y-141055849D01*
X169986887Y-141605000D01*
X170096120Y-142154151D01*
X170407189Y-142619698D01*
X170789275Y-142875000D01*
X170407189Y-143130302D01*
X170096120Y-143595849D01*
X169986887Y-144145000D01*
X170096120Y-144694151D01*
X170407189Y-145159698D01*
X170811703Y-145429986D01*
X170594866Y-145532611D01*
X170218959Y-145947577D01*
X170058096Y-146335961D01*
X170180085Y-146558000D01*
X171323000Y-146558000D01*
X171323000Y-146538000D01*
X171577000Y-146538000D01*
X171577000Y-146558000D01*
X172719915Y-146558000D01*
X172841904Y-146335961D01*
X172681041Y-145947577D01*
X172305134Y-145532611D01*
X172088297Y-145429986D01*
X172492811Y-145159698D01*
X172619229Y-144970500D01*
X172694800Y-144970500D01*
X173010706Y-144907663D01*
X173278517Y-144728717D01*
X174275704Y-143731530D01*
X177704782Y-143731530D01*
X177678096Y-143795961D01*
X177800085Y-144018000D01*
X178943000Y-144018000D01*
X178943000Y-143998000D01*
X179197000Y-143998000D01*
X179197000Y-144018000D01*
X180339915Y-144018000D01*
X180461904Y-143795961D01*
X180435218Y-143731530D01*
X186091708Y-143731530D01*
X185793586Y-143855016D01*
X185674120Y-144139514D01*
X186770000Y-145235395D01*
X187865880Y-144139514D01*
X187746414Y-143855016D01*
X187421214Y-143731530D01*
X190154370Y-143731530D01*
X190238903Y-143936115D01*
X190746215Y-144444312D01*
X191409388Y-144719686D01*
X192127462Y-144720313D01*
X192791115Y-144446097D01*
X193299312Y-143938785D01*
X193574686Y-143275612D01*
X193575313Y-142557538D01*
X193301097Y-141893885D01*
X192793785Y-141385688D01*
X192130612Y-141110314D01*
X191412538Y-141109687D01*
X190748885Y-141383903D01*
X190240688Y-141891215D01*
X190162077Y-142080530D01*
X187465762Y-142080530D01*
X187791115Y-141946097D01*
X188299312Y-141438785D01*
X188574686Y-140775612D01*
X188575313Y-140057538D01*
X188301097Y-139393885D01*
X187793785Y-138885688D01*
X187130612Y-138610314D01*
X186412538Y-138609687D01*
X185748885Y-138883903D01*
X185240688Y-139391215D01*
X184965314Y-140054388D01*
X184964687Y-140772462D01*
X185238903Y-141436115D01*
X185746215Y-141944312D01*
X186074264Y-142080530D01*
X180438524Y-142080530D01*
X180533113Y-141605000D01*
X180423880Y-141055849D01*
X180112811Y-140590302D01*
X179730725Y-140335000D01*
X180112811Y-140079698D01*
X180423880Y-139614151D01*
X180533113Y-139065000D01*
X180423880Y-138515849D01*
X180112811Y-138050302D01*
X179647264Y-137739233D01*
X179098113Y-137630000D01*
X179041887Y-137630000D01*
X178492736Y-137739233D01*
X178027189Y-138050302D01*
X178007461Y-138079827D01*
X177138917Y-137211283D01*
X176974801Y-137101624D01*
X174064204Y-134191027D01*
X174587378Y-134086961D01*
X175069147Y-133765054D01*
X175260000Y-133479422D01*
X175450853Y-133765054D01*
X175932622Y-134086961D01*
X176500907Y-134200000D01*
X176559093Y-134200000D01*
X177127378Y-134086961D01*
X177609147Y-133765054D01*
X177800000Y-133479422D01*
X177990853Y-133765054D01*
X178472622Y-134086961D01*
X179040907Y-134200000D01*
X179099093Y-134200000D01*
X179667378Y-134086961D01*
X180149147Y-133765054D01*
X180340000Y-133479422D01*
X180530853Y-133765054D01*
X181012622Y-134086961D01*
X181580907Y-134200000D01*
X181639093Y-134200000D01*
X182207378Y-134086961D01*
X182689147Y-133765054D01*
X182878345Y-133481899D01*
X182878355Y-133481924D01*
X183268642Y-133910183D01*
X183793108Y-134156486D01*
X184023000Y-134035819D01*
X184023000Y-132842000D01*
X184277000Y-132842000D01*
X184277000Y-134035819D01*
X184506892Y-134156486D01*
X185031358Y-133910183D01*
X185421645Y-133481924D01*
X185591476Y-133071890D01*
X185470155Y-132842000D01*
X184277000Y-132842000D01*
X184023000Y-132842000D01*
X184003000Y-132842000D01*
X184003000Y-132588000D01*
X184023000Y-132588000D01*
X184023000Y-132568000D01*
X184277000Y-132568000D01*
X184277000Y-132588000D01*
X185470155Y-132588000D01*
X185591476Y-132358110D01*
X185421645Y-131948076D01*
X185031358Y-131519817D01*
X184888447Y-131452702D01*
X185229147Y-131225054D01*
X185551054Y-130743285D01*
X185664093Y-130175000D01*
X185551054Y-129606715D01*
X185229147Y-129124946D01*
X184899974Y-128905000D01*
X185229147Y-128685054D01*
X185551054Y-128203285D01*
X185664093Y-127635000D01*
X185551054Y-127066715D01*
X185229147Y-126584946D01*
X184899974Y-126365000D01*
X185229147Y-126145054D01*
X185551054Y-125663285D01*
X185664093Y-125095000D01*
X185551054Y-124526715D01*
X185229147Y-124044946D01*
X184747378Y-123723039D01*
X184179093Y-123610000D01*
X184120907Y-123610000D01*
X183552622Y-123723039D01*
X183070853Y-124044946D01*
X183070029Y-124046179D01*
X183063162Y-124009683D01*
X182924090Y-123793559D01*
X182711890Y-123648569D01*
X182460000Y-123597560D01*
X180760000Y-123597560D01*
X180524683Y-123641838D01*
X180308559Y-123780910D01*
X180163569Y-123993110D01*
X180152159Y-124049454D01*
X180149147Y-124044946D01*
X179667378Y-123723039D01*
X179099093Y-123610000D01*
X179040907Y-123610000D01*
X178472622Y-123723039D01*
X177990853Y-124044946D01*
X177990029Y-124046179D01*
X177983162Y-124009683D01*
X177844090Y-123793559D01*
X177631890Y-123648569D01*
X177380000Y-123597560D01*
X175680000Y-123597560D01*
X175444683Y-123641838D01*
X175228559Y-123780910D01*
X175083569Y-123993110D01*
X175072159Y-124049454D01*
X175069147Y-124044946D01*
X174587378Y-123723039D01*
X174019093Y-123610000D01*
X173960907Y-123610000D01*
X173392622Y-123723039D01*
X172910853Y-124044946D01*
X172910029Y-124046179D01*
X172903162Y-124009683D01*
X172764090Y-123793559D01*
X172551890Y-123648569D01*
X172300000Y-123597560D01*
X170600000Y-123597560D01*
X170364683Y-123641838D01*
X170148559Y-123780910D01*
X170003569Y-123993110D01*
X169952560Y-124245000D01*
X169952560Y-125945000D01*
X169996838Y-126180317D01*
X170135910Y-126396441D01*
X170348110Y-126541431D01*
X170415541Y-126555086D01*
X170370853Y-126584946D01*
X170048946Y-127066715D01*
X169935907Y-127635000D01*
X170048946Y-128203285D01*
X170370853Y-128685054D01*
X170700026Y-128905000D01*
X170370853Y-129124946D01*
X170048946Y-129606715D01*
X169935907Y-130175000D01*
X170048946Y-130743285D01*
X170370853Y-131225054D01*
X170675160Y-131428385D01*
X170609914Y-131455344D01*
X170191812Y-131872717D01*
X169965258Y-132418319D01*
X169964743Y-133009089D01*
X170190344Y-133555086D01*
X170607717Y-133973188D01*
X171153319Y-134199742D01*
X171744089Y-134200257D01*
X171972033Y-134106073D01*
X172005584Y-134274747D01*
X172176271Y-134530198D01*
X174615573Y-136969500D01*
X161249189Y-136969500D01*
X161099147Y-136744946D01*
X161057548Y-136717150D01*
X161105317Y-136708162D01*
X161321441Y-136569090D01*
X161466431Y-136356890D01*
X161517440Y-136105000D01*
X161517440Y-134405000D01*
X161473162Y-134169683D01*
X161334090Y-133953559D01*
X161121890Y-133808569D01*
X160870000Y-133757560D01*
X159170000Y-133757560D01*
X158934683Y-133801838D01*
X158718559Y-133940910D01*
X158573569Y-134153110D01*
X158522560Y-134405000D01*
X158522560Y-136105000D01*
X158566838Y-136340317D01*
X158705910Y-136556441D01*
X158918110Y-136701431D01*
X158985541Y-136715086D01*
X158940853Y-136744946D01*
X158618946Y-137226715D01*
X158505907Y-137795000D01*
X150622000Y-137795000D01*
X150622000Y-134405000D01*
X153442560Y-134405000D01*
X153442560Y-136105000D01*
X153486838Y-136340317D01*
X153625910Y-136556441D01*
X153838110Y-136701431D01*
X153946107Y-136723301D01*
X153668355Y-137028076D01*
X153498524Y-137438110D01*
X153619845Y-137668000D01*
X154813000Y-137668000D01*
X154813000Y-137648000D01*
X155067000Y-137648000D01*
X155067000Y-137668000D01*
X156260155Y-137668000D01*
X156381476Y-137438110D01*
X156211645Y-137028076D01*
X155935499Y-136725063D01*
X156025317Y-136708162D01*
X156241441Y-136569090D01*
X156386431Y-136356890D01*
X156437440Y-136105000D01*
X156437440Y-134405000D01*
X156393162Y-134169683D01*
X156254090Y-133953559D01*
X156041890Y-133808569D01*
X155790000Y-133757560D01*
X154090000Y-133757560D01*
X153854683Y-133801838D01*
X153638559Y-133940910D01*
X153493569Y-134153110D01*
X153442560Y-134405000D01*
X150622000Y-134405000D01*
X150622000Y-129912745D01*
X152881861Y-129912745D01*
X152955995Y-130158864D01*
X153493223Y-130351965D01*
X154063454Y-130324778D01*
X154464005Y-130158864D01*
X154538139Y-129912745D01*
X153710000Y-129084605D01*
X152881861Y-129912745D01*
X150622000Y-129912745D01*
X150622000Y-128688223D01*
X152263035Y-128688223D01*
X152290222Y-129258454D01*
X152456136Y-129659005D01*
X152702255Y-129733139D01*
X153530395Y-128905000D01*
X153889605Y-128905000D01*
X154717745Y-129733139D01*
X154963864Y-129659005D01*
X154966196Y-129652517D01*
X154992757Y-129716800D01*
X155396077Y-130120824D01*
X155923309Y-130339750D01*
X156494187Y-130340248D01*
X157021800Y-130122243D01*
X157425824Y-129718923D01*
X157644750Y-129191691D01*
X157645248Y-128620813D01*
X157427243Y-128093200D01*
X157023923Y-127689176D01*
X156496691Y-127470250D01*
X155925813Y-127469752D01*
X155398200Y-127687757D01*
X154994176Y-128091077D01*
X154966577Y-128157544D01*
X154963864Y-128150995D01*
X154717745Y-128076861D01*
X153889605Y-128905000D01*
X153530395Y-128905000D01*
X152702255Y-128076861D01*
X152456136Y-128150995D01*
X152263035Y-128688223D01*
X150622000Y-128688223D01*
X150622000Y-127897255D01*
X152881861Y-127897255D01*
X153710000Y-128725395D01*
X154538139Y-127897255D01*
X154464005Y-127651136D01*
X153926777Y-127458035D01*
X153356546Y-127485222D01*
X152955995Y-127651136D01*
X152881861Y-127897255D01*
X150622000Y-127897255D01*
X150622000Y-126102745D01*
X154111861Y-126102745D01*
X154185995Y-126348864D01*
X154723223Y-126541965D01*
X155293454Y-126514778D01*
X155694005Y-126348864D01*
X155768139Y-126102745D01*
X154940000Y-125274605D01*
X154111861Y-126102745D01*
X150622000Y-126102745D01*
X150622000Y-122295000D01*
X153492560Y-122295000D01*
X153492560Y-123895000D01*
X153536838Y-124130317D01*
X153675910Y-124346441D01*
X153682548Y-124350977D01*
X153493035Y-124878223D01*
X153520222Y-125448454D01*
X153686136Y-125849005D01*
X153932255Y-125923139D01*
X154760395Y-125095000D01*
X154746252Y-125080858D01*
X154925858Y-124901253D01*
X154940000Y-124915395D01*
X154954143Y-124901253D01*
X155133748Y-125080858D01*
X155119605Y-125095000D01*
X155947745Y-125923139D01*
X156193864Y-125849005D01*
X156386965Y-125311777D01*
X156359778Y-124741546D01*
X156197616Y-124350053D01*
X156336431Y-124146890D01*
X156387440Y-123895000D01*
X156387440Y-122555000D01*
X192795907Y-122555000D01*
X192908946Y-123123285D01*
X193230853Y-123605054D01*
X193560026Y-123825000D01*
X193230853Y-124044946D01*
X192908946Y-124526715D01*
X192795907Y-125095000D01*
X192908946Y-125663285D01*
X193230853Y-126145054D01*
X193272452Y-126172850D01*
X193224683Y-126181838D01*
X193008559Y-126320910D01*
X192863569Y-126533110D01*
X192812560Y-126785000D01*
X192812560Y-128485000D01*
X192856838Y-128720317D01*
X192995910Y-128936441D01*
X193208110Y-129081431D01*
X193460000Y-129132440D01*
X195160000Y-129132440D01*
X195395317Y-129088162D01*
X195611441Y-128949090D01*
X195756431Y-128736890D01*
X195807440Y-128485000D01*
X195807440Y-126785000D01*
X195763162Y-126549683D01*
X195624090Y-126333559D01*
X195411890Y-126188569D01*
X195344459Y-126174914D01*
X195389147Y-126145054D01*
X195711054Y-125663285D01*
X195824093Y-125095000D01*
X195711054Y-124526715D01*
X195389147Y-124044946D01*
X195059974Y-123825000D01*
X195389147Y-123605054D01*
X195711054Y-123123285D01*
X195824093Y-122555000D01*
X195711054Y-121986715D01*
X195389147Y-121504946D01*
X194907378Y-121183039D01*
X194339093Y-121070000D01*
X194280907Y-121070000D01*
X193712622Y-121183039D01*
X193230853Y-121504946D01*
X192908946Y-121986715D01*
X192795907Y-122555000D01*
X156387440Y-122555000D01*
X156387440Y-122295000D01*
X156343162Y-122059683D01*
X156204090Y-121843559D01*
X155991890Y-121698569D01*
X155765500Y-121652724D01*
X155765500Y-120356934D01*
X158529388Y-117593046D01*
X158618946Y-118043285D01*
X158940853Y-118525054D01*
X159270026Y-118745000D01*
X158940853Y-118964946D01*
X158618946Y-119446715D01*
X158505907Y-120015000D01*
X158618946Y-120583285D01*
X158940853Y-121065054D01*
X159422622Y-121386961D01*
X159990907Y-121500000D01*
X160049093Y-121500000D01*
X160617378Y-121386961D01*
X161099147Y-121065054D01*
X161421054Y-120583285D01*
X161534093Y-120015000D01*
X161421054Y-119446715D01*
X161185404Y-119094039D01*
X170058096Y-119094039D01*
X170218959Y-119482423D01*
X170594866Y-119897389D01*
X171100959Y-120136914D01*
X171323000Y-120015629D01*
X171323000Y-118872000D01*
X171577000Y-118872000D01*
X171577000Y-120015629D01*
X171799041Y-120136914D01*
X172305134Y-119897389D01*
X172681041Y-119482423D01*
X172841904Y-119094039D01*
X172719915Y-118872000D01*
X171577000Y-118872000D01*
X171323000Y-118872000D01*
X170180085Y-118872000D01*
X170058096Y-119094039D01*
X161185404Y-119094039D01*
X161099147Y-118964946D01*
X160769974Y-118745000D01*
X161099147Y-118525054D01*
X161421054Y-118043285D01*
X161534093Y-117475000D01*
X161421054Y-116906715D01*
X161099147Y-116424946D01*
X160769974Y-116205000D01*
X161099147Y-115985054D01*
X161421054Y-115503285D01*
X161534093Y-114935000D01*
X161421054Y-114366715D01*
X161099147Y-113884946D01*
X161055223Y-113855597D01*
X161229698Y-113783327D01*
X161408327Y-113604699D01*
X161505000Y-113371310D01*
X161505000Y-112680750D01*
X161346250Y-112522000D01*
X160147000Y-112522000D01*
X160147000Y-112542000D01*
X159893000Y-112542000D01*
X159893000Y-112522000D01*
X158693750Y-112522000D01*
X158535000Y-112680750D01*
X158535000Y-113371310D01*
X158631673Y-113604699D01*
X158810302Y-113783327D01*
X158984777Y-113855597D01*
X158940853Y-113884946D01*
X158618946Y-114366715D01*
X158505907Y-114935000D01*
X158563421Y-115224145D01*
X154356283Y-119431283D01*
X154177337Y-119699094D01*
X154177337Y-119699095D01*
X154114500Y-120015000D01*
X154114500Y-121652358D01*
X153904683Y-121691838D01*
X153688559Y-121830910D01*
X153543569Y-122043110D01*
X153492560Y-122295000D01*
X150622000Y-122295000D01*
X150622000Y-115291890D01*
X153498524Y-115291890D01*
X153668355Y-115701924D01*
X154058642Y-116130183D01*
X154583108Y-116376486D01*
X154813000Y-116255819D01*
X154813000Y-115062000D01*
X155067000Y-115062000D01*
X155067000Y-116255819D01*
X155296892Y-116376486D01*
X155821358Y-116130183D01*
X156211645Y-115701924D01*
X156381476Y-115291890D01*
X156260155Y-115062000D01*
X155067000Y-115062000D01*
X154813000Y-115062000D01*
X153619845Y-115062000D01*
X153498524Y-115291890D01*
X150622000Y-115291890D01*
X150622000Y-111545000D01*
X153442560Y-111545000D01*
X153442560Y-113245000D01*
X153486838Y-113480317D01*
X153625910Y-113696441D01*
X153838110Y-113841431D01*
X153946107Y-113863301D01*
X153668355Y-114168076D01*
X153498524Y-114578110D01*
X153619845Y-114808000D01*
X154813000Y-114808000D01*
X154813000Y-114788000D01*
X155067000Y-114788000D01*
X155067000Y-114808000D01*
X156260155Y-114808000D01*
X156381476Y-114578110D01*
X156211645Y-114168076D01*
X155935499Y-113865063D01*
X156025317Y-113848162D01*
X156241441Y-113709090D01*
X156386431Y-113496890D01*
X156437440Y-113245000D01*
X156437440Y-111545000D01*
X156413674Y-111418690D01*
X158535000Y-111418690D01*
X158535000Y-112109250D01*
X158693750Y-112268000D01*
X159893000Y-112268000D01*
X159893000Y-111068750D01*
X160147000Y-111068750D01*
X160147000Y-112268000D01*
X161346250Y-112268000D01*
X161505000Y-112109250D01*
X161505000Y-111418690D01*
X161408327Y-111185301D01*
X161348026Y-111125000D01*
X169986887Y-111125000D01*
X170096120Y-111674151D01*
X170407189Y-112139698D01*
X170789275Y-112395000D01*
X170407189Y-112650302D01*
X170096120Y-113115849D01*
X169986887Y-113665000D01*
X170096120Y-114214151D01*
X170407189Y-114679698D01*
X170789275Y-114935000D01*
X170407189Y-115190302D01*
X170096120Y-115655849D01*
X169986887Y-116205000D01*
X170096120Y-116754151D01*
X170407189Y-117219698D01*
X170811703Y-117489986D01*
X170594866Y-117592611D01*
X170218959Y-118007577D01*
X170058096Y-118395961D01*
X170180085Y-118618000D01*
X171323000Y-118618000D01*
X171323000Y-118598000D01*
X171577000Y-118598000D01*
X171577000Y-118618000D01*
X172719915Y-118618000D01*
X172841904Y-118395961D01*
X172681041Y-118007577D01*
X172305134Y-117592611D01*
X172088297Y-117489986D01*
X172492811Y-117219698D01*
X172803880Y-116754151D01*
X172913113Y-116205000D01*
X172803880Y-115655849D01*
X172492811Y-115190302D01*
X172110725Y-114935000D01*
X172492811Y-114679698D01*
X172803880Y-114214151D01*
X172913113Y-113665000D01*
X177606887Y-113665000D01*
X177716120Y-114214151D01*
X178027189Y-114679698D01*
X178409275Y-114935000D01*
X178027189Y-115190302D01*
X177716120Y-115655849D01*
X177606887Y-116205000D01*
X177716120Y-116754151D01*
X178027189Y-117219698D01*
X178409275Y-117475000D01*
X178027189Y-117730302D01*
X177716120Y-118195849D01*
X177606887Y-118745000D01*
X177716120Y-119294151D01*
X178027189Y-119759698D01*
X178492736Y-120070767D01*
X179041887Y-120180000D01*
X179098113Y-120180000D01*
X179647264Y-120070767D01*
X180112811Y-119759698D01*
X180423880Y-119294151D01*
X180533113Y-118745000D01*
X180423880Y-118195849D01*
X180112811Y-117730302D01*
X179730725Y-117475000D01*
X180112811Y-117219698D01*
X180423880Y-116754151D01*
X180533113Y-116205000D01*
X180423880Y-115655849D01*
X180112811Y-115190302D01*
X179730725Y-114935000D01*
X180112811Y-114679698D01*
X180423880Y-114214151D01*
X180533113Y-113665000D01*
X180423880Y-113115849D01*
X180112811Y-112650302D01*
X179708297Y-112380014D01*
X179925134Y-112277389D01*
X180301041Y-111862423D01*
X180461904Y-111474039D01*
X180339915Y-111252000D01*
X179197000Y-111252000D01*
X179197000Y-111272000D01*
X178943000Y-111272000D01*
X178943000Y-111252000D01*
X177800085Y-111252000D01*
X177678096Y-111474039D01*
X177838959Y-111862423D01*
X178214866Y-112277389D01*
X178431703Y-112380014D01*
X178027189Y-112650302D01*
X177716120Y-113115849D01*
X177606887Y-113665000D01*
X172913113Y-113665000D01*
X172803880Y-113115849D01*
X172492811Y-112650302D01*
X172110725Y-112395000D01*
X172492811Y-112139698D01*
X172803880Y-111674151D01*
X172913113Y-111125000D01*
X172803880Y-110575849D01*
X172492811Y-110110302D01*
X172088297Y-109840014D01*
X172305134Y-109737389D01*
X172681041Y-109322423D01*
X172841904Y-108934039D01*
X172719915Y-108712000D01*
X171577000Y-108712000D01*
X171577000Y-108732000D01*
X171323000Y-108732000D01*
X171323000Y-108712000D01*
X170180085Y-108712000D01*
X170058096Y-108934039D01*
X170218959Y-109322423D01*
X170594866Y-109737389D01*
X170811703Y-109840014D01*
X170407189Y-110110302D01*
X170096120Y-110575849D01*
X169986887Y-111125000D01*
X161348026Y-111125000D01*
X161229698Y-111006673D01*
X160996309Y-110910000D01*
X160305750Y-110910000D01*
X160147000Y-111068750D01*
X159893000Y-111068750D01*
X159734250Y-110910000D01*
X159043691Y-110910000D01*
X158810302Y-111006673D01*
X158631673Y-111185301D01*
X158535000Y-111418690D01*
X156413674Y-111418690D01*
X156393162Y-111309683D01*
X156254090Y-111093559D01*
X156041890Y-110948569D01*
X155790000Y-110897560D01*
X154090000Y-110897560D01*
X153854683Y-110941838D01*
X153638559Y-111080910D01*
X153493569Y-111293110D01*
X153442560Y-111545000D01*
X150622000Y-111545000D01*
X150622000Y-106045000D01*
X169986887Y-106045000D01*
X170096120Y-106594151D01*
X170407189Y-107059698D01*
X170811703Y-107329986D01*
X170594866Y-107432611D01*
X170218959Y-107847577D01*
X170058096Y-108235961D01*
X170180085Y-108458000D01*
X171323000Y-108458000D01*
X171323000Y-108438000D01*
X171577000Y-108438000D01*
X171577000Y-108458000D01*
X172719915Y-108458000D01*
X172841904Y-108235961D01*
X172681041Y-107847577D01*
X172305134Y-107432611D01*
X172088297Y-107329986D01*
X172492811Y-107059698D01*
X172803880Y-106594151D01*
X172913113Y-106045000D01*
X172803880Y-105495849D01*
X172492811Y-105030302D01*
X172348535Y-104933899D01*
X172485317Y-104908162D01*
X172701441Y-104769090D01*
X172846431Y-104556890D01*
X172897440Y-104305000D01*
X172897440Y-103505000D01*
X177606887Y-103505000D01*
X177716120Y-104054151D01*
X178027189Y-104519698D01*
X178409275Y-104775000D01*
X178027189Y-105030302D01*
X177716120Y-105495849D01*
X177606887Y-106045000D01*
X177716120Y-106594151D01*
X178027189Y-107059698D01*
X178409275Y-107315000D01*
X178027189Y-107570302D01*
X177716120Y-108035849D01*
X177606887Y-108585000D01*
X177716120Y-109134151D01*
X178027189Y-109599698D01*
X178431703Y-109869986D01*
X178214866Y-109972611D01*
X177838959Y-110387577D01*
X177678096Y-110775961D01*
X177800085Y-110998000D01*
X178943000Y-110998000D01*
X178943000Y-110978000D01*
X179197000Y-110978000D01*
X179197000Y-110998000D01*
X180339915Y-110998000D01*
X180461904Y-110775961D01*
X180301041Y-110387577D01*
X179925134Y-109972611D01*
X179708297Y-109869986D01*
X180112811Y-109599698D01*
X180423880Y-109134151D01*
X180533113Y-108585000D01*
X180423880Y-108035849D01*
X180112811Y-107570302D01*
X179730725Y-107315000D01*
X180112811Y-107059698D01*
X180423880Y-106594151D01*
X180533113Y-106045000D01*
X180423880Y-105495849D01*
X180112811Y-105030302D01*
X179730725Y-104775000D01*
X180112811Y-104519698D01*
X180423880Y-104054151D01*
X180533113Y-103505000D01*
X180423880Y-102955849D01*
X180112811Y-102490302D01*
X179647264Y-102179233D01*
X179098113Y-102070000D01*
X179041887Y-102070000D01*
X178492736Y-102179233D01*
X178027189Y-102490302D01*
X177716120Y-102955849D01*
X177606887Y-103505000D01*
X172897440Y-103505000D01*
X172897440Y-102705000D01*
X172853162Y-102469683D01*
X172714090Y-102253559D01*
X172501890Y-102108569D01*
X172250000Y-102057560D01*
X170650000Y-102057560D01*
X170414683Y-102101838D01*
X170198559Y-102240910D01*
X170053569Y-102453110D01*
X170002560Y-102705000D01*
X170002560Y-104305000D01*
X170046838Y-104540317D01*
X170185910Y-104756441D01*
X170398110Y-104901431D01*
X170553089Y-104932815D01*
X170407189Y-105030302D01*
X170096120Y-105495849D01*
X169986887Y-106045000D01*
X150622000Y-106045000D01*
X150622000Y-101435000D01*
X183972560Y-101435000D01*
X183972560Y-103035000D01*
X184016838Y-103270317D01*
X184155910Y-103486441D01*
X184368110Y-103631431D01*
X184512375Y-103660645D01*
X184405302Y-103732189D01*
X184094233Y-104197736D01*
X183985000Y-104746887D01*
X183985000Y-104803113D01*
X184094233Y-105352264D01*
X184405302Y-105817811D01*
X184745314Y-106045000D01*
X184405302Y-106272189D01*
X184094233Y-106737736D01*
X183985000Y-107286887D01*
X183985000Y-107343113D01*
X184094233Y-107892264D01*
X184405302Y-108357811D01*
X184745314Y-108585000D01*
X184405302Y-108812189D01*
X184094233Y-109277736D01*
X183985000Y-109826887D01*
X183985000Y-109883113D01*
X184094233Y-110432264D01*
X184405302Y-110897811D01*
X184745314Y-111125000D01*
X184405302Y-111352189D01*
X184094233Y-111817736D01*
X183985000Y-112366887D01*
X183985000Y-112423113D01*
X184094233Y-112972264D01*
X184405302Y-113437811D01*
X184745314Y-113665000D01*
X184405302Y-113892189D01*
X184094233Y-114357736D01*
X183985000Y-114906887D01*
X183985000Y-114963113D01*
X184094233Y-115512264D01*
X184405302Y-115977811D01*
X184745314Y-116205000D01*
X184405302Y-116432189D01*
X184094233Y-116897736D01*
X183985000Y-117446887D01*
X183985000Y-117503113D01*
X184094233Y-118052264D01*
X184405302Y-118517811D01*
X184745314Y-118745000D01*
X184405302Y-118972189D01*
X184094233Y-119437736D01*
X183985000Y-119986887D01*
X183985000Y-120043113D01*
X184094233Y-120592264D01*
X184405302Y-121057811D01*
X184870849Y-121368880D01*
X185420000Y-121478113D01*
X185969151Y-121368880D01*
X186434698Y-121057811D01*
X186745767Y-120592264D01*
X186855000Y-120043113D01*
X186855000Y-119986887D01*
X186745767Y-119437736D01*
X186434698Y-118972189D01*
X186094686Y-118745000D01*
X186434698Y-118517811D01*
X186745767Y-118052264D01*
X186855000Y-117503113D01*
X186855000Y-117446887D01*
X186745767Y-116897736D01*
X186434698Y-116432189D01*
X186094686Y-116205000D01*
X186434698Y-115977811D01*
X186745767Y-115512264D01*
X186855000Y-114963113D01*
X186855000Y-114906887D01*
X186745767Y-114357736D01*
X186434698Y-113892189D01*
X186094686Y-113665000D01*
X186434698Y-113437811D01*
X186745767Y-112972264D01*
X186855000Y-112423113D01*
X186855000Y-112366887D01*
X186745767Y-111817736D01*
X186434698Y-111352189D01*
X186094686Y-111125000D01*
X186434698Y-110897811D01*
X186745767Y-110432264D01*
X186855000Y-109883113D01*
X186855000Y-109826887D01*
X186745767Y-109277736D01*
X186434698Y-108812189D01*
X186094686Y-108585000D01*
X186434698Y-108357811D01*
X186745767Y-107892264D01*
X186855000Y-107343113D01*
X186855000Y-107315000D01*
X192795907Y-107315000D01*
X192908946Y-107883285D01*
X193230853Y-108365054D01*
X193560026Y-108585000D01*
X193230853Y-108804946D01*
X192908946Y-109286715D01*
X192795907Y-109855000D01*
X192908946Y-110423285D01*
X193230853Y-110905054D01*
X193272452Y-110932850D01*
X193224683Y-110941838D01*
X193008559Y-111080910D01*
X192863569Y-111293110D01*
X192812560Y-111545000D01*
X192812560Y-113245000D01*
X192856838Y-113480317D01*
X192995910Y-113696441D01*
X193208110Y-113841431D01*
X193460000Y-113892440D01*
X195160000Y-113892440D01*
X195395317Y-113848162D01*
X195611441Y-113709090D01*
X195756431Y-113496890D01*
X195807440Y-113245000D01*
X195807440Y-111545000D01*
X195763162Y-111309683D01*
X195624090Y-111093559D01*
X195411890Y-110948569D01*
X195344459Y-110934914D01*
X195389147Y-110905054D01*
X195711054Y-110423285D01*
X195824093Y-109855000D01*
X195711054Y-109286715D01*
X195389147Y-108804946D01*
X195059974Y-108585000D01*
X195389147Y-108365054D01*
X195711054Y-107883285D01*
X195824093Y-107315000D01*
X195711054Y-106746715D01*
X195389147Y-106264946D01*
X194907378Y-105943039D01*
X194339093Y-105830000D01*
X194280907Y-105830000D01*
X193712622Y-105943039D01*
X193230853Y-106264946D01*
X192908946Y-106746715D01*
X192795907Y-107315000D01*
X186855000Y-107315000D01*
X186855000Y-107286887D01*
X186745767Y-106737736D01*
X186434698Y-106272189D01*
X186094686Y-106045000D01*
X186434698Y-105817811D01*
X186745767Y-105352264D01*
X186855000Y-104803113D01*
X186855000Y-104746887D01*
X186745767Y-104197736D01*
X186434698Y-103732189D01*
X186329428Y-103661850D01*
X186455317Y-103638162D01*
X186671441Y-103499090D01*
X186816431Y-103286890D01*
X186867440Y-103035000D01*
X186867440Y-101435000D01*
X186823162Y-101199683D01*
X186684090Y-100983559D01*
X186471890Y-100838569D01*
X186220000Y-100787560D01*
X184620000Y-100787560D01*
X184384683Y-100831838D01*
X184168559Y-100970910D01*
X184023569Y-101183110D01*
X183972560Y-101435000D01*
X150622000Y-101435000D01*
X150622000Y-97511890D01*
X158578524Y-97511890D01*
X158748355Y-97921924D01*
X159138642Y-98350183D01*
X159663108Y-98596486D01*
X159893000Y-98475819D01*
X159893000Y-97282000D01*
X160147000Y-97282000D01*
X160147000Y-98475819D01*
X160376892Y-98596486D01*
X160901358Y-98350183D01*
X161291645Y-97921924D01*
X161461476Y-97511890D01*
X161340155Y-97282000D01*
X160147000Y-97282000D01*
X159893000Y-97282000D01*
X158699845Y-97282000D01*
X158578524Y-97511890D01*
X150622000Y-97511890D01*
X150622000Y-92431890D01*
X153498524Y-92431890D01*
X153668355Y-92841924D01*
X154058642Y-93270183D01*
X154583108Y-93516486D01*
X154813000Y-93395819D01*
X154813000Y-92202000D01*
X155067000Y-92202000D01*
X155067000Y-93395819D01*
X155296892Y-93516486D01*
X155821358Y-93270183D01*
X156211645Y-92841924D01*
X156381476Y-92431890D01*
X156260155Y-92202000D01*
X155067000Y-92202000D01*
X154813000Y-92202000D01*
X153619845Y-92202000D01*
X153498524Y-92431890D01*
X150622000Y-92431890D01*
X150622000Y-92075000D01*
X158505907Y-92075000D01*
X158618946Y-92643285D01*
X158940853Y-93125054D01*
X159270026Y-93345000D01*
X158940853Y-93564946D01*
X158618946Y-94046715D01*
X158505907Y-94615000D01*
X158618946Y-95183285D01*
X158940853Y-95665054D01*
X159281553Y-95892702D01*
X159138642Y-95959817D01*
X158748355Y-96388076D01*
X158578524Y-96798110D01*
X158699845Y-97028000D01*
X159893000Y-97028000D01*
X159893000Y-97008000D01*
X160147000Y-97008000D01*
X160147000Y-97028000D01*
X161340155Y-97028000D01*
X161461476Y-96798110D01*
X161291645Y-96388076D01*
X160901358Y-95959817D01*
X160758447Y-95892702D01*
X161099147Y-95665054D01*
X161421054Y-95183285D01*
X161534093Y-94615000D01*
X161421054Y-94046715D01*
X161185404Y-93694039D01*
X170058096Y-93694039D01*
X170218959Y-94082423D01*
X170594866Y-94497389D01*
X171100959Y-94736914D01*
X171323000Y-94615629D01*
X171323000Y-93472000D01*
X171577000Y-93472000D01*
X171577000Y-94615629D01*
X171799041Y-94736914D01*
X172305134Y-94497389D01*
X172681041Y-94082423D01*
X172841904Y-93694039D01*
X172719915Y-93472000D01*
X171577000Y-93472000D01*
X171323000Y-93472000D01*
X170180085Y-93472000D01*
X170058096Y-93694039D01*
X161185404Y-93694039D01*
X161099147Y-93564946D01*
X160769974Y-93345000D01*
X161099147Y-93125054D01*
X161249189Y-92900500D01*
X161314800Y-92900500D01*
X161630706Y-92837663D01*
X161898517Y-92658717D01*
X165466733Y-89090500D01*
X170280771Y-89090500D01*
X170407189Y-89279698D01*
X170789275Y-89535000D01*
X170407189Y-89790302D01*
X170096120Y-90255849D01*
X169986887Y-90805000D01*
X170096120Y-91354151D01*
X170407189Y-91819698D01*
X170811703Y-92089986D01*
X170594866Y-92192611D01*
X170218959Y-92607577D01*
X170058096Y-92995961D01*
X170180085Y-93218000D01*
X171323000Y-93218000D01*
X171323000Y-93198000D01*
X171577000Y-93198000D01*
X171577000Y-93218000D01*
X172719915Y-93218000D01*
X172841904Y-92995961D01*
X172681041Y-92607577D01*
X172305134Y-92192611D01*
X172088297Y-92089986D01*
X172492811Y-91819698D01*
X172803880Y-91354151D01*
X172913113Y-90805000D01*
X172803880Y-90255849D01*
X172492811Y-89790302D01*
X172110725Y-89535000D01*
X172492811Y-89279698D01*
X172803880Y-88814151D01*
X172913113Y-88265000D01*
X177606887Y-88265000D01*
X177716120Y-88814151D01*
X178027189Y-89279698D01*
X178409275Y-89535000D01*
X178027189Y-89790302D01*
X177716120Y-90255849D01*
X177606887Y-90805000D01*
X177716120Y-91354151D01*
X178027189Y-91819698D01*
X178409275Y-92075000D01*
X178027189Y-92330302D01*
X177716120Y-92795849D01*
X177606887Y-93345000D01*
X177716120Y-93894151D01*
X178027189Y-94359698D01*
X178492736Y-94670767D01*
X179041887Y-94780000D01*
X179098113Y-94780000D01*
X179647264Y-94670767D01*
X180112811Y-94359698D01*
X180423880Y-93894151D01*
X180533113Y-93345000D01*
X180423880Y-92795849D01*
X180112811Y-92330302D01*
X179730725Y-92075000D01*
X180112811Y-91819698D01*
X180423880Y-91354151D01*
X180533113Y-90805000D01*
X180423880Y-90255849D01*
X180112811Y-89790302D01*
X179730725Y-89535000D01*
X180112811Y-89279698D01*
X180423880Y-88814151D01*
X180533113Y-88265000D01*
X180423880Y-87715849D01*
X180112811Y-87250302D01*
X179708297Y-86980014D01*
X179925134Y-86877389D01*
X180301041Y-86462423D01*
X180461904Y-86074039D01*
X180339915Y-85852000D01*
X179197000Y-85852000D01*
X179197000Y-85872000D01*
X178943000Y-85872000D01*
X178943000Y-85852000D01*
X177800085Y-85852000D01*
X177678096Y-86074039D01*
X177838959Y-86462423D01*
X178214866Y-86877389D01*
X178431703Y-86980014D01*
X178027189Y-87250302D01*
X177716120Y-87715849D01*
X177606887Y-88265000D01*
X172913113Y-88265000D01*
X172803880Y-87715849D01*
X172492811Y-87250302D01*
X172110725Y-86995000D01*
X172492811Y-86739698D01*
X172803880Y-86274151D01*
X172913113Y-85725000D01*
X172803880Y-85175849D01*
X172492811Y-84710302D01*
X172088297Y-84440014D01*
X172305134Y-84337389D01*
X172681041Y-83922423D01*
X172841904Y-83534039D01*
X172719915Y-83312000D01*
X171577000Y-83312000D01*
X171577000Y-83332000D01*
X171323000Y-83332000D01*
X171323000Y-83312000D01*
X170180085Y-83312000D01*
X170058096Y-83534039D01*
X170218959Y-83922423D01*
X170594866Y-84337389D01*
X170811703Y-84440014D01*
X170407189Y-84710302D01*
X170096120Y-85175849D01*
X169986887Y-85725000D01*
X170096120Y-86274151D01*
X170407189Y-86739698D01*
X170789275Y-86995000D01*
X170407189Y-87250302D01*
X170280771Y-87439500D01*
X165124805Y-87439500D01*
X165124800Y-87439499D01*
X164808895Y-87502337D01*
X164541083Y-87681283D01*
X164541081Y-87681286D01*
X161138510Y-91083856D01*
X161099147Y-91024946D01*
X161057548Y-90997150D01*
X161105317Y-90988162D01*
X161321441Y-90849090D01*
X161466431Y-90636890D01*
X161517440Y-90385000D01*
X161517440Y-88685000D01*
X161473162Y-88449683D01*
X161334090Y-88233559D01*
X161121890Y-88088569D01*
X160870000Y-88037560D01*
X159170000Y-88037560D01*
X158934683Y-88081838D01*
X158718559Y-88220910D01*
X158573569Y-88433110D01*
X158522560Y-88685000D01*
X158522560Y-90385000D01*
X158566838Y-90620317D01*
X158705910Y-90836441D01*
X158918110Y-90981431D01*
X158985541Y-90995086D01*
X158940853Y-91024946D01*
X158618946Y-91506715D01*
X158505907Y-92075000D01*
X150622000Y-92075000D01*
X150622000Y-82968223D01*
X152263035Y-82968223D01*
X152290222Y-83538454D01*
X152456136Y-83939005D01*
X152702255Y-84013139D01*
X153530395Y-83185000D01*
X152702255Y-82356861D01*
X152456136Y-82430995D01*
X152263035Y-82968223D01*
X150622000Y-82968223D01*
X150622000Y-69571890D01*
X153498524Y-69571890D01*
X153668355Y-69981924D01*
X154058642Y-70410183D01*
X154583108Y-70656486D01*
X154813000Y-70535819D01*
X154813000Y-69342000D01*
X153619845Y-69342000D01*
X153498524Y-69571890D01*
X150622000Y-69571890D01*
X150622000Y-57522745D01*
X152841861Y-57522745D01*
X152915995Y-57768864D01*
X153453223Y-57961965D01*
X154023454Y-57934778D01*
X154424005Y-57768864D01*
X154498139Y-57522745D01*
X153670000Y-56694605D01*
X152841861Y-57522745D01*
X150622000Y-57522745D01*
X150622000Y-51562000D01*
X161786267Y-51562000D01*
X160030930Y-53317336D01*
G36*
X169479566Y-78547199D02*
X159188661Y-78547199D01*
X159188661Y-75513673D01*
X159663108Y-75736486D01*
X159893000Y-75615819D01*
X159893000Y-74422000D01*
X160147000Y-74422000D01*
X160147000Y-75615819D01*
X160376892Y-75736486D01*
X160901358Y-75490183D01*
X161291645Y-75061924D01*
X161461476Y-74651890D01*
X161340155Y-74422000D01*
X160147000Y-74422000D01*
X159893000Y-74422000D01*
X159873000Y-74422000D01*
X159873000Y-74168000D01*
X159893000Y-74168000D01*
X159893000Y-74148000D01*
X160147000Y-74148000D01*
X160147000Y-74168000D01*
X161340155Y-74168000D01*
X161461476Y-73938110D01*
X161291645Y-73528076D01*
X160901358Y-73099817D01*
X160758447Y-73032702D01*
X161099147Y-72805054D01*
X161421054Y-72323285D01*
X161534093Y-71755000D01*
X161421054Y-71186715D01*
X161099147Y-70704946D01*
X160769974Y-70485000D01*
X161099147Y-70265054D01*
X161138510Y-70206144D01*
X169479566Y-78547199D01*
X169479566Y-78547199D01*
G37*
X169479566Y-78547199D02*
X159188661Y-78547199D01*
X159188661Y-75513673D01*
X159663108Y-75736486D01*
X159893000Y-75615819D01*
X159893000Y-74422000D01*
X160147000Y-74422000D01*
X160147000Y-75615819D01*
X160376892Y-75736486D01*
X160901358Y-75490183D01*
X161291645Y-75061924D01*
X161461476Y-74651890D01*
X161340155Y-74422000D01*
X160147000Y-74422000D01*
X159893000Y-74422000D01*
X159873000Y-74422000D01*
X159873000Y-74168000D01*
X159893000Y-74168000D01*
X159893000Y-74148000D01*
X160147000Y-74148000D01*
X160147000Y-74168000D01*
X161340155Y-74168000D01*
X161461476Y-73938110D01*
X161291645Y-73528076D01*
X160901358Y-73099817D01*
X160758447Y-73032702D01*
X161099147Y-72805054D01*
X161421054Y-72323285D01*
X161534093Y-71755000D01*
X161421054Y-71186715D01*
X161099147Y-70704946D01*
X160769974Y-70485000D01*
X161099147Y-70265054D01*
X161138510Y-70206144D01*
X169479566Y-78547199D01*
G36*
X139032883Y-87290911D02*
X139032883Y-104101700D01*
X124409600Y-104101700D01*
X124142295Y-104154870D01*
X123915686Y-104306286D01*
X123573972Y-104648000D01*
X115622606Y-104648000D01*
X114998500Y-104023894D01*
X114998500Y-103480200D01*
X114973707Y-103355554D01*
X114945336Y-103212909D01*
X114945331Y-103212902D01*
X114945330Y-103212896D01*
X114881145Y-103116836D01*
X114793925Y-102986297D01*
X112959727Y-101152022D01*
X125826874Y-88284875D01*
X125980210Y-88285009D01*
X126330420Y-88140305D01*
X126598597Y-87872597D01*
X126743912Y-87522639D01*
X126744242Y-87143711D01*
X126599538Y-86793501D01*
X126331830Y-86525324D01*
X125981872Y-86380009D01*
X125602944Y-86379679D01*
X125252734Y-86524383D01*
X124984557Y-86792091D01*
X124839242Y-87142049D01*
X124839107Y-87296986D01*
X111971902Y-100164191D01*
X109738705Y-97931077D01*
X109611886Y-97846342D01*
X109512104Y-97779670D01*
X109512099Y-97779669D01*
X109512093Y-97779665D01*
X109372841Y-97751969D01*
X109244800Y-97726500D01*
X109111752Y-97726500D01*
X108936856Y-97464749D01*
X108712000Y-97314505D01*
X108712000Y-96995495D01*
X108936856Y-96845251D01*
X109231233Y-96404684D01*
X109334605Y-95885000D01*
X109231233Y-95365316D01*
X108936856Y-94924749D01*
X108712000Y-94774505D01*
X108712000Y-94455495D01*
X108936856Y-94305251D01*
X109231233Y-93864684D01*
X109334605Y-93345000D01*
X109231233Y-92825316D01*
X108936856Y-92384749D01*
X108712000Y-92234505D01*
X108712000Y-91915495D01*
X108936856Y-91765251D01*
X109111752Y-91503500D01*
X114443357Y-91503500D01*
X114460485Y-91544954D01*
X114828110Y-91913222D01*
X115308681Y-92112772D01*
X115829036Y-92113226D01*
X116309954Y-91914515D01*
X116678222Y-91546890D01*
X116877772Y-91066319D01*
X116878226Y-90545964D01*
X116679515Y-90065046D01*
X116311890Y-89696778D01*
X115831319Y-89497228D01*
X115310964Y-89496774D01*
X114830046Y-89695485D01*
X114461778Y-90063110D01*
X114443761Y-90106500D01*
X109111752Y-90106500D01*
X108936856Y-89844749D01*
X108712000Y-89694505D01*
X108712000Y-89375495D01*
X108936856Y-89225251D01*
X109231233Y-88784684D01*
X109334605Y-88265000D01*
X109231233Y-87745316D01*
X108936856Y-87304749D01*
X108712000Y-87154505D01*
X108712000Y-86835495D01*
X108936856Y-86685251D01*
X109231233Y-86244684D01*
X109334605Y-85725000D01*
X109272544Y-85413001D01*
X109301890Y-85383655D01*
X126916027Y-85383655D01*
X127751286Y-86218914D01*
X127977895Y-86370330D01*
X128245200Y-86423500D01*
X128378248Y-86423500D01*
X128553144Y-86685251D01*
X128993711Y-86979628D01*
X129070991Y-86995000D01*
X128993711Y-87010372D01*
X128553144Y-87304749D01*
X128258767Y-87745316D01*
X128155395Y-88265000D01*
X128258767Y-88784684D01*
X128553144Y-89225251D01*
X128993711Y-89519628D01*
X129070991Y-89535000D01*
X128993711Y-89550372D01*
X128553144Y-89844749D01*
X128258767Y-90285316D01*
X128155395Y-90805000D01*
X128258767Y-91324684D01*
X128553144Y-91765251D01*
X128993711Y-92059628D01*
X129070991Y-92075000D01*
X128993711Y-92090372D01*
X128553144Y-92384749D01*
X128258767Y-92825316D01*
X128155395Y-93345000D01*
X128258767Y-93864684D01*
X128553144Y-94305251D01*
X128993711Y-94599628D01*
X129070991Y-94615000D01*
X128993711Y-94630372D01*
X128553144Y-94924749D01*
X128258767Y-95365316D01*
X128155395Y-95885000D01*
X128258767Y-96404684D01*
X128553144Y-96845251D01*
X128993711Y-97139628D01*
X129070991Y-97155000D01*
X128993711Y-97170372D01*
X128553144Y-97464749D01*
X128258767Y-97905316D01*
X128155395Y-98425000D01*
X128258767Y-98944684D01*
X128553144Y-99385251D01*
X128993711Y-99679628D01*
X129070991Y-99695000D01*
X128993711Y-99710372D01*
X128553144Y-100004749D01*
X128258767Y-100445316D01*
X128155395Y-100965000D01*
X128258767Y-101484684D01*
X128553144Y-101925251D01*
X128993711Y-102219628D01*
X129513395Y-102323000D01*
X129566605Y-102323000D01*
X130086289Y-102219628D01*
X130526856Y-101925251D01*
X130821233Y-101484684D01*
X130924605Y-100965000D01*
X130821233Y-100445316D01*
X130526856Y-100004749D01*
X130086289Y-99710372D01*
X130009009Y-99695000D01*
X130086289Y-99679628D01*
X130526856Y-99385251D01*
X130821233Y-98944684D01*
X130924605Y-98425000D01*
X130821233Y-97905316D01*
X130526856Y-97464749D01*
X130086289Y-97170372D01*
X130009009Y-97155000D01*
X130086289Y-97139628D01*
X130526856Y-96845251D01*
X130821233Y-96404684D01*
X130924605Y-95885000D01*
X130821233Y-95365316D01*
X130526856Y-94924749D01*
X130086289Y-94630372D01*
X130009009Y-94615000D01*
X130086289Y-94599628D01*
X130526856Y-94305251D01*
X130821233Y-93864684D01*
X130924605Y-93345000D01*
X130821233Y-92825316D01*
X130526856Y-92384749D01*
X130086289Y-92090372D01*
X130009009Y-92075000D01*
X130086289Y-92059628D01*
X130526856Y-91765251D01*
X130701752Y-91503500D01*
X136033357Y-91503500D01*
X136050485Y-91544954D01*
X136418110Y-91913222D01*
X136898681Y-92112772D01*
X137419036Y-92113226D01*
X137899954Y-91914515D01*
X138268222Y-91546890D01*
X138467772Y-91066319D01*
X138468226Y-90545964D01*
X138269515Y-90065046D01*
X137901890Y-89696778D01*
X137421319Y-89497228D01*
X136900964Y-89496774D01*
X136420046Y-89695485D01*
X136051778Y-90063110D01*
X136033761Y-90106500D01*
X130701752Y-90106500D01*
X130526856Y-89844749D01*
X130086289Y-89550372D01*
X130009009Y-89535000D01*
X130086289Y-89519628D01*
X130526856Y-89225251D01*
X130821233Y-88784684D01*
X130924605Y-88265000D01*
X130821233Y-87745316D01*
X130526856Y-87304749D01*
X130086289Y-87010372D01*
X130009009Y-86995000D01*
X130086289Y-86979628D01*
X130526856Y-86685251D01*
X130821233Y-86244684D01*
X130924605Y-85725000D01*
X130821233Y-85205316D01*
X130526856Y-84764749D01*
X130086289Y-84470372D01*
X130009009Y-84455000D01*
X130086289Y-84439628D01*
X130526856Y-84145251D01*
X130821233Y-83704684D01*
X130924605Y-83185000D01*
X130821233Y-82665316D01*
X130526856Y-82224749D01*
X130145322Y-81969817D01*
X130421358Y-81840183D01*
X130811645Y-81411924D01*
X130981476Y-81001890D01*
X130860155Y-80772000D01*
X129667000Y-80772000D01*
X129667000Y-80518000D01*
X130860155Y-80518000D01*
X130981476Y-80288110D01*
X130811645Y-79878076D01*
X130468914Y-79502000D01*
X131243972Y-79502000D01*
X139032883Y-87290911D01*
X139032883Y-87290911D01*
G37*
X139032883Y-87290911D02*
X139032883Y-104101700D01*
X124409600Y-104101700D01*
X124142295Y-104154870D01*
X123915686Y-104306286D01*
X123573972Y-104648000D01*
X115622606Y-104648000D01*
X114998500Y-104023894D01*
X114998500Y-103480200D01*
X114973707Y-103355554D01*
X114945336Y-103212909D01*
X114945331Y-103212902D01*
X114945330Y-103212896D01*
X114881145Y-103116836D01*
X114793925Y-102986297D01*
X112959727Y-101152022D01*
X125826874Y-88284875D01*
X125980210Y-88285009D01*
X126330420Y-88140305D01*
X126598597Y-87872597D01*
X126743912Y-87522639D01*
X126744242Y-87143711D01*
X126599538Y-86793501D01*
X126331830Y-86525324D01*
X125981872Y-86380009D01*
X125602944Y-86379679D01*
X125252734Y-86524383D01*
X124984557Y-86792091D01*
X124839242Y-87142049D01*
X124839107Y-87296986D01*
X111971902Y-100164191D01*
X109738705Y-97931077D01*
X109611886Y-97846342D01*
X109512104Y-97779670D01*
X109512099Y-97779669D01*
X109512093Y-97779665D01*
X109372841Y-97751969D01*
X109244800Y-97726500D01*
X109111752Y-97726500D01*
X108936856Y-97464749D01*
X108712000Y-97314505D01*
X108712000Y-96995495D01*
X108936856Y-96845251D01*
X109231233Y-96404684D01*
X109334605Y-95885000D01*
X109231233Y-95365316D01*
X108936856Y-94924749D01*
X108712000Y-94774505D01*
X108712000Y-94455495D01*
X108936856Y-94305251D01*
X109231233Y-93864684D01*
X109334605Y-93345000D01*
X109231233Y-92825316D01*
X108936856Y-92384749D01*
X108712000Y-92234505D01*
X108712000Y-91915495D01*
X108936856Y-91765251D01*
X109111752Y-91503500D01*
X114443357Y-91503500D01*
X114460485Y-91544954D01*
X114828110Y-91913222D01*
X115308681Y-92112772D01*
X115829036Y-92113226D01*
X116309954Y-91914515D01*
X116678222Y-91546890D01*
X116877772Y-91066319D01*
X116878226Y-90545964D01*
X116679515Y-90065046D01*
X116311890Y-89696778D01*
X115831319Y-89497228D01*
X115310964Y-89496774D01*
X114830046Y-89695485D01*
X114461778Y-90063110D01*
X114443761Y-90106500D01*
X109111752Y-90106500D01*
X108936856Y-89844749D01*
X108712000Y-89694505D01*
X108712000Y-89375495D01*
X108936856Y-89225251D01*
X109231233Y-88784684D01*
X109334605Y-88265000D01*
X109231233Y-87745316D01*
X108936856Y-87304749D01*
X108712000Y-87154505D01*
X108712000Y-86835495D01*
X108936856Y-86685251D01*
X109231233Y-86244684D01*
X109334605Y-85725000D01*
X109272544Y-85413001D01*
X109301890Y-85383655D01*
X126916027Y-85383655D01*
X127751286Y-86218914D01*
X127977895Y-86370330D01*
X128245200Y-86423500D01*
X128378248Y-86423500D01*
X128553144Y-86685251D01*
X128993711Y-86979628D01*
X129070991Y-86995000D01*
X128993711Y-87010372D01*
X128553144Y-87304749D01*
X128258767Y-87745316D01*
X128155395Y-88265000D01*
X128258767Y-88784684D01*
X128553144Y-89225251D01*
X128993711Y-89519628D01*
X129070991Y-89535000D01*
X128993711Y-89550372D01*
X128553144Y-89844749D01*
X128258767Y-90285316D01*
X128155395Y-90805000D01*
X128258767Y-91324684D01*
X128553144Y-91765251D01*
X128993711Y-92059628D01*
X129070991Y-92075000D01*
X128993711Y-92090372D01*
X128553144Y-92384749D01*
X128258767Y-92825316D01*
X128155395Y-93345000D01*
X128258767Y-93864684D01*
X128553144Y-94305251D01*
X128993711Y-94599628D01*
X129070991Y-94615000D01*
X128993711Y-94630372D01*
X128553144Y-94924749D01*
X128258767Y-95365316D01*
X128155395Y-95885000D01*
X128258767Y-96404684D01*
X128553144Y-96845251D01*
X128993711Y-97139628D01*
X129070991Y-97155000D01*
X128993711Y-97170372D01*
X128553144Y-97464749D01*
X128258767Y-97905316D01*
X128155395Y-98425000D01*
X128258767Y-98944684D01*
X128553144Y-99385251D01*
X128993711Y-99679628D01*
X129070991Y-99695000D01*
X128993711Y-99710372D01*
X128553144Y-100004749D01*
X128258767Y-100445316D01*
X128155395Y-100965000D01*
X128258767Y-101484684D01*
X128553144Y-101925251D01*
X128993711Y-102219628D01*
X129513395Y-102323000D01*
X129566605Y-102323000D01*
X130086289Y-102219628D01*
X130526856Y-101925251D01*
X130821233Y-101484684D01*
X130924605Y-100965000D01*
X130821233Y-100445316D01*
X130526856Y-100004749D01*
X130086289Y-99710372D01*
X130009009Y-99695000D01*
X130086289Y-99679628D01*
X130526856Y-99385251D01*
X130821233Y-98944684D01*
X130924605Y-98425000D01*
X130821233Y-97905316D01*
X130526856Y-97464749D01*
X130086289Y-97170372D01*
X130009009Y-97155000D01*
X130086289Y-97139628D01*
X130526856Y-96845251D01*
X130821233Y-96404684D01*
X130924605Y-95885000D01*
X130821233Y-95365316D01*
X130526856Y-94924749D01*
X130086289Y-94630372D01*
X130009009Y-94615000D01*
X130086289Y-94599628D01*
X130526856Y-94305251D01*
X130821233Y-93864684D01*
X130924605Y-93345000D01*
X130821233Y-92825316D01*
X130526856Y-92384749D01*
X130086289Y-92090372D01*
X130009009Y-92075000D01*
X130086289Y-92059628D01*
X130526856Y-91765251D01*
X130701752Y-91503500D01*
X136033357Y-91503500D01*
X136050485Y-91544954D01*
X136418110Y-91913222D01*
X136898681Y-92112772D01*
X137419036Y-92113226D01*
X137899954Y-91914515D01*
X138268222Y-91546890D01*
X138467772Y-91066319D01*
X138468226Y-90545964D01*
X138269515Y-90065046D01*
X137901890Y-89696778D01*
X137421319Y-89497228D01*
X136900964Y-89496774D01*
X136420046Y-89695485D01*
X136051778Y-90063110D01*
X136033761Y-90106500D01*
X130701752Y-90106500D01*
X130526856Y-89844749D01*
X130086289Y-89550372D01*
X130009009Y-89535000D01*
X130086289Y-89519628D01*
X130526856Y-89225251D01*
X130821233Y-88784684D01*
X130924605Y-88265000D01*
X130821233Y-87745316D01*
X130526856Y-87304749D01*
X130086289Y-87010372D01*
X130009009Y-86995000D01*
X130086289Y-86979628D01*
X130526856Y-86685251D01*
X130821233Y-86244684D01*
X130924605Y-85725000D01*
X130821233Y-85205316D01*
X130526856Y-84764749D01*
X130086289Y-84470372D01*
X130009009Y-84455000D01*
X130086289Y-84439628D01*
X130526856Y-84145251D01*
X130821233Y-83704684D01*
X130924605Y-83185000D01*
X130821233Y-82665316D01*
X130526856Y-82224749D01*
X130145322Y-81969817D01*
X130421358Y-81840183D01*
X130811645Y-81411924D01*
X130981476Y-81001890D01*
X130860155Y-80772000D01*
X129667000Y-80772000D01*
X129667000Y-80518000D01*
X130860155Y-80518000D01*
X130981476Y-80288110D01*
X130811645Y-79878076D01*
X130468914Y-79502000D01*
X131243972Y-79502000D01*
X139032883Y-87290911D01*
M02*
