M48
;DRILL file {KiCad 4.0.7} date 11/29/17 00:42:41
;FORMAT={-:-/ absolute / inch / decimal}
FMAT,2
INCH,TZ
T1C0.025
T2C0.031
T3C0.039
T4C0.051
%
G90
G05
M72
T1
X4.5494Y-2.3502
X4.8524Y-3.4633
T2
X4.05Y-2.1713
X4.05Y-2.25
X4.05Y-2.7713
X4.05Y-2.85
X4.25Y-2.1516
X4.25Y-2.25
X4.25Y-2.7516
X4.25Y-2.85
X4.3Y-4.2
X4.4Y-4.2
X4.45Y-3.2
X4.45Y-3.6
X4.5Y-4.2
X4.6Y-4.2
X4.7Y-4.2
X4.8Y-2.7713
X4.8Y-2.85
X5.Y-2.7516
X5.Y-2.85
X5.1Y-4.2
X5.1Y-4.6
X5.2Y-4.2
X5.2Y-4.6
X5.25Y-2.4213
X5.25Y-2.5
X5.3Y-3.2
X5.3Y-3.6
X5.3Y-4.2
X5.3Y-4.6
X5.4Y-4.2
X5.4Y-4.6
X5.45Y-2.4016
X5.45Y-2.5
X5.5Y-4.2
X5.5Y-4.6
X5.6Y-4.2
X5.6Y-4.6
X5.65Y-2.4713
X5.65Y-2.55
X5.7Y-2.2
X5.7Y-2.2984
X6.Y-2.1713
X6.Y-2.25
X6.0016Y-3.3
X6.0016Y-5.1
X6.05Y-3.0713
X6.05Y-3.15
X6.05Y-4.8713
X6.05Y-4.95
X6.1Y-3.3
X6.1Y-5.1
X6.2Y-2.15
X6.2Y-2.2484
X6.7Y-3.1
X6.7Y-3.2
X6.7Y-3.3
X6.7Y-3.4
X6.7Y-3.5
X6.7Y-3.6
X6.7Y-3.7
X6.7Y-4.1
X6.7Y-4.2
X6.7Y-4.3
X6.7Y-4.4
X6.7Y-4.5
X6.7Y-4.6
X6.7Y-4.7
X6.7Y-5.5
X6.7Y-5.6
X6.7Y-5.7
X6.7Y-5.8
X7.Y-3.1
X7.Y-3.2
X7.Y-3.3
X7.Y-3.4
X7.Y-3.5
X7.Y-3.6
X7.Y-3.7
X7.Y-4.1
X7.Y-4.2
X7.Y-4.3
X7.Y-4.4
X7.Y-4.5
X7.Y-4.6
X7.Y-4.7
X7.Y-5.5
X7.Y-5.6
X7.Y-5.7
X7.Y-5.8
X7.25Y-3.05
X7.25Y-3.15
X7.25Y-3.25
X7.25Y-3.35
X7.25Y-3.45
X7.25Y-3.55
X7.25Y-3.65
X7.25Y-3.75
X7.25Y-4.05
X7.25Y-4.15
X7.25Y-4.25
X7.25Y-4.35
X7.25Y-4.45
X7.25Y-4.55
X7.25Y-4.65
X7.25Y-4.75
T3
X4.15Y-3.1
X4.15Y-3.2
X4.15Y-3.3
X4.15Y-3.4
X4.15Y-3.5
X4.15Y-3.6
X4.15Y-3.7
X4.15Y-3.8
X4.15Y-3.9
X4.15Y-4.
X4.45Y-2.15
X4.45Y-2.25
X4.55Y-2.15
X4.55Y-2.25
X4.65Y-2.15
X4.65Y-2.25
X4.75Y-2.15
X4.75Y-2.25
X4.85Y-2.15
X4.85Y-2.25
X5.Y-3.1
X5.Y-3.2
X5.Y-3.3
X5.Y-3.4
X5.Y-3.5
X5.Y-3.6
X5.Y-3.7
X5.Y-3.8
X5.Y-3.9
X5.Y-4.
X5.1Y-2.15
X5.1Y-2.25
X5.2Y-2.15
X5.2Y-2.25
X5.3Y-2.15
X5.3Y-2.25
X5.4Y-2.15
X5.4Y-2.25
X5.5Y-2.15
X5.5Y-2.25
X6.05Y-2.65
X6.05Y-2.75
X6.05Y-3.55
X6.05Y-3.65
X6.05Y-4.45
X6.05Y-4.55
X6.05Y-5.35
X6.05Y-5.45
X6.25Y-2.65
X6.25Y-2.75
X6.25Y-2.85
X6.25Y-2.95
X6.25Y-3.55
X6.25Y-3.65
X6.25Y-3.75
X6.25Y-3.85
X6.25Y-4.45
X6.25Y-4.55
X6.25Y-4.65
X6.25Y-4.75
X6.25Y-5.35
X6.25Y-5.45
X6.25Y-5.55
X6.25Y-5.65
X6.4Y-2.15
X6.4Y-2.25
X6.5Y-2.15
X6.5Y-2.25
X6.6Y-2.15
X6.6Y-2.25
X6.7Y-2.15
X6.7Y-2.25
X6.7Y-4.95
X6.7Y-5.05
X6.7Y-5.15
X6.7Y-5.25
X6.8Y-2.15
X6.8Y-2.25
X6.8Y-4.95
X6.8Y-5.05
X6.8Y-5.15
X6.8Y-5.25
X6.9Y-4.95
X6.9Y-5.05
X6.9Y-5.15
X6.9Y-5.25
X7.Y-4.95
X7.Y-5.05
X7.Y-5.15
X7.Y-5.25
X7.1Y-4.95
X7.1Y-5.05
X7.1Y-5.15
X7.1Y-5.25
X7.2Y-4.95
X7.2Y-5.05
X7.2Y-5.15
X7.2Y-5.25
X7.6Y-3.05
X7.6Y-3.15
X7.6Y-3.25
X7.6Y-3.65
X7.6Y-3.75
X7.6Y-3.85
X7.6Y-4.25
X7.6Y-4.35
X7.6Y-4.45
X7.6Y-4.85
X7.6Y-4.95
X7.6Y-5.05
T4
X7.3031Y-5.5531
X7.3031Y-5.75
X7.5Y-5.6516
T0
M30
