M48
;DRILL file {KiCad 4.0.7} date 11/29/17 05:37:03
;FORMAT={-:-/ absolute / inch / decimal}
FMAT,2
INCH,TZ
T1C0.025
T2C0.031
T3C0.039
T4C0.051
%
G90
G05
M72
T1
X4.6494Y-2.3252
X4.9524Y-3.4383
T2
X4.15Y-2.1463
X4.15Y-2.225
X4.15Y-2.7463
X4.15Y-2.825
X4.35Y-2.1266
X4.35Y-2.225
X4.35Y-2.7266
X4.35Y-2.825
X4.4Y-4.175
X4.5Y-4.175
X4.55Y-3.175
X4.55Y-3.575
X4.6Y-4.175
X4.7Y-4.175
X4.8Y-4.175
X4.9Y-2.7463
X4.9Y-2.825
X5.1Y-2.7266
X5.1Y-2.825
X5.2Y-4.175
X5.2Y-4.575
X5.3Y-4.175
X5.3Y-4.575
X5.35Y-2.3963
X5.35Y-2.475
X5.4Y-3.175
X5.4Y-3.575
X5.4Y-4.175
X5.4Y-4.575
X5.5Y-4.175
X5.5Y-4.575
X5.55Y-2.3766
X5.55Y-2.475
X5.6Y-4.175
X5.6Y-4.575
X5.7Y-4.175
X5.7Y-4.575
X5.75Y-2.4463
X5.75Y-2.525
X5.8Y-2.175
X5.8Y-2.2734
X6.05Y-2.1463
X6.05Y-2.225
X6.0516Y-3.275
X6.0516Y-5.075
X6.1Y-3.0463
X6.1Y-3.125
X6.1Y-4.8463
X6.1Y-4.925
X6.15Y-3.275
X6.15Y-5.075
X6.25Y-2.125
X6.25Y-2.2234
X6.75Y-3.075
X6.75Y-3.175
X6.75Y-3.275
X6.75Y-3.375
X6.75Y-3.475
X6.75Y-3.575
X6.75Y-3.675
X6.75Y-4.075
X6.75Y-4.175
X6.75Y-4.275
X6.75Y-4.375
X6.75Y-4.475
X6.75Y-4.575
X6.75Y-4.675
X6.75Y-5.475
X6.75Y-5.575
X6.75Y-5.675
X6.75Y-5.775
X7.05Y-3.075
X7.05Y-3.175
X7.05Y-3.275
X7.05Y-3.375
X7.05Y-3.475
X7.05Y-3.575
X7.05Y-3.675
X7.05Y-4.075
X7.05Y-4.175
X7.05Y-4.275
X7.05Y-4.375
X7.05Y-4.475
X7.05Y-4.575
X7.05Y-4.675
X7.05Y-5.475
X7.05Y-5.575
X7.05Y-5.675
X7.05Y-5.775
X7.3Y-3.025
X7.3Y-3.125
X7.3Y-3.225
X7.3Y-3.325
X7.3Y-3.425
X7.3Y-3.525
X7.3Y-3.625
X7.3Y-3.725
X7.3Y-4.025
X7.3Y-4.125
X7.3Y-4.225
X7.3Y-4.325
X7.3Y-4.425
X7.3Y-4.525
X7.3Y-4.625
X7.3Y-4.725
T3
X4.25Y-3.075
X4.25Y-3.175
X4.25Y-3.275
X4.25Y-3.375
X4.25Y-3.475
X4.25Y-3.575
X4.25Y-3.675
X4.25Y-3.775
X4.25Y-3.875
X4.25Y-3.975
X4.55Y-2.125
X4.55Y-2.225
X4.65Y-2.125
X4.65Y-2.225
X4.75Y-2.125
X4.75Y-2.225
X4.85Y-2.125
X4.85Y-2.225
X4.95Y-2.125
X4.95Y-2.225
X5.1Y-3.075
X5.1Y-3.175
X5.1Y-3.275
X5.1Y-3.375
X5.1Y-3.475
X5.1Y-3.575
X5.1Y-3.675
X5.1Y-3.775
X5.1Y-3.875
X5.1Y-3.975
X5.2Y-2.125
X5.2Y-2.225
X5.3Y-2.125
X5.3Y-2.225
X5.4Y-2.125
X5.4Y-2.225
X5.5Y-2.125
X5.5Y-2.225
X5.6Y-2.125
X5.6Y-2.225
X6.1Y-2.625
X6.1Y-2.725
X6.1Y-3.525
X6.1Y-3.625
X6.1Y-4.425
X6.1Y-4.525
X6.1Y-5.325
X6.1Y-5.425
X6.3Y-2.625
X6.3Y-2.725
X6.3Y-2.825
X6.3Y-2.925
X6.3Y-3.525
X6.3Y-3.625
X6.3Y-3.725
X6.3Y-3.825
X6.3Y-4.425
X6.3Y-4.525
X6.3Y-4.625
X6.3Y-4.725
X6.3Y-5.325
X6.3Y-5.425
X6.3Y-5.525
X6.3Y-5.625
X6.45Y-2.125
X6.45Y-2.225
X6.55Y-2.125
X6.55Y-2.225
X6.65Y-2.125
X6.65Y-2.225
X6.75Y-2.125
X6.75Y-2.225
X6.75Y-4.925
X6.75Y-5.025
X6.75Y-5.125
X6.75Y-5.225
X6.85Y-2.125
X6.85Y-2.225
X6.85Y-4.925
X6.85Y-5.025
X6.85Y-5.125
X6.85Y-5.225
X6.95Y-4.925
X6.95Y-5.025
X6.95Y-5.125
X6.95Y-5.225
X7.05Y-4.925
X7.05Y-5.025
X7.05Y-5.125
X7.05Y-5.225
X7.15Y-4.925
X7.15Y-5.025
X7.15Y-5.125
X7.15Y-5.225
X7.25Y-4.925
X7.25Y-5.025
X7.25Y-5.125
X7.25Y-5.225
X7.65Y-3.025
X7.65Y-3.125
X7.65Y-3.225
X7.65Y-3.625
X7.65Y-3.725
X7.65Y-3.825
X7.65Y-4.225
X7.65Y-4.325
X7.65Y-4.425
X7.65Y-4.825
X7.65Y-4.925
X7.65Y-5.025
T4
X7.3531Y-5.5281
X7.3531Y-5.725
X7.55Y-5.6266
T0
M30
