G04 #@! TF.FileFunction,Legend,Bot*
%FSLAX46Y46*%
G04 Gerber Fmt 4.6, Leading zero omitted, Abs format (unit mm)*
G04 Created by KiCad (PCBNEW 4.0.7) date 11/29/17 05:29:15*
%MOMM*%
%LPD*%
G01*
G04 APERTURE LIST*
%ADD10C,0.100000*%
%ADD11C,0.120000*%
%ADD12C,0.150000*%
G04 APERTURE END LIST*
D10*
D11*
X174050000Y-53280000D02*
X174050000Y-58480000D01*
X163830000Y-53280000D02*
X174050000Y-53280000D01*
X161230000Y-58480000D02*
X174050000Y-58480000D01*
X163830000Y-53280000D02*
X163830000Y-55880000D01*
X163830000Y-55880000D02*
X161230000Y-55880000D01*
X161230000Y-55880000D02*
X161230000Y-58480000D01*
X162560000Y-53280000D02*
X161230000Y-53280000D01*
X161230000Y-53280000D02*
X161230000Y-54610000D01*
D12*
X176863333Y-55332381D02*
X176863333Y-56046667D01*
X176910953Y-56189524D01*
X177006191Y-56284762D01*
X177149048Y-56332381D01*
X177244286Y-56332381D01*
X176482381Y-55332381D02*
X175863333Y-55332381D01*
X176196667Y-55713333D01*
X176053809Y-55713333D01*
X175958571Y-55760952D01*
X175910952Y-55808571D01*
X175863333Y-55903810D01*
X175863333Y-56141905D01*
X175910952Y-56237143D01*
X175958571Y-56284762D01*
X176053809Y-56332381D01*
X176339524Y-56332381D01*
X176434762Y-56284762D01*
X176482381Y-56237143D01*
X142327381Y-58856667D02*
X143041667Y-58856667D01*
X143184524Y-58809047D01*
X143279762Y-58713809D01*
X143327381Y-58570952D01*
X143327381Y-58475714D01*
X143327381Y-59332857D02*
X142327381Y-59332857D01*
X142327381Y-59713810D01*
X142375000Y-59809048D01*
X142422619Y-59856667D01*
X142517857Y-59904286D01*
X142660714Y-59904286D01*
X142755952Y-59856667D01*
X142803571Y-59809048D01*
X142851190Y-59713810D01*
X142851190Y-59332857D01*
X143327381Y-60856667D02*
X143327381Y-60285238D01*
X143327381Y-60570952D02*
X142327381Y-60570952D01*
X142470238Y-60475714D01*
X142565476Y-60380476D01*
X142613095Y-60285238D01*
M02*
