G04 #@! TF.FileFunction,Copper,L1,Top,Signal*
%FSLAX46Y46*%
G04 Gerber Fmt 4.6, Leading zero omitted, Abs format (unit mm)*
G04 Created by KiCad (PCBNEW 4.0.7) date 11/14/17 22:07:01*
%MOMM*%
%LPD*%
G01*
G04 APERTURE LIST*
%ADD10C,0.100000*%
%ADD11R,1.700000X1.700000*%
%ADD12O,1.700000X1.700000*%
%ADD13R,1.600000X1.600000*%
%ADD14C,1.600000*%
%ADD15O,1.600000X1.600000*%
%ADD16C,2.340000*%
%ADD17C,1.700000*%
%ADD18C,0.889000*%
%ADD19C,0.381000*%
%ADD20C,0.254000*%
G04 APERTURE END LIST*
D10*
D11*
X219710000Y-53340000D03*
D12*
X219710000Y-55880000D03*
X222250000Y-53340000D03*
X222250000Y-55880000D03*
X224790000Y-53340000D03*
X224790000Y-55880000D03*
X227330000Y-53340000D03*
X227330000Y-55880000D03*
X229870000Y-53340000D03*
X229870000Y-55880000D03*
D13*
X190500000Y-60230000D03*
D14*
X190500000Y-62230000D03*
D13*
X200660000Y-60230000D03*
D14*
X200660000Y-62230000D03*
X195580000Y-62230000D03*
X195580000Y-59730000D03*
X200660000Y-55840000D03*
X200660000Y-53340000D03*
D13*
X160020000Y-53880000D03*
D14*
X160020000Y-55880000D03*
X165100000Y-55880000D03*
X165100000Y-53380000D03*
D13*
X179070000Y-69120000D03*
D14*
X179070000Y-71120000D03*
X184150000Y-71120000D03*
X184150000Y-68620000D03*
D13*
X210820000Y-122460000D03*
D14*
X210820000Y-124460000D03*
X209590000Y-128270000D03*
X212090000Y-128270000D03*
D13*
X210820000Y-76740000D03*
D14*
X210820000Y-78740000D03*
X209590000Y-82550000D03*
X212090000Y-82550000D03*
D13*
X209550000Y-53880000D03*
D14*
X209550000Y-55880000D03*
X214630000Y-55840000D03*
X214630000Y-53340000D03*
D13*
X160020000Y-69120000D03*
D14*
X160020000Y-71120000D03*
X165100000Y-71120000D03*
X165100000Y-68620000D03*
D11*
X195580000Y-53340000D03*
D12*
X195580000Y-55880000D03*
X193040000Y-53340000D03*
X193040000Y-55880000D03*
X190500000Y-53340000D03*
X190500000Y-55880000D03*
X187960000Y-53340000D03*
X187960000Y-55880000D03*
X185420000Y-53340000D03*
X185420000Y-55880000D03*
D11*
X210820000Y-66040000D03*
D12*
X210820000Y-68580000D03*
D11*
X210820000Y-88900000D03*
D12*
X210820000Y-91440000D03*
D11*
X210820000Y-134620000D03*
D12*
X210820000Y-137160000D03*
D11*
X210820000Y-111760000D03*
D12*
X210820000Y-114300000D03*
D14*
X170180000Y-90170000D03*
D15*
X170180000Y-80010000D03*
D14*
X191770000Y-90170000D03*
D15*
X191770000Y-80010000D03*
D13*
X176530000Y-105410000D03*
D15*
X173990000Y-105410000D03*
X171450000Y-105410000D03*
X168910000Y-105410000D03*
X166370000Y-105410000D03*
D16*
X241300000Y-144780000D03*
X246300000Y-142280000D03*
X241300000Y-139780000D03*
D11*
X215900000Y-66040000D03*
D12*
X215900000Y-68580000D03*
X215900000Y-71120000D03*
X215900000Y-73660000D03*
D11*
X215900000Y-88900000D03*
D12*
X215900000Y-91440000D03*
X215900000Y-93980000D03*
X215900000Y-96520000D03*
D11*
X215900000Y-134620000D03*
D12*
X215900000Y-137160000D03*
X215900000Y-139700000D03*
X215900000Y-142240000D03*
D11*
X215900000Y-111760000D03*
D12*
X215900000Y-114300000D03*
X215900000Y-116840000D03*
X215900000Y-119380000D03*
D13*
X227330000Y-77470000D03*
D15*
X234950000Y-92710000D03*
X227330000Y-80010000D03*
X234950000Y-90170000D03*
X227330000Y-82550000D03*
X234950000Y-87630000D03*
X227330000Y-85090000D03*
X234950000Y-85090000D03*
X227330000Y-87630000D03*
X234950000Y-82550000D03*
X227330000Y-90170000D03*
X234950000Y-80010000D03*
X227330000Y-92710000D03*
X234950000Y-77470000D03*
D13*
X227330000Y-102870000D03*
D15*
X234950000Y-118110000D03*
X227330000Y-105410000D03*
X234950000Y-115570000D03*
X227330000Y-107950000D03*
X234950000Y-113030000D03*
X227330000Y-110490000D03*
X234950000Y-110490000D03*
X227330000Y-113030000D03*
X234950000Y-107950000D03*
X227330000Y-115570000D03*
X234950000Y-105410000D03*
X227330000Y-118110000D03*
X234950000Y-102870000D03*
D11*
X250190000Y-96520000D03*
D12*
X250190000Y-93980000D03*
X250190000Y-91440000D03*
D11*
X250190000Y-111760000D03*
D12*
X250190000Y-109220000D03*
X250190000Y-106680000D03*
D11*
X250190000Y-127000000D03*
D12*
X250190000Y-124460000D03*
X250190000Y-121920000D03*
D13*
X227330000Y-138430000D03*
D15*
X234950000Y-146050000D03*
X227330000Y-140970000D03*
X234950000Y-143510000D03*
X227330000Y-143510000D03*
X234950000Y-140970000D03*
X227330000Y-146050000D03*
X234950000Y-138430000D03*
D11*
X162560000Y-77470000D03*
D12*
X162560000Y-80010000D03*
X162560000Y-82550000D03*
X162560000Y-85090000D03*
X162560000Y-87630000D03*
X162560000Y-90170000D03*
X162560000Y-92710000D03*
X162560000Y-95250000D03*
X162560000Y-97790000D03*
X162560000Y-100330000D03*
D11*
X184150000Y-77470000D03*
D12*
X184150000Y-80010000D03*
X184150000Y-82550000D03*
X184150000Y-85090000D03*
X184150000Y-87630000D03*
X184150000Y-90170000D03*
X184150000Y-92710000D03*
X184150000Y-95250000D03*
X184150000Y-97790000D03*
X184150000Y-100330000D03*
D13*
X199390000Y-105410000D03*
D15*
X186690000Y-115570000D03*
X196850000Y-105410000D03*
X189230000Y-115570000D03*
X194310000Y-105410000D03*
X191770000Y-115570000D03*
X191770000Y-105410000D03*
X194310000Y-115570000D03*
X189230000Y-105410000D03*
X196850000Y-115570000D03*
X186690000Y-105410000D03*
X199390000Y-115570000D03*
D11*
X170180000Y-53340000D03*
D12*
X170180000Y-55880000D03*
X172720000Y-53340000D03*
X172720000Y-55880000D03*
X175260000Y-53340000D03*
X175260000Y-55880000D03*
X177800000Y-53340000D03*
X177800000Y-55880000D03*
X180340000Y-53340000D03*
X180340000Y-55880000D03*
D13*
X241300000Y-76200000D03*
D15*
X241300000Y-78740000D03*
X241300000Y-81280000D03*
X241300000Y-83820000D03*
X241300000Y-86360000D03*
X241300000Y-88900000D03*
X241300000Y-91440000D03*
X241300000Y-93980000D03*
D13*
X241300000Y-101600000D03*
D15*
X241300000Y-104140000D03*
X241300000Y-106680000D03*
X241300000Y-109220000D03*
X241300000Y-111760000D03*
X241300000Y-114300000D03*
X241300000Y-116840000D03*
X241300000Y-119380000D03*
D11*
X250190000Y-81280000D03*
D12*
X250190000Y-78740000D03*
X250190000Y-76200000D03*
D11*
X227330000Y-124460000D03*
D12*
X229870000Y-124460000D03*
X227330000Y-127000000D03*
X229870000Y-127000000D03*
X227330000Y-129540000D03*
X229870000Y-129540000D03*
D17*
X227330000Y-132080000D03*
D12*
X229870000Y-132080000D03*
D11*
X232410000Y-124460000D03*
D12*
X234950000Y-124460000D03*
X232410000Y-127000000D03*
X234950000Y-127000000D03*
X232410000Y-129540000D03*
X234950000Y-129540000D03*
X232410000Y-132080000D03*
X234950000Y-132080000D03*
D11*
X237490000Y-124460000D03*
D12*
X240030000Y-124460000D03*
X237490000Y-127000000D03*
X240030000Y-127000000D03*
X237490000Y-129540000D03*
X240030000Y-129540000D03*
X237490000Y-132080000D03*
X240030000Y-132080000D03*
D18*
X181537000Y-85473500D03*
X172703500Y-58424700D03*
D19*
X215900000Y-96520000D02*
X214019186Y-96520000D01*
X210820000Y-93320814D02*
X210820000Y-91440000D01*
X214019186Y-96520000D02*
X210820000Y-93320814D01*
X191744800Y-61377500D02*
X192148577Y-60973723D01*
X192148577Y-60973723D02*
X192148577Y-58823377D01*
X192148577Y-58823377D02*
X190500000Y-57174800D01*
X190500000Y-57174800D02*
X190500000Y-55880000D01*
X191744800Y-61377500D02*
X192177099Y-60945201D01*
X192177099Y-60945201D02*
X194295201Y-60945201D01*
X194295201Y-60945201D02*
X195580000Y-62230000D01*
X215900000Y-73660000D02*
X215898353Y-73660000D01*
X215898353Y-73660000D02*
X214605200Y-72366847D01*
X214605200Y-72366847D02*
X214605200Y-69678700D01*
X214605200Y-69678700D02*
X213506500Y-68580000D01*
X210820000Y-78740000D02*
X210820677Y-78739323D01*
X210820677Y-78739323D02*
X212328414Y-78739323D01*
X215915053Y-75152684D02*
X215915053Y-73699951D01*
X212328414Y-78739323D02*
X215915053Y-75152684D01*
X227330000Y-92710000D02*
X226085200Y-91465200D01*
X226085200Y-91465200D02*
X226034900Y-91465200D01*
X226034900Y-91465200D02*
X226034900Y-83794800D01*
X226034900Y-83794800D02*
X226085200Y-83794800D01*
X226085200Y-83794800D02*
X227330000Y-82550000D01*
X227330000Y-107950000D02*
X228564472Y-109184472D01*
X228564472Y-109184472D02*
X228600000Y-109184472D01*
X228600000Y-109184472D02*
X228600000Y-110490000D01*
X227330000Y-118110000D02*
X228600000Y-116840000D01*
X228600000Y-116840000D02*
X228600000Y-110490000D01*
X209525100Y-128334900D02*
X209590000Y-128270000D01*
X209525100Y-135865100D02*
X209525100Y-128334900D01*
X210820000Y-137160000D02*
X209525100Y-135865100D01*
X190892300Y-62230000D02*
X191744800Y-61377500D01*
X190500000Y-62230000D02*
X190892300Y-62230000D01*
X209525100Y-90145100D02*
X210820000Y-91440000D01*
X209525100Y-82614900D02*
X209525100Y-90145100D01*
X209590000Y-82550000D02*
X209525100Y-82614900D01*
X219710000Y-55880000D02*
X218415200Y-55880000D01*
X214630000Y-55880000D02*
X218415200Y-55880000D01*
X214630000Y-55840000D02*
X214630000Y-55880000D01*
X234950000Y-110490000D02*
X233705200Y-110490000D01*
X228600000Y-110490000D02*
X233705200Y-110490000D01*
X211065000Y-124460000D02*
X210820000Y-124460000D01*
X212064900Y-123460100D02*
X211065000Y-124460000D01*
X212064900Y-116839700D02*
X212064900Y-123460100D01*
X210820000Y-115594800D02*
X212064900Y-116839700D01*
X210820000Y-114300000D02*
X210820000Y-115594800D01*
X210820000Y-68580000D02*
X212114800Y-68580000D01*
X213506500Y-68580000D02*
X212114800Y-68580000D01*
X213506500Y-57003500D02*
X213506500Y-68580000D01*
X214630000Y-55880000D02*
X213506500Y-57003500D01*
X234950000Y-146050000D02*
X236194800Y-144805200D01*
X236194800Y-144805200D02*
X236194800Y-138430000D01*
X212090000Y-133350000D02*
X212090000Y-128270000D01*
X215900000Y-137160000D02*
X212090000Y-133350000D01*
X219710000Y-53340000D02*
X214630000Y-53340000D01*
X209554400Y-78005600D02*
X210820000Y-76740000D01*
X209554400Y-80014400D02*
X209554400Y-78005600D01*
X212090000Y-82550000D02*
X209554400Y-80014400D01*
X212090000Y-83795200D02*
X212090000Y-82550000D01*
X215900000Y-87605200D02*
X212090000Y-83795200D01*
X215900000Y-88900000D02*
X215900000Y-87605200D01*
X250190000Y-109220000D02*
X251484800Y-109220000D01*
X251484800Y-123165200D02*
X250190000Y-124460000D01*
X251484800Y-109220000D02*
X251484800Y-123165200D01*
X193040000Y-55880000D02*
X194334800Y-55880000D01*
X195580000Y-59730000D02*
X195580000Y-55880000D01*
X195580000Y-55880000D02*
X194334800Y-55880000D01*
X251484800Y-102870000D02*
X251484800Y-109220000D01*
X251484800Y-102870000D02*
X234950000Y-102870000D01*
X234950000Y-138430000D02*
X236194800Y-138430000D01*
X241300000Y-133350000D02*
X241300000Y-138430000D01*
X250190000Y-124460000D02*
X241300000Y-133350000D01*
X241300000Y-138430000D02*
X241300000Y-139780000D01*
X241300000Y-138430000D02*
X236194800Y-138430000D01*
X251484800Y-93980000D02*
X251484800Y-102870000D01*
X250190000Y-93980000D02*
X251484800Y-93980000D01*
X251484800Y-80034800D02*
X251484800Y-93980000D01*
X250190000Y-78740000D02*
X251484800Y-80034800D01*
X175260000Y-53340000D02*
X173327000Y-51407000D01*
X173327000Y-51407000D02*
X168318444Y-51407000D01*
X168318444Y-51407000D02*
X167008365Y-52717079D01*
X167008365Y-52717079D02*
X167008365Y-59039535D01*
X158760500Y-67287400D02*
X158760500Y-91450500D01*
X167008365Y-59039535D02*
X158760500Y-67287400D01*
X158760500Y-91450500D02*
X162560000Y-95250000D01*
X162560000Y-95250000D02*
X171450000Y-104140000D01*
X171450000Y-104140000D02*
X171450000Y-105410000D01*
X177800000Y-53340000D02*
X179543494Y-51596506D01*
X179543494Y-51596506D02*
X181016255Y-51596506D01*
X181016255Y-51596506D02*
X181836734Y-52416985D01*
X181102035Y-85038535D02*
X181537000Y-85473500D01*
X181836734Y-52416985D02*
X181836734Y-56908566D01*
X181836734Y-56908566D02*
X181102035Y-57643265D01*
X181102035Y-57643265D02*
X181102035Y-85038535D01*
X166370000Y-105410000D02*
X168391830Y-107431830D01*
X168391830Y-107431830D02*
X174457482Y-107431830D01*
X174457482Y-107431830D02*
X175285100Y-106604212D01*
X175285100Y-106604212D02*
X175285100Y-94057922D01*
X175285100Y-94057922D02*
X172070026Y-90842848D01*
X172070026Y-90842848D02*
X172070026Y-59058174D01*
X172070026Y-59058174D02*
X172703500Y-58424700D01*
X166370000Y-105410000D02*
X162560000Y-101600000D01*
X162560000Y-101600000D02*
X162560000Y-100330000D01*
X222803700Y-51353700D02*
X224790000Y-53340000D01*
X213926000Y-51353700D02*
X222803700Y-51353700D01*
X211670700Y-53609000D02*
X213926000Y-51353700D01*
X211670700Y-57193900D02*
X211670700Y-53609000D01*
X207691600Y-61173000D02*
X211670700Y-57193900D01*
X207691600Y-124551500D02*
X207691600Y-61173000D01*
X210840000Y-127699900D02*
X207691600Y-124551500D01*
X210840000Y-133305200D02*
X210840000Y-127699900D01*
X210820000Y-133325200D02*
X210840000Y-133305200D01*
X210820000Y-134620000D02*
X210820000Y-133325200D01*
X223502500Y-86377500D02*
X215900000Y-93980000D01*
X223502500Y-58462300D02*
X223502500Y-86377500D01*
X224790000Y-57174800D02*
X223502500Y-58462300D01*
X224790000Y-55880000D02*
X224790000Y-57174800D01*
X215900000Y-134620000D02*
X215900000Y-133325200D01*
X227330000Y-55880000D02*
X227330000Y-57174800D01*
X224790000Y-59714800D02*
X227330000Y-57174800D01*
X224790000Y-97302800D02*
X224790000Y-59714800D01*
X213939300Y-108153500D02*
X224790000Y-97302800D01*
X213939300Y-131364500D02*
X213939300Y-108153500D01*
X215900000Y-133325200D02*
X213939300Y-131364500D01*
X227330000Y-140970000D02*
X226112218Y-140970000D01*
X226112218Y-140970000D02*
X219536526Y-134394308D01*
X219536526Y-134394308D02*
X219536526Y-119409374D01*
X219536526Y-119409374D02*
X219565900Y-119380000D01*
D20*
X227330000Y-140970000D02*
X228600000Y-139700000D01*
X228600000Y-139700000D02*
X228600000Y-130810000D01*
X228600000Y-130810000D02*
X228179999Y-130389999D01*
X228179999Y-130389999D02*
X227330000Y-129540000D01*
D19*
X215900000Y-119380000D02*
X217194800Y-119380000D01*
X217194800Y-119380000D02*
X219565900Y-119380000D01*
X229870000Y-102602800D02*
X229870000Y-55880000D01*
X228357900Y-104114900D02*
X229870000Y-102602800D01*
X226838600Y-104114900D02*
X228357900Y-104114900D01*
X219565900Y-111387600D02*
X226838600Y-104114900D01*
X219565900Y-119380000D02*
X219565900Y-111387600D01*
X180340000Y-88900000D02*
X180340000Y-55880000D01*
X184150000Y-92710000D02*
X180340000Y-88900000D01*
X177800000Y-88900000D02*
X184150000Y-95250000D01*
X177800000Y-55880000D02*
X177800000Y-88900000D01*
X175260000Y-88900000D02*
X175260000Y-55880000D01*
X184150000Y-97790000D02*
X175260000Y-88900000D01*
X172720000Y-53340000D02*
X171425100Y-52045100D01*
X171425100Y-52045100D02*
X168751209Y-52045100D01*
X168751209Y-52045100D02*
X167919532Y-52876777D01*
X167919532Y-52876777D02*
X167919532Y-92430468D01*
X167919532Y-92430468D02*
X167640000Y-92710000D01*
X173990000Y-105410000D02*
X173990000Y-104165200D01*
X162560000Y-92710000D02*
X163854800Y-92710000D01*
X167640000Y-92710000D02*
X163854800Y-92710000D01*
X167640000Y-97815200D02*
X173990000Y-104165200D01*
X167640000Y-92710000D02*
X167640000Y-97815200D01*
X172720000Y-55880000D02*
X172720000Y-57174800D01*
X173625800Y-58080600D02*
X172720000Y-57174800D01*
X173625800Y-89805800D02*
X173625800Y-58080600D01*
X184150000Y-100330000D02*
X173625800Y-89805800D01*
X210820000Y-111760000D02*
X210820000Y-110465200D01*
X220955100Y-52045100D02*
X222250000Y-53340000D01*
X214135500Y-52045100D02*
X220955100Y-52045100D01*
X212623600Y-53557000D02*
X214135500Y-52045100D01*
X212623600Y-57193900D02*
X212623600Y-53557000D01*
X208327000Y-61490500D02*
X212623600Y-57193900D01*
X208327000Y-107972200D02*
X208327000Y-61490500D01*
X210820000Y-110465200D02*
X208327000Y-107972200D01*
X222250000Y-64770000D02*
X222250000Y-55880000D01*
X215900000Y-71120000D02*
X222250000Y-64770000D01*
X184150000Y-77470000D02*
X184150000Y-74226060D01*
X184150000Y-74226060D02*
X185405100Y-72970960D01*
X185405100Y-72970960D02*
X185405100Y-69875100D01*
X185405100Y-69875100D02*
X184150000Y-68620000D01*
X196850000Y-115570000D02*
X196850000Y-105410000D01*
X200660000Y-60230000D02*
X200660000Y-58985200D01*
X160020000Y-69120000D02*
X161264800Y-69120000D01*
X163815000Y-68620000D02*
X162560000Y-69875000D01*
X165100000Y-68620000D02*
X163815000Y-68620000D01*
X162560000Y-77470000D02*
X162560000Y-69875000D01*
X161805000Y-69120000D02*
X161264800Y-69120000D01*
X162560000Y-69875000D02*
X161805000Y-69120000D01*
X195580000Y-53340000D02*
X196874800Y-53340000D01*
X201915100Y-54595100D02*
X200660000Y-53340000D01*
X201915100Y-57730100D02*
X201915100Y-54595100D01*
X200660000Y-58985200D02*
X201915100Y-57730100D01*
X200660000Y-53340000D02*
X196874800Y-53340000D01*
X184150000Y-80010000D02*
X182599568Y-78459568D01*
X182599568Y-78459568D02*
X182599568Y-72670432D01*
X182599568Y-72670432D02*
X184150000Y-71120000D01*
X200660000Y-62230000D02*
X199522259Y-62230000D01*
X199522259Y-62230000D02*
X198751578Y-61459319D01*
X198751578Y-61459319D02*
X198751578Y-57748422D01*
X198751578Y-57748422D02*
X200660000Y-55840000D01*
X199390000Y-115570000D02*
X199390000Y-105410000D01*
X199390000Y-95250000D02*
X184150000Y-80010000D01*
X199390000Y-105410000D02*
X199390000Y-95250000D01*
X194310000Y-105410000D02*
X192784774Y-106935226D01*
X192784774Y-106935226D02*
X191053245Y-106935226D01*
X190525499Y-106407480D02*
X190525499Y-105933999D01*
X191053245Y-106935226D02*
X190525499Y-106407480D01*
X190525499Y-105933999D02*
X190525100Y-105933600D01*
X190525100Y-105933600D02*
X190525100Y-104477000D01*
X186179200Y-100131100D02*
X186179200Y-87119200D01*
X190525100Y-104477000D02*
X186179200Y-100131100D01*
X186179200Y-87119200D02*
X184150000Y-85090000D01*
X184150000Y-85090000D02*
X181850801Y-82790801D01*
X181850801Y-82790801D02*
X181850801Y-58354933D01*
X181850801Y-58354933D02*
X182841000Y-57364734D01*
X182841000Y-57364734D02*
X182841000Y-52397434D01*
X182841000Y-52397434D02*
X183873434Y-51365000D01*
X183873434Y-51365000D02*
X191065000Y-51365000D01*
X191065000Y-51365000D02*
X193040000Y-53340000D01*
X191770000Y-105410000D02*
X191770000Y-104165200D01*
X190525200Y-88925200D02*
X184150000Y-82550000D01*
X190525200Y-102920400D02*
X190525200Y-88925200D01*
X191770000Y-104165200D02*
X190525200Y-102920400D01*
X191770000Y-80010000D02*
X191770000Y-69633700D01*
X191770000Y-69633700D02*
X183797597Y-61661297D01*
X183797597Y-61661297D02*
X183797597Y-52811908D01*
X183797597Y-52811908D02*
X184565305Y-52044200D01*
X184565305Y-52044200D02*
X186664200Y-52044200D01*
X186664200Y-52044200D02*
X187960000Y-53340000D01*
D20*
X231101001Y-141008999D02*
X228600000Y-143510000D01*
X228600000Y-143510000D02*
X227330000Y-143510000D01*
X227330000Y-127000000D02*
X228638999Y-128308999D01*
X228638999Y-128308999D02*
X230460881Y-128308999D01*
X230460881Y-128308999D02*
X231101001Y-128949119D01*
X231101001Y-128949119D02*
X231101001Y-141008999D01*
D19*
X222454800Y-102870000D02*
X227330000Y-102870000D01*
X214574700Y-110750100D02*
X222454800Y-102870000D01*
X214574700Y-127771000D02*
X214574700Y-110750100D01*
X217202800Y-130399100D02*
X214574700Y-127771000D01*
X217202800Y-140937200D02*
X217202800Y-130399100D01*
X215900000Y-142240000D02*
X217202800Y-140937200D01*
X227330000Y-138430000D02*
X226082568Y-138430000D01*
X226082568Y-138430000D02*
X223724613Y-136072045D01*
X223724613Y-136072045D02*
X223724613Y-114972260D01*
X223724613Y-114972260D02*
X225666873Y-113030000D01*
X225666873Y-113030000D02*
X227330000Y-113030000D01*
D20*
X227330000Y-138430000D02*
X227330000Y-132080000D01*
D19*
X246355200Y-104140000D02*
X248895200Y-106680000D01*
X241300000Y-104140000D02*
X246355200Y-104140000D01*
X250190000Y-106680000D02*
X248895200Y-106680000D01*
X237464800Y-116840000D02*
X236194800Y-118110000D01*
X241300000Y-116840000D02*
X237464800Y-116840000D01*
X234950000Y-118110000D02*
X236194800Y-118110000D01*
M02*
