M48
;DRILL file {KiCad 4.0.7} date 11/14/17 22:08:02
;FORMAT={-:-/ absolute / inch / decimal}
FMAT,2
INCH,TZ
T1C0.025
T2C0.031
T3C0.039
T4C0.051
%
G90
G05
M72
T1
X6.7994Y-2.3002
X7.1471Y-3.3651
T2
X6.3Y-2.1213
X6.3Y-2.2
X6.3Y-2.7213
X6.3Y-2.8
X6.5Y-2.1016
X6.5Y-2.2
X6.5Y-2.7016
X6.5Y-2.8
X6.55Y-4.15
X6.65Y-4.15
X6.7Y-3.15
X6.7Y-3.55
X6.75Y-4.15
X6.85Y-4.15
X6.95Y-4.15
X7.05Y-2.7213
X7.05Y-2.8
X7.25Y-2.7016
X7.25Y-2.8
X7.35Y-4.15
X7.35Y-4.55
X7.45Y-4.15
X7.45Y-4.55
X7.5Y-2.3713
X7.5Y-2.45
X7.55Y-3.15
X7.55Y-3.55
X7.55Y-4.15
X7.55Y-4.55
X7.65Y-4.15
X7.65Y-4.55
X7.7Y-2.3516
X7.7Y-2.45
X7.75Y-4.15
X7.75Y-4.55
X7.85Y-4.15
X7.85Y-4.55
X7.9Y-2.1
X7.9Y-2.1984
X7.9Y-2.3713
X7.9Y-2.45
X8.25Y-2.1213
X8.25Y-2.2
X8.2516Y-3.25
X8.2516Y-5.05
X8.3Y-3.0213
X8.3Y-3.1
X8.3Y-4.8213
X8.3Y-4.9
X8.35Y-3.25
X8.35Y-5.05
X8.45Y-2.1
X8.45Y-2.1984
X8.95Y-3.05
X8.95Y-3.15
X8.95Y-3.25
X8.95Y-3.35
X8.95Y-3.45
X8.95Y-3.55
X8.95Y-3.65
X8.95Y-4.05
X8.95Y-4.15
X8.95Y-4.25
X8.95Y-4.35
X8.95Y-4.45
X8.95Y-4.55
X8.95Y-4.65
X8.95Y-5.45
X8.95Y-5.55
X8.95Y-5.65
X8.95Y-5.75
X9.25Y-3.05
X9.25Y-3.15
X9.25Y-3.25
X9.25Y-3.35
X9.25Y-3.45
X9.25Y-3.55
X9.25Y-3.65
X9.25Y-4.05
X9.25Y-4.15
X9.25Y-4.25
X9.25Y-4.35
X9.25Y-4.45
X9.25Y-4.55
X9.25Y-4.65
X9.25Y-5.45
X9.25Y-5.55
X9.25Y-5.65
X9.25Y-5.75
X9.5Y-3.
X9.5Y-3.1
X9.5Y-3.2
X9.5Y-3.3
X9.5Y-3.4
X9.5Y-3.5
X9.5Y-3.6
X9.5Y-3.7
X9.5Y-4.
X9.5Y-4.1
X9.5Y-4.2
X9.5Y-4.3
X9.5Y-4.4
X9.5Y-4.5
X9.5Y-4.6
X9.5Y-4.7
T3
X6.4Y-3.05
X6.4Y-3.15
X6.4Y-3.25
X6.4Y-3.35
X6.4Y-3.45
X6.4Y-3.55
X6.4Y-3.65
X6.4Y-3.75
X6.4Y-3.85
X6.4Y-3.95
X6.7Y-2.1
X6.7Y-2.2
X6.8Y-2.1
X6.8Y-2.2
X6.9Y-2.1
X6.9Y-2.2
X7.Y-2.1
X7.Y-2.2
X7.1Y-2.1
X7.1Y-2.2
X7.25Y-3.05
X7.25Y-3.15
X7.25Y-3.25
X7.25Y-3.35
X7.25Y-3.45
X7.25Y-3.55
X7.25Y-3.65
X7.25Y-3.75
X7.25Y-3.85
X7.25Y-3.95
X7.3Y-2.1
X7.3Y-2.2
X7.4Y-2.1
X7.4Y-2.2
X7.5Y-2.1
X7.5Y-2.2
X7.6Y-2.1
X7.6Y-2.2
X7.7Y-2.1
X7.7Y-2.2
X8.3Y-2.6
X8.3Y-2.7
X8.3Y-3.5
X8.3Y-3.6
X8.3Y-4.4
X8.3Y-4.5
X8.3Y-5.3
X8.3Y-5.4
X8.5Y-2.6
X8.5Y-2.7
X8.5Y-2.8
X8.5Y-2.9
X8.5Y-3.5
X8.5Y-3.6
X8.5Y-3.7
X8.5Y-3.8
X8.5Y-4.4
X8.5Y-4.5
X8.5Y-4.6
X8.5Y-4.7
X8.5Y-5.3
X8.5Y-5.4
X8.5Y-5.5
X8.5Y-5.6
X8.65Y-2.1
X8.65Y-2.2
X8.75Y-2.1
X8.75Y-2.2
X8.85Y-2.1
X8.85Y-2.2
X8.95Y-2.1
X8.95Y-2.2
X8.95Y-4.9
X8.95Y-5.
X8.95Y-5.1
X8.95Y-5.2
X9.05Y-2.1
X9.05Y-2.2
X9.05Y-4.9
X9.05Y-5.
X9.05Y-5.1
X9.05Y-5.2
X9.15Y-4.9
X9.15Y-5.
X9.15Y-5.1
X9.15Y-5.2
X9.25Y-4.9
X9.25Y-5.
X9.25Y-5.1
X9.25Y-5.2
X9.35Y-4.9
X9.35Y-5.
X9.35Y-5.1
X9.35Y-5.2
X9.45Y-4.9
X9.45Y-5.
X9.45Y-5.1
X9.45Y-5.2
X9.85Y-3.
X9.85Y-3.1
X9.85Y-3.2
X9.85Y-3.6
X9.85Y-3.7
X9.85Y-3.8
X9.85Y-4.2
X9.85Y-4.3
X9.85Y-4.4
X9.85Y-4.8
X9.85Y-4.9
X9.85Y-5.
T4
X9.5Y-5.5031
X9.5Y-5.7
X9.6969Y-5.6016
T0
M30
