G04 #@! TF.FileFunction,Soldermask,Top*
%FSLAX46Y46*%
G04 Gerber Fmt 4.6, Leading zero omitted, Abs format (unit mm)*
G04 Created by KiCad (PCBNEW 4.0.7) date 11/14/17 22:07:01*
%MOMM*%
%LPD*%
G01*
G04 APERTURE LIST*
%ADD10C,0.100000*%
%ADD11R,2.208000X2.208000*%
%ADD12O,2.208000X2.208000*%
%ADD13R,2.108000X2.108000*%
%ADD14C,2.108000*%
%ADD15O,2.108000X2.108000*%
%ADD16C,2.848000*%
%ADD17C,2.208000*%
G04 APERTURE END LIST*
D10*
D11*
X219710000Y-53340000D03*
D12*
X219710000Y-55880000D03*
X222250000Y-53340000D03*
X222250000Y-55880000D03*
X224790000Y-53340000D03*
X224790000Y-55880000D03*
X227330000Y-53340000D03*
X227330000Y-55880000D03*
X229870000Y-53340000D03*
X229870000Y-55880000D03*
D13*
X190500000Y-60230000D03*
D14*
X190500000Y-62230000D03*
D13*
X200660000Y-60230000D03*
D14*
X200660000Y-62230000D03*
X195580000Y-62230000D03*
X195580000Y-59730000D03*
X200660000Y-55840000D03*
X200660000Y-53340000D03*
D13*
X160020000Y-53880000D03*
D14*
X160020000Y-55880000D03*
X165100000Y-55880000D03*
X165100000Y-53380000D03*
D13*
X179070000Y-69120000D03*
D14*
X179070000Y-71120000D03*
X184150000Y-71120000D03*
X184150000Y-68620000D03*
D13*
X210820000Y-122460000D03*
D14*
X210820000Y-124460000D03*
X209590000Y-128270000D03*
X212090000Y-128270000D03*
D13*
X210820000Y-76740000D03*
D14*
X210820000Y-78740000D03*
X209590000Y-82550000D03*
X212090000Y-82550000D03*
D13*
X209550000Y-53880000D03*
D14*
X209550000Y-55880000D03*
X214630000Y-55840000D03*
X214630000Y-53340000D03*
D13*
X160020000Y-69120000D03*
D14*
X160020000Y-71120000D03*
X165100000Y-71120000D03*
X165100000Y-68620000D03*
D11*
X195580000Y-53340000D03*
D12*
X195580000Y-55880000D03*
X193040000Y-53340000D03*
X193040000Y-55880000D03*
X190500000Y-53340000D03*
X190500000Y-55880000D03*
X187960000Y-53340000D03*
X187960000Y-55880000D03*
X185420000Y-53340000D03*
X185420000Y-55880000D03*
D11*
X210820000Y-66040000D03*
D12*
X210820000Y-68580000D03*
D11*
X210820000Y-88900000D03*
D12*
X210820000Y-91440000D03*
D11*
X210820000Y-134620000D03*
D12*
X210820000Y-137160000D03*
D11*
X210820000Y-111760000D03*
D12*
X210820000Y-114300000D03*
D14*
X170180000Y-90170000D03*
D15*
X170180000Y-80010000D03*
D14*
X191770000Y-90170000D03*
D15*
X191770000Y-80010000D03*
D13*
X176530000Y-105410000D03*
D15*
X173990000Y-105410000D03*
X171450000Y-105410000D03*
X168910000Y-105410000D03*
X166370000Y-105410000D03*
D16*
X241300000Y-144780000D03*
X246300000Y-142280000D03*
X241300000Y-139780000D03*
D11*
X215900000Y-66040000D03*
D12*
X215900000Y-68580000D03*
X215900000Y-71120000D03*
X215900000Y-73660000D03*
D11*
X215900000Y-88900000D03*
D12*
X215900000Y-91440000D03*
X215900000Y-93980000D03*
X215900000Y-96520000D03*
D11*
X215900000Y-134620000D03*
D12*
X215900000Y-137160000D03*
X215900000Y-139700000D03*
X215900000Y-142240000D03*
D11*
X215900000Y-111760000D03*
D12*
X215900000Y-114300000D03*
X215900000Y-116840000D03*
X215900000Y-119380000D03*
D13*
X227330000Y-77470000D03*
D15*
X234950000Y-92710000D03*
X227330000Y-80010000D03*
X234950000Y-90170000D03*
X227330000Y-82550000D03*
X234950000Y-87630000D03*
X227330000Y-85090000D03*
X234950000Y-85090000D03*
X227330000Y-87630000D03*
X234950000Y-82550000D03*
X227330000Y-90170000D03*
X234950000Y-80010000D03*
X227330000Y-92710000D03*
X234950000Y-77470000D03*
D13*
X227330000Y-102870000D03*
D15*
X234950000Y-118110000D03*
X227330000Y-105410000D03*
X234950000Y-115570000D03*
X227330000Y-107950000D03*
X234950000Y-113030000D03*
X227330000Y-110490000D03*
X234950000Y-110490000D03*
X227330000Y-113030000D03*
X234950000Y-107950000D03*
X227330000Y-115570000D03*
X234950000Y-105410000D03*
X227330000Y-118110000D03*
X234950000Y-102870000D03*
D11*
X250190000Y-96520000D03*
D12*
X250190000Y-93980000D03*
X250190000Y-91440000D03*
D11*
X250190000Y-111760000D03*
D12*
X250190000Y-109220000D03*
X250190000Y-106680000D03*
D11*
X250190000Y-127000000D03*
D12*
X250190000Y-124460000D03*
X250190000Y-121920000D03*
D13*
X227330000Y-138430000D03*
D15*
X234950000Y-146050000D03*
X227330000Y-140970000D03*
X234950000Y-143510000D03*
X227330000Y-143510000D03*
X234950000Y-140970000D03*
X227330000Y-146050000D03*
X234950000Y-138430000D03*
D11*
X162560000Y-77470000D03*
D12*
X162560000Y-80010000D03*
X162560000Y-82550000D03*
X162560000Y-85090000D03*
X162560000Y-87630000D03*
X162560000Y-90170000D03*
X162560000Y-92710000D03*
X162560000Y-95250000D03*
X162560000Y-97790000D03*
X162560000Y-100330000D03*
D11*
X184150000Y-77470000D03*
D12*
X184150000Y-80010000D03*
X184150000Y-82550000D03*
X184150000Y-85090000D03*
X184150000Y-87630000D03*
X184150000Y-90170000D03*
X184150000Y-92710000D03*
X184150000Y-95250000D03*
X184150000Y-97790000D03*
X184150000Y-100330000D03*
D13*
X199390000Y-105410000D03*
D15*
X186690000Y-115570000D03*
X196850000Y-105410000D03*
X189230000Y-115570000D03*
X194310000Y-105410000D03*
X191770000Y-115570000D03*
X191770000Y-105410000D03*
X194310000Y-115570000D03*
X189230000Y-105410000D03*
X196850000Y-115570000D03*
X186690000Y-105410000D03*
X199390000Y-115570000D03*
D11*
X170180000Y-53340000D03*
D12*
X170180000Y-55880000D03*
X172720000Y-53340000D03*
X172720000Y-55880000D03*
X175260000Y-53340000D03*
X175260000Y-55880000D03*
X177800000Y-53340000D03*
X177800000Y-55880000D03*
X180340000Y-53340000D03*
X180340000Y-55880000D03*
D13*
X241300000Y-76200000D03*
D15*
X241300000Y-78740000D03*
X241300000Y-81280000D03*
X241300000Y-83820000D03*
X241300000Y-86360000D03*
X241300000Y-88900000D03*
X241300000Y-91440000D03*
X241300000Y-93980000D03*
D13*
X241300000Y-101600000D03*
D15*
X241300000Y-104140000D03*
X241300000Y-106680000D03*
X241300000Y-109220000D03*
X241300000Y-111760000D03*
X241300000Y-114300000D03*
X241300000Y-116840000D03*
X241300000Y-119380000D03*
D11*
X250190000Y-81280000D03*
D12*
X250190000Y-78740000D03*
X250190000Y-76200000D03*
D11*
X227330000Y-124460000D03*
D12*
X229870000Y-124460000D03*
X227330000Y-127000000D03*
X229870000Y-127000000D03*
X227330000Y-129540000D03*
X229870000Y-129540000D03*
D17*
X227330000Y-132080000D03*
D12*
X229870000Y-132080000D03*
D11*
X232410000Y-124460000D03*
D12*
X234950000Y-124460000D03*
X232410000Y-127000000D03*
X234950000Y-127000000D03*
X232410000Y-129540000D03*
X234950000Y-129540000D03*
X232410000Y-132080000D03*
X234950000Y-132080000D03*
D11*
X237490000Y-124460000D03*
D12*
X240030000Y-124460000D03*
X237490000Y-127000000D03*
X240030000Y-127000000D03*
X237490000Y-129540000D03*
X240030000Y-129540000D03*
X237490000Y-132080000D03*
X240030000Y-132080000D03*
M02*
