M48
;DRILL file {KiCad 4.0.7} date 11/14/17 16:55:13
;FORMAT={-:-/ absolute / inch / decimal}
FMAT,2
INCH,TZ
T1C0.031
T2C0.039
T3C0.051
%
G90
G05
M72
T1
X4.15Y-3.95
X4.15Y-4.05
X4.15Y-4.15
X4.15Y-4.25
X4.15Y-4.35
X4.15Y-4.45
X4.2Y-3.5
X4.2Y-3.65
X4.25Y-2.6
X4.25Y-2.6787
X4.35Y-2.1213
X4.35Y-2.2
X4.4516Y-2.65
X4.4516Y-3.2
X4.5Y-2.9213
X4.5Y-3.
X4.55Y-2.1
X4.55Y-2.1984
X4.55Y-2.65
X4.55Y-3.2
X4.55Y-3.95
X4.55Y-4.05
X4.55Y-4.15
X4.55Y-4.25
X4.55Y-4.35
X4.55Y-4.45
X4.6Y-3.5
X4.6Y-3.65
X4.9Y-4.0213
X4.9Y-4.1
X4.95Y-3.85
X5.05Y-3.85
X5.1016Y-4.1
X5.15Y-3.85
X5.1516Y-2.85
X5.2Y-2.6213
X5.2Y-2.7
X5.2Y-4.1
X5.25Y-2.85
X5.25Y-3.85
X5.35Y-3.85
X5.9516Y-3.25
X5.9516Y-5.05
X6.Y-3.0213
X6.Y-3.1
X6.Y-4.8213
X6.Y-4.9
X6.05Y-3.25
X6.05Y-5.05
X6.15Y-2.1213
X6.15Y-2.2
X6.35Y-2.1
X6.35Y-2.1984
X6.525Y-5.45
X6.525Y-5.55
X6.525Y-5.65
X6.525Y-5.75
X6.65Y-3.05
X6.65Y-3.15
X6.65Y-3.25
X6.65Y-3.35
X6.65Y-3.45
X6.65Y-3.55
X6.65Y-3.65
X6.65Y-4.55
X6.65Y-4.65
X6.65Y-4.75
X6.65Y-4.85
X6.65Y-4.95
X6.65Y-5.05
X6.65Y-5.15
X6.825Y-5.45
X6.825Y-5.55
X6.825Y-5.65
X6.825Y-5.75
X6.95Y-3.05
X6.95Y-3.15
X6.95Y-3.25
X6.95Y-3.35
X6.95Y-3.45
X6.95Y-3.55
X6.95Y-3.65
X6.95Y-4.55
X6.95Y-4.65
X6.95Y-4.75
X6.95Y-4.85
X6.95Y-4.95
X6.95Y-5.05
X6.95Y-5.15
X7.15Y-3.
X7.15Y-3.1
X7.15Y-3.2
X7.15Y-3.3
X7.15Y-3.4
X7.15Y-3.5
X7.15Y-3.6
X7.15Y-3.7
X7.15Y-4.5
X7.15Y-4.6
X7.15Y-4.7
X7.15Y-4.8
X7.15Y-4.9
X7.15Y-5.
X7.15Y-5.1
X7.15Y-5.2
T2
X4.2Y-2.9
X4.2Y-3.
X4.2Y-3.1
X4.2Y-3.2
X4.2Y-3.3
X4.3Y-2.9
X4.3Y-3.
X4.3Y-3.1
X4.3Y-3.2
X4.3Y-3.3
X4.75Y-2.1
X4.75Y-2.2
X4.85Y-2.1
X4.85Y-2.2
X4.95Y-2.1
X4.95Y-2.2
X4.95Y-2.8
X4.95Y-2.9
X4.95Y-3.
X4.95Y-3.1
X4.95Y-3.2
X4.95Y-3.3
X4.95Y-3.4
X4.95Y-3.5
X4.95Y-3.6
X4.95Y-3.7
X4.95Y-4.3
X4.95Y-4.4
X4.95Y-4.5
X4.95Y-4.6
X4.95Y-4.7
X4.95Y-4.8
X4.95Y-4.9
X4.95Y-5.
X4.95Y-5.1
X4.95Y-5.2
X5.05Y-2.1
X5.05Y-2.2
X5.15Y-2.1
X5.15Y-2.2
X6.Y-2.6
X6.Y-2.7
X6.Y-3.5
X6.Y-3.6
X6.Y-4.4
X6.Y-4.5
X6.Y-5.3
X6.Y-5.4
X6.2Y-2.6
X6.2Y-2.7
X6.2Y-2.8
X6.2Y-2.9
X6.2Y-3.5
X6.2Y-3.6
X6.2Y-3.7
X6.2Y-3.8
X6.2Y-4.4
X6.2Y-4.5
X6.2Y-4.6
X6.2Y-4.7
X6.2Y-5.3
X6.2Y-5.4
X6.2Y-5.5
X6.2Y-5.6
X6.55Y-2.1
X6.55Y-2.2
X6.65Y-2.1
X6.65Y-2.2
X6.75Y-2.1
X6.75Y-2.2
X6.85Y-2.1
X6.85Y-2.2
X6.95Y-2.1
X6.95Y-2.2
X7.35Y-3.
X7.35Y-3.1
X7.35Y-3.2
X7.35Y-3.7
X7.35Y-3.8
X7.35Y-3.9
X7.35Y-4.45
X7.35Y-4.55
X7.35Y-4.65
X7.375Y-5.4
X7.375Y-5.5
X7.375Y-5.6
T3
X6.975Y-5.5
X6.975Y-5.6969
X7.1719Y-5.5984
T0
M30
