M48
;DRILL file {KiCad 4.0.7} date 11/14/17 19:43:01
;FORMAT={-:-/ absolute / inch / decimal}
FMAT,2
INCH,TZ
T1C0.025
T2C0.031
T3C0.039
T4C0.051
%
G90
G05
M72
T1
X5.9994Y-2.3002
X6.3471Y-3.3651
T2
X5.5Y-2.1213
X5.5Y-2.2
X5.5Y-2.7213
X5.5Y-2.8
X5.7Y-2.1016
X5.7Y-2.2
X5.7Y-2.7016
X5.7Y-2.8
X5.75Y-4.15
X5.85Y-4.15
X5.9Y-3.15
X5.9Y-3.55
X5.95Y-4.15
X6.05Y-4.15
X6.15Y-4.15
X6.25Y-2.7213
X6.25Y-2.8
X6.45Y-2.7016
X6.45Y-2.8
X6.55Y-4.15
X6.55Y-4.55
X6.65Y-4.15
X6.65Y-4.55
X6.7Y-2.3713
X6.7Y-2.45
X6.75Y-3.15
X6.75Y-3.55
X6.75Y-4.15
X6.75Y-4.55
X6.85Y-4.15
X6.85Y-4.55
X6.9Y-2.3516
X6.9Y-2.45
X6.95Y-4.15
X6.95Y-4.55
X7.05Y-4.15
X7.05Y-4.55
X7.1Y-2.1
X7.1Y-2.1984
X7.1Y-2.3713
X7.1Y-2.45
X8.2Y-2.1213
X8.2Y-2.2
X8.2016Y-3.25
X8.2016Y-5.05
X8.25Y-3.0213
X8.25Y-3.1
X8.25Y-4.8213
X8.25Y-4.9
X8.3Y-3.25
X8.3Y-5.05
X8.4Y-2.1
X8.4Y-2.1984
X8.9Y-3.05
X8.9Y-3.15
X8.9Y-3.25
X8.9Y-3.35
X8.9Y-3.45
X8.9Y-3.55
X8.9Y-3.65
X8.9Y-4.05
X8.9Y-4.15
X8.9Y-4.25
X8.9Y-4.35
X8.9Y-4.45
X8.9Y-4.55
X8.9Y-4.65
X8.9Y-5.45
X8.9Y-5.55
X8.9Y-5.65
X8.9Y-5.75
X9.2Y-3.05
X9.2Y-3.15
X9.2Y-3.25
X9.2Y-3.35
X9.2Y-3.45
X9.2Y-3.55
X9.2Y-3.65
X9.2Y-4.05
X9.2Y-4.15
X9.2Y-4.25
X9.2Y-4.35
X9.2Y-4.45
X9.2Y-4.55
X9.2Y-4.65
X9.2Y-5.45
X9.2Y-5.55
X9.2Y-5.65
X9.2Y-5.75
X9.45Y-3.
X9.45Y-3.1
X9.45Y-3.2
X9.45Y-3.3
X9.45Y-3.4
X9.45Y-3.5
X9.45Y-3.6
X9.45Y-3.7
X9.45Y-4.
X9.45Y-4.1
X9.45Y-4.2
X9.45Y-4.3
X9.45Y-4.4
X9.45Y-4.5
X9.45Y-4.6
X9.45Y-4.7
T3
X5.6Y-3.05
X5.6Y-3.15
X5.6Y-3.25
X5.6Y-3.35
X5.6Y-3.45
X5.6Y-3.55
X5.6Y-3.65
X5.6Y-3.75
X5.6Y-3.85
X5.6Y-3.95
X5.9Y-2.1
X5.9Y-2.2
X6.Y-2.1
X6.Y-2.2
X6.1Y-2.1
X6.1Y-2.2
X6.2Y-2.1
X6.2Y-2.2
X6.3Y-2.1
X6.3Y-2.2
X6.45Y-3.05
X6.45Y-3.15
X6.45Y-3.25
X6.45Y-3.35
X6.45Y-3.45
X6.45Y-3.55
X6.45Y-3.65
X6.45Y-3.75
X6.45Y-3.85
X6.45Y-3.95
X6.5Y-2.1
X6.5Y-2.2
X6.6Y-2.1
X6.6Y-2.2
X6.7Y-2.1
X6.7Y-2.2
X6.8Y-2.1
X6.8Y-2.2
X6.9Y-2.1
X6.9Y-2.2
X8.25Y-2.6
X8.25Y-2.7
X8.25Y-3.5
X8.25Y-3.6
X8.25Y-4.4
X8.25Y-4.5
X8.25Y-5.3
X8.25Y-5.4
X8.45Y-2.6
X8.45Y-2.7
X8.45Y-2.8
X8.45Y-2.9
X8.45Y-3.5
X8.45Y-3.6
X8.45Y-3.7
X8.45Y-3.8
X8.45Y-4.4
X8.45Y-4.5
X8.45Y-4.6
X8.45Y-4.7
X8.45Y-5.3
X8.45Y-5.4
X8.45Y-5.5
X8.45Y-5.6
X8.6Y-2.1
X8.6Y-2.2
X8.7Y-2.1
X8.7Y-2.2
X8.8Y-2.1
X8.8Y-2.2
X8.9Y-2.1
X8.9Y-2.2
X8.9Y-4.9
X8.9Y-5.
X8.9Y-5.1
X8.9Y-5.2
X9.Y-2.1
X9.Y-2.2
X9.Y-4.9
X9.Y-5.
X9.Y-5.1
X9.Y-5.2
X9.1Y-4.9
X9.1Y-5.
X9.1Y-5.1
X9.1Y-5.2
X9.2Y-4.9
X9.2Y-5.
X9.2Y-5.1
X9.2Y-5.2
X9.3Y-4.9
X9.3Y-5.
X9.3Y-5.1
X9.3Y-5.2
X9.4Y-4.9
X9.4Y-5.
X9.4Y-5.1
X9.4Y-5.2
X9.8Y-3.
X9.8Y-3.1
X9.8Y-3.2
X9.8Y-3.6
X9.8Y-3.7
X9.8Y-3.8
X9.8Y-4.2
X9.8Y-4.3
X9.8Y-4.4
X9.8Y-4.8
X9.8Y-4.9
X9.8Y-5.
T4
X9.45Y-5.5031
X9.45Y-5.7
X9.6469Y-5.6016
T0
M30
